G04*
G04 #@! TF.GenerationSoftware,Altium Limited,Altium Designer,24.5.2 (23)*
G04*
G04 Layer_Physical_Order=2*
G04 Layer_Color=16711680*
%FSLAX44Y44*%
%MOMM*%
G71*
G04*
G04 #@! TF.SameCoordinates,91BA8B22-162D-4FD0-A550-99D68B665C59*
G04*
G04*
G04 #@! TF.FilePolarity,Positive*
G04*
G01*
G75*
%ADD10C,0.2000*%
%ADD22C,0.8000*%
%ADD23C,0.5500*%
%ADD24C,5.5000*%
%ADD25C,0.5000*%
%ADD26R,0.3500X1.9500*%
%ADD27C,0.3500*%
G36*
X455001Y799999D02*
Y799999D01*
X455995Y799999D01*
X457832Y799238D01*
X459239Y797832D01*
X460000Y795995D01*
X460000Y795000D01*
X460000Y41999D01*
Y41601D01*
X459695Y40867D01*
X459133Y40304D01*
X458398Y40000D01*
X454501D01*
X454500Y40000D01*
X453525Y39904D01*
X451722Y39158D01*
X450343Y37779D01*
X449595Y35977D01*
X449499Y35001D01*
Y28999D01*
X448118D01*
X446848Y30269D01*
Y219250D01*
X446460Y221201D01*
X445355Y222855D01*
X443701Y223960D01*
X441750Y224348D01*
X433250D01*
X431299Y223960D01*
X429645Y222855D01*
X428540Y221201D01*
X428152Y219250D01*
Y29000D01*
X428151Y28999D01*
X423118D01*
X421848Y30269D01*
Y219250D01*
X421460Y221201D01*
X420355Y222855D01*
X418701Y223960D01*
X416750Y224348D01*
X398250D01*
X396299Y223960D01*
X394645Y222855D01*
X393540Y221201D01*
X393152Y219250D01*
Y29000D01*
X393151Y28999D01*
X322549Y28999D01*
Y134250D01*
X322355Y135225D01*
X321802Y136052D01*
X300802Y157052D01*
X299975Y157605D01*
X299000Y157799D01*
X203358D01*
X203134Y158134D01*
X201811Y159018D01*
X200250Y159328D01*
X198689Y159018D01*
X197366Y158134D01*
X196482Y156811D01*
X196172Y155250D01*
X196443Y153886D01*
X196007Y153206D01*
X195573Y152764D01*
X195250Y152828D01*
X193689Y152518D01*
X192366Y151634D01*
X191482Y150311D01*
X191172Y148750D01*
X191443Y147386D01*
X191007Y146706D01*
X190573Y146264D01*
X190250Y146328D01*
X188689Y146018D01*
X187366Y145134D01*
X186482Y143811D01*
X186172Y142250D01*
X186482Y140689D01*
X187366Y139366D01*
X188689Y138482D01*
X190250Y138172D01*
X191811Y138482D01*
X193134Y139366D01*
X193358Y139701D01*
X292444D01*
X307451Y124694D01*
Y28999D01*
X294749D01*
X294634Y30170D01*
X293739Y32333D01*
X292084Y33989D01*
X289942Y34877D01*
X289921Y34886D01*
X288750Y35001D01*
X288750Y35001D01*
X287580Y34885D01*
X285417Y33989D01*
X283762Y32334D01*
X282866Y30171D01*
X282751Y29000D01*
Y28999D01*
X276847D01*
Y80387D01*
X300105Y103645D01*
X301210Y105299D01*
X301598Y107250D01*
Y124250D01*
X301210Y126201D01*
X300105Y127855D01*
X298451Y128960D01*
X296500Y129348D01*
X278472D01*
X276521Y128960D01*
X274867Y127855D01*
X273762Y126201D01*
X273374Y124250D01*
Y111334D01*
X254644Y92604D01*
X253539Y90950D01*
X253151Y88999D01*
Y28999D01*
X250500D01*
Y35001D01*
X250500D01*
X250500Y35001D01*
X250500Y35002D01*
X250404Y35977D01*
X250326Y36165D01*
X249657Y37779D01*
X248277Y39158D01*
X246475Y39904D01*
X245499Y40000D01*
X214501Y40000D01*
X214500Y40000D01*
X213525Y39904D01*
X211722Y39158D01*
X210343Y37779D01*
X209596Y35977D01*
X209499Y35001D01*
Y28999D01*
X54749Y28999D01*
X54634Y30170D01*
X53739Y32333D01*
X52084Y33989D01*
X49942Y34877D01*
X49921Y34886D01*
X48750Y35001D01*
X48750Y35001D01*
X47580Y34885D01*
X45417Y33989D01*
X43762Y32334D01*
X42866Y30171D01*
X42751Y29000D01*
Y28999D01*
X10500D01*
Y35001D01*
X10500D01*
X10500Y35001D01*
X10500Y35002D01*
X10404Y35977D01*
X10326Y36165D01*
X9657Y37779D01*
X8277Y39158D01*
X6475Y39904D01*
X5499Y40000D01*
X1601Y40000D01*
X867Y40304D01*
X304Y40867D01*
X0Y41601D01*
Y41999D01*
Y795001D01*
Y795995D01*
X761Y797833D01*
X2167Y799239D01*
X4004Y799999D01*
X4999Y799999D01*
X92500Y800000D01*
X92584Y798285D01*
X93254Y794920D01*
X94566Y791750D01*
X96472Y788898D01*
X98898Y786472D01*
X101750Y784566D01*
X104920Y783254D01*
X108285Y782584D01*
X111715D01*
X115080Y783254D01*
X118249Y784566D01*
X121102Y786472D01*
X123528Y788898D01*
X125434Y791750D01*
X126746Y794920D01*
X127416Y798285D01*
X127500Y800000D01*
X230418Y799999D01*
X332500Y800000D01*
X332584Y798285D01*
X333254Y794920D01*
X334566Y791750D01*
X336472Y788898D01*
X338898Y786472D01*
X341750Y784566D01*
X344920Y783254D01*
X348285Y782584D01*
X351715D01*
X355080Y783254D01*
X358249Y784566D01*
X361102Y786472D01*
X363528Y788898D01*
X365434Y791750D01*
X366746Y794920D01*
X367416Y798285D01*
X367500Y800000D01*
X455001Y799999D01*
D02*
G37*
G36*
X441750Y29000D02*
X433250D01*
Y219250D01*
X441750D01*
Y29000D01*
D02*
G37*
G36*
X416750D02*
X398250D01*
Y219250D01*
X416750D01*
Y29000D01*
D02*
G37*
G36*
X296500Y107250D02*
X271749Y82499D01*
Y28750D01*
X258249D01*
Y88999D01*
X278472Y109222D01*
Y124250D01*
X296500D01*
Y107250D01*
D02*
G37*
%LPC*%
G36*
X330000Y153560D02*
X328173Y153319D01*
X326470Y152614D01*
X325008Y151492D01*
X323886Y150030D01*
X323180Y148327D01*
X322940Y146500D01*
X323180Y144672D01*
X323886Y142969D01*
X325008Y141507D01*
X326470Y140385D01*
X328173Y139680D01*
X330000Y139439D01*
X331827Y139680D01*
X333530Y140385D01*
X334992Y141507D01*
X336115Y142969D01*
X336820Y144672D01*
X337060Y146500D01*
X336820Y148327D01*
X336115Y150030D01*
X334992Y151492D01*
X333530Y152614D01*
X331827Y153319D01*
X330000Y153560D01*
D02*
G37*
G36*
X130000Y156081D02*
X127521Y155755D01*
X125210Y154798D01*
X123225Y153275D01*
X121702Y151291D01*
X120745Y148980D01*
X120419Y146500D01*
X120745Y144020D01*
X121702Y141709D01*
X123225Y139724D01*
X125210Y138201D01*
X127521Y137244D01*
X130000Y136918D01*
X132480Y137244D01*
X134791Y138201D01*
X136776Y139724D01*
X138299Y141709D01*
X139256Y144020D01*
X139582Y146500D01*
X139256Y148980D01*
X138299Y151291D01*
X136776Y153275D01*
X134791Y154798D01*
X132480Y155755D01*
X130000Y156081D01*
D02*
G37*
G36*
X237654Y135175D02*
X236093Y134864D01*
X234770Y133980D01*
X233886Y132657D01*
X233575Y131096D01*
X233848Y129726D01*
X233392Y128974D01*
X233018Y128549D01*
X169621D01*
X168646Y128355D01*
X167819Y127802D01*
X107495Y67478D01*
X107061Y67768D01*
X105500Y68078D01*
X103939Y67768D01*
X102616Y66884D01*
X101732Y65561D01*
X101422Y64000D01*
X101732Y62439D01*
X102616Y61116D01*
X103939Y60232D01*
X105500Y59922D01*
X106018Y59404D01*
X106328Y57843D01*
X107212Y56520D01*
X108535Y55636D01*
X110096Y55325D01*
X111657Y55636D01*
X112980Y56520D01*
X113864Y57843D01*
X114174Y59404D01*
X113864Y60964D01*
X113574Y61398D01*
X155963Y103787D01*
X155963Y103787D01*
X169838Y117662D01*
X172127Y119951D01*
X236129D01*
X237104Y120145D01*
X237931Y120698D01*
X240256Y123022D01*
X240689Y122732D01*
X242250Y122422D01*
X243811Y122732D01*
X245134Y123616D01*
X246018Y124939D01*
X246328Y126500D01*
X246018Y128061D01*
X245134Y129384D01*
X243811Y130268D01*
X242898Y130449D01*
X242065Y130911D01*
X241603Y131745D01*
X241422Y132657D01*
X240538Y133980D01*
X239215Y134864D01*
X237654Y135175D01*
D02*
G37*
G36*
X253154Y121924D02*
X251593Y121614D01*
X250270Y120730D01*
X249386Y119407D01*
X249076Y117846D01*
X249280Y116819D01*
X248564Y115701D01*
X248351Y115549D01*
X183679D01*
X182703Y115355D01*
X181877Y114802D01*
X128898Y61824D01*
X128464Y62114D01*
X126904Y62425D01*
X125343Y62114D01*
X124020Y61230D01*
X123136Y59907D01*
X122825Y58346D01*
X123136Y56785D01*
X124020Y55462D01*
X125343Y54578D01*
X126255Y54397D01*
X127422Y53750D01*
X127732Y52189D01*
X128616Y50866D01*
X129939Y49982D01*
X131500Y49672D01*
X133061Y49982D01*
X134384Y50866D01*
X135268Y52189D01*
X135578Y53750D01*
X135268Y55311D01*
X134978Y55745D01*
X186185Y106951D01*
X251879D01*
X252854Y107145D01*
X253681Y107698D01*
X255755Y109772D01*
X256189Y109482D01*
X257750Y109172D01*
X259311Y109482D01*
X260634Y110366D01*
X261518Y111689D01*
X261828Y113250D01*
X261518Y114811D01*
X260634Y116134D01*
X259311Y117018D01*
X258398Y117199D01*
X257565Y117661D01*
X257103Y118495D01*
X256922Y119407D01*
X256038Y120730D01*
X254715Y121614D01*
X253154Y121924D01*
D02*
G37*
%LPD*%
D10*
X296000Y148750D02*
X314999Y129751D01*
Y15250D02*
Y129751D01*
X195250Y148750D02*
X296000D01*
X299000Y155250D02*
X320000Y134250D01*
X200250Y155250D02*
X299000D01*
X320000Y15250D02*
Y134250D01*
X310000Y15250D02*
Y125750D01*
X190250Y142250D02*
X293500D01*
X310000Y125750D01*
X260000Y30750D02*
X260000Y30750D01*
X132074Y56445D02*
X185129Y109500D01*
X129599Y58920D02*
X183679Y113000D01*
X154160Y105590D02*
X168036Y119465D01*
X169621Y126000D02*
X234679D01*
X168036Y119465D02*
X171071Y122500D01*
X108195Y64574D02*
X169621Y126000D01*
X171071Y122500D02*
X236129D01*
X183679Y113000D02*
X250429D01*
X185129Y109500D02*
X251879D01*
X110670Y62099D02*
X154160Y105590D01*
X236129Y122500D02*
X239555Y125926D01*
X241676D02*
X242250Y126500D01*
X234679Y126000D02*
X237080Y128401D01*
Y130522D01*
X239555Y125926D02*
X241676D01*
X237080Y130522D02*
X237654Y131096D01*
X252580Y117272D02*
X253154Y117846D01*
X250429Y113000D02*
X252580Y115151D01*
X251879Y109500D02*
X255055Y112676D01*
X257176D02*
X257750Y113250D01*
X252580Y115151D02*
Y117272D01*
X255055Y112676D02*
X257176D01*
X105500Y64000D02*
X106074Y64574D01*
X108195D01*
X110670Y59978D02*
Y62099D01*
X110096Y59404D02*
X110670Y59978D01*
D22*
X130000Y146500D02*
D03*
D23*
X330000D02*
D03*
D24*
X230000Y548500D02*
D03*
Y728500D02*
D03*
Y428500D02*
D03*
D25*
X425000Y130000D02*
D03*
Y90000D02*
D03*
Y32500D02*
D03*
X389500D02*
D03*
X281250Y39250D02*
D03*
X173500Y75750D02*
D03*
X189500Y56000D02*
D03*
X159750D02*
D03*
X328500Y56250D02*
D03*
X437500Y194500D02*
D03*
Y184500D02*
D03*
Y204500D02*
D03*
Y214500D02*
D03*
X412500D02*
D03*
X402500D02*
D03*
X412500Y204500D02*
D03*
X402500D02*
D03*
Y184500D02*
D03*
X412500D02*
D03*
X402500Y194500D02*
D03*
X412500D02*
D03*
X292500Y120750D02*
D03*
X282500D02*
D03*
X292500Y110750D02*
D03*
X282500D02*
D03*
X287500Y82000D02*
D03*
X190250Y142250D02*
D03*
X200250Y155250D02*
D03*
X195250Y148750D02*
D03*
X210000Y510000D02*
D03*
X250000D02*
D03*
X170000Y430000D02*
D03*
X130000D02*
D03*
X90000Y430000D02*
D03*
X50000D02*
D03*
X170000Y470000D02*
D03*
X130000D02*
D03*
X90000Y470000D02*
D03*
X50000D02*
D03*
X170000Y510000D02*
D03*
X130000D02*
D03*
X90000Y510000D02*
D03*
X50000D02*
D03*
X250000Y390000D02*
D03*
X210000D02*
D03*
X141750Y121250D02*
D03*
X302500Y82000D02*
D03*
X227500D02*
D03*
X242500D02*
D03*
X197500Y80000D02*
D03*
X212500D02*
D03*
X370000Y70000D02*
D03*
Y110000D02*
D03*
Y150000D02*
D03*
X90000Y110000D02*
D03*
X210000Y230000D02*
D03*
X229404Y133346D02*
D03*
X124654Y66596D02*
D03*
X139750Y51500D02*
D03*
X112346Y51154D02*
D03*
X97250Y66250D02*
D03*
X266000Y111000D02*
D03*
X250904Y126096D02*
D03*
X244500Y118250D02*
D03*
X253154Y117846D02*
D03*
X242250Y126500D02*
D03*
X237654Y131096D02*
D03*
X257750Y113250D02*
D03*
X131500Y53750D02*
D03*
X126904Y58346D02*
D03*
X105500Y64000D02*
D03*
X110096Y59404D02*
D03*
X302500Y32500D02*
D03*
X332501D02*
D03*
X250000Y790000D02*
D03*
X210000D02*
D03*
X170000D02*
D03*
X290000D02*
D03*
X410000D02*
D03*
X450000D02*
D03*
X10000Y790000D02*
D03*
X50000D02*
D03*
Y750000D02*
D03*
X90000D02*
D03*
X10000D02*
D03*
X50000Y710000D02*
D03*
X90000D02*
D03*
X10000D02*
D03*
X50000Y670000D02*
D03*
X90000D02*
D03*
X10000D02*
D03*
X50000Y630000D02*
D03*
X90000D02*
D03*
X10000D02*
D03*
X50000Y590000D02*
D03*
X90000D02*
D03*
X10000D02*
D03*
X50000Y550000D02*
D03*
X90000D02*
D03*
X10000D02*
D03*
Y510000D02*
D03*
Y470000D02*
D03*
Y430000D02*
D03*
X50000Y390000D02*
D03*
X90000D02*
D03*
X10000D02*
D03*
X50000Y350000D02*
D03*
X90000D02*
D03*
X10000D02*
D03*
X50000Y310000D02*
D03*
X90000D02*
D03*
X10000D02*
D03*
X50000Y270000D02*
D03*
X90000D02*
D03*
X10000D02*
D03*
X50000Y230000D02*
D03*
X90000D02*
D03*
X10000D02*
D03*
X370000Y470000D02*
D03*
X330000D02*
D03*
X290000D02*
D03*
X410000Y390000D02*
D03*
X370000D02*
D03*
X330000D02*
D03*
X290000D02*
D03*
X410000Y470000D02*
D03*
Y510000D02*
D03*
X450000D02*
D03*
Y470000D02*
D03*
X410000Y550000D02*
D03*
Y590000D02*
D03*
X450000D02*
D03*
Y550000D02*
D03*
X410000Y630000D02*
D03*
Y670000D02*
D03*
X450000D02*
D03*
Y630000D02*
D03*
Y710000D02*
D03*
Y750000D02*
D03*
X410000D02*
D03*
Y710000D02*
D03*
X370000D02*
D03*
X330000Y750000D02*
D03*
X290000D02*
D03*
Y710000D02*
D03*
Y430000D02*
D03*
X330000D02*
D03*
X370000D02*
D03*
X410000D02*
D03*
X210000Y470000D02*
D03*
X250000D02*
D03*
X250000Y630000D02*
D03*
Y590000D02*
D03*
Y670000D02*
D03*
X210000Y630000D02*
D03*
Y590000D02*
D03*
Y670000D02*
D03*
X130000Y670000D02*
D03*
X170000D02*
D03*
X130000Y710000D02*
D03*
X170000D02*
D03*
X130000Y750000D02*
D03*
X170000D02*
D03*
X130000Y550000D02*
D03*
X170000D02*
D03*
X130000Y590000D02*
D03*
X170000D02*
D03*
X130000Y630000D02*
D03*
X170000D02*
D03*
X130000Y390000D02*
D03*
X170000D02*
D03*
X250000Y350000D02*
D03*
X210000D02*
D03*
X170000D02*
D03*
X130000D02*
D03*
X250000Y310000D02*
D03*
X210000D02*
D03*
X170000D02*
D03*
X130000D02*
D03*
X250000Y270000D02*
D03*
X210000D02*
D03*
X170000D02*
D03*
X130000D02*
D03*
Y230000D02*
D03*
X170000D02*
D03*
X250000D02*
D03*
X377500Y32500D02*
D03*
X362500D02*
D03*
X347500D02*
D03*
X22500D02*
D03*
X62500D02*
D03*
X197250D02*
D03*
X182500D02*
D03*
X167500D02*
D03*
X152500D02*
D03*
X137500D02*
D03*
X122500D02*
D03*
X50000Y70000D02*
D03*
X10000D02*
D03*
X450000D02*
D03*
X50000Y110000D02*
D03*
X10000D02*
D03*
X450000D02*
D03*
X50000Y150000D02*
D03*
X90000D02*
D03*
X10000D02*
D03*
X450000D02*
D03*
Y190000D02*
D03*
X10000D02*
D03*
X90000D02*
D03*
X50000D02*
D03*
X350000Y775250D02*
D03*
X367501Y782499D02*
D03*
X332499Y782499D02*
D03*
X110000Y775250D02*
D03*
X127501Y782499D02*
D03*
X92499Y782499D02*
D03*
D26*
X440000Y15250D02*
D03*
X435001D02*
D03*
X430000D02*
D03*
X425001D02*
D03*
X420000D02*
D03*
X415001D02*
D03*
X410000D02*
D03*
X405001D02*
D03*
X400000D02*
D03*
X395001D02*
D03*
X390000D02*
D03*
X385001D02*
D03*
X380000D02*
D03*
X375001D02*
D03*
X370000D02*
D03*
X365001D02*
D03*
X360000D02*
D03*
X355001D02*
D03*
X350000D02*
D03*
X344999D02*
D03*
X340000D02*
D03*
X334999D02*
D03*
X330000D02*
D03*
X324999D02*
D03*
X320000D02*
D03*
X314999D02*
D03*
X310000D02*
D03*
X304999D02*
D03*
X300000D02*
D03*
X274999D02*
D03*
X270000D02*
D03*
X264999D02*
D03*
X260000D02*
D03*
X200000D02*
D03*
X195001D02*
D03*
X190000D02*
D03*
X185001D02*
D03*
X180000D02*
D03*
X175001D02*
D03*
X170000D02*
D03*
X165001D02*
D03*
X160000D02*
D03*
X155001D02*
D03*
X150000D02*
D03*
X145001D02*
D03*
X140000D02*
D03*
X135001D02*
D03*
X130000D02*
D03*
X125001D02*
D03*
X120000D02*
D03*
X115001D02*
D03*
X110000D02*
D03*
X104999D02*
D03*
X100000D02*
D03*
X94999D02*
D03*
X90000D02*
D03*
X84999D02*
D03*
X80000D02*
D03*
X74999D02*
D03*
X70000D02*
D03*
X64999D02*
D03*
X60000D02*
D03*
X34999D02*
D03*
X30000D02*
D03*
X24999D02*
D03*
X20000D02*
D03*
D27*
X440000D02*
Y30750D01*
X435001Y15250D02*
Y30750D01*
X415001Y15250D02*
Y30750D01*
X410000Y15250D02*
Y30750D01*
X405001Y15250D02*
Y30750D01*
X400000Y15250D02*
Y30750D01*
X270000Y15250D02*
Y30750D01*
X264999Y15250D02*
Y30750D01*
X260000Y15250D02*
Y30750D01*
M02*
