G04*
G04 #@! TF.GenerationSoftware,Altium Limited,Altium Designer,24.5.2 (23)*
G04*
G04 Layer_Color=16711935*
%FSLAX44Y44*%
%MOMM*%
G71*
G04*
G04 #@! TF.SameCoordinates,91BA8B22-162D-4FD0-A550-99D68B665C59*
G04*
G04*
G04 #@! TF.FilePolarity,Negative*
G04*
G01*
G75*
%ADD19C,1.0032*%
%ADD20C,0.7532*%
%ADD21C,5.7032*%
%ADD26R,0.3500X1.9500*%
%ADD28R,15.4500X2.5000*%
%ADD29R,3.2000X2.5000*%
G36*
X138500Y800000D02*
X138500Y797757D01*
X137798Y793326D01*
X136412Y789060D01*
X134375Y785063D01*
X131739Y781433D01*
X128567Y778261D01*
X124937Y775624D01*
X120940Y773588D01*
X116674Y772202D01*
X112243Y771500D01*
X107757Y771500D01*
X103326Y772202D01*
X99060Y773588D01*
X95063Y775624D01*
X91433Y778261D01*
X88261Y781433D01*
X85625Y785063D01*
X83588Y789060D01*
X82202Y793326D01*
X81500Y797757D01*
X81500Y800000D01*
X81500Y800000D01*
X92500Y800000D01*
X92584Y798285D01*
X93253Y794920D01*
X94566Y791750D01*
X96472Y788898D01*
X98898Y786472D01*
X101751Y784566D01*
X104920Y783253D01*
X108285Y782584D01*
X111715Y782584D01*
X115080Y783253D01*
X118250Y784566D01*
X121102Y786472D01*
X123528Y788898D01*
X125434Y791751D01*
X126747Y794920D01*
X127416Y798285D01*
X127500Y800000D01*
X127500Y800000D01*
X138500Y800000D01*
D02*
G37*
G36*
X378500D02*
X378500Y797757D01*
X377798Y793326D01*
X376412Y789060D01*
X374375Y785063D01*
X371739Y781433D01*
X368567Y778261D01*
X364937Y775624D01*
X360940Y773588D01*
X356674Y772202D01*
X352243Y771500D01*
X347757Y771500D01*
X343326Y772202D01*
X339060Y773588D01*
X335063Y775624D01*
X331433Y778261D01*
X328261Y781433D01*
X325625Y785063D01*
X323588Y789060D01*
X322202Y793326D01*
X321500Y797757D01*
X321500Y800000D01*
X321500Y800000D01*
X332500Y800000D01*
X332584Y798285D01*
X333254Y794920D01*
X334566Y791750D01*
X336472Y788898D01*
X338898Y786472D01*
X341751Y784566D01*
X344920Y783253D01*
X348285Y782584D01*
X351716Y782584D01*
X355080Y783253D01*
X358250Y784566D01*
X361102Y786472D01*
X363528Y788898D01*
X365434Y791751D01*
X366747Y794920D01*
X367416Y798285D01*
X367500Y800000D01*
X367500Y800000D01*
X378500Y800000D01*
D02*
G37*
D19*
X130000Y146500D02*
D03*
D20*
X330000D02*
D03*
D21*
X230000Y548500D02*
D03*
Y728500D02*
D03*
Y428500D02*
D03*
D26*
X440000Y15250D02*
D03*
X435001D02*
D03*
X430000D02*
D03*
X425001D02*
D03*
X420000D02*
D03*
X415001D02*
D03*
X410000D02*
D03*
X405001D02*
D03*
X400000D02*
D03*
X395001D02*
D03*
X390000D02*
D03*
X385001D02*
D03*
X380000D02*
D03*
X375001D02*
D03*
X370000D02*
D03*
X365001D02*
D03*
X360000D02*
D03*
X355001D02*
D03*
X350000D02*
D03*
X344999D02*
D03*
X340000D02*
D03*
X334999D02*
D03*
X330000D02*
D03*
X324999D02*
D03*
X320000D02*
D03*
X314999D02*
D03*
X310000D02*
D03*
X304999D02*
D03*
X300000D02*
D03*
X274999D02*
D03*
X270000D02*
D03*
X264999D02*
D03*
X260000D02*
D03*
X200000D02*
D03*
X195001D02*
D03*
X190000D02*
D03*
X185001D02*
D03*
X180000D02*
D03*
X175001D02*
D03*
X170000D02*
D03*
X165001D02*
D03*
X160000D02*
D03*
X155001D02*
D03*
X150000D02*
D03*
X145001D02*
D03*
X140000D02*
D03*
X135001D02*
D03*
X130000D02*
D03*
X125001D02*
D03*
X120000D02*
D03*
X115001D02*
D03*
X110000D02*
D03*
X104999D02*
D03*
X100000D02*
D03*
X94999D02*
D03*
X90000D02*
D03*
X84999D02*
D03*
X80000D02*
D03*
X74999D02*
D03*
X70000D02*
D03*
X64999D02*
D03*
X60000D02*
D03*
X34999D02*
D03*
X30000D02*
D03*
X24999D02*
D03*
X20000D02*
D03*
D28*
X372000Y12500D02*
D03*
X132000D02*
D03*
D29*
X266750Y12500D02*
D03*
X26750Y12500D02*
D03*
M02*
