G04*
G04 #@! TF.GenerationSoftware,Altium Limited,Altium Designer,24.5.2 (23)*
G04*
G04 Layer_Color=65535*
%FSLAX44Y44*%
%MOMM*%
G71*
G04*
G04 #@! TF.SameCoordinates,91BA8B22-162D-4FD0-A550-99D68B665C59*
G04*
G04*
G04 #@! TF.FilePolarity,Positive*
G04*
G01*
G75*
%ADD10C,0.2000*%
%ADD11C,0.2540*%
G36*
X424532Y763939D02*
X425173D01*
Y763298D01*
X425813D01*
Y762016D01*
X426454D01*
Y758171D01*
X425813D01*
Y756890D01*
X425173D01*
Y756249D01*
X424532D01*
Y755608D01*
X422609D01*
Y754967D01*
X418123D01*
Y755608D01*
X416842D01*
Y756249D01*
X415560D01*
Y757530D01*
X414919D01*
Y758171D01*
X414278D01*
Y761375D01*
X414919D01*
Y762657D01*
X415560D01*
Y763298D01*
X416201D01*
Y763939D01*
X416842D01*
Y764579D01*
X421328D01*
Y757530D01*
X421968D01*
Y758171D01*
X423250D01*
Y758812D01*
X423891D01*
Y761375D01*
X423250D01*
Y763939D01*
X423891D01*
Y764579D01*
X424532D01*
Y763939D01*
D02*
G37*
G36*
X425173Y753045D02*
X425813D01*
Y752404D01*
X426454D01*
Y748559D01*
X425813D01*
Y747277D01*
X425173D01*
Y746636D01*
X424532D01*
Y745996D01*
X423250D01*
Y745355D01*
X417483D01*
Y745996D01*
X416201D01*
Y746636D01*
X415560D01*
Y747277D01*
X414919D01*
Y748559D01*
X414278D01*
Y751763D01*
X414919D01*
Y753045D01*
X415560D01*
Y754326D01*
X417483D01*
Y753686D01*
Y753045D01*
X418123D01*
Y752404D01*
X417483D01*
Y751122D01*
X416842D01*
Y749200D01*
X417483D01*
Y748559D01*
X418123D01*
Y747918D01*
X422609D01*
Y748559D01*
X423250D01*
Y749200D01*
X423891D01*
Y751122D01*
X423250D01*
Y752404D01*
X422609D01*
Y753045D01*
X423250D01*
Y754326D01*
X425173D01*
Y753045D01*
D02*
G37*
G36*
X439271Y751763D02*
X439911D01*
Y745355D01*
X441193D01*
Y745996D01*
X441834D01*
Y749200D01*
X441193D01*
Y751122D01*
X441834D01*
Y751763D01*
X443116D01*
Y751122D01*
X443756D01*
Y750481D01*
X444397D01*
Y745355D01*
X443756D01*
Y744073D01*
X443116D01*
Y743432D01*
X441834D01*
Y742791D01*
X435426D01*
Y743432D01*
X434144D01*
Y744073D01*
X433503D01*
Y745355D01*
X432862D01*
Y747277D01*
X432222D01*
Y747918D01*
X432862D01*
Y749840D01*
X433503D01*
Y750481D01*
X434144D01*
Y751122D01*
X434785D01*
Y751763D01*
X436067D01*
Y752404D01*
X439271D01*
Y751763D01*
D02*
G37*
G36*
X416201Y744714D02*
X416842D01*
Y744073D01*
X417483D01*
Y743432D01*
X416842D01*
Y741510D01*
X417483D01*
Y740869D01*
X418123D01*
Y740228D01*
X426454D01*
Y738947D01*
Y738306D01*
Y737665D01*
X414278D01*
Y740228D01*
X415560D01*
Y740869D01*
X414919D01*
Y741510D01*
X414278D01*
Y744073D01*
X414919D01*
Y745355D01*
X416201D01*
Y744714D01*
D02*
G37*
G36*
X377110Y751763D02*
X377751D01*
Y748559D01*
X378392D01*
Y745355D01*
X379033D01*
Y742151D01*
X379674D01*
Y740869D01*
X381596D01*
Y740228D01*
X382878D01*
Y739587D01*
X384800D01*
Y738947D01*
X386082D01*
Y738306D01*
X389286D01*
Y738947D01*
X390568D01*
Y739587D01*
X391209D01*
Y740228D01*
X392490D01*
Y740869D01*
X393131D01*
Y741510D01*
X394413D01*
Y742151D01*
X395054D01*
Y742791D01*
X396335D01*
Y743432D01*
X396976D01*
Y744073D01*
X397617D01*
Y743432D01*
X398258D01*
Y742791D01*
X398899D01*
Y742151D01*
X399539D01*
Y741510D01*
X400180D01*
Y740869D01*
X400821D01*
Y740228D01*
X401462D01*
Y739587D01*
X402103D01*
Y738947D01*
X402743D01*
Y738306D01*
X403384D01*
Y737665D01*
X404025D01*
Y737024D01*
X404666D01*
Y736383D01*
X405307D01*
Y735742D01*
X405948D01*
Y735101D01*
X405307D01*
Y734461D01*
X404666D01*
Y733179D01*
X404025D01*
Y732538D01*
X403384D01*
Y731256D01*
X402743D01*
Y730616D01*
X402103D01*
Y729334D01*
X401462D01*
Y728693D01*
X400821D01*
Y727411D01*
X400180D01*
Y725489D01*
X400821D01*
Y724207D01*
X401462D01*
Y722926D01*
X402103D01*
Y721644D01*
X400821D01*
Y721003D01*
X398899D01*
Y720362D01*
X397617D01*
Y719722D01*
X396335D01*
Y719081D01*
X394413D01*
Y718440D01*
X393131D01*
Y717799D01*
X391209D01*
Y717158D01*
X389927D01*
Y716517D01*
X388645D01*
Y715877D01*
X386723D01*
Y715236D01*
X385441D01*
Y714595D01*
X383519D01*
Y713954D01*
X382878D01*
Y714595D01*
X382237D01*
Y715236D01*
X381596D01*
Y715877D01*
X380955D01*
Y717158D01*
X380314D01*
Y717799D01*
X379674D01*
Y718440D01*
X379033D01*
Y719081D01*
X377751D01*
Y719722D01*
X376470D01*
Y720362D01*
X375188D01*
Y721003D01*
X367498D01*
Y720362D01*
X366216D01*
Y719722D01*
X364935D01*
Y719081D01*
X364294D01*
Y718440D01*
X363012D01*
Y717799D01*
X362371D01*
Y716517D01*
X361730D01*
Y715877D01*
X361090D01*
Y714595D01*
X360449D01*
Y712673D01*
X359808D01*
Y706264D01*
X360449D01*
Y704342D01*
X361090D01*
Y703060D01*
X361730D01*
Y702419D01*
X362371D01*
Y701778D01*
X363012D01*
Y701138D01*
X363653D01*
Y700497D01*
X364294D01*
Y699856D01*
X364935D01*
Y699215D01*
X366216D01*
Y698574D01*
X368139D01*
Y697933D01*
X374547D01*
Y698574D01*
X376470D01*
Y699215D01*
X377751D01*
Y699856D01*
X378392D01*
Y700497D01*
X379674D01*
Y701138D01*
X380314D01*
Y702419D01*
X380955D01*
Y703060D01*
X381596D01*
Y703701D01*
X382237D01*
Y704983D01*
X384160D01*
Y704342D01*
X385441D01*
Y703701D01*
X387364D01*
Y703060D01*
X388645D01*
Y702419D01*
X389927D01*
Y701778D01*
X391849D01*
Y701138D01*
X393131D01*
Y700497D01*
X395054D01*
Y699856D01*
X396335D01*
Y699215D01*
X397617D01*
Y698574D01*
X399539D01*
Y697933D01*
X400821D01*
Y697293D01*
X402103D01*
Y696011D01*
X401462D01*
Y695370D01*
X400821D01*
Y694089D01*
X400180D01*
Y691525D01*
X400821D01*
Y690244D01*
X401462D01*
Y689603D01*
X402103D01*
Y688321D01*
X402743D01*
Y687680D01*
X403384D01*
Y687039D01*
X404025D01*
Y685758D01*
X404666D01*
Y685117D01*
X405307D01*
Y683835D01*
X405948D01*
Y683194D01*
X405307D01*
Y682553D01*
X404666D01*
Y681913D01*
X404025D01*
Y681272D01*
X403384D01*
Y680631D01*
X402743D01*
Y679990D01*
X402103D01*
Y679349D01*
X401462D01*
Y678709D01*
X400821D01*
Y678068D01*
X400180D01*
Y677427D01*
X399539D01*
Y676786D01*
X398899D01*
Y676145D01*
X398258D01*
Y675504D01*
X397617D01*
Y674864D01*
X396976D01*
Y675504D01*
X396335D01*
Y676145D01*
X395054D01*
Y676786D01*
X394413D01*
Y677427D01*
X393131D01*
Y678068D01*
X392490D01*
Y678709D01*
X391849D01*
Y679349D01*
X390568D01*
Y679990D01*
X389927D01*
Y680631D01*
X388645D01*
Y681272D01*
X387364D01*
Y680631D01*
X386082D01*
Y679990D01*
X384160D01*
Y679349D01*
X382878D01*
Y678709D01*
X380955D01*
Y678068D01*
X379674D01*
Y676786D01*
X379033D01*
Y673582D01*
X378392D01*
Y670378D01*
X377751D01*
Y667174D01*
X377110D01*
Y666533D01*
X365575D01*
Y667174D01*
X364935D01*
Y670378D01*
X364294D01*
Y673582D01*
X363653D01*
Y677427D01*
X363012D01*
Y678068D01*
X362371D01*
Y678709D01*
X361090D01*
Y679349D01*
X359167D01*
Y679990D01*
X357886D01*
Y680631D01*
X356604D01*
Y681272D01*
X354041D01*
Y680631D01*
X352759D01*
Y679990D01*
X352118D01*
Y679349D01*
X351477D01*
Y678709D01*
X350196D01*
Y678068D01*
X349555D01*
Y677427D01*
X348273D01*
Y676786D01*
X347632D01*
Y676145D01*
X346351D01*
Y675504D01*
X345710D01*
Y674864D01*
X345069D01*
Y675504D01*
X344428D01*
Y676145D01*
X343787D01*
Y676786D01*
X343147D01*
Y677427D01*
X342506D01*
Y678068D01*
X341865D01*
Y678709D01*
X341224D01*
Y679349D01*
X340583D01*
Y679990D01*
X339942D01*
Y680631D01*
X339301D01*
Y681272D01*
X338661D01*
Y681913D01*
X338020D01*
Y682553D01*
X337379D01*
Y683194D01*
X336738D01*
Y683835D01*
X337379D01*
Y685117D01*
X338020D01*
Y685758D01*
X338661D01*
Y686398D01*
X339301D01*
Y687680D01*
X339942D01*
Y688321D01*
X340583D01*
Y689603D01*
X341224D01*
Y690244D01*
X341865D01*
Y691525D01*
X342506D01*
Y692166D01*
X343147D01*
Y694729D01*
X342506D01*
Y696652D01*
X341865D01*
Y697933D01*
X341224D01*
Y699215D01*
X340583D01*
Y701138D01*
X339301D01*
Y701778D01*
X336097D01*
Y702419D01*
X332252D01*
Y703060D01*
X329048D01*
Y703701D01*
X328407D01*
Y715236D01*
X329048D01*
Y715877D01*
X331612D01*
Y716517D01*
X335457D01*
Y717158D01*
X338661D01*
Y717799D01*
X340583D01*
Y719722D01*
X341224D01*
Y721003D01*
X341865D01*
Y722926D01*
X342506D01*
Y724207D01*
X343147D01*
Y726771D01*
X342506D01*
Y727411D01*
X341865D01*
Y728693D01*
X341224D01*
Y729334D01*
X340583D01*
Y730616D01*
X339942D01*
Y731256D01*
X339301D01*
Y732538D01*
X338661D01*
Y733179D01*
X338020D01*
Y734461D01*
X337379D01*
Y735101D01*
X336738D01*
Y735742D01*
X337379D01*
Y736383D01*
X338020D01*
Y737024D01*
X338661D01*
Y737665D01*
X339301D01*
Y738306D01*
X339942D01*
Y738947D01*
X340583D01*
Y739587D01*
X341224D01*
Y740228D01*
X341865D01*
Y740869D01*
X342506D01*
Y741510D01*
X343147D01*
Y742151D01*
X343787D01*
Y742791D01*
X344428D01*
Y743432D01*
X345069D01*
Y744073D01*
X345710D01*
Y743432D01*
X346992D01*
Y742791D01*
X347632D01*
Y742151D01*
X348273D01*
Y741510D01*
X349555D01*
Y740869D01*
X350196D01*
Y740228D01*
X351477D01*
Y739587D01*
X352118D01*
Y738947D01*
X353400D01*
Y738306D01*
X354041D01*
Y737665D01*
X355963D01*
Y738306D01*
X357245D01*
Y738947D01*
X359167D01*
Y739587D01*
X360449D01*
Y740228D01*
X362371D01*
Y740869D01*
X363012D01*
Y741510D01*
X363653D01*
Y745355D01*
X364294D01*
Y748559D01*
X364935D01*
Y751763D01*
X365575D01*
Y752404D01*
X377110D01*
Y751763D01*
D02*
G37*
G36*
X434144Y742151D02*
X434785D01*
Y741510D01*
X435426D01*
Y739587D01*
Y738947D01*
Y737665D01*
X444397D01*
Y734461D01*
X432862D01*
Y737665D01*
X433503D01*
Y738306D01*
X432862D01*
Y740228D01*
X432222D01*
Y740869D01*
X432862D01*
Y742151D01*
X433503D01*
Y742791D01*
X434144D01*
Y742151D01*
D02*
G37*
G36*
X426454Y732538D02*
X425813D01*
Y731256D01*
X426454D01*
Y728693D01*
X425813D01*
Y727411D01*
X425173D01*
Y726771D01*
X424532D01*
Y726130D01*
X414278D01*
Y728693D01*
X423250D01*
Y729975D01*
X423891D01*
Y731256D01*
X423250D01*
Y732538D01*
X414278D01*
Y735101D01*
X426454D01*
Y732538D01*
D02*
G37*
G36*
X444397Y729975D02*
X443756D01*
Y729334D01*
X444397D01*
Y724848D01*
X443756D01*
Y724207D01*
X443116D01*
Y723567D01*
X442475D01*
Y722926D01*
X439271D01*
Y723567D01*
X438630D01*
Y724207D01*
X437989D01*
Y725489D01*
X437348D01*
Y729975D01*
X435426D01*
Y728052D01*
X434785D01*
Y727411D01*
X435426D01*
Y724207D01*
X434785D01*
Y723567D01*
X434144D01*
Y724207D01*
X433503D01*
Y724848D01*
X432862D01*
Y727411D01*
X432222D01*
Y728052D01*
X432862D01*
Y730616D01*
X433503D01*
Y731256D01*
X434144D01*
Y731897D01*
X434785D01*
Y732538D01*
X444397D01*
Y729975D01*
D02*
G37*
G36*
X423250Y723567D02*
X424532D01*
Y722926D01*
X425173D01*
Y722285D01*
X425813D01*
Y721003D01*
X426454D01*
Y717799D01*
X425813D01*
Y716517D01*
X425173D01*
Y715877D01*
X424532D01*
Y715236D01*
X423891D01*
Y714595D01*
X416842D01*
Y715236D01*
X416201D01*
Y715877D01*
X415560D01*
Y716517D01*
X414919D01*
Y717799D01*
X414278D01*
Y721003D01*
X414919D01*
Y722285D01*
X415560D01*
Y722926D01*
X416201D01*
Y723567D01*
X417483D01*
Y724207D01*
X423250D01*
Y723567D01*
D02*
G37*
G36*
X434144Y722285D02*
X436707D01*
Y721644D01*
X438630D01*
Y721003D01*
X440552D01*
Y720362D01*
X442475D01*
Y719722D01*
X444397D01*
Y717158D01*
X443756D01*
Y716517D01*
X441193D01*
Y715877D01*
X439271D01*
Y715236D01*
X437348D01*
Y714595D01*
X438630D01*
Y713954D01*
X440552D01*
Y713313D01*
X443116D01*
Y712673D01*
X444397D01*
Y710109D01*
X443116D01*
Y709468D01*
X441193D01*
Y708828D01*
X439271D01*
Y708187D01*
X437348D01*
Y707546D01*
X435426D01*
Y706905D01*
X432862D01*
Y709468D01*
X434785D01*
Y710109D01*
X436707D01*
Y710750D01*
X439271D01*
Y712032D01*
X437348D01*
Y712673D01*
X435426D01*
Y713313D01*
X433503D01*
Y713954D01*
X432862D01*
Y715877D01*
X434144D01*
Y716517D01*
X436067D01*
Y717158D01*
X437989D01*
Y717799D01*
X439911D01*
Y718440D01*
X438630D01*
Y719081D01*
X436067D01*
Y719722D01*
X433503D01*
Y720362D01*
X432862D01*
Y722926D01*
X434144D01*
Y722285D01*
D02*
G37*
G36*
X424532Y712673D02*
X425173D01*
Y712032D01*
X425813D01*
Y710750D01*
X426454D01*
Y706905D01*
X425813D01*
Y704983D01*
X425173D01*
Y704342D01*
X424532D01*
Y703701D01*
X423250D01*
Y704342D01*
X422609D01*
Y705623D01*
X423250D01*
Y706905D01*
X423891D01*
Y710109D01*
X423250D01*
Y710750D01*
X421968D01*
Y709468D01*
X421328D01*
Y706905D01*
Y706264D01*
X420687D01*
Y704983D01*
X420046D01*
Y704342D01*
X416201D01*
Y704983D01*
X415560D01*
Y705623D01*
X414919D01*
Y706905D01*
X414278D01*
Y710109D01*
X414919D01*
Y712032D01*
X415560D01*
Y712673D01*
X416842D01*
Y712032D01*
X417483D01*
Y710109D01*
X416842D01*
Y706905D01*
X418764D01*
Y708828D01*
X419405D01*
Y712032D01*
X420046D01*
Y712673D01*
X421328D01*
Y713313D01*
X424532D01*
Y712673D01*
D02*
G37*
G36*
X444397Y703060D02*
X443756D01*
Y701778D01*
X444397D01*
Y697933D01*
X443756D01*
Y697293D01*
X443116D01*
Y696652D01*
X441834D01*
Y696011D01*
X435426D01*
Y696652D01*
X434144D01*
Y697293D01*
X433503D01*
Y697933D01*
X432862D01*
Y699856D01*
X432222D01*
Y700497D01*
X432862D01*
Y702419D01*
X433503D01*
Y703060D01*
X427736D01*
Y705623D01*
X444397D01*
Y703060D01*
D02*
G37*
G36*
X434144Y695370D02*
X435426D01*
Y691525D01*
X436067D01*
Y690884D01*
X444397D01*
Y688321D01*
X432862D01*
Y690884D01*
X433503D01*
Y691525D01*
X432862D01*
Y693448D01*
X432222D01*
Y694089D01*
X432862D01*
Y696011D01*
X434144D01*
Y695370D01*
D02*
G37*
G36*
X426454Y694729D02*
X418123D01*
Y694089D01*
X417483D01*
Y693448D01*
X416842D01*
Y691525D01*
X417483D01*
Y690884D01*
X418764D01*
Y690244D01*
X426454D01*
Y688321D01*
X425813D01*
Y687680D01*
X414919D01*
Y688321D01*
X414278D01*
Y690244D01*
X415560D01*
Y690884D01*
X414919D01*
Y692166D01*
X414278D01*
Y694729D01*
X414919D01*
Y696011D01*
X415560D01*
Y696652D01*
X416842D01*
Y697293D01*
X426454D01*
Y694729D01*
D02*
G37*
G36*
X444397Y678709D02*
X443756D01*
Y677427D01*
X443116D01*
Y676786D01*
X439271D01*
Y677427D01*
X437989D01*
Y678709D01*
X437348D01*
Y683194D01*
X435426D01*
Y681913D01*
X434785D01*
Y680631D01*
X435426D01*
Y679349D01*
X436067D01*
Y678709D01*
X435426D01*
Y678068D01*
X434785D01*
Y677427D01*
X433503D01*
Y678068D01*
X432862D01*
Y680631D01*
X432222D01*
Y681913D01*
X432862D01*
Y684476D01*
X433503D01*
Y685117D01*
X434144D01*
Y685758D01*
X436707D01*
Y686398D01*
X444397D01*
Y678709D01*
D02*
G37*
G36*
X421328Y679349D02*
X423250D01*
Y679990D01*
X423891D01*
Y683194D01*
X423250D01*
Y685117D01*
X423891D01*
Y685758D01*
X425173D01*
Y684476D01*
X425813D01*
Y683194D01*
X426454D01*
Y679990D01*
X425813D01*
Y678709D01*
X425173D01*
Y678068D01*
X424532D01*
Y677427D01*
X423891D01*
Y676786D01*
X416842D01*
Y677427D01*
X416201D01*
Y678068D01*
X415560D01*
Y678709D01*
X414919D01*
Y679990D01*
X414278D01*
Y682553D01*
X414919D01*
Y683835D01*
X415560D01*
Y685117D01*
X416842D01*
Y685758D01*
X418764D01*
Y686398D01*
X421328D01*
Y679349D01*
D02*
G37*
G36*
X444397Y672300D02*
X435426D01*
Y669096D01*
X436067D01*
Y668455D01*
X444397D01*
Y665892D01*
X414278D01*
Y667814D01*
X414919D01*
Y668455D01*
X415560D01*
Y669096D01*
X414919D01*
Y670378D01*
X414278D01*
Y672300D01*
X414919D01*
Y673582D01*
X415560D01*
Y674223D01*
X416201D01*
Y674864D01*
X424532D01*
Y674223D01*
X425173D01*
Y673582D01*
X425813D01*
Y672300D01*
X426454D01*
Y669737D01*
X425813D01*
Y668455D01*
X433503D01*
Y669096D01*
X432862D01*
Y672941D01*
X433503D01*
Y674223D01*
X434785D01*
Y674864D01*
X444397D01*
Y672300D01*
D02*
G37*
G36*
X423250Y663329D02*
X424532D01*
Y662688D01*
X425173D01*
Y662047D01*
X425813D01*
Y660765D01*
X426454D01*
Y657561D01*
X425813D01*
Y656280D01*
X425173D01*
Y655639D01*
X424532D01*
Y654998D01*
X423250D01*
Y654357D01*
X417483D01*
Y654998D01*
X416201D01*
Y655639D01*
X415560D01*
Y656280D01*
X414919D01*
Y657561D01*
X414278D01*
Y660765D01*
X414919D01*
Y662047D01*
X415560D01*
Y662688D01*
X416201D01*
Y663329D01*
X417483D01*
Y663969D01*
X423250D01*
Y663329D01*
D02*
G37*
%LPC*%
G36*
X419405Y762016D02*
X418123D01*
Y761375D01*
X417483D01*
Y760735D01*
X416842D01*
Y758812D01*
X417483D01*
Y758171D01*
X418123D01*
Y757530D01*
X419405D01*
Y762016D01*
D02*
G37*
G36*
X437348Y749840D02*
X436707D01*
Y749200D01*
X435426D01*
Y747918D01*
X434785D01*
Y747277D01*
X435426D01*
Y745996D01*
X436067D01*
Y745355D01*
X437348D01*
Y749840D01*
D02*
G37*
G36*
X375829D02*
X367498D01*
Y746636D01*
X366857D01*
Y743432D01*
X366216D01*
Y740228D01*
X365575D01*
Y739587D01*
X364935D01*
Y738947D01*
X364294D01*
Y738306D01*
X363012D01*
Y737665D01*
X361090D01*
Y737024D01*
X359808D01*
Y736383D01*
X358526D01*
Y735742D01*
X356604D01*
Y735101D01*
X354041D01*
Y735742D01*
X352759D01*
Y736383D01*
X352118D01*
Y737024D01*
X350836D01*
Y737665D01*
X350196D01*
Y738306D01*
X348914D01*
Y738947D01*
X348273D01*
Y739587D01*
X346992D01*
Y740228D01*
X346351D01*
Y740869D01*
X345710D01*
Y740228D01*
X345069D01*
Y739587D01*
X344428D01*
Y738947D01*
X343787D01*
Y738306D01*
X343147D01*
Y737665D01*
X342506D01*
Y737024D01*
X341865D01*
Y736383D01*
X341224D01*
Y735742D01*
X340583D01*
Y734461D01*
X341224D01*
Y733820D01*
X341865D01*
Y732538D01*
X342506D01*
Y731897D01*
X343147D01*
Y730616D01*
X343787D01*
Y729975D01*
X344428D01*
Y728693D01*
X345069D01*
Y728052D01*
X345710D01*
Y726771D01*
X346351D01*
Y724848D01*
X345710D01*
Y722926D01*
X345069D01*
Y721644D01*
X344428D01*
Y719722D01*
X343787D01*
Y718440D01*
X343147D01*
Y717158D01*
X342506D01*
Y715877D01*
X341865D01*
Y715236D01*
X339301D01*
Y714595D01*
X336097D01*
Y713954D01*
X332252D01*
Y713313D01*
X330971D01*
Y705623D01*
X332893D01*
Y704983D01*
X336738D01*
Y704342D01*
X339942D01*
Y703701D01*
X341865D01*
Y703060D01*
X342506D01*
Y702419D01*
X343147D01*
Y700497D01*
X343787D01*
Y699215D01*
X344428D01*
Y697293D01*
X345069D01*
Y696011D01*
X345710D01*
Y694089D01*
X346351D01*
Y692166D01*
X345710D01*
Y690884D01*
X345069D01*
Y690244D01*
X344428D01*
Y688962D01*
X343787D01*
Y688321D01*
X343147D01*
Y687680D01*
X342506D01*
Y686398D01*
X341865D01*
Y685758D01*
X341224D01*
Y684476D01*
X340583D01*
Y683194D01*
X341224D01*
Y682553D01*
X341865D01*
Y681913D01*
X342506D01*
Y681272D01*
X343147D01*
Y680631D01*
X343787D01*
Y679990D01*
X344428D01*
Y679349D01*
X345069D01*
Y678709D01*
X346992D01*
Y679349D01*
X347632D01*
Y679990D01*
X348914D01*
Y680631D01*
X349555D01*
Y681272D01*
X350836D01*
Y681913D01*
X351477D01*
Y682553D01*
X352759D01*
Y683194D01*
X353400D01*
Y683835D01*
X357245D01*
Y683194D01*
X358526D01*
Y682553D01*
X360449D01*
Y681913D01*
X361730D01*
Y681272D01*
X363012D01*
Y680631D01*
X364294D01*
Y679990D01*
X364935D01*
Y679349D01*
X365575D01*
Y678709D01*
X366216D01*
Y675504D01*
X366857D01*
Y672300D01*
X367498D01*
Y669096D01*
X375829D01*
Y672941D01*
X376470D01*
Y676145D01*
X377110D01*
Y678709D01*
X377751D01*
Y679349D01*
X378392D01*
Y679990D01*
X379033D01*
Y680631D01*
X380955D01*
Y681272D01*
X382237D01*
Y681913D01*
X384160D01*
Y682553D01*
X385441D01*
Y683194D01*
X387364D01*
Y683835D01*
X389286D01*
Y683194D01*
X390568D01*
Y682553D01*
X391849D01*
Y681913D01*
X392490D01*
Y681272D01*
X393772D01*
Y680631D01*
X394413D01*
Y679990D01*
X395694D01*
Y679349D01*
X396335D01*
Y678709D01*
X396976D01*
Y678068D01*
X397617D01*
Y678709D01*
X398258D01*
Y679349D01*
X398899D01*
Y679990D01*
X399539D01*
Y680631D01*
X400180D01*
Y681272D01*
X400821D01*
Y681913D01*
X401462D01*
Y682553D01*
X402103D01*
Y683194D01*
X402743D01*
Y684476D01*
X402103D01*
Y685758D01*
X401462D01*
Y686398D01*
X400821D01*
Y687039D01*
X400180D01*
Y688321D01*
X399539D01*
Y688962D01*
X398899D01*
Y690244D01*
X398258D01*
Y690884D01*
X397617D01*
Y694089D01*
X398258D01*
Y695370D01*
X398899D01*
Y696011D01*
X397617D01*
Y696652D01*
X396335D01*
Y697293D01*
X394413D01*
Y697933D01*
X393131D01*
Y698574D01*
X391209D01*
Y699215D01*
X389927D01*
Y699856D01*
X388004D01*
Y700497D01*
X386723D01*
Y701138D01*
X385441D01*
Y701778D01*
X383519D01*
Y701138D01*
X382878D01*
Y700497D01*
X382237D01*
Y699215D01*
X381596D01*
Y698574D01*
X380314D01*
Y697933D01*
X379674D01*
Y697293D01*
X379033D01*
Y696652D01*
X377110D01*
Y696011D01*
X375829D01*
Y695370D01*
X368139D01*
Y696011D01*
X366216D01*
Y696652D01*
X364935D01*
Y697293D01*
X363653D01*
Y697933D01*
X363012D01*
Y698574D01*
X362371D01*
Y699215D01*
X361090D01*
Y700497D01*
X360449D01*
Y701138D01*
X359808D01*
Y701778D01*
X359167D01*
Y703060D01*
X358526D01*
Y704342D01*
X357886D01*
Y706264D01*
X357245D01*
Y712673D01*
X357886D01*
Y714595D01*
X358526D01*
Y715877D01*
X359167D01*
Y717158D01*
X359808D01*
Y717799D01*
X360449D01*
Y719081D01*
X361090D01*
Y719722D01*
X361730D01*
Y720362D01*
X362371D01*
Y721003D01*
X363653D01*
Y721644D01*
X364294D01*
Y722285D01*
X365575D01*
Y722926D01*
X367498D01*
Y723567D01*
X371343D01*
Y724207D01*
X371984D01*
Y723567D01*
X375829D01*
Y722926D01*
X377751D01*
Y722285D01*
X379033D01*
Y721644D01*
X379674D01*
Y721003D01*
X380955D01*
Y720362D01*
X381596D01*
Y719722D01*
X382237D01*
Y719081D01*
X382878D01*
Y717799D01*
X383519D01*
Y717158D01*
X384800D01*
Y717799D01*
X386723D01*
Y718440D01*
X388004D01*
Y719081D01*
X389286D01*
Y719722D01*
X391209D01*
Y720362D01*
X392490D01*
Y721003D01*
X394413D01*
Y721644D01*
X395694D01*
Y722285D01*
X397617D01*
Y722926D01*
X398899D01*
Y723567D01*
X398258D01*
Y724848D01*
X397617D01*
Y728052D01*
X398258D01*
Y728693D01*
X398899D01*
Y729975D01*
X399539D01*
Y730616D01*
X400180D01*
Y731897D01*
X400821D01*
Y732538D01*
X401462D01*
Y733820D01*
X402103D01*
Y734461D01*
X402743D01*
Y735742D01*
X402103D01*
Y736383D01*
X401462D01*
Y737024D01*
X400821D01*
Y737665D01*
X400180D01*
Y738306D01*
X399539D01*
Y738947D01*
X398899D01*
Y739587D01*
X398258D01*
Y740228D01*
X397617D01*
Y740869D01*
X396976D01*
Y740228D01*
X396335D01*
Y739587D01*
X395054D01*
Y738947D01*
X394413D01*
Y738306D01*
X393131D01*
Y737665D01*
X392490D01*
Y737024D01*
X391209D01*
Y736383D01*
X390568D01*
Y735742D01*
X389286D01*
Y735101D01*
X388004D01*
Y735742D01*
X386082D01*
Y736383D01*
X384160D01*
Y737024D01*
X382878D01*
Y737665D01*
X380955D01*
Y738306D01*
X379674D01*
Y738947D01*
X378392D01*
Y739587D01*
X377751D01*
Y740228D01*
X377110D01*
Y742791D01*
X376470D01*
Y745996D01*
X375829D01*
Y749840D01*
D02*
G37*
G36*
X441193Y729975D02*
X439911D01*
Y725489D01*
X441834D01*
Y729334D01*
X441193D01*
Y729975D01*
D02*
G37*
G36*
X422609Y721644D02*
X418123D01*
Y721003D01*
X417483D01*
Y720362D01*
X416842D01*
Y718440D01*
X417483D01*
Y717799D01*
X418123D01*
Y717158D01*
X422609D01*
Y717799D01*
X423250D01*
Y718440D01*
X423891D01*
Y720362D01*
X423250D01*
Y721003D01*
X422609D01*
Y721644D01*
D02*
G37*
G36*
X440552Y703060D02*
X436707D01*
Y702419D01*
X435426D01*
Y699215D01*
X436707D01*
Y698574D01*
X440552D01*
Y699215D01*
X441834D01*
Y702419D01*
X440552D01*
Y703060D01*
D02*
G37*
G36*
X441834Y683194D02*
X439911D01*
Y679349D01*
X441834D01*
Y683194D01*
D02*
G37*
G36*
X419405D02*
X417483D01*
Y682553D01*
X416842D01*
Y679990D01*
X417483D01*
Y679349D01*
X419405D01*
Y683194D01*
D02*
G37*
G36*
X423250Y672300D02*
X417483D01*
Y671019D01*
X416842D01*
Y669737D01*
X417483D01*
Y669096D01*
X418123D01*
Y668455D01*
X423250D01*
Y669737D01*
X423891D01*
Y671659D01*
X423250D01*
Y672300D01*
D02*
G37*
G36*
X422609Y661406D02*
X418123D01*
Y660765D01*
X417483D01*
Y660125D01*
X416842D01*
Y658202D01*
X417483D01*
Y657561D01*
X418123D01*
Y656920D01*
X422609D01*
Y657561D01*
X423250D01*
Y658202D01*
X423891D01*
Y660125D01*
X423250D01*
Y660765D01*
X422609D01*
Y661406D01*
D02*
G37*
%LPD*%
D10*
X322500Y78912D02*
G03*
X322500Y79912I0J500D01*
G01*
D02*
G03*
X322500Y78912I0J-500D01*
G01*
X329864Y39002D02*
Y48998D01*
X333197Y45666D01*
X336529Y48998D01*
Y39002D01*
X339861D02*
Y40668D01*
X341527D01*
Y39002D01*
X339861D01*
X354856D02*
X348192D01*
X354856Y45666D01*
Y47332D01*
X353190Y48998D01*
X349858D01*
X348192Y47332D01*
X368185Y39002D02*
Y48998D01*
X371518Y45666D01*
X374850Y48998D01*
Y39002D01*
X388179Y48998D02*
Y39002D01*
Y42334D01*
X394843Y48998D01*
X389845Y44000D01*
X394843Y39002D01*
X404840Y48998D02*
X398176D01*
Y39002D01*
X404840D01*
X398176Y44000D02*
X401508D01*
X408172Y48998D02*
Y47332D01*
X411505Y44000D01*
X414837Y47332D01*
Y48998D01*
X411505Y44000D02*
Y39002D01*
X87500Y39000D02*
Y48997D01*
X90832Y45665D01*
X94164Y48997D01*
Y39000D01*
X97497D02*
Y40666D01*
X99163D01*
Y39000D01*
X97497D01*
X112492D02*
X105827D01*
X112492Y45665D01*
Y47331D01*
X110826Y48997D01*
X107494D01*
X105827Y47331D01*
X125821Y39000D02*
Y48997D01*
X129153Y45665D01*
X132486Y48997D01*
Y39000D01*
X145815Y48997D02*
Y39000D01*
Y42332D01*
X152479Y48997D01*
X147481Y43998D01*
X152479Y39000D01*
X162476Y48997D02*
X155811D01*
Y39000D01*
X162476D01*
X155811Y43998D02*
X159144D01*
X165808Y48997D02*
Y47331D01*
X169140Y43998D01*
X172473Y47331D01*
Y48997D01*
X169140Y43998D02*
Y39000D01*
X267000Y48998D02*
X263668D01*
X265334D01*
Y40668D01*
X263668Y39002D01*
X262002D01*
X260336Y40668D01*
X270332Y39002D02*
X273664D01*
X271998D01*
Y48998D01*
X270332Y47332D01*
X102084Y160498D02*
X98752D01*
X100418D01*
Y152168D01*
X98752Y150502D01*
X97086D01*
X95419Y152168D01*
X105416Y158832D02*
X107082Y160498D01*
X110414D01*
X112081Y158832D01*
Y157166D01*
X110414Y155500D01*
X108748D01*
X110414D01*
X112081Y153834D01*
Y152168D01*
X110414Y150502D01*
X107082D01*
X105416Y152168D01*
X25584Y48998D02*
X22252D01*
X23918D01*
Y40668D01*
X22252Y39002D01*
X20585D01*
X18919Y40668D01*
X35581Y39002D02*
X28916D01*
X35581Y45666D01*
Y47332D01*
X33914Y48998D01*
X30582D01*
X28916Y47332D01*
D11*
X120780Y119562D02*
Y139882D01*
Y167061D02*
X133988D01*
X120780Y153344D02*
Y167061D01*
X339220Y119562D02*
Y167061D01*
X326012D02*
X339220D01*
X160912Y167060D02*
X174120D01*
X163452Y95940D02*
X176660D01*
X163960Y284368D02*
Y286908D01*
X161421Y289447D01*
X148725D01*
Y281829D01*
X151264Y279290D01*
X156342D01*
X158882Y281829D01*
Y289447D01*
Y294525D02*
Y299603D01*
Y297064D01*
X148725D01*
Y294525D01*
X146186Y309760D02*
X148725D01*
Y307221D01*
Y312299D01*
Y309760D01*
X156342D01*
X158882Y312299D01*
X143647Y319917D02*
X158882D01*
X151264D01*
X148725Y322456D01*
Y327534D01*
X151264Y330074D01*
X158882D01*
X148725Y335152D02*
X156342D01*
X158882Y337691D01*
Y345309D01*
X148725D01*
X143647Y350387D02*
X158882D01*
Y358004D01*
X156342Y360544D01*
X153803D01*
X151264D01*
X148725Y358004D01*
Y350387D01*
X158882Y365622D02*
X156342D01*
Y368161D01*
X158882D01*
Y365622D01*
X148725Y388475D02*
Y380857D01*
X151264Y378318D01*
X156342D01*
X158882Y380857D01*
Y388475D01*
Y396092D02*
Y401171D01*
X156342Y403710D01*
X151264D01*
X148725Y401171D01*
Y396092D01*
X151264Y393553D01*
X156342D01*
X158882Y396092D01*
Y408788D02*
X148725D01*
Y411327D01*
X151264Y413866D01*
X158882D01*
X151264D01*
X148725Y416406D01*
X151264Y418945D01*
X158882D01*
Y424023D02*
X148725Y434180D01*
Y439258D02*
X158882D01*
X153803D01*
X151264Y441797D01*
X148725Y444337D01*
Y446876D01*
X158882Y454493D02*
Y459572D01*
Y457033D01*
X148725D01*
Y454493D01*
Y477346D02*
Y469728D01*
X151264Y467189D01*
X156342D01*
X158882Y469728D01*
Y477346D01*
Y482424D02*
X143647D01*
X153803D02*
X148725Y490042D01*
X153803Y482424D02*
X158882Y490042D01*
X151264Y497659D02*
Y507816D01*
X143647Y512894D02*
X158882D01*
X151264D01*
X148725Y515434D01*
Y520512D01*
X151264Y523051D01*
X158882D01*
Y535747D02*
Y530669D01*
X156342Y528130D01*
X151264D01*
X148725Y530669D01*
Y535747D01*
X151264Y538286D01*
X153803D01*
Y528130D01*
X158882Y543364D02*
Y548443D01*
Y545904D01*
X148725D01*
Y543364D01*
X163960Y561139D02*
Y563678D01*
X161421Y566217D01*
X148725D01*
Y558600D01*
X151264Y556060D01*
X156342D01*
X158882Y558600D01*
Y566217D01*
Y571296D02*
X148725Y581452D01*
X158882Y586531D02*
X148725D01*
Y594148D01*
X151264Y596687D01*
X158882D01*
X148725Y601766D02*
X158882Y606844D01*
X148725Y611922D01*
X158882Y617001D02*
X148725D01*
Y619540D01*
X151264Y622079D01*
X158882D01*
X151264D01*
X148725Y624618D01*
X151264Y627157D01*
X158882D01*
Y639853D02*
Y634775D01*
X156342Y632236D01*
X151264D01*
X148725Y634775D01*
Y639853D01*
X151264Y642393D01*
X153803D01*
Y632236D01*
X161421Y647471D02*
Y657628D01*
X148725Y672863D02*
Y665245D01*
X151264Y662706D01*
X156342D01*
X158882Y665245D01*
Y672863D01*
Y677941D02*
Y685558D01*
X156342Y688098D01*
X153803Y685558D01*
Y680480D01*
X151264Y677941D01*
X148725Y680480D01*
Y688098D01*
X143647Y703333D02*
X158882D01*
Y695715D01*
X156342Y693176D01*
X151264D01*
X148725Y695715D01*
Y703333D01*
X77460Y222697D02*
Y212540D01*
X67303Y222697D01*
X64764D01*
X62225Y220158D01*
Y215079D01*
X64764Y212540D01*
X67303Y227775D02*
X77460Y237932D01*
X72382Y232853D01*
X67303Y237932D01*
X77460Y227775D01*
Y258245D02*
X62225D01*
X67303Y263324D01*
X62225Y268402D01*
X77460D01*
Y273480D02*
X74921D01*
Y276019D01*
X77460D01*
Y273480D01*
Y296333D02*
Y286176D01*
X67303Y296333D01*
X64764D01*
X62225Y293794D01*
Y288715D01*
X64764Y286176D01*
X77460Y316646D02*
X62225D01*
Y324264D01*
X64764Y326803D01*
X69842D01*
X72382Y324264D01*
Y316646D01*
X64764Y342038D02*
X62225Y339499D01*
Y334421D01*
X64764Y331881D01*
X74921D01*
X77460Y334421D01*
Y339499D01*
X74921Y342038D01*
X62225Y347117D02*
Y352195D01*
Y349656D01*
X77460D01*
Y347117D01*
Y352195D01*
Y367430D02*
Y362351D01*
X74921Y359812D01*
X69842D01*
X67303Y362351D01*
Y367430D01*
X69842Y369969D01*
X72382D01*
Y359812D01*
X67303Y390283D02*
X77460Y400439D01*
X72382Y395361D01*
X67303Y400439D01*
X77460Y390283D01*
Y405518D02*
Y410596D01*
Y408057D01*
X62225D01*
X64764Y405518D01*
Y435988D02*
X67303D01*
Y433448D01*
Y438527D01*
Y435988D01*
X74921D01*
X77460Y438527D01*
Y448684D02*
Y453762D01*
X74921Y456301D01*
X69842D01*
X67303Y453762D01*
Y448684D01*
X69842Y446144D01*
X74921D01*
X77460Y448684D01*
Y491850D02*
X62225D01*
X67303Y496928D01*
X62225Y502006D01*
X77460D01*
Y507085D02*
X74921D01*
Y509624D01*
X77460D01*
Y507085D01*
Y529937D02*
Y519781D01*
X67303Y529937D01*
X64764D01*
X62225Y527398D01*
Y522320D01*
X64764Y519781D01*
X77460Y552790D02*
X64764D01*
X69842D01*
Y550251D01*
Y555329D01*
Y552790D01*
X64764D01*
X62225Y555329D01*
X77460Y570564D02*
Y565486D01*
X74921Y562947D01*
X69842D01*
X67303Y565486D01*
Y570564D01*
X69842Y573103D01*
X72382D01*
Y562947D01*
X77460Y578182D02*
X67303D01*
Y580721D01*
X69842Y583260D01*
X77460D01*
X69842D01*
X67303Y585799D01*
X69842Y588338D01*
X77460D01*
X67303Y595956D02*
Y601034D01*
X69842Y603573D01*
X77460D01*
Y595956D01*
X74921Y593417D01*
X72382Y595956D01*
Y603573D01*
X77460Y608652D02*
Y613730D01*
Y611191D01*
X62225D01*
Y608652D01*
X77460Y628965D02*
Y623887D01*
X74921Y621348D01*
X69842D01*
X67303Y623887D01*
Y628965D01*
X69842Y631504D01*
X72382D01*
Y621348D01*
X77460Y651818D02*
X62225D01*
Y659435D01*
X64764Y661975D01*
X69842D01*
X72382Y659435D01*
Y651818D01*
X64764Y677210D02*
X62225Y674670D01*
Y669592D01*
X64764Y667053D01*
X74921D01*
X77460Y669592D01*
Y674670D01*
X74921Y677210D01*
X62225Y682288D02*
Y687366D01*
Y684827D01*
X77460D01*
Y682288D01*
Y687366D01*
Y702601D02*
Y697523D01*
X74921Y694984D01*
X69842D01*
X67303Y697523D01*
Y702601D01*
X69842Y705141D01*
X72382D01*
Y694984D01*
X67303Y725454D02*
X77460Y735611D01*
X72382Y730532D01*
X67303Y735611D01*
X77460Y725454D01*
Y750846D02*
Y740689D01*
X67303Y750846D01*
X64764D01*
X62225Y748307D01*
Y743228D01*
X64764Y740689D01*
X399210Y289447D02*
Y279290D01*
X389053Y289447D01*
X386514D01*
X383975Y286908D01*
Y281829D01*
X386514Y279290D01*
X396671Y294525D02*
X399210Y297064D01*
Y302143D01*
X396671Y304682D01*
X386514D01*
X383975Y302143D01*
Y297064D01*
X386514Y294525D01*
X389053D01*
X391592Y297064D01*
Y304682D01*
X399210Y309760D02*
X396671D01*
Y312299D01*
X399210D01*
Y309760D01*
X386514Y322456D02*
X383975Y324995D01*
Y330074D01*
X386514Y332613D01*
X396671D01*
X399210Y330074D01*
Y324995D01*
X396671Y322456D01*
X386514D01*
X383975Y347848D02*
Y337691D01*
X391592D01*
X389053Y342769D01*
Y345309D01*
X391592Y347848D01*
X396671D01*
X399210Y345309D01*
Y340230D01*
X396671Y337691D01*
X399210Y352926D02*
X396671D01*
Y355465D01*
X399210D01*
Y352926D01*
Y375779D02*
Y365622D01*
X389053Y375779D01*
X386514D01*
X383975Y373240D01*
Y368161D01*
X386514Y365622D01*
Y380857D02*
X383975Y383396D01*
Y388475D01*
X386514Y391014D01*
X396671D01*
X399210Y388475D01*
Y383396D01*
X396671Y380857D01*
X386514D01*
X399210Y406249D02*
Y396092D01*
X389053Y406249D01*
X386514D01*
X383975Y403710D01*
Y398631D01*
X386514Y396092D01*
X399210Y418945D02*
X383975D01*
X391592Y411327D01*
Y421484D01*
M02*
