G04*
G04 #@! TF.GenerationSoftware,Altium Limited,Altium Designer,24.5.2 (23)*
G04*
G04 Layer_Physical_Order=1*
G04 Layer_Color=255*
%FSLAX44Y44*%
%MOMM*%
G71*
G04*
G04 #@! TF.SameCoordinates,91BA8B22-162D-4FD0-A550-99D68B665C59*
G04*
G04*
G04 #@! TF.FilePolarity,Positive*
G04*
G01*
G75*
%ADD10C,0.2000*%
%ADD12R,1.2000X2.7500*%
%ADD13R,0.3000X1.5500*%
%ADD14R,0.3500X1.4500*%
%ADD22C,0.8000*%
%ADD23C,0.5500*%
%ADD24C,5.5000*%
%ADD25C,0.5000*%
G36*
X455001Y799999D02*
Y799999D01*
X455995Y799999D01*
X457832Y799238D01*
X459239Y797832D01*
X460000Y795995D01*
X460000Y795000D01*
X460000Y41999D01*
Y41601D01*
X459695Y40867D01*
X459133Y40304D01*
X458398Y40000D01*
X454501D01*
X454500Y40000D01*
X453525Y39904D01*
X451722Y39158D01*
X450343Y37779D01*
X449595Y35977D01*
X449499Y35001D01*
Y28999D01*
X344299Y28999D01*
Y57700D01*
X344105Y58675D01*
X343552Y59502D01*
X325252Y77802D01*
X324425Y78355D01*
X323450Y78549D01*
X225256D01*
X224299Y79506D01*
Y84501D01*
X225500D01*
Y103001D01*
X214500D01*
Y84501D01*
X215701D01*
Y77000D01*
X215895Y76024D01*
X216448Y75198D01*
X220948Y70698D01*
X221775Y70145D01*
X222750Y69951D01*
X320944D01*
X335701Y55194D01*
Y28999D01*
X329299D01*
Y47450D01*
X329105Y48425D01*
X328552Y49252D01*
X313502Y64302D01*
X312675Y64855D01*
X311700Y65049D01*
X220506D01*
X209299Y76255D01*
Y84501D01*
X210500D01*
Y103001D01*
X199500D01*
Y84501D01*
X200701D01*
Y73750D01*
X200895Y72775D01*
X201448Y71948D01*
X216198Y57198D01*
X217025Y56645D01*
X218000Y56451D01*
X309194D01*
X320701Y44944D01*
Y28999D01*
X314324D01*
Y38975D01*
X314130Y39950D01*
X313577Y40777D01*
X303052Y51302D01*
X302225Y51855D01*
X301250Y52049D01*
X214306D01*
X194299Y72056D01*
Y84501D01*
X195500D01*
Y103001D01*
X184500D01*
Y84501D01*
X185701D01*
Y69550D01*
X185895Y68575D01*
X186448Y67748D01*
X209998Y44198D01*
X210825Y43645D01*
X211800Y43451D01*
X298745D01*
X305726Y36469D01*
Y29818D01*
X305701Y29693D01*
Y28999D01*
X294749D01*
X294634Y30170D01*
X293739Y32333D01*
X292084Y33989D01*
X289942Y34877D01*
X289921Y34886D01*
X288750Y35001D01*
X288750Y35001D01*
X287580Y34885D01*
X285417Y33989D01*
X283762Y32334D01*
X282866Y30171D01*
X282751Y29000D01*
Y28999D01*
X250500D01*
Y35001D01*
X250500D01*
X250500Y35001D01*
X250500Y35002D01*
X250404Y35977D01*
X250326Y36165D01*
X249657Y37779D01*
X248277Y39158D01*
X246475Y39904D01*
X245499Y40000D01*
X214501Y40000D01*
X214500Y40000D01*
X213525Y39904D01*
X211722Y39158D01*
X210343Y37779D01*
X209596Y35977D01*
X209499Y35001D01*
Y28999D01*
X109892Y28999D01*
X109406Y30173D01*
X129505Y50272D01*
X129939Y49982D01*
X131500Y49672D01*
X133061Y49982D01*
X134384Y50866D01*
X135268Y52189D01*
X135578Y53750D01*
X135268Y55311D01*
X134384Y56634D01*
X133061Y57518D01*
X132148Y57699D01*
X130982Y58346D01*
X130672Y59907D01*
X129788Y61230D01*
X128464Y62114D01*
X126904Y62425D01*
X125343Y62114D01*
X124020Y61230D01*
X123136Y59907D01*
X122825Y58346D01*
X123136Y56785D01*
X123426Y56352D01*
X96448Y29374D01*
X96198Y28999D01*
X89299D01*
Y37123D01*
X108102Y55926D01*
X108535Y55636D01*
X110096Y55325D01*
X111657Y55636D01*
X112980Y56520D01*
X113864Y57843D01*
X114174Y59404D01*
X113864Y60964D01*
X112980Y62288D01*
X111657Y63172D01*
X110745Y63353D01*
X109578Y64000D01*
X109268Y65561D01*
X108384Y66884D01*
X107061Y67768D01*
X105500Y68078D01*
X103939Y67768D01*
X102616Y66884D01*
X101732Y65561D01*
X101422Y64000D01*
X101732Y62439D01*
X102022Y62005D01*
X81448Y41431D01*
X80895Y40604D01*
X80701Y39629D01*
Y28999D01*
X54749D01*
X54634Y30170D01*
X53739Y32333D01*
X52084Y33989D01*
X49942Y34877D01*
X49921Y34886D01*
X48750Y35001D01*
X48750Y35001D01*
X47580Y34885D01*
X45417Y33989D01*
X43762Y32334D01*
X42866Y30171D01*
X42751Y29000D01*
Y28999D01*
X10500D01*
Y35001D01*
X10500D01*
X10500Y35001D01*
X10500Y35002D01*
X10404Y35977D01*
X10326Y36165D01*
X9657Y37779D01*
X8277Y39158D01*
X6475Y39904D01*
X5499Y40000D01*
X1601Y40000D01*
X867Y40304D01*
X304Y40867D01*
X0Y41601D01*
Y41999D01*
Y795001D01*
Y795995D01*
X761Y797833D01*
X2167Y799239D01*
X4004Y799999D01*
X4999Y799999D01*
X92500Y800000D01*
X92584Y798285D01*
X93254Y794920D01*
X94566Y791750D01*
X96472Y788898D01*
X98898Y786472D01*
X101750Y784566D01*
X104920Y783254D01*
X108285Y782584D01*
X111715D01*
X115080Y783254D01*
X118249Y784566D01*
X121102Y786472D01*
X123528Y788898D01*
X125434Y791750D01*
X126746Y794920D01*
X127416Y798285D01*
X127500Y800000D01*
X230418Y799999D01*
X332500Y800000D01*
X332584Y798285D01*
X333254Y794920D01*
X334566Y791750D01*
X336472Y788898D01*
X338898Y786472D01*
X341750Y784566D01*
X344920Y783254D01*
X348285Y782584D01*
X351715D01*
X355080Y783254D01*
X358249Y784566D01*
X361102Y786472D01*
X363528Y788898D01*
X365434Y791750D01*
X366746Y794920D01*
X367416Y798285D01*
X367500Y800000D01*
X455001Y799999D01*
D02*
G37*
%LPC*%
G36*
X138500Y224348D02*
X136549Y223960D01*
X134895Y222855D01*
X133790Y221201D01*
X133402Y219250D01*
X133402Y182750D01*
X133402Y161500D01*
X133790Y159549D01*
X134895Y157895D01*
X136549Y156790D01*
X138500Y156402D01*
X150602Y156402D01*
X152553Y156790D01*
X154207Y157895D01*
X155105Y158793D01*
X155911Y160000D01*
X158000D01*
Y174652D01*
X177000D01*
Y160000D01*
X187576D01*
Y145274D01*
X187366Y145134D01*
X186482Y143811D01*
X186172Y142250D01*
X186482Y140689D01*
X187366Y139366D01*
X188689Y138482D01*
X190250Y138172D01*
X191811Y138482D01*
X193134Y139366D01*
X194018Y140689D01*
X194328Y142250D01*
X194057Y143614D01*
X194493Y144294D01*
X194927Y144736D01*
X195250Y144672D01*
X196811Y144982D01*
X198134Y145866D01*
X199018Y147189D01*
X199328Y148750D01*
X199057Y150114D01*
X199493Y150794D01*
X199927Y151236D01*
X200250Y151172D01*
X201811Y151482D01*
X203134Y152366D01*
X204018Y153689D01*
X204328Y155250D01*
X204018Y156811D01*
X203134Y158134D01*
X202674Y158441D01*
Y160000D01*
X248000D01*
Y160000D01*
X267000D01*
Y160000D01*
X273402D01*
Y107250D01*
X273790Y105299D01*
X274482Y104263D01*
X274500Y103001D01*
X274500Y103001D01*
X274500Y103001D01*
Y84501D01*
X285500D01*
Y102152D01*
X289500D01*
Y84501D01*
X300500D01*
Y103001D01*
X300500Y103001D01*
X300500D01*
X300518Y104263D01*
X301210Y105299D01*
X301598Y107250D01*
Y160000D01*
X308701D01*
X308790Y159549D01*
X309895Y157895D01*
X311549Y156790D01*
X313500Y156402D01*
X321500D01*
X323451Y156790D01*
X325105Y157895D01*
X326210Y159549D01*
X326598Y161500D01*
X326598Y174652D01*
X441750D01*
X443701Y175040D01*
X445355Y176145D01*
X446460Y177799D01*
X446848Y179750D01*
Y219250D01*
X446460Y221201D01*
X445355Y222855D01*
X443701Y223960D01*
X441750Y224348D01*
X138500Y224348D01*
D02*
G37*
G36*
X330000Y153560D02*
X328173Y153319D01*
X326470Y152614D01*
X325008Y151492D01*
X323886Y150030D01*
X323180Y148327D01*
X322940Y146500D01*
X323180Y144672D01*
X323886Y142969D01*
X325008Y141507D01*
X326470Y140385D01*
X328173Y139680D01*
X330000Y139439D01*
X331827Y139680D01*
X333530Y140385D01*
X334992Y141507D01*
X336115Y142969D01*
X336820Y144672D01*
X337060Y146500D01*
X336820Y148327D01*
X336115Y150030D01*
X334992Y151492D01*
X333530Y152614D01*
X331827Y153319D01*
X330000Y153560D01*
D02*
G37*
G36*
X130000Y156081D02*
X127521Y155755D01*
X125210Y154798D01*
X123225Y153275D01*
X121702Y151291D01*
X120745Y148980D01*
X120419Y146500D01*
X120745Y144020D01*
X121702Y141709D01*
X123225Y139724D01*
X125210Y138201D01*
X127521Y137244D01*
X130000Y136918D01*
X132480Y137244D01*
X134791Y138201D01*
X136776Y139724D01*
X138299Y141709D01*
X139256Y144020D01*
X139582Y146500D01*
X139256Y148980D01*
X138299Y151291D01*
X136776Y153275D01*
X134791Y154798D01*
X132480Y155755D01*
X130000Y156081D01*
D02*
G37*
G36*
X237654Y135175D02*
X236093Y134864D01*
X234770Y133980D01*
X233886Y132657D01*
X233575Y131096D01*
X233886Y129536D01*
X234176Y129102D01*
X231448Y126373D01*
X230895Y125547D01*
X230701Y124571D01*
Y103001D01*
X229500D01*
Y84501D01*
X240500D01*
Y103001D01*
X239299D01*
Y122065D01*
X240256Y123022D01*
X240689Y122732D01*
X242250Y122422D01*
X243811Y122732D01*
X245134Y123616D01*
X246018Y124939D01*
X246328Y126500D01*
X246018Y128061D01*
X245134Y129384D01*
X243811Y130268D01*
X242898Y130449D01*
X242065Y130911D01*
X241603Y131745D01*
X241422Y132657D01*
X240538Y133980D01*
X239215Y134864D01*
X237654Y135175D01*
D02*
G37*
G36*
X253154Y121924D02*
X251593Y121614D01*
X250270Y120730D01*
X249386Y119407D01*
X249076Y117846D01*
X249386Y116285D01*
X249676Y115852D01*
X246448Y112623D01*
X245895Y111797D01*
X245701Y110821D01*
Y103000D01*
X244499D01*
Y84500D01*
X255499D01*
Y103000D01*
X254299D01*
Y108315D01*
X255755Y109772D01*
X256189Y109482D01*
X257750Y109172D01*
X259311Y109482D01*
X260634Y110366D01*
X261518Y111689D01*
X261828Y113250D01*
X261518Y114811D01*
X260634Y116134D01*
X259311Y117018D01*
X258398Y117199D01*
X257565Y117661D01*
X257103Y118495D01*
X256922Y119407D01*
X256038Y120730D01*
X254715Y121614D01*
X253154Y121924D01*
D02*
G37*
G36*
X315500Y103001D02*
X304500D01*
Y84501D01*
X315500D01*
Y103001D01*
D02*
G37*
G36*
X160500D02*
X149500D01*
Y84501D01*
X160500D01*
Y103001D01*
D02*
G37*
G36*
X270500D02*
X264500D01*
Y103000D01*
X259499D01*
Y84500D01*
X265499D01*
Y84501D01*
X270500D01*
Y103001D01*
D02*
G37*
%LPD*%
G36*
X441750Y219250D02*
Y179750D01*
X321500D01*
X321500Y161500D01*
X313500D01*
Y179750D01*
X296500D01*
Y107250D01*
X278500D01*
Y179750D01*
X151500D01*
Y162398D01*
X150602Y161500D01*
X138500Y161500D01*
X138500Y182750D01*
X138500Y219250D01*
X441750Y219250D01*
D02*
G37*
D10*
X425000Y32329D02*
Y32500D01*
X422499Y12750D02*
Y29828D01*
X425000Y32329D01*
X392499Y12750D02*
Y29828D01*
X389828Y32500D02*
X392499Y29828D01*
X389500Y32500D02*
X389828D01*
X301250Y49500D02*
X311775Y38975D01*
X211800Y46000D02*
X299800D01*
X188250Y69550D02*
X211800Y46000D01*
X213250Y49500D02*
X301250D01*
X191750Y71000D02*
X213250Y49500D01*
X299800Y46000D02*
X308275Y37525D01*
X262500Y32000D02*
X262500Y32000D01*
X262500Y12750D02*
Y32000D01*
X190125Y142375D02*
X190250Y142250D01*
X190125Y142375D02*
Y169125D01*
X195125Y148875D02*
X195250Y148750D01*
X195125Y148875D02*
Y169125D01*
X200125Y155375D02*
X200250Y155250D01*
X200000Y169250D02*
X200125Y169125D01*
X190000Y169250D02*
X190125Y169125D01*
X200125Y155375D02*
Y169125D01*
X195000Y169250D02*
X195125Y169125D01*
X108251Y13500D02*
Y27501D01*
X113250Y32500D02*
X122500D01*
X108251Y27501D02*
X113250Y32500D01*
X203250Y73750D02*
X218000Y59000D01*
X310250D01*
X206750Y75200D02*
X219450Y62500D01*
X206750Y75200D02*
Y85828D01*
X203250Y73750D02*
Y85828D01*
X219450Y62500D02*
X311700D01*
X326750Y20172D02*
Y47450D01*
X310250Y59000D02*
X323250Y46000D01*
X311700Y62500D02*
X326750Y47450D01*
X323250Y20172D02*
Y46000D01*
X222750Y72500D02*
X322000D01*
X224200Y76000D02*
X323450D01*
X233250Y101672D02*
Y124571D01*
X236750Y101672D02*
Y123121D01*
X239555Y125926D01*
X233250Y124571D02*
X237080Y128401D01*
X248250Y101672D02*
Y110821D01*
X251750Y109371D02*
X255055Y112676D01*
X251750Y101672D02*
Y109371D01*
X248250Y110821D02*
X252580Y115151D01*
X101750Y26121D02*
X128805Y53176D01*
X101751Y13499D02*
X102499Y12750D01*
X101751Y13499D02*
Y21035D01*
X101750Y21036D02*
X101751Y21035D01*
X97501Y12750D02*
X98249Y13499D01*
Y21035D01*
X98250Y21036D01*
Y27571D01*
X101750Y21036D02*
Y26121D01*
X98250Y27571D02*
X126330Y55651D01*
X104926Y63426D02*
X105500Y64000D01*
X83250Y39629D02*
X104926Y61305D01*
X107401Y58830D02*
X109522D01*
X86750Y38179D02*
X107401Y58830D01*
X109522D02*
X110096Y59404D01*
X83250Y20172D02*
Y39629D01*
X104926Y61305D02*
Y63426D01*
X86750Y20172D02*
Y38179D01*
X92499Y12750D02*
Y32749D01*
X92500Y32750D01*
X237000Y94250D02*
Y101422D01*
X232500Y93750D02*
X233000Y94250D01*
Y101422D01*
X233250Y101672D01*
X237000Y94250D02*
X237500Y93750D01*
X236750Y101672D02*
X237000Y101422D01*
X252000Y94250D02*
Y101422D01*
X251750Y101672D02*
X252000Y101422D01*
X248000D02*
X248250Y101672D01*
X248000Y94250D02*
Y101422D01*
X252000Y94250D02*
X252500Y93750D01*
X247500D02*
X248000Y94250D01*
X346500Y31500D02*
X347501Y30499D01*
X301750Y32000D02*
X302500Y31251D01*
X152250Y32250D02*
X152499Y32001D01*
X137501Y12750D02*
Y32749D01*
X62499Y12750D02*
Y33751D01*
X107501Y12750D02*
X108251Y13500D01*
X86751D02*
X87501Y12750D01*
X86751Y13500D02*
Y20171D01*
X86750Y20172D02*
X86751Y20171D01*
X83250Y13500D02*
Y20171D01*
X82499Y12750D02*
X83250Y13500D01*
Y20171D02*
X83250Y20172D01*
X218250Y77000D02*
X222750Y72500D01*
X221750Y78450D02*
X224200Y76000D01*
X322000Y72500D02*
X338250Y56250D01*
X323450Y76000D02*
X341750Y57700D01*
X218250Y77000D02*
Y85828D01*
X221750Y78450D02*
Y85828D01*
X311775Y28268D02*
Y38975D01*
X311750Y21036D02*
Y28243D01*
X308275Y29718D02*
Y37525D01*
X311751Y13499D02*
Y21035D01*
X307501Y12750D02*
X308249Y13499D01*
Y21035D01*
X311750Y21036D02*
X311751Y21035D01*
X308249D02*
X308250Y21036D01*
X311750Y28243D02*
X311775Y28268D01*
X308250Y29693D02*
X308275Y29718D01*
X311751Y13499D02*
X312500Y12750D01*
X308250Y21036D02*
Y29693D01*
X317500Y32250D02*
X317501Y32249D01*
Y12750D02*
Y32249D01*
X302500Y12750D02*
Y31251D01*
X192000Y93250D02*
X192500Y93750D01*
X188000Y86078D02*
X188250Y85828D01*
X188000Y86078D02*
Y93250D01*
X187500Y93750D02*
X188000Y93250D01*
X188250Y69550D02*
Y85828D01*
X191750Y71000D02*
Y85828D01*
X192000Y86078D02*
Y93250D01*
X191750Y85828D02*
X192000Y86078D01*
X332499Y12750D02*
Y32499D01*
X326751Y13500D02*
Y20171D01*
X323250Y20171D02*
X323250Y20172D01*
X323250Y13500D02*
Y20171D01*
X326750Y20172D02*
X326751Y20171D01*
X322499Y12750D02*
X323250Y13500D01*
X332499Y32499D02*
X332501Y32500D01*
X326751Y13500D02*
X327501Y12750D01*
X207000Y93250D02*
X207500Y93750D01*
X207000Y86078D02*
Y93250D01*
X203000Y86078D02*
X203250Y85828D01*
X203000Y86078D02*
Y93250D01*
X202500Y93750D02*
X203000Y93250D01*
X206750Y85828D02*
X207000Y86078D01*
X337501Y12750D02*
X338249Y13499D01*
X341751D02*
X342499Y12750D01*
X341750Y21036D02*
X341751Y21035D01*
X338250Y21036D02*
Y56250D01*
X338249Y13499D02*
Y21035D01*
X338250Y56250D02*
X338250Y56250D01*
X341750Y21036D02*
Y57700D01*
X341751Y13499D02*
Y21035D01*
X338249D02*
X338250Y21036D01*
X222000Y93250D02*
X222500Y93750D01*
X222000Y86078D02*
Y93250D01*
X221750Y85828D02*
X222000Y86078D01*
X217500Y93750D02*
X218000Y93250D01*
Y86078D02*
Y93250D01*
Y86078D02*
X218250Y85828D01*
X442499Y30999D02*
X442500Y31000D01*
X442499Y12750D02*
Y30999D01*
X437500Y31000D02*
X437500Y31000D01*
Y12750D02*
Y31000D01*
X407500Y30750D02*
X407500Y30749D01*
Y12750D02*
Y30749D01*
X377500Y32000D02*
X377501Y31999D01*
Y12750D02*
Y31999D01*
X362499Y31499D02*
X362500Y31500D01*
X362499Y12750D02*
Y31499D01*
X347501Y12750D02*
Y30499D01*
X267500Y32000D02*
X267501Y31999D01*
Y12750D02*
Y31999D01*
X257500Y32000D02*
X257501Y31999D01*
Y12750D02*
Y31999D01*
X202499Y12750D02*
Y30499D01*
X202750Y30750D01*
X197250Y31250D02*
X197500Y31000D01*
Y12750D02*
Y31000D01*
X182499Y31249D02*
X182500Y31250D01*
X182499Y12750D02*
Y31249D01*
X166500Y31000D02*
X167500Y29999D01*
Y12750D02*
Y29999D01*
X152499Y12750D02*
Y32001D01*
X137500Y32750D02*
X137501Y32749D01*
X122499Y32499D02*
X122500Y32500D01*
X122499Y12750D02*
Y32499D01*
X77501Y32501D02*
X77750Y32750D01*
Y33000D01*
X77501Y12750D02*
Y32501D01*
X62000Y34250D02*
X62499Y33751D01*
X27500Y32000D02*
X27501Y31999D01*
Y12750D02*
Y31999D01*
X22499Y31500D02*
X22750Y31750D01*
X22499Y12750D02*
Y31500D01*
X17500Y32750D02*
X17501Y32749D01*
Y12750D02*
Y32749D01*
D12*
X126500Y101501D02*
D03*
X333500D02*
D03*
D13*
X235000Y169250D02*
D03*
X240000D02*
D03*
X245000D02*
D03*
X237500Y93751D02*
D03*
X242500D02*
D03*
X322500D02*
D03*
X320000Y169250D02*
D03*
X317500Y93751D02*
D03*
X315000Y169250D02*
D03*
X312500Y93751D02*
D03*
X310000Y169250D02*
D03*
X307500Y93751D02*
D03*
X305000Y169250D02*
D03*
X302500Y93751D02*
D03*
X300000Y169250D02*
D03*
X297500Y93751D02*
D03*
X295000Y169250D02*
D03*
X292500Y93751D02*
D03*
X290000Y169250D02*
D03*
X287500Y93751D02*
D03*
X285000Y169250D02*
D03*
X282500Y93751D02*
D03*
X280000Y169250D02*
D03*
X277500Y93751D02*
D03*
X275000Y169250D02*
D03*
X272500Y93751D02*
D03*
X270000Y169250D02*
D03*
X267500Y93751D02*
D03*
X232500D02*
D03*
X230000Y169250D02*
D03*
X227500Y93751D02*
D03*
X225000Y169250D02*
D03*
X222500Y93751D02*
D03*
X220000Y169250D02*
D03*
X217500Y93751D02*
D03*
X215000Y169250D02*
D03*
X212500Y93751D02*
D03*
X210000Y169250D02*
D03*
X207500Y93751D02*
D03*
X205000Y169250D02*
D03*
X202500Y93751D02*
D03*
X200000Y169250D02*
D03*
X197500Y93751D02*
D03*
X195000Y169250D02*
D03*
X192500Y93751D02*
D03*
X190000Y169250D02*
D03*
X187500Y93751D02*
D03*
X185000Y169250D02*
D03*
X182500Y93751D02*
D03*
X180000Y169250D02*
D03*
X262499Y93750D02*
D03*
X265001Y169250D02*
D03*
X257499Y93750D02*
D03*
X260001Y169250D02*
D03*
X252499Y93750D02*
D03*
X255001Y169250D02*
D03*
X247499Y93750D02*
D03*
X250001Y169250D02*
D03*
X157500Y93751D02*
D03*
X155000Y169250D02*
D03*
X152500Y93751D02*
D03*
X150000Y169250D02*
D03*
X147500Y93751D02*
D03*
X145000Y169250D02*
D03*
X142500Y93751D02*
D03*
X140000Y169250D02*
D03*
X137500Y93751D02*
D03*
D14*
X442499Y12750D02*
D03*
X437500D02*
D03*
X432499D02*
D03*
X427500D02*
D03*
X422499D02*
D03*
X417500D02*
D03*
X412499D02*
D03*
X407500D02*
D03*
X402499D02*
D03*
X397501D02*
D03*
X392499D02*
D03*
X387501D02*
D03*
X382499D02*
D03*
X377501D02*
D03*
X372499D02*
D03*
X367501D02*
D03*
X362499D02*
D03*
X357501D02*
D03*
X352499D02*
D03*
X347501D02*
D03*
X342499D02*
D03*
X337501D02*
D03*
X332499D02*
D03*
X327501D02*
D03*
X322499D02*
D03*
X317501D02*
D03*
X312500D02*
D03*
X307501D02*
D03*
X302500D02*
D03*
X277501D02*
D03*
X272500D02*
D03*
X267501D02*
D03*
X262500D02*
D03*
X257501D02*
D03*
X202499D02*
D03*
X197500D02*
D03*
X192499D02*
D03*
X187500D02*
D03*
X182499D02*
D03*
X177500D02*
D03*
X172499D02*
D03*
X167500D02*
D03*
X162499D02*
D03*
X157500D02*
D03*
X152499D02*
D03*
X147501D02*
D03*
X142499D02*
D03*
X137501D02*
D03*
X132499D02*
D03*
X127501D02*
D03*
X122499D02*
D03*
X117501D02*
D03*
X112499D02*
D03*
X107501D02*
D03*
X102499D02*
D03*
X97501D02*
D03*
X92499D02*
D03*
X87501D02*
D03*
X82499D02*
D03*
X77501D02*
D03*
X72499D02*
D03*
X67501D02*
D03*
X62499D02*
D03*
X37501D02*
D03*
X32499D02*
D03*
X27501D02*
D03*
X22499D02*
D03*
X17501D02*
D03*
D22*
X130000Y146500D02*
D03*
D23*
X330000D02*
D03*
D24*
X230000Y548500D02*
D03*
Y728500D02*
D03*
Y428500D02*
D03*
D25*
X425000Y130000D02*
D03*
Y90000D02*
D03*
Y32500D02*
D03*
X389500D02*
D03*
X281250Y39250D02*
D03*
X173500Y75750D02*
D03*
X189500Y56000D02*
D03*
X159750D02*
D03*
X328500Y56250D02*
D03*
X437500Y194500D02*
D03*
Y184500D02*
D03*
Y204500D02*
D03*
Y214500D02*
D03*
X412500D02*
D03*
X402500D02*
D03*
X412500Y204500D02*
D03*
X402500D02*
D03*
Y184500D02*
D03*
X412500D02*
D03*
X402500Y194500D02*
D03*
X412500D02*
D03*
X292500Y120750D02*
D03*
X282500D02*
D03*
X292500Y110750D02*
D03*
X282500D02*
D03*
X287500Y82000D02*
D03*
X190250Y142250D02*
D03*
X200250Y155250D02*
D03*
X195250Y148750D02*
D03*
X210000Y510000D02*
D03*
X250000D02*
D03*
X170000Y430000D02*
D03*
X130000D02*
D03*
X90000Y430000D02*
D03*
X50000D02*
D03*
X170000Y470000D02*
D03*
X130000D02*
D03*
X90000Y470000D02*
D03*
X50000D02*
D03*
X170000Y510000D02*
D03*
X130000D02*
D03*
X90000Y510000D02*
D03*
X50000D02*
D03*
X250000Y390000D02*
D03*
X210000D02*
D03*
X141750Y121250D02*
D03*
X302500Y82000D02*
D03*
X227500D02*
D03*
X242500D02*
D03*
X197500Y80000D02*
D03*
X212500D02*
D03*
X370000Y70000D02*
D03*
Y110000D02*
D03*
Y150000D02*
D03*
X90000Y110000D02*
D03*
X210000Y230000D02*
D03*
X229404Y133346D02*
D03*
X124654Y66596D02*
D03*
X139750Y51500D02*
D03*
X112346Y51154D02*
D03*
X97250Y66250D02*
D03*
X266000Y111000D02*
D03*
X250904Y126096D02*
D03*
X244500Y118250D02*
D03*
X253154Y117846D02*
D03*
X242250Y126500D02*
D03*
X237654Y131096D02*
D03*
X257750Y113250D02*
D03*
X131500Y53750D02*
D03*
X126904Y58346D02*
D03*
X105500Y64000D02*
D03*
X110096Y59404D02*
D03*
X302500Y32500D02*
D03*
X332501D02*
D03*
X250000Y790000D02*
D03*
X210000D02*
D03*
X170000D02*
D03*
X290000D02*
D03*
X410000D02*
D03*
X450000D02*
D03*
X10000Y790000D02*
D03*
X50000D02*
D03*
Y750000D02*
D03*
X90000D02*
D03*
X10000D02*
D03*
X50000Y710000D02*
D03*
X90000D02*
D03*
X10000D02*
D03*
X50000Y670000D02*
D03*
X90000D02*
D03*
X10000D02*
D03*
X50000Y630000D02*
D03*
X90000D02*
D03*
X10000D02*
D03*
X50000Y590000D02*
D03*
X90000D02*
D03*
X10000D02*
D03*
X50000Y550000D02*
D03*
X90000D02*
D03*
X10000D02*
D03*
Y510000D02*
D03*
Y470000D02*
D03*
Y430000D02*
D03*
X50000Y390000D02*
D03*
X90000D02*
D03*
X10000D02*
D03*
X50000Y350000D02*
D03*
X90000D02*
D03*
X10000D02*
D03*
X50000Y310000D02*
D03*
X90000D02*
D03*
X10000D02*
D03*
X50000Y270000D02*
D03*
X90000D02*
D03*
X10000D02*
D03*
X50000Y230000D02*
D03*
X90000D02*
D03*
X10000D02*
D03*
X370000Y470000D02*
D03*
X330000D02*
D03*
X290000D02*
D03*
X410000Y390000D02*
D03*
X370000D02*
D03*
X330000D02*
D03*
X290000D02*
D03*
X410000Y470000D02*
D03*
Y510000D02*
D03*
X450000D02*
D03*
Y470000D02*
D03*
X410000Y550000D02*
D03*
Y590000D02*
D03*
X450000D02*
D03*
Y550000D02*
D03*
X410000Y630000D02*
D03*
Y670000D02*
D03*
X450000D02*
D03*
Y630000D02*
D03*
Y710000D02*
D03*
Y750000D02*
D03*
X410000D02*
D03*
Y710000D02*
D03*
X370000D02*
D03*
X330000Y750000D02*
D03*
X290000D02*
D03*
Y710000D02*
D03*
Y430000D02*
D03*
X330000D02*
D03*
X370000D02*
D03*
X410000D02*
D03*
X210000Y470000D02*
D03*
X250000D02*
D03*
X250000Y630000D02*
D03*
Y590000D02*
D03*
Y670000D02*
D03*
X210000Y630000D02*
D03*
Y590000D02*
D03*
Y670000D02*
D03*
X130000Y670000D02*
D03*
X170000D02*
D03*
X130000Y710000D02*
D03*
X170000D02*
D03*
X130000Y750000D02*
D03*
X170000D02*
D03*
X130000Y550000D02*
D03*
X170000D02*
D03*
X130000Y590000D02*
D03*
X170000D02*
D03*
X130000Y630000D02*
D03*
X170000D02*
D03*
X130000Y390000D02*
D03*
X170000D02*
D03*
X250000Y350000D02*
D03*
X210000D02*
D03*
X170000D02*
D03*
X130000D02*
D03*
X250000Y310000D02*
D03*
X210000D02*
D03*
X170000D02*
D03*
X130000D02*
D03*
X250000Y270000D02*
D03*
X210000D02*
D03*
X170000D02*
D03*
X130000D02*
D03*
Y230000D02*
D03*
X170000D02*
D03*
X250000D02*
D03*
X377500Y32500D02*
D03*
X362500D02*
D03*
X347500D02*
D03*
X22500D02*
D03*
X62500D02*
D03*
X197250D02*
D03*
X182500D02*
D03*
X167500D02*
D03*
X152500D02*
D03*
X137500D02*
D03*
X122500D02*
D03*
X50000Y70000D02*
D03*
X10000D02*
D03*
X450000D02*
D03*
X50000Y110000D02*
D03*
X10000D02*
D03*
X450000D02*
D03*
X50000Y150000D02*
D03*
X90000D02*
D03*
X10000D02*
D03*
X450000D02*
D03*
Y190000D02*
D03*
X10000D02*
D03*
X90000D02*
D03*
X50000D02*
D03*
X350000Y775250D02*
D03*
X367501Y782499D02*
D03*
X332499Y782499D02*
D03*
X110000Y775250D02*
D03*
X127501Y782499D02*
D03*
X92499Y782499D02*
D03*
M02*
