G04*
G04 #@! TF.GenerationSoftware,Altium Limited,Altium Designer,24.5.2 (23)*
G04*
G04 Layer_Color=128*
%FSLAX44Y44*%
%MOMM*%
G71*
G04*
G04 #@! TF.SameCoordinates,91BA8B22-162D-4FD0-A550-99D68B665C59*
G04*
G04*
G04 #@! TF.FilePolarity,Positive*
G04*
G01*
G75*
%ADD26R,0.3500X1.9500*%
D26*
X440000Y15250D02*
D03*
X435001D02*
D03*
X430000D02*
D03*
X425001D02*
D03*
X420000D02*
D03*
X415001D02*
D03*
X410000D02*
D03*
X405001D02*
D03*
X400000D02*
D03*
X395001D02*
D03*
X390000D02*
D03*
X385001D02*
D03*
X380000D02*
D03*
X375001D02*
D03*
X370000D02*
D03*
X365001D02*
D03*
X360000D02*
D03*
X355001D02*
D03*
X350000D02*
D03*
X344999D02*
D03*
X340000D02*
D03*
X334999D02*
D03*
X330000D02*
D03*
X324999D02*
D03*
X320000D02*
D03*
X314999D02*
D03*
X310000D02*
D03*
X304999D02*
D03*
X300000D02*
D03*
X274999D02*
D03*
X270000D02*
D03*
X264999D02*
D03*
X260000D02*
D03*
X200000D02*
D03*
X195001D02*
D03*
X190000D02*
D03*
X185001D02*
D03*
X180000D02*
D03*
X175001D02*
D03*
X170000D02*
D03*
X165001D02*
D03*
X160000D02*
D03*
X155001D02*
D03*
X150000D02*
D03*
X145001D02*
D03*
X140000D02*
D03*
X135001D02*
D03*
X130000D02*
D03*
X125001D02*
D03*
X120000D02*
D03*
X115001D02*
D03*
X110000D02*
D03*
X104999D02*
D03*
X100000D02*
D03*
X94999D02*
D03*
X90000D02*
D03*
X84999D02*
D03*
X80000D02*
D03*
X74999D02*
D03*
X70000D02*
D03*
X64999D02*
D03*
X60000D02*
D03*
X34999D02*
D03*
X30000D02*
D03*
X24999D02*
D03*
X20000D02*
D03*
M02*
