G04*
G04 #@! TF.GenerationSoftware,Altium Limited,Altium Designer,24.5.2 (23)*
G04*
G04 Layer_Color=8388736*
%FSLAX44Y44*%
%MOMM*%
G71*
G04*
G04 #@! TF.SameCoordinates,91BA8B22-162D-4FD0-A550-99D68B665C59*
G04*
G04*
G04 #@! TF.FilePolarity,Negative*
G04*
G01*
G75*
%ADD14R,0.3500X1.4500*%
%ADD15R,15.4500X2.0000*%
%ADD16R,3.2005X2.0000*%
%ADD17R,1.3016X2.8516*%
%ADD18R,0.4016X1.6516*%
%ADD19C,1.0032*%
%ADD20C,0.7532*%
%ADD21C,5.7032*%
G36*
X138500Y800000D02*
X138500Y797757D01*
X137798Y793326D01*
X136412Y789060D01*
X134375Y785063D01*
X131739Y781433D01*
X128567Y778261D01*
X124937Y775624D01*
X120940Y773588D01*
X116674Y772202D01*
X112243Y771500D01*
X107757Y771500D01*
X103326Y772202D01*
X99060Y773588D01*
X95063Y775624D01*
X91433Y778261D01*
X88261Y781433D01*
X85625Y785063D01*
X83588Y789060D01*
X82202Y793326D01*
X81500Y797757D01*
X81500Y800000D01*
X81500Y800000D01*
X92500Y800000D01*
X92584Y798285D01*
X93253Y794920D01*
X94566Y791750D01*
X96472Y788898D01*
X98898Y786472D01*
X101751Y784566D01*
X104920Y783253D01*
X108285Y782584D01*
X111715Y782584D01*
X115080Y783253D01*
X118250Y784566D01*
X121102Y786472D01*
X123528Y788898D01*
X125434Y791751D01*
X126747Y794920D01*
X127416Y798285D01*
X127500Y800000D01*
X127500Y800000D01*
X138500Y800000D01*
D02*
G37*
G36*
X378500D02*
X378500Y797757D01*
X377798Y793326D01*
X376412Y789060D01*
X374375Y785063D01*
X371739Y781433D01*
X368567Y778261D01*
X364937Y775624D01*
X360940Y773588D01*
X356674Y772202D01*
X352243Y771500D01*
X347757Y771500D01*
X343326Y772202D01*
X339060Y773588D01*
X335063Y775624D01*
X331433Y778261D01*
X328261Y781433D01*
X325625Y785063D01*
X323588Y789060D01*
X322202Y793326D01*
X321500Y797757D01*
X321500Y800000D01*
X321500Y800000D01*
X332500Y800000D01*
X332584Y798285D01*
X333254Y794920D01*
X334566Y791750D01*
X336472Y788898D01*
X338898Y786472D01*
X341751Y784566D01*
X344920Y783253D01*
X348285Y782584D01*
X351715Y782584D01*
X355080Y783253D01*
X358250Y784566D01*
X361102Y786472D01*
X363528Y788898D01*
X365434Y791751D01*
X366746Y794920D01*
X367416Y798285D01*
X367500Y800000D01*
X367500Y800000D01*
X378500Y800000D01*
D02*
G37*
D14*
X442499Y12750D02*
D03*
X437500D02*
D03*
X432499D02*
D03*
X427500D02*
D03*
X422499D02*
D03*
X417500D02*
D03*
X412499D02*
D03*
X407500D02*
D03*
X402499D02*
D03*
X397501D02*
D03*
X392499D02*
D03*
X387501D02*
D03*
X382499D02*
D03*
X377501D02*
D03*
X372499D02*
D03*
X367501D02*
D03*
X362499D02*
D03*
X357501D02*
D03*
X352499D02*
D03*
X347501D02*
D03*
X342499D02*
D03*
X337501D02*
D03*
X332499D02*
D03*
X327501D02*
D03*
X322499D02*
D03*
X317501D02*
D03*
X312500D02*
D03*
X307501D02*
D03*
X302500D02*
D03*
X277501D02*
D03*
X272500D02*
D03*
X267501D02*
D03*
X262500D02*
D03*
X257501D02*
D03*
X202499D02*
D03*
X197500D02*
D03*
X192499D02*
D03*
X187500D02*
D03*
X182499D02*
D03*
X177500D02*
D03*
X172499D02*
D03*
X167500D02*
D03*
X162499D02*
D03*
X157500D02*
D03*
X152499D02*
D03*
X147501D02*
D03*
X142499D02*
D03*
X137501D02*
D03*
X132499D02*
D03*
X127501D02*
D03*
X122499D02*
D03*
X117501D02*
D03*
X112499D02*
D03*
X107501D02*
D03*
X102499D02*
D03*
X97501D02*
D03*
X92499D02*
D03*
X87501D02*
D03*
X82499D02*
D03*
X77501D02*
D03*
X72499D02*
D03*
X67501D02*
D03*
X62499D02*
D03*
X37501D02*
D03*
X32499D02*
D03*
X27501D02*
D03*
X22499D02*
D03*
X17501D02*
D03*
D15*
X372000Y10000D02*
D03*
X132000D02*
D03*
D16*
X266748D02*
D03*
X26748D02*
D03*
D17*
X126500Y101501D02*
D03*
X333500D02*
D03*
D18*
X235000Y169250D02*
D03*
X240000D02*
D03*
X245000D02*
D03*
X237500Y93751D02*
D03*
X242500D02*
D03*
X322500D02*
D03*
X320000Y169250D02*
D03*
X317500Y93751D02*
D03*
X315000Y169250D02*
D03*
X312500Y93751D02*
D03*
X310000Y169250D02*
D03*
X307500Y93751D02*
D03*
X305000Y169250D02*
D03*
X302500Y93751D02*
D03*
X300000Y169250D02*
D03*
X297500Y93751D02*
D03*
X295000Y169250D02*
D03*
X292500Y93751D02*
D03*
X290000Y169250D02*
D03*
X287500Y93751D02*
D03*
X285000Y169250D02*
D03*
X282500Y93751D02*
D03*
X280000Y169250D02*
D03*
X277500Y93751D02*
D03*
X275000Y169250D02*
D03*
X272500Y93751D02*
D03*
X270000Y169250D02*
D03*
X267500Y93751D02*
D03*
X232500D02*
D03*
X230000Y169250D02*
D03*
X227500Y93751D02*
D03*
X225000Y169250D02*
D03*
X222500Y93751D02*
D03*
X220000Y169250D02*
D03*
X217500Y93751D02*
D03*
X215000Y169250D02*
D03*
X212500Y93751D02*
D03*
X210000Y169250D02*
D03*
X207500Y93751D02*
D03*
X205000Y169250D02*
D03*
X202500Y93751D02*
D03*
X200000Y169250D02*
D03*
X197500Y93751D02*
D03*
X195000Y169250D02*
D03*
X192500Y93751D02*
D03*
X190000Y169250D02*
D03*
X187500Y93751D02*
D03*
X185000Y169250D02*
D03*
X182500Y93751D02*
D03*
X180000Y169250D02*
D03*
X262499Y93750D02*
D03*
X265001Y169250D02*
D03*
X257499Y93750D02*
D03*
X260001Y169250D02*
D03*
X252499Y93750D02*
D03*
X255001Y169250D02*
D03*
X247499Y93750D02*
D03*
X250001Y169250D02*
D03*
X157500Y93751D02*
D03*
X155000Y169250D02*
D03*
X152500Y93751D02*
D03*
X150000Y169250D02*
D03*
X147500Y93751D02*
D03*
X145000Y169250D02*
D03*
X142500Y93751D02*
D03*
X140000Y169250D02*
D03*
X137500Y93751D02*
D03*
D19*
X130000Y146500D02*
D03*
D20*
X330000D02*
D03*
D21*
X230000Y548500D02*
D03*
Y728500D02*
D03*
Y428500D02*
D03*
M02*
