M48
;Layer_Color=9474304
;FILE_FORMAT=4:4
METRIC,LZ
;TYPE=PLATED
T01F00S00C0.2000
T02F00S00C3.5000
;TYPE=NON_PLATED
T03F00S00C1.1000
T04F00S00C1.6000
%
T01
X000225Y000325
X000625
X0005Y0007
X0001
Y0011
X0005
X0009
Y0015
X0005
X0001
Y0019
Y0023
Y0027
Y0031
Y0035
Y0039
X0005
X0009
Y0035
X0005
Y0031
X0009
Y0027
X0005
Y0023
X0009
X0013
Y0027
Y0031
Y0035
Y0039
X0017
X0021
X0025
X0025Y0035
X0021
Y0031
X0025
Y0027
X0021
Y0023
X0025
X0017
Y0027
Y0031
Y0035
X0029Y0039
X0033
X0037
Y0015
Y0011
Y0007
X003625Y000325
X003775
X003895
X003475
X00332501
X003285Y0005625
X003025Y000325
X0028125Y0003925
X002875Y00082
X003025
X002925Y0011075
Y0012075
X002825
Y0011075
X00266Y00111
X0025775Y0011325
X00253154Y00117846
X002445Y0011825
X0024225Y001265
X00250904Y00126096
X00237654Y00131096
X00229404Y00133346
X0019025Y0014225
X0019525Y0014875
X0020025Y0015525
X001975Y0008
X002125
X002275Y00082
X002425
X001735Y0007575
X0015975Y00056
X0013975Y000515
X001315Y0005375
X00126904Y00058346
X00124654Y00066596
X001055Y00064
X00110096Y00059404
X00112346Y00051154
X001225Y000325
X001375
X001525
X001675
X001825
X0019725
X001895Y00056
X0009725Y0006625
X0014175Y0012125
X0009Y0019
X0005
X004025Y001945
Y002045
Y002145
X004125
Y002045
Y001945
Y001845
X004025
X004375
Y001945
Y002045
Y002145
X0045Y0019
Y0015
Y0011
Y0007
X00425Y0009
Y0013
Y000325
X0041Y0039
Y0043
Y0047
Y0051
X0045
Y0047
Y0055
X0041
Y0059
X0045
Y0063
X0041
Y0067
X0045
Y0071
Y0075
Y0079
X0041
Y0075
Y0071
X0037
X00367501Y00782499
X0035Y0077525
X00332499Y00782499
X0033Y0075
X0029
Y0079
X0025
X0021
X0017
Y0075
Y0071
Y0067
X0013
Y0071
Y0075
X00127501Y00782499
X0011Y0077525
X00092499Y00782499
X0009Y0075
X0005
Y0079
X0001
Y0075
Y0071
X0005
X0009
Y0067
X0005
X0001
Y0063
X0005
X0009
Y0059
X0005
X0001
Y0055
X0005
Y0051
Y0047
Y0043
X0009
Y0047
Y0051
Y0055
X0013Y0055
Y0051
Y0047
Y0043
X0017
Y0047
Y0051
Y0055
Y0059
X0013
Y0063
X0017
X0021Y0063
X0025
Y0059
X0021
Y0051
X0025
X0025Y0047
X0029
X0033
X0037
Y0043
X0033
X0029
X0021Y0047
X0001
Y0051
Y0043
X0021Y0067
X0025
X0029Y0071
T02
X0023Y004285
Y005485
Y007285
T03
X0033Y001465
T04
X0013Y001465
M30
