G04*
G04 #@! TF.GenerationSoftware,Altium Limited,Altium Designer,24.5.2 (23)*
G04*
G04 Layer_Physical_Order=2*
G04 Layer_Color=16711680*
%FSLAX44Y44*%
%MOMM*%
G71*
G04*
G04 #@! TF.SameCoordinates,B7296A9B-97E8-4630-929D-2966843682D6*
G04*
G04*
G04 #@! TF.FilePolarity,Positive*
G04*
G01*
G75*
%ADD11C,0.2000*%
%ADD33R,1.4732X1.4732*%
%ADD34C,1.4732*%
%ADD35C,5.5000*%
%ADD36O,1.2080X2.4160*%
%ADD37O,1.4080X2.8160*%
%ADD38C,0.7500*%
%ADD39C,1.0000*%
%ADD40C,0.8000*%
%ADD41C,0.5500*%
%ADD42C,0.5000*%
%ADD43R,0.4000X0.4000*%
%ADD44R,0.3500X1.9500*%
%ADD45C,0.5000*%
G36*
X34786Y240293D02*
X35500Y240000D01*
Y235750D01*
X29500D01*
X29500Y240000D01*
Y240000D01*
X30214Y240293D01*
X31728Y240592D01*
X33272Y240592D01*
X34786Y240293D01*
D02*
G37*
G36*
X35500Y229500D02*
X35500D01*
X34786Y229207D01*
X33272Y228908D01*
X31728Y228908D01*
X30214Y229207D01*
X29500Y229500D01*
X29500Y233750D01*
X35500D01*
X35500Y229500D01*
D02*
G37*
G36*
X34786Y215043D02*
X35500Y214750D01*
Y210500D01*
X29500D01*
X29500Y214750D01*
Y214750D01*
X30214Y215043D01*
X31728Y215342D01*
X33272Y215342D01*
X34786Y215043D01*
D02*
G37*
G36*
X35500Y204250D02*
X35500D01*
X34786Y203957D01*
X33272Y203658D01*
X31728Y203658D01*
X30214Y203957D01*
X29500Y204250D01*
X29500Y208500D01*
X35500D01*
X35500Y204250D01*
D02*
G37*
G36*
X34786Y189543D02*
X35500Y189250D01*
Y185000D01*
X29500D01*
X29500Y189250D01*
Y189250D01*
X30214Y189543D01*
X31728Y189842D01*
X33272Y189842D01*
X34786Y189543D01*
D02*
G37*
G36*
X35500Y178750D02*
X35500D01*
X34786Y178457D01*
X33272Y178158D01*
X31728Y178158D01*
X30214Y178457D01*
X29500Y178750D01*
X29500Y183000D01*
X35500D01*
X35500Y178750D01*
D02*
G37*
G36*
X217832Y959488D02*
X219238Y958082D01*
X220000Y956245D01*
Y955250D01*
Y41999D01*
Y41601D01*
X219695Y40867D01*
X219133Y40304D01*
X218398Y40000D01*
X214500Y40000D01*
X213525Y39904D01*
X211722Y39158D01*
X210342Y37779D01*
X209686Y36194D01*
X209595Y35977D01*
X209499Y35001D01*
X209499D01*
X209499Y35001D01*
X209499Y28999D01*
X206848D01*
X206848Y133790D01*
X208118Y134576D01*
X209334Y134250D01*
X211178D01*
X212958Y134727D01*
X214554Y135649D01*
X215857Y136952D01*
X216779Y138548D01*
X217256Y140328D01*
Y142171D01*
X216779Y143952D01*
X215857Y145548D01*
X214554Y146851D01*
X212958Y147773D01*
X211178Y148250D01*
X209334D01*
X207554Y147773D01*
X205958Y146851D01*
X204655Y145548D01*
X203733Y143952D01*
X203256Y142172D01*
X201986Y141301D01*
X201750Y141348D01*
X194148Y141348D01*
X192197Y140960D01*
X190543Y139855D01*
X189645Y138957D01*
X188540Y137303D01*
X188152Y135352D01*
X188152Y28999D01*
X181849D01*
X181849Y136250D01*
X181461Y138201D01*
X180356Y139855D01*
X180356Y139855D01*
X178702Y140960D01*
X176751Y141348D01*
X159148Y141348D01*
X157197Y140960D01*
X155543Y139855D01*
X154645Y138957D01*
X153540Y137303D01*
X153152Y135352D01*
X153152Y28999D01*
X81799Y28999D01*
Y29750D01*
X81605Y30726D01*
X81052Y31552D01*
X46799Y65806D01*
Y220000D01*
X46605Y220975D01*
X46052Y221802D01*
X44500Y223355D01*
Y224546D01*
X43891Y226016D01*
X42766Y227141D01*
X41296Y227750D01*
X40105D01*
X37124Y230731D01*
X37124Y233750D01*
X36709Y234750D01*
X37124Y235750D01*
Y240000D01*
X36999Y240301D01*
X36998Y240626D01*
X36771Y240852D01*
X36648Y241148D01*
X36348Y241273D01*
X36117Y241502D01*
X35403Y241795D01*
X35238Y241795D01*
X35101Y241886D01*
X33586Y242185D01*
X33424Y242152D01*
X33272Y242216D01*
X31728Y242216D01*
X31576Y242152D01*
X31414Y242185D01*
X29900Y241886D01*
X29762Y241794D01*
X29597Y241795D01*
X28883Y241502D01*
X28653Y241273D01*
X28352Y241148D01*
X28229Y240852D01*
X28002Y240626D01*
X28001Y240301D01*
X28000Y240299D01*
X22832D01*
Y246666D01*
X5100D01*
Y228934D01*
X22832D01*
Y235201D01*
X27103D01*
X27951Y233931D01*
X27876Y233750D01*
X27876Y229500D01*
X28001Y229200D01*
X28002Y228874D01*
X28229Y228648D01*
X28352Y228352D01*
X28652Y228227D01*
X28883Y227998D01*
X29597Y227705D01*
X29762Y227705D01*
X29899Y227614D01*
X31414Y227315D01*
X31576Y227348D01*
X31728Y227284D01*
X33272Y227284D01*
X33335Y227311D01*
X36500Y224145D01*
Y222954D01*
X37109Y221484D01*
X38234Y220359D01*
X39704Y219750D01*
X40895D01*
X41701Y218944D01*
Y202563D01*
X40528Y202077D01*
X37124Y205481D01*
X37124Y208500D01*
X36709Y209500D01*
X37124Y210500D01*
Y214750D01*
X36999Y215051D01*
X36998Y215376D01*
X36771Y215602D01*
X36648Y215898D01*
X36348Y216023D01*
X36117Y216252D01*
X35403Y216545D01*
X35238Y216545D01*
X35101Y216636D01*
X33586Y216935D01*
X33424Y216903D01*
X33272Y216966D01*
X31728Y216966D01*
X31576Y216903D01*
X31414Y216935D01*
X29900Y216636D01*
X29762Y216545D01*
X29597Y216545D01*
X28883Y216252D01*
X28653Y216023D01*
X28352Y215898D01*
X28229Y215602D01*
X28002Y215376D01*
X28001Y215051D01*
X27980Y214999D01*
X22448D01*
X22228Y215822D01*
X21061Y217844D01*
X19410Y219495D01*
X17388Y220662D01*
X15133Y221266D01*
X12799D01*
X10544Y220662D01*
X8522Y219495D01*
X6871Y217844D01*
X5704Y215822D01*
X5100Y213567D01*
Y211233D01*
X5704Y208978D01*
X6871Y206956D01*
X8522Y205305D01*
X10544Y204138D01*
X12799Y203534D01*
X15133D01*
X17388Y204138D01*
X19410Y205305D01*
X21061Y206956D01*
X22228Y208978D01*
X22475Y209901D01*
X27082D01*
X27931Y208631D01*
X27876Y208500D01*
X27876Y204250D01*
X28001Y203950D01*
X28002Y203624D01*
X28229Y203398D01*
X28352Y203102D01*
X28652Y202977D01*
X28883Y202748D01*
X29597Y202455D01*
X29762Y202455D01*
X29899Y202364D01*
X31414Y202065D01*
X31576Y202097D01*
X31728Y202034D01*
X33272Y202034D01*
X33335Y202061D01*
X37951Y197444D01*
Y191008D01*
X36807Y190336D01*
X36648Y190398D01*
X36348Y190523D01*
X36117Y190752D01*
X35403Y191045D01*
X35238Y191045D01*
X35101Y191136D01*
X33586Y191435D01*
X33424Y191402D01*
X33272Y191466D01*
X31728Y191466D01*
X31576Y191402D01*
X31414Y191435D01*
X29900Y191136D01*
X29762Y191045D01*
X29597Y191045D01*
X28883Y190752D01*
X28653Y190523D01*
X28352Y190398D01*
X28229Y190102D01*
X28002Y189876D01*
X28001Y189550D01*
X28000Y189549D01*
X22462D01*
X22228Y190422D01*
X21061Y192444D01*
X19410Y194095D01*
X17388Y195262D01*
X15133Y195866D01*
X12799D01*
X10544Y195262D01*
X8522Y194095D01*
X6871Y192444D01*
X5704Y190422D01*
X5100Y188167D01*
Y185833D01*
X5704Y183578D01*
X6871Y181556D01*
X8522Y179905D01*
X10544Y178738D01*
X12799Y178134D01*
X15133D01*
X17388Y178738D01*
X19410Y179905D01*
X21061Y181556D01*
X22228Y183578D01*
X22462Y184451D01*
X27103D01*
X27951Y183181D01*
X27876Y183000D01*
X27876Y178750D01*
X28001Y178449D01*
X28002Y178124D01*
X28229Y177898D01*
X28352Y177602D01*
X28652Y177477D01*
X28883Y177248D01*
X29597Y176955D01*
X29762Y176955D01*
X29899Y176864D01*
X31414Y176565D01*
X31576Y176597D01*
X31728Y176534D01*
X33272Y176534D01*
X33335Y176560D01*
X34201Y175694D01*
Y142057D01*
X34188Y142027D01*
X32931Y141113D01*
X31750Y141348D01*
X19756Y141348D01*
Y142501D01*
X19109Y144917D01*
X17858Y147083D01*
X16089Y148852D01*
X13923Y150103D01*
X11507Y150750D01*
X9005D01*
X6589Y150103D01*
X4423Y148852D01*
X2654Y147083D01*
X1403Y144917D01*
X1270Y144419D01*
X-0Y144586D01*
X-0Y955250D01*
Y956244D01*
X761Y958082D01*
X2167Y959488D01*
X4004Y960249D01*
X4999D01*
X4999Y960249D01*
X215995D01*
X217832Y959488D01*
D02*
G37*
G36*
X1403Y137583D02*
X2654Y135417D01*
X4423Y133648D01*
X6589Y132397D01*
X9005Y131750D01*
X11507D01*
X12140Y131920D01*
X13147Y131146D01*
X13154Y29897D01*
X12256Y28999D01*
X10500D01*
X10500Y35001D01*
X10404Y35977D01*
X9657Y37779D01*
X8277Y39158D01*
X6661Y39827D01*
X6474Y39904D01*
X5502Y39999D01*
X5499Y40000D01*
X5499Y40000D01*
X5499Y40000D01*
X1601D01*
X867Y40304D01*
X304Y40867D01*
X0Y41601D01*
X-0Y137914D01*
X1270Y138081D01*
X1403Y137583D01*
D02*
G37*
G36*
X63473Y30173D02*
X62987Y28999D01*
X54750D01*
X54635Y30170D01*
X53739Y32333D01*
X52084Y33989D01*
X49921Y34886D01*
X48750Y35001D01*
X47579Y34886D01*
X45416Y33989D01*
X43761Y32333D01*
X42884Y30214D01*
X42866Y30170D01*
X42751Y28999D01*
X36848D01*
X36848Y55138D01*
X38022Y55624D01*
X63473Y30173D01*
D02*
G37*
G36*
X201750Y136250D02*
X201750Y5500D01*
X193251D01*
X193250Y20500D01*
X193250Y135352D01*
X194148Y136250D01*
X201750Y136250D01*
D02*
G37*
G36*
X176751Y136250D02*
X176751Y26500D01*
X176750D01*
Y5500D01*
X158251D01*
Y26500D01*
X158250D01*
X158250Y135352D01*
X159148Y136250D01*
X176751Y136250D01*
D02*
G37*
G36*
X31750Y136250D02*
X31750Y26500D01*
X31749D01*
Y5500D01*
X18254D01*
X18245Y135019D01*
X19447Y136250D01*
X31750Y136250D01*
D02*
G37*
%LPC*%
G36*
X44005Y761622D02*
X43707Y761498D01*
X43384Y761498D01*
X41546Y760738D01*
X41318Y760509D01*
X41020Y760386D01*
X39613Y758979D01*
X39490Y758681D01*
X39261Y758453D01*
X38500Y756616D01*
X38500Y756293D01*
X38377Y755994D01*
X38377Y755000D01*
X38377Y755000D01*
X38377Y755000D01*
X38377Y363500D01*
Y362505D01*
X38500Y362207D01*
Y361884D01*
X39261Y360047D01*
X39490Y359818D01*
X39613Y359520D01*
X41020Y358114D01*
X41318Y357990D01*
X41546Y357762D01*
X43383Y357001D01*
X43706D01*
X44005Y356877D01*
X44999D01*
X61671Y356876D01*
X62327Y356811D01*
X63608Y356281D01*
X64530Y355358D01*
X65061Y354077D01*
X65126Y353421D01*
X65127Y291252D01*
Y290258D01*
X65251Y289960D01*
Y289637D01*
X66012Y287799D01*
X66240Y287571D01*
X66364Y287273D01*
X67770Y285867D01*
X68068Y285743D01*
X68297Y285515D01*
X70134Y284754D01*
X70457D01*
X70755Y284630D01*
X71750D01*
X148751Y284631D01*
X149745D01*
X150043Y284754D01*
X150366D01*
X152204Y285515D01*
X152432Y285743D01*
X152731Y285867D01*
X154137Y287273D01*
X154260Y287572D01*
X154488Y287800D01*
X155250Y289637D01*
Y289960D01*
X155373Y290259D01*
Y291253D01*
X155374Y353421D01*
X155439Y354077D01*
X155969Y355358D01*
X156892Y356280D01*
X158173Y356811D01*
X158829Y356876D01*
X175001Y356877D01*
X175995D01*
X176294Y357001D01*
X176616D01*
X178454Y357762D01*
X178682Y357990D01*
X178980Y358114D01*
X180387Y359520D01*
X180510Y359818D01*
X180739Y360047D01*
X181500Y361884D01*
Y362207D01*
X181623Y362505D01*
Y363500D01*
Y755000D01*
Y755994D01*
X181500Y756292D01*
Y756615D01*
X180739Y758453D01*
X180510Y758681D01*
X180387Y758979D01*
X178980Y760385D01*
X178682Y760509D01*
X178454Y760737D01*
X176616Y761498D01*
X176294D01*
X175995Y761622D01*
X44999D01*
X44999Y761622D01*
X44005Y761622D01*
D02*
G37*
G36*
X133544Y275500D02*
X131456D01*
X129526Y274701D01*
X128830Y274004D01*
X128000Y273268D01*
X127170Y274004D01*
X126474Y274701D01*
X124544Y275500D01*
X122456D01*
X120526Y274701D01*
X119830Y274004D01*
X119000Y273268D01*
X118170Y274004D01*
X117474Y274701D01*
X115544Y275500D01*
X113456D01*
X111526Y274701D01*
X110830Y274004D01*
X110000Y273268D01*
X109170Y274004D01*
X108474Y274701D01*
X106544Y275500D01*
X104456D01*
X102526Y274701D01*
X101830Y274004D01*
X101000Y273268D01*
X100170Y274004D01*
X99474Y274701D01*
X97544Y275500D01*
X95456D01*
X93526Y274701D01*
X92830Y274004D01*
X92000Y273268D01*
X91170Y274004D01*
X90474Y274701D01*
X88544Y275500D01*
X86456D01*
X84526Y274701D01*
X83049Y273224D01*
X82250Y271294D01*
Y269206D01*
X83049Y267276D01*
X83506Y266819D01*
X82980Y265549D01*
X72000D01*
X71024Y265355D01*
X70198Y264802D01*
X49448Y244052D01*
X48895Y243225D01*
X48701Y242250D01*
Y162750D01*
X48895Y161775D01*
X49448Y160948D01*
X80701Y129694D01*
Y51895D01*
X79484Y51391D01*
X78359Y50266D01*
X77750Y48796D01*
Y47204D01*
X78359Y45734D01*
X79484Y44609D01*
X80954Y44000D01*
X82546D01*
X84016Y44609D01*
X85000Y45593D01*
X85984Y44609D01*
X87454Y44000D01*
X89046D01*
X90516Y44609D01*
X91641Y45734D01*
X92250Y47204D01*
Y48796D01*
X91641Y50266D01*
X90516Y51391D01*
X89299Y51895D01*
Y132200D01*
X89105Y133175D01*
X88552Y134002D01*
X57299Y165256D01*
Y231099D01*
X57896Y231347D01*
X58569Y231514D01*
X59991Y230693D01*
X61644Y230250D01*
X63356D01*
X63993Y230421D01*
X65000Y229648D01*
Y229204D01*
X65609Y227734D01*
X66734Y226609D01*
X67951Y226105D01*
Y201740D01*
X67951Y201740D01*
Y173500D01*
X68145Y172525D01*
X68698Y171698D01*
X95702Y144693D01*
Y40395D01*
X94486Y39891D01*
X93360Y38766D01*
X92751Y37296D01*
Y35704D01*
X93360Y34234D01*
X94486Y33109D01*
X95956Y32500D01*
X97547D01*
X99017Y33109D01*
X100001Y34093D01*
X100986Y33109D01*
X102456Y32500D01*
X104047D01*
X105517Y33109D01*
X106642Y34234D01*
X106813Y34647D01*
X108188D01*
X108359Y34234D01*
X109484Y33109D01*
X110954Y32500D01*
X112546D01*
X114016Y33109D01*
X115000Y34093D01*
X115984Y33109D01*
X117454Y32500D01*
X119046D01*
X120516Y33109D01*
X121641Y34234D01*
X121813Y34650D01*
X123188D01*
X123360Y34234D01*
X124486Y33109D01*
X125956Y32500D01*
X127547D01*
X129017Y33109D01*
X130001Y34093D01*
X130985Y33109D01*
X132456Y32500D01*
X134047D01*
X135517Y33109D01*
X136642Y34234D01*
X137251Y35704D01*
Y37296D01*
X136642Y38766D01*
X135517Y39891D01*
X134300Y40395D01*
Y82165D01*
X134324Y82285D01*
Y121719D01*
X159052Y146448D01*
X159605Y147275D01*
X159799Y148250D01*
Y173496D01*
X161069Y173882D01*
X161895Y172645D01*
X163549Y171540D01*
X165500Y171152D01*
X176750D01*
X178701Y171540D01*
X180355Y172645D01*
X181460Y174299D01*
X181848Y176250D01*
Y205500D01*
X181460Y207451D01*
X180355Y209105D01*
X178701Y210210D01*
X178374Y210275D01*
Y211750D01*
X178249Y212050D01*
X178248Y212376D01*
X178021Y212602D01*
X177898Y212898D01*
X177828Y212927D01*
Y234750D01*
X177518Y236311D01*
X176634Y237634D01*
X176634Y237634D01*
X158884Y255384D01*
X157561Y256268D01*
X156000Y256578D01*
X156000Y256578D01*
X110941D01*
X110585Y257232D01*
X110481Y257848D01*
X113552Y260919D01*
X114105Y261746D01*
X114299Y262722D01*
Y265000D01*
X115544D01*
X117474Y265799D01*
X118170Y266496D01*
X119000Y267232D01*
X119830Y266496D01*
X120526Y265799D01*
X122456Y265000D01*
X124544D01*
X126474Y265799D01*
X127170Y266496D01*
X128000Y267232D01*
X128830Y266496D01*
X129526Y265799D01*
X131456Y265000D01*
X133544D01*
X135474Y265799D01*
X136951Y267276D01*
X137750Y269206D01*
Y271294D01*
X136951Y273224D01*
X135474Y274701D01*
X133544Y275500D01*
D02*
G37*
%LPD*%
G36*
X132312Y247152D02*
X131750Y245794D01*
Y243706D01*
X131991Y243124D01*
X131137Y241868D01*
X129526Y241201D01*
X128830Y240504D01*
X128000Y239768D01*
X127170Y240504D01*
X126474Y241201D01*
X124544Y242000D01*
X122456D01*
X120526Y241201D01*
X119830Y240504D01*
X119000Y239768D01*
X118170Y240504D01*
X117474Y241201D01*
X115544Y242000D01*
X113456D01*
X111526Y241201D01*
X110830Y240504D01*
X110000Y239768D01*
X109170Y240504D01*
X108474Y241201D01*
X106544Y242000D01*
X104456D01*
X102526Y241201D01*
X101830Y240504D01*
X101000Y239768D01*
X100170Y240504D01*
X99474Y241201D01*
X97544Y242000D01*
X95456D01*
X93526Y241201D01*
X92830Y240504D01*
X92000Y239768D01*
X91170Y240504D01*
X90474Y241201D01*
X88863Y241868D01*
X88009Y243124D01*
X88250Y243706D01*
Y244232D01*
X92439Y248422D01*
X131588D01*
X132312Y247152D01*
D02*
G37*
G36*
X88311Y255681D02*
X87866Y255384D01*
X82482Y250000D01*
X81956D01*
X80026Y249201D01*
X78549Y247724D01*
X77750Y245794D01*
Y243706D01*
X78549Y241776D01*
X80026Y240299D01*
X81637Y239632D01*
X82491Y238376D01*
X82250Y237794D01*
Y235706D01*
X83049Y233776D01*
X84526Y232299D01*
X85850Y231751D01*
X86222Y230327D01*
X78448Y222552D01*
X77895Y221725D01*
X77819Y221343D01*
X76549Y221468D01*
Y226105D01*
X77766Y226609D01*
X78891Y227734D01*
X79500Y229204D01*
Y230796D01*
X78891Y232266D01*
X77766Y233391D01*
X76296Y234000D01*
X74704D01*
X73234Y233391D01*
X72250Y232407D01*
X71266Y233391D01*
X69796Y234000D01*
X68833Y235270D01*
X69000Y235894D01*
Y237606D01*
X68557Y239259D01*
X67701Y240741D01*
X66491Y241951D01*
X65009Y242807D01*
X63356Y243250D01*
X62600D01*
X62074Y244520D01*
X74506Y256951D01*
X87926D01*
X88311Y255681D01*
D02*
G37*
G36*
X176036Y212043D02*
X176750Y211750D01*
Y207500D01*
X170750D01*
X170750Y211750D01*
Y211750D01*
X171464Y212043D01*
X172978Y212342D01*
X174522Y212342D01*
X176036Y212043D01*
D02*
G37*
G36*
X158212Y244520D02*
X157686Y243250D01*
X156644D01*
X154991Y242807D01*
X153509Y241951D01*
X152299Y240741D01*
X151443Y239259D01*
X151000Y237606D01*
Y235894D01*
X151443Y234241D01*
X152299Y232759D01*
X153509Y231549D01*
X154991Y230693D01*
X156644Y230250D01*
X158356D01*
X160009Y230693D01*
X161491Y231549D01*
X162701Y232759D01*
X163557Y234241D01*
X164000Y235894D01*
Y236936D01*
X165270Y237462D01*
X169672Y233061D01*
Y212927D01*
X169602Y212898D01*
X169479Y212602D01*
X169252Y212376D01*
X169251Y212050D01*
X169126Y211750D01*
Y210275D01*
X168799Y210210D01*
X167145Y209105D01*
X166040Y207451D01*
X165652Y205500D01*
Y203612D01*
X161895Y199855D01*
X161069Y198618D01*
X159799Y199004D01*
Y211200D01*
X159605Y212175D01*
X159052Y213002D01*
X140502Y231552D01*
X139675Y232105D01*
X138700Y232299D01*
X137270D01*
X136744Y233569D01*
X136951Y233776D01*
X137750Y235706D01*
Y237794D01*
X137509Y238376D01*
X138363Y239632D01*
X139974Y240299D01*
X141451Y241776D01*
X142250Y243706D01*
Y245794D01*
X141688Y247152D01*
X142412Y248422D01*
X154311D01*
X158212Y244520D01*
D02*
G37*
G36*
X101830Y232996D02*
X102526Y232299D01*
X104456Y231500D01*
X105701D01*
Y229472D01*
X105895Y228496D01*
X106448Y227669D01*
X109670Y224448D01*
X110496Y223895D01*
X111472Y223701D01*
X126111D01*
X126111Y223701D01*
X136194D01*
X151201Y208694D01*
Y150756D01*
X126473Y126027D01*
X125920Y125200D01*
X125726Y124225D01*
Y83830D01*
X125702Y83711D01*
Y40395D01*
X124486Y39891D01*
X123360Y38766D01*
X123188Y38350D01*
X121813D01*
X121641Y38766D01*
X120516Y39891D01*
X119299Y40395D01*
Y149444D01*
X139552Y169698D01*
X140105Y170525D01*
X140299Y171500D01*
Y185565D01*
X143237Y188504D01*
X144454Y188000D01*
X146046D01*
X147516Y188609D01*
X148641Y189734D01*
X149250Y191204D01*
Y192796D01*
X148641Y194266D01*
X147516Y195391D01*
X146046Y196000D01*
X144654D01*
Y197392D01*
X144045Y198862D01*
X142920Y199987D01*
X141449Y200596D01*
X139858D01*
X138388Y199987D01*
X137263Y198862D01*
X136654Y197392D01*
Y195800D01*
X137158Y194584D01*
X132448Y189873D01*
X131895Y189046D01*
X131701Y188071D01*
Y174006D01*
X111448Y153752D01*
X110895Y152925D01*
X110701Y151950D01*
Y40395D01*
X109484Y39891D01*
X108359Y38766D01*
X108188Y38353D01*
X106813D01*
X106642Y38766D01*
X105517Y39891D01*
X104300Y40395D01*
Y147198D01*
X104106Y148174D01*
X103554Y149001D01*
X76549Y176005D01*
Y203189D01*
X76549Y203190D01*
Y205032D01*
X77819Y205157D01*
X77895Y204774D01*
X78448Y203948D01*
X86448Y195948D01*
X87275Y195395D01*
X88250Y195201D01*
X92670D01*
X93043Y193931D01*
X91655Y192544D01*
X90488Y190522D01*
X89884Y188267D01*
Y185933D01*
X90488Y183678D01*
X91655Y181656D01*
X93306Y180005D01*
X95328Y178838D01*
X97583Y178234D01*
X99917D01*
X102172Y178838D01*
X104194Y180005D01*
X105845Y181656D01*
X107012Y183678D01*
X107616Y185933D01*
Y188267D01*
X107012Y190522D01*
X105845Y192544D01*
X104194Y194195D01*
X102172Y195362D01*
X101299Y195596D01*
Y196578D01*
X101105Y197554D01*
X100552Y198381D01*
X100068Y198865D01*
Y200135D01*
X100552Y200619D01*
X101105Y201446D01*
X101299Y202422D01*
Y203634D01*
X107616D01*
Y221366D01*
X91217D01*
X90690Y222636D01*
X92063Y224008D01*
X92331Y224187D01*
X95552Y227409D01*
X96105Y228236D01*
X96299Y229211D01*
Y231500D01*
X97544D01*
X99474Y232299D01*
X100170Y232996D01*
X101000Y233732D01*
X101830Y232996D01*
D02*
G37*
G36*
X176750Y176250D02*
X165500D01*
Y196250D01*
X170750Y201500D01*
X170750Y205500D01*
X176750D01*
Y176250D01*
D02*
G37*
%LPC*%
G36*
X122417Y221366D02*
X120083D01*
X117828Y220762D01*
X115806Y219595D01*
X114155Y217944D01*
X112988Y215922D01*
X112384Y213667D01*
Y211333D01*
X112988Y209078D01*
X114155Y207056D01*
X115806Y205405D01*
X117828Y204238D01*
X120083Y203634D01*
X122417D01*
X124672Y204238D01*
X126694Y205405D01*
X128345Y207056D01*
X129512Y209078D01*
X130116Y211333D01*
Y213667D01*
X129512Y215922D01*
X128345Y217944D01*
X126694Y219595D01*
X124672Y220762D01*
X122417Y221366D01*
D02*
G37*
G36*
X130116Y195966D02*
X112384D01*
Y178234D01*
X130116D01*
Y195966D01*
D02*
G37*
%LPD*%
D11*
X36750Y60500D02*
X69250Y28000D01*
X40500Y62750D02*
X74249Y29001D01*
X36750Y60500D02*
Y176750D01*
X32500Y231750D02*
X44250Y220000D01*
X32500Y206500D02*
X40500Y198500D01*
X44250Y64750D02*
Y220000D01*
X32500Y181000D02*
X36750Y176750D01*
X44250Y64750D02*
X79250Y29750D01*
X40500Y62750D02*
Y198500D01*
X69250Y16000D02*
Y28000D01*
X74249Y16000D02*
Y29001D01*
X138700Y229750D02*
X157250Y211200D01*
X131775Y122775D02*
X157250Y148250D01*
Y211200D01*
X153750Y149700D02*
Y209750D01*
X137250Y226250D02*
X153750Y209750D01*
X128275Y124225D02*
X153750Y149700D01*
X74000Y227688D02*
X75500Y229188D01*
Y230000D01*
X69000Y229188D02*
Y230000D01*
X70500Y201740D02*
Y227688D01*
Y201740D02*
X70500Y201740D01*
X74000Y203189D02*
Y227688D01*
X74000Y174950D02*
Y203189D01*
X70500Y173500D02*
Y201740D01*
X74000Y203189D02*
X74000Y203189D01*
X69000Y229188D02*
X70500Y227688D01*
X70500Y173500D02*
X98251Y145749D01*
X74000Y174950D02*
X101751Y147198D01*
X90439Y225990D02*
X90528D01*
X80250Y220750D02*
X88990Y229490D01*
X90528Y225990D02*
X93750Y229211D01*
X83750Y219300D02*
X90439Y225990D01*
X73450Y259500D02*
X89839D01*
X72000Y263000D02*
X91289D01*
X51250Y242250D02*
X72000Y263000D01*
X54750Y240800D02*
X73450Y259500D01*
X80250Y205750D02*
Y220750D01*
X83750Y207200D02*
Y219300D01*
X89078Y229490D02*
X90250Y230661D01*
X87500Y235578D02*
X90250Y232828D01*
X87500Y235578D02*
Y236750D01*
X88990Y229490D02*
X89078D01*
X90250Y230661D02*
Y232828D01*
X83750Y207200D02*
X89700Y201250D01*
X97578D02*
X98750Y202422D01*
Y212200D01*
X89700Y201250D02*
X97578D01*
X80250Y205750D02*
X88250Y197750D01*
X54750Y164200D02*
Y240800D01*
X51250Y162750D02*
Y242250D01*
X98251Y38812D02*
Y145749D01*
X101751Y38812D02*
Y147198D01*
X54750Y164200D02*
X86750Y132200D01*
X51250Y162750D02*
X83250Y130750D01*
X91289Y263000D02*
X107078D01*
X89839Y259500D02*
X89839Y259500D01*
X108528D01*
X91289Y263000D02*
X91289Y263000D01*
X108250Y264172D02*
Y266328D01*
X107078Y263000D02*
X108250Y264172D01*
X111750Y262722D02*
Y266328D01*
X108528Y259500D02*
X111750Y262722D01*
Y266328D02*
X114500Y269078D01*
X105500Y269078D02*
X108250Y266328D01*
X13966Y187000D02*
X32500D01*
X14016Y212450D02*
X32450D01*
X32500Y212500D01*
X13966Y212400D02*
X14016Y212450D01*
Y237750D02*
X32500D01*
X13966Y237800D02*
X14016Y237750D01*
X79250Y16000D02*
Y29750D01*
X86750Y50312D02*
Y132200D01*
X83250Y50312D02*
Y130750D01*
X79250Y16000D02*
X80000Y15250D01*
X74249Y16000D02*
X74999Y15250D01*
X69250Y16000D02*
X70000Y15250D01*
X103251Y36500D02*
Y37312D01*
X96751D02*
X98251Y38812D01*
X101751D02*
X103251Y37312D01*
X96751Y36500D02*
Y37312D01*
X88250Y197750D02*
X97578D01*
X137750Y171500D02*
Y186621D01*
X140080Y193901D02*
Y196022D01*
X142555Y191426D02*
X144676D01*
X134250Y172950D02*
Y188071D01*
X140080Y193901D01*
Y196022D02*
X140654Y196596D01*
X137750Y186621D02*
X142555Y191426D01*
X144676D02*
X145250Y192000D01*
X116750Y150500D02*
X137750Y171500D01*
X113250Y151950D02*
X134250Y172950D01*
X116750Y38812D02*
Y150500D01*
X113250Y38812D02*
Y151950D01*
X98750Y186800D02*
Y196578D01*
X97578Y197750D02*
X98750Y196578D01*
X93750Y232828D02*
X96500Y235578D01*
X93750Y229211D02*
Y232828D01*
X96500Y235578D02*
Y236750D01*
X111750Y232828D02*
X114500Y235578D01*
X111750Y230921D02*
Y232828D01*
X126111Y226250D02*
X126111Y226250D01*
X108250Y229472D02*
X111472Y226250D01*
X126111D01*
X124661Y229750D02*
X124661Y229750D01*
X112922Y229750D02*
X124661D01*
X108250Y229472D02*
Y232828D01*
X126111Y226250D02*
X137250D01*
X124661Y229750D02*
X138700D01*
X114500Y235578D02*
Y236750D01*
X111750Y230921D02*
X112922Y229750D01*
X105500Y235578D02*
X108250Y232828D01*
X105500Y235578D02*
Y236750D01*
X128275Y83735D02*
Y124225D01*
X131775Y82285D02*
Y122775D01*
X128251Y83711D02*
X128275Y83735D01*
X131751Y38812D02*
Y82261D01*
X131775Y82285D01*
X128251Y38812D02*
Y83711D01*
X116750Y38812D02*
X118250Y37312D01*
X111750Y36500D02*
Y37312D01*
X113250Y38812D01*
X118250Y36500D02*
Y37312D01*
X126751D02*
X128251Y38812D01*
X126751Y36500D02*
Y37312D01*
X133251Y36500D02*
Y37312D01*
X131751Y38812D02*
X133251Y37312D01*
X114500Y269078D02*
Y270250D01*
X105500Y269078D02*
Y270250D01*
D33*
X121250Y187100D02*
D03*
X98750Y212500D02*
D03*
X13966Y237800D02*
D03*
D34*
X98750Y187100D02*
D03*
X121250Y212500D02*
D03*
X13966Y212400D02*
D03*
Y187000D02*
D03*
D35*
X110000Y800000D02*
D03*
Y917250D02*
D03*
D36*
X58000Y323250D02*
D03*
X162000D02*
D03*
D37*
X165000Y268250D02*
D03*
X55000D02*
D03*
D38*
X83000Y278250D02*
D03*
X101000D02*
D03*
X119000D02*
D03*
X137000D02*
D03*
X132500Y270250D02*
D03*
X123500D02*
D03*
X87500D02*
D03*
X96500D02*
D03*
X105500D02*
D03*
X114500D02*
D03*
X83000Y244750D02*
D03*
X101000D02*
D03*
X119000D02*
D03*
X137000D02*
D03*
X132500Y236750D02*
D03*
X123500D02*
D03*
X87500D02*
D03*
X96500D02*
D03*
X105500D02*
D03*
X114500D02*
D03*
D39*
X62500D02*
D03*
X157500D02*
D03*
D40*
X10256Y141250D02*
D03*
D41*
X210256D02*
D03*
D42*
X40500Y223750D02*
D03*
X107500Y143250D02*
D03*
X60000Y170250D02*
D03*
X200000Y190000D02*
D03*
Y210000D02*
D03*
Y230000D02*
D03*
X43750Y251000D02*
D03*
Y236500D02*
D03*
X82500Y230250D02*
D03*
X111250Y220250D02*
D03*
X140000Y234750D02*
D03*
X153750Y245000D02*
D03*
X138500Y210500D02*
D03*
X115250Y259000D02*
D03*
X122750D02*
D03*
X119000Y263750D02*
D03*
X100750Y228500D02*
D03*
X145250Y173000D02*
D03*
X59000Y141250D02*
D03*
X77500Y40500D02*
D03*
X161750Y224500D02*
D03*
X51250Y151750D02*
D03*
X59500Y64250D02*
D03*
X53750Y95000D02*
D03*
Y75250D02*
D03*
X42000Y43250D02*
D03*
X174250Y178750D02*
D03*
X168000D02*
D03*
X65250Y224000D02*
D03*
X79250Y236000D02*
D03*
X75500Y230000D02*
D03*
X69000D02*
D03*
X89500Y178000D02*
D03*
X6000Y127750D02*
D03*
X77500Y55000D02*
D03*
X93250Y55000D02*
D03*
X88250Y48000D02*
D03*
X81750D02*
D03*
X93250Y82250D02*
D03*
X103251Y36500D02*
D03*
X96751D02*
D03*
X20000Y950000D02*
D03*
X80000Y950000D02*
D03*
X40000D02*
D03*
X60000D02*
D03*
X160000D02*
D03*
X180000D02*
D03*
X140000D02*
D03*
X200000Y950000D02*
D03*
X100000Y870000D02*
D03*
X120000D02*
D03*
X140000D02*
D03*
X109500Y178000D02*
D03*
X214512Y127750D02*
D03*
Y163250D02*
D03*
X6000D02*
D03*
X138000Y143250D02*
D03*
X123000D02*
D03*
X89500D02*
D03*
X122750Y82250D02*
D03*
X107750D02*
D03*
X5996Y46250D02*
D03*
Y66000D02*
D03*
X214000Y66000D02*
D03*
Y46250D02*
D03*
X185000Y57250D02*
D03*
Y78750D02*
D03*
X197500Y122500D02*
D03*
Y112500D02*
D03*
Y132500D02*
D03*
X172500D02*
D03*
Y112500D02*
D03*
Y122500D02*
D03*
X162500Y132500D02*
D03*
Y112500D02*
D03*
Y122500D02*
D03*
X25000D02*
D03*
Y112500D02*
D03*
Y132500D02*
D03*
X92501Y29327D02*
D03*
X133654Y196846D02*
D03*
X145000Y185000D02*
D03*
X140654Y196596D02*
D03*
X145250Y192000D02*
D03*
X133251Y36500D02*
D03*
X126751D02*
D03*
X137756Y29369D02*
D03*
X122501Y29327D02*
D03*
X107502D02*
D03*
X111750Y36500D02*
D03*
X118250D02*
D03*
X152501Y29327D02*
D03*
X180000Y770000D02*
D03*
X160000D02*
D03*
X60000Y770000D02*
D03*
X40000D02*
D03*
Y790000D02*
D03*
X60000D02*
D03*
X160000Y790000D02*
D03*
X180000D02*
D03*
X40000Y810000D02*
D03*
X60000D02*
D03*
X160000Y810000D02*
D03*
X180000D02*
D03*
X92499Y782499D02*
D03*
X127501Y782499D02*
D03*
X110000Y775250D02*
D03*
X85250Y800000D02*
D03*
X134750Y800000D02*
D03*
X60000Y930000D02*
D03*
X180000Y930000D02*
D03*
X160000D02*
D03*
X180000Y910000D02*
D03*
X160000D02*
D03*
X180000Y890000D02*
D03*
X160000D02*
D03*
X180000Y870000D02*
D03*
X160000D02*
D03*
X180000Y830000D02*
D03*
X160000D02*
D03*
X60000Y830000D02*
D03*
X40000D02*
D03*
X44000Y878000D02*
D03*
Y898000D02*
D03*
X160000Y850000D02*
D03*
X180000D02*
D03*
X140000D02*
D03*
X120000D02*
D03*
X100000D02*
D03*
X200000Y250000D02*
D03*
Y270000D02*
D03*
Y290000D02*
D03*
Y850000D02*
D03*
Y870000D02*
D03*
Y930000D02*
D03*
Y910000D02*
D03*
Y890000D02*
D03*
X20000Y930000D02*
D03*
Y810000D02*
D03*
Y830000D02*
D03*
Y730000D02*
D03*
Y750000D02*
D03*
Y790000D02*
D03*
Y770000D02*
D03*
Y650000D02*
D03*
Y670000D02*
D03*
Y710000D02*
D03*
Y690000D02*
D03*
Y410000D02*
D03*
Y430000D02*
D03*
Y470000D02*
D03*
Y450000D02*
D03*
Y330000D02*
D03*
Y350000D02*
D03*
Y390000D02*
D03*
Y370000D02*
D03*
Y310000D02*
D03*
X127501Y817501D02*
D03*
X92499Y817501D02*
D03*
X110000Y824750D02*
D03*
X134750Y917250D02*
D03*
X110000Y942000D02*
D03*
X85250Y917250D02*
D03*
X110000Y892500D02*
D03*
X127501Y899749D02*
D03*
X92499Y899749D02*
D03*
X92499Y934751D02*
D03*
X127501Y934751D02*
D03*
X182500Y29327D02*
D03*
D43*
X173750Y203500D02*
D03*
Y209500D02*
D03*
X32500Y187000D02*
D03*
Y181000D02*
D03*
Y212500D02*
D03*
Y206500D02*
D03*
Y237750D02*
D03*
Y231750D02*
D03*
D44*
X200000Y15250D02*
D03*
X195001D02*
D03*
X190000D02*
D03*
X185001D02*
D03*
X180000D02*
D03*
X175001D02*
D03*
X170000D02*
D03*
X165001D02*
D03*
X160000D02*
D03*
X155001D02*
D03*
X150000D02*
D03*
X145001D02*
D03*
X140000D02*
D03*
X135001D02*
D03*
X130000D02*
D03*
X125001D02*
D03*
X120000D02*
D03*
X115001D02*
D03*
X110000D02*
D03*
X104999D02*
D03*
X100000D02*
D03*
X94999D02*
D03*
X90000D02*
D03*
X84999D02*
D03*
X80000D02*
D03*
X74999D02*
D03*
X70000D02*
D03*
X64999D02*
D03*
X60000D02*
D03*
X34999D02*
D03*
X30000D02*
D03*
X24999D02*
D03*
X20000D02*
D03*
D45*
X90750Y252500D02*
X156000D01*
X83205Y244955D02*
X90750Y252500D01*
X156000D02*
X173750Y234750D01*
Y210310D02*
Y234750D01*
M02*
