M48
;Layer_Color=9474304
;FILE_FORMAT=4:4
METRIC,LZ
;TYPE=PLATED
T01F00S00C0.2000
T02F00S00C0.5500
T05F00S00C0.9398
T06F00S00C3.5000
;TYPE=NON_PLATED
T07F00S00C1.0000
T08F00S00C1.1000
T09F00S00C1.6000
%
T01
X00005996Y0004625
Y00066
X000595Y0006425
X0005375Y0007525
Y00095
X00025Y001125
Y001225
Y001325
X00006Y0012775
Y0016325
X0005125Y0015175
X00059Y0014125
X0006Y0017025
X000895Y00178
X001095
X001075Y0014325
X00123
X00138
X001625Y001325
X001725
Y001225
Y001125
X001625
Y001225
X001975
Y001125
Y001325
X00214512Y0012775
Y0016325
X002Y0019
Y0021
Y0023
Y0025
Y0027
Y0029
X0015375Y00245
X0014Y0023475
X001385Y002105
X00140654Y00196596
X00133654Y00196846
X0014525Y00192
X00145Y00185
X0014525Y00173
X00168Y0017875
X0017425
X0016175Y002245
X0011125Y0022025
X0010075Y002285
X000825Y0023025
X000755Y0023
X00069
X0006525Y00224
X000405Y0022375
X0004375Y002365
Y00251
X0007925Y00236
X0011525Y00259
X0012275
X00119Y0026375
X0002Y0031
Y0033
Y0035
Y0037
Y0039
X000895Y0014325
X0009325Y0008225
X0010775
X0012275
X00126751Y000365
X00133251
X00137756Y00029369
X00152501Y00029327
X00122501
X0011825Y000365
X0011175
X00103251
X00096751
X00092501Y00029327
X00107502
X0008825Y00048
X0008175
X000775Y00055
X000775Y000405
X0009325Y00055
X00042Y0004325
X001825Y00029327
X00185Y0005725
Y0007875
X00214Y00066
Y0004625
X0002Y0041
Y0043
Y0045
Y0047
Y0065
Y0067
Y0069
Y0071
Y0073
Y0075
Y0077
X0004
X0006
Y0079
X0004
X0002
X00092499Y00782499
X0011Y0077525
X00127501Y00782499
X0016Y0079
Y0077
X0018
Y0079
Y0081
X0016
Y0083
X0018
Y0085
Y0087
Y0089
Y0091
Y0093
Y0095
X0016
X0014
X00127501Y00934751
X0013475Y0091725
X00127501Y00899749
X0011Y008925
X00092499Y00899749
X0008525Y0091725
X00092499Y00934751
X0011Y00942
X0008Y0095
X0006
X0006Y0093
X0004Y0095
X0002Y0095
Y0093
X00044Y00898
Y00878
X0004Y0083
Y0081
X0006
Y0083
X0002
Y0081
X0008525Y008
X00092499Y00817501
X0011Y0082475
X00127501Y00817501
X0013475Y008
X0014Y0085
X0016
Y0087
X0014
X0012
X001
Y0085
X0012
X0016Y0089
Y0091
Y0093
X002Y0093
Y0095
Y0091
Y0089
Y0087
Y0085
T02
X000875Y0023675
X000965
X001055
X001145
X001235
X001325
X00137Y0024475
X00119
X00101
X00083
X000875Y0027025
X000965
X001055
X001145
X001235
X001325
X00137Y0027825
X00119
X00101
X00083
T05
X00013966Y00187
Y002124
Y002378
X0009875Y002125
X0012125
Y001871
X0009875
T06
X0011Y008
Y0091725
T07
X000625Y0023675
X001575
T08
X00210256Y0014125
T09
X00010256Y0014125
M30
