G04*
G04 #@! TF.GenerationSoftware,Altium Limited,Altium Designer,24.5.2 (23)*
G04*
G04 Layer_Color=16711935*
%FSLAX44Y44*%
%MOMM*%
G71*
G04*
G04 #@! TF.SameCoordinates,B7296A9B-97E8-4630-929D-2966843682D6*
G04*
G04*
G04 #@! TF.FilePolarity,Positive*
G04*
G01*
G75*
%ADD11C,0.2000*%
D11*
X148751Y286254D02*
G03*
X153750Y291253I0J4999D01*
G01*
X66751Y291252D02*
G03*
X71750Y286254I4999J0D01*
G01*
X66749Y353501D02*
G03*
X61750Y358500I-4999J0D01*
G01*
X158749Y358499D02*
G03*
X153750Y353500I0J-4999D01*
G01*
X175001Y358501D02*
G03*
X180000Y363500I0J4999D01*
G01*
X40000D02*
G03*
X44999Y358501I4999J0D01*
G01*
Y759998D02*
G03*
X40000Y755000I0J-4999D01*
G01*
X180000D02*
G03*
X175001Y759998I-4999J0D01*
G01*
X4999Y960249D02*
G03*
X0Y955250I0J-4999D01*
G01*
X220000D02*
G03*
X215001Y960249I-4999J0D01*
G01*
X54750Y28999D02*
G03*
X48750Y35001I-6001J1D01*
G01*
D02*
G03*
X42751Y28999I1J-6001D01*
G01*
X10500Y1999D02*
G03*
X12499Y0I1999J0D01*
G01*
X10500Y35001D02*
G03*
X5499Y40000I-5000J-1D01*
G01*
X218001D02*
G03*
X220000Y41999I0J1999D01*
G01*
X214501Y40000D02*
G03*
X209499Y35001I-1J-5000D01*
G01*
X207500Y0D02*
G03*
X209499Y1999I0J1999D01*
G01*
X0Y41999D02*
G03*
X1999Y40000I1999J0D01*
G01*
X4999Y960249D02*
X215001D01*
X40000Y755000D02*
X40000Y363500D01*
X44999Y759998D02*
X175000D01*
X179999Y755000D02*
X180000Y363500D01*
X174999Y358499D02*
X175001Y358501D01*
X158749Y358499D02*
X174999D01*
X153750Y353500D02*
X153750Y353500D01*
X153750Y291253D02*
Y353500D01*
X148750Y286254D02*
X148751Y286254D01*
X71750Y286254D02*
X148750D01*
X66749Y291254D02*
X66751Y291252D01*
X66749Y291254D02*
Y353501D01*
X61749Y358501D02*
X61750Y358500D01*
X44999Y358501D02*
X61749D01*
X10500Y1999D02*
Y35001D01*
X1999Y40000D02*
X5499D01*
X219999Y955250D02*
X220000Y41999D01*
X214501Y40000D02*
X218001D01*
X209499Y1999D02*
Y35001D01*
X54750Y-0D02*
X207500Y0D01*
X54750D02*
Y28999D01*
X12499Y0D02*
X42751D01*
Y28999D01*
X-0Y955250D02*
X0Y41999D01*
M02*
