G04*
G04 #@! TF.GenerationSoftware,Altium Limited,Altium Designer,24.5.2 (23)*
G04*
G04 Layer_Color=16711935*
%FSLAX44Y44*%
%MOMM*%
G71*
G04*
G04 #@! TF.SameCoordinates,B7296A9B-97E8-4630-929D-2966843682D6*
G04*
G04*
G04 #@! TF.FilePolarity,Negative*
G04*
G01*
G75*
%ADD23R,1.6764X1.6764*%
%ADD24C,1.6764*%
%ADD25C,5.7032*%
%ADD26O,1.4112X2.6192*%
%ADD27O,1.6112X3.0192*%
%ADD28C,0.9532*%
%ADD29C,1.2032*%
%ADD30C,1.0032*%
%ADD31C,0.7532*%
%ADD44R,0.3500X1.9500*%
%ADD46R,15.4500X2.5000*%
%ADD47R,3.2000X2.5000*%
%ADD48R,0.6032X0.6032*%
G36*
X112243Y828500D02*
X116674Y827798D01*
X120940Y826412D01*
X124937Y824376D01*
X128567Y821739D01*
X131739Y818567D01*
X134375Y814937D01*
X136412Y810940D01*
X137798Y806674D01*
X138500Y802243D01*
X138500Y800000D01*
X127500Y800000D01*
X127416Y801715D01*
X126747Y805080D01*
X125434Y808250D01*
X123528Y811102D01*
X121102Y813528D01*
X118249Y815434D01*
X115080Y816747D01*
X111715Y817416D01*
X108285Y817416D01*
X104920Y816747D01*
X101750Y815434D01*
X98898Y813528D01*
X96472Y811102D01*
X94566Y808249D01*
X93253Y805080D01*
X92584Y801715D01*
X92500Y800000D01*
X92500Y800000D01*
X81500Y800000D01*
X81500Y802243D01*
X82202Y806674D01*
X83588Y810940D01*
X85625Y814937D01*
X88261Y818567D01*
X91433Y821739D01*
X95063Y824376D01*
X99060Y826412D01*
X103326Y827798D01*
X107757Y828500D01*
X112243Y828500D01*
D02*
G37*
G36*
X33304Y241608D02*
X33337Y241608D01*
X33371Y241604D01*
X33405Y241602D01*
X33436Y241595D01*
X33469Y241591D01*
X34983Y241292D01*
X35015Y241284D01*
X35047Y241278D01*
X35079Y241267D01*
X35112Y241258D01*
X35142Y241245D01*
X35173Y241235D01*
X35887Y240942D01*
X35888Y240941D01*
X35890Y240941D01*
X35945Y240913D01*
X36006Y240883D01*
X36008Y240882D01*
X36009Y240882D01*
X36060Y240848D01*
X36117Y240810D01*
X36119Y240809D01*
X36120Y240808D01*
X36165Y240769D01*
X36218Y240722D01*
X36219Y240721D01*
X36220Y240720D01*
X36260Y240674D01*
X36306Y240622D01*
X36307Y240621D01*
X36308Y240620D01*
X36343Y240567D01*
X36380Y240512D01*
X36381Y240510D01*
X36382Y240509D01*
X36412Y240449D01*
X36439Y240392D01*
X36440Y240391D01*
X36441Y240390D01*
X36463Y240324D01*
X36483Y240266D01*
X36483Y240265D01*
X36484Y240264D01*
X36497Y240198D01*
X36509Y240136D01*
X36509Y240134D01*
X36509Y240133D01*
X36514Y240068D01*
X36518Y240003D01*
X36518Y240002D01*
X36518Y240000D01*
Y235750D01*
X36509Y235617D01*
X36484Y235487D01*
X36441Y235360D01*
X36382Y235241D01*
X36308Y235130D01*
X36220Y235030D01*
X36120Y234942D01*
X36009Y234868D01*
X35890Y234809D01*
X35763Y234767D01*
X35680Y234750D01*
X35763Y234734D01*
X35890Y234691D01*
X36009Y234632D01*
X36120Y234558D01*
X36220Y234470D01*
X36308Y234370D01*
X36382Y234259D01*
X36441Y234140D01*
X36484Y234014D01*
X36509Y233883D01*
X36518Y233750D01*
X36518Y229500D01*
X36518Y229498D01*
X36518Y229497D01*
X36514Y229440D01*
X36509Y229367D01*
X36509Y229365D01*
X36509Y229364D01*
X36498Y229310D01*
X36484Y229237D01*
X36483Y229235D01*
X36483Y229233D01*
X36466Y229184D01*
X36441Y229110D01*
X36440Y229109D01*
X36439Y229107D01*
X36415Y229059D01*
X36382Y228991D01*
X36381Y228990D01*
X36380Y228988D01*
X36347Y228939D01*
X36308Y228880D01*
X36307Y228879D01*
X36306Y228878D01*
X36265Y228831D01*
X36220Y228780D01*
X36219Y228779D01*
X36218Y228778D01*
X36169Y228735D01*
X36120Y228692D01*
X36119Y228691D01*
X36117Y228690D01*
X36064Y228655D01*
X36009Y228618D01*
X36008Y228618D01*
X36006Y228617D01*
X35948Y228588D01*
X35890Y228559D01*
X35888Y228559D01*
X35887Y228558D01*
X35173Y228265D01*
X35142Y228255D01*
X35112Y228242D01*
X35079Y228233D01*
X35047Y228223D01*
X35015Y228216D01*
X34983Y228208D01*
X33469Y227909D01*
X33437Y227905D01*
X33405Y227899D01*
X33371Y227896D01*
X33337Y227892D01*
X33304Y227892D01*
X33272Y227890D01*
X31728Y227890D01*
X31696Y227892D01*
X31663Y227892D01*
X31629Y227896D01*
X31595Y227899D01*
X31564Y227905D01*
X31531Y227909D01*
X30017Y228208D01*
X29985Y228216D01*
X29953Y228223D01*
X29921Y228233D01*
X29888Y228242D01*
X29858Y228255D01*
X29827Y228265D01*
X29113Y228558D01*
X29112Y228559D01*
X29110Y228559D01*
X29055Y228587D01*
X28994Y228617D01*
X28992Y228618D01*
X28991Y228618D01*
X28940Y228652D01*
X28883Y228690D01*
X28881Y228691D01*
X28880Y228692D01*
X28835Y228731D01*
X28782Y228778D01*
X28781Y228779D01*
X28780Y228780D01*
X28740Y228826D01*
X28694Y228878D01*
X28693Y228879D01*
X28692Y228880D01*
X28657Y228933D01*
X28620Y228988D01*
X28619Y228990D01*
X28618Y228991D01*
X28588Y229051D01*
X28561Y229107D01*
X28560Y229109D01*
X28559Y229110D01*
X28537Y229177D01*
X28517Y229233D01*
X28517Y229235D01*
X28516Y229236D01*
X28503Y229302D01*
X28491Y229364D01*
X28491Y229366D01*
X28491Y229367D01*
X28486Y229432D01*
X28482Y229497D01*
X28482Y229499D01*
X28482Y229500D01*
X28482Y233750D01*
X28491Y233883D01*
X28516Y234014D01*
X28559Y234140D01*
X28618Y234259D01*
X28692Y234370D01*
X28780Y234470D01*
X28880Y234558D01*
X28991Y234632D01*
X29110Y234691D01*
X29237Y234734D01*
X29320Y234750D01*
X29237Y234767D01*
X29110Y234809D01*
X28991Y234868D01*
X28880Y234942D01*
X28780Y235030D01*
X28692Y235130D01*
X28618Y235241D01*
X28559Y235360D01*
X28516Y235487D01*
X28491Y235617D01*
X28482Y235750D01*
X28482Y240000D01*
X28482Y240002D01*
X28482Y240003D01*
X28486Y240068D01*
X28491Y240133D01*
X28491Y240134D01*
X28491Y240136D01*
X28503Y240196D01*
X28517Y240264D01*
X28517Y240265D01*
X28517Y240266D01*
X28536Y240321D01*
X28559Y240390D01*
X28560Y240391D01*
X28561Y240392D01*
X28587Y240445D01*
X28618Y240509D01*
X28619Y240510D01*
X28620Y240512D01*
X28654Y240563D01*
X28692Y240620D01*
X28693Y240621D01*
X28694Y240622D01*
X28736Y240670D01*
X28780Y240720D01*
X28781Y240721D01*
X28782Y240722D01*
X28831Y240764D01*
X28880Y240808D01*
X28881Y240809D01*
X28883Y240810D01*
X28934Y240844D01*
X28991Y240882D01*
X28992Y240882D01*
X28994Y240883D01*
X29048Y240910D01*
X29110Y240941D01*
X29112Y240941D01*
X29113Y240942D01*
X29827Y241235D01*
X29858Y241245D01*
X29888Y241258D01*
X29921Y241267D01*
X29953Y241277D01*
X29985Y241284D01*
X30017Y241292D01*
X31531Y241591D01*
X31563Y241595D01*
X31595Y241602D01*
X31629Y241604D01*
X31663Y241608D01*
X31696Y241608D01*
X31728Y241610D01*
X33272Y241610D01*
X33304Y241608D01*
D02*
G37*
G36*
Y216358D02*
X33337Y216358D01*
X33371Y216354D01*
X33405Y216352D01*
X33436Y216345D01*
X33469Y216341D01*
X34983Y216042D01*
X35015Y216034D01*
X35047Y216028D01*
X35079Y216017D01*
X35112Y216008D01*
X35142Y215996D01*
X35173Y215985D01*
X35887Y215692D01*
X35888Y215691D01*
X35890Y215691D01*
X35945Y215663D01*
X36006Y215633D01*
X36008Y215632D01*
X36009Y215632D01*
X36060Y215598D01*
X36117Y215560D01*
X36119Y215559D01*
X36120Y215558D01*
X36165Y215518D01*
X36218Y215472D01*
X36219Y215471D01*
X36220Y215470D01*
X36260Y215424D01*
X36306Y215372D01*
X36307Y215371D01*
X36308Y215370D01*
X36343Y215317D01*
X36380Y215262D01*
X36381Y215260D01*
X36382Y215259D01*
X36412Y215199D01*
X36439Y215142D01*
X36440Y215141D01*
X36441Y215140D01*
X36463Y215074D01*
X36483Y215016D01*
X36483Y215015D01*
X36484Y215014D01*
X36497Y214948D01*
X36509Y214886D01*
X36509Y214884D01*
X36509Y214883D01*
X36514Y214818D01*
X36518Y214753D01*
X36518Y214751D01*
X36518Y214750D01*
Y210500D01*
X36509Y210367D01*
X36484Y210236D01*
X36441Y210110D01*
X36382Y209991D01*
X36308Y209880D01*
X36220Y209780D01*
X36120Y209692D01*
X36009Y209618D01*
X35890Y209559D01*
X35763Y209517D01*
X35680Y209500D01*
X35763Y209484D01*
X35890Y209441D01*
X36009Y209382D01*
X36120Y209308D01*
X36220Y209220D01*
X36308Y209120D01*
X36382Y209009D01*
X36441Y208890D01*
X36484Y208764D01*
X36509Y208633D01*
X36518Y208500D01*
X36518Y204250D01*
X36518Y204248D01*
X36518Y204247D01*
X36514Y204190D01*
X36509Y204117D01*
X36509Y204115D01*
X36509Y204114D01*
X36498Y204060D01*
X36484Y203986D01*
X36483Y203985D01*
X36483Y203983D01*
X36466Y203934D01*
X36441Y203860D01*
X36440Y203859D01*
X36439Y203858D01*
X36415Y203809D01*
X36382Y203741D01*
X36381Y203739D01*
X36380Y203738D01*
X36347Y203689D01*
X36308Y203630D01*
X36307Y203629D01*
X36306Y203628D01*
X36265Y203581D01*
X36220Y203530D01*
X36219Y203529D01*
X36218Y203528D01*
X36169Y203485D01*
X36120Y203442D01*
X36119Y203441D01*
X36117Y203440D01*
X36064Y203405D01*
X36009Y203368D01*
X36008Y203368D01*
X36006Y203367D01*
X35948Y203338D01*
X35890Y203309D01*
X35888Y203309D01*
X35887Y203308D01*
X35173Y203015D01*
X35142Y203004D01*
X35112Y202992D01*
X35079Y202983D01*
X35047Y202973D01*
X35015Y202966D01*
X34983Y202958D01*
X33469Y202659D01*
X33437Y202655D01*
X33405Y202649D01*
X33371Y202646D01*
X33337Y202642D01*
X33304Y202642D01*
X33272Y202640D01*
X31728Y202640D01*
X31696Y202642D01*
X31663Y202642D01*
X31629Y202646D01*
X31595Y202649D01*
X31564Y202655D01*
X31531Y202659D01*
X30017Y202958D01*
X29985Y202966D01*
X29953Y202973D01*
X29921Y202983D01*
X29888Y202992D01*
X29858Y203004D01*
X29827Y203015D01*
X29113Y203308D01*
X29112Y203309D01*
X29110Y203309D01*
X29055Y203337D01*
X28994Y203367D01*
X28992Y203368D01*
X28991Y203368D01*
X28940Y203402D01*
X28883Y203440D01*
X28881Y203441D01*
X28880Y203442D01*
X28835Y203482D01*
X28782Y203528D01*
X28781Y203529D01*
X28780Y203530D01*
X28740Y203576D01*
X28694Y203628D01*
X28693Y203629D01*
X28692Y203630D01*
X28657Y203683D01*
X28620Y203738D01*
X28619Y203740D01*
X28618Y203741D01*
X28588Y203801D01*
X28561Y203857D01*
X28560Y203859D01*
X28559Y203860D01*
X28537Y203927D01*
X28517Y203983D01*
X28517Y203985D01*
X28516Y203986D01*
X28503Y204052D01*
X28491Y204114D01*
X28491Y204116D01*
X28491Y204117D01*
X28486Y204182D01*
X28482Y204247D01*
X28482Y204249D01*
X28482Y204250D01*
X28482Y208500D01*
X28491Y208633D01*
X28516Y208764D01*
X28559Y208890D01*
X28618Y209009D01*
X28692Y209120D01*
X28780Y209220D01*
X28880Y209308D01*
X28991Y209382D01*
X29110Y209441D01*
X29237Y209484D01*
X29320Y209500D01*
X29237Y209517D01*
X29110Y209559D01*
X28991Y209618D01*
X28880Y209692D01*
X28780Y209780D01*
X28692Y209880D01*
X28618Y209991D01*
X28559Y210110D01*
X28516Y210236D01*
X28491Y210367D01*
X28482Y210500D01*
X28482Y214750D01*
X28482Y214751D01*
X28482Y214753D01*
X28486Y214818D01*
X28491Y214883D01*
X28491Y214884D01*
X28491Y214886D01*
X28503Y214946D01*
X28517Y215014D01*
X28517Y215015D01*
X28517Y215016D01*
X28536Y215071D01*
X28559Y215140D01*
X28560Y215141D01*
X28561Y215142D01*
X28587Y215195D01*
X28618Y215259D01*
X28619Y215260D01*
X28620Y215262D01*
X28654Y215313D01*
X28692Y215370D01*
X28693Y215371D01*
X28694Y215372D01*
X28736Y215420D01*
X28780Y215470D01*
X28781Y215471D01*
X28782Y215472D01*
X28831Y215514D01*
X28880Y215558D01*
X28881Y215559D01*
X28883Y215560D01*
X28934Y215594D01*
X28991Y215632D01*
X28992Y215632D01*
X28994Y215633D01*
X29048Y215660D01*
X29110Y215691D01*
X29112Y215691D01*
X29113Y215692D01*
X29827Y215985D01*
X29858Y215996D01*
X29888Y216008D01*
X29921Y216017D01*
X29953Y216028D01*
X29985Y216034D01*
X30017Y216042D01*
X31531Y216341D01*
X31563Y216345D01*
X31595Y216352D01*
X31629Y216354D01*
X31663Y216358D01*
X31696Y216358D01*
X31728Y216360D01*
X33272Y216360D01*
X33304Y216358D01*
D02*
G37*
G36*
X174554Y213358D02*
X174587Y213358D01*
X174621Y213354D01*
X174655Y213351D01*
X174686Y213345D01*
X174719Y213341D01*
X176233Y213042D01*
X176265Y213034D01*
X176297Y213027D01*
X176329Y213017D01*
X176362Y213008D01*
X176392Y212995D01*
X176423Y212985D01*
X177137Y212692D01*
X177138Y212691D01*
X177140Y212691D01*
X177195Y212663D01*
X177256Y212633D01*
X177258Y212632D01*
X177259Y212632D01*
X177310Y212598D01*
X177367Y212560D01*
X177369Y212559D01*
X177370Y212558D01*
X177415Y212518D01*
X177468Y212472D01*
X177469Y212471D01*
X177470Y212470D01*
X177510Y212424D01*
X177556Y212372D01*
X177557Y212371D01*
X177558Y212370D01*
X177593Y212317D01*
X177630Y212262D01*
X177631Y212260D01*
X177632Y212259D01*
X177661Y212199D01*
X177689Y212143D01*
X177690Y212141D01*
X177691Y212140D01*
X177713Y212073D01*
X177733Y212017D01*
X177733Y212015D01*
X177733Y212013D01*
X177747Y211948D01*
X177759Y211886D01*
X177759Y211884D01*
X177759Y211883D01*
X177764Y211818D01*
X177768Y211753D01*
X177768Y211751D01*
X177768Y211750D01*
Y207500D01*
X177759Y207367D01*
X177733Y207236D01*
X177691Y207110D01*
X177632Y206991D01*
X177558Y206880D01*
X177470Y206780D01*
X177370Y206692D01*
X177259Y206618D01*
X177140Y206559D01*
X177013Y206516D01*
X176931Y206500D01*
X177013Y206483D01*
X177140Y206441D01*
X177259Y206382D01*
X177370Y206308D01*
X177470Y206220D01*
X177558Y206120D01*
X177632Y206009D01*
X177691Y205890D01*
X177733Y205763D01*
X177759Y205633D01*
X177768Y205500D01*
X177768Y201250D01*
X177768Y201248D01*
X177768Y201247D01*
X177764Y201190D01*
X177759Y201117D01*
X177759Y201115D01*
X177759Y201114D01*
X177748Y201060D01*
X177733Y200986D01*
X177733Y200985D01*
X177733Y200984D01*
X177716Y200934D01*
X177691Y200860D01*
X177690Y200859D01*
X177689Y200858D01*
X177665Y200809D01*
X177632Y200741D01*
X177631Y200739D01*
X177630Y200738D01*
X177597Y200689D01*
X177558Y200630D01*
X177557Y200629D01*
X177556Y200628D01*
X177515Y200581D01*
X177470Y200530D01*
X177469Y200529D01*
X177468Y200528D01*
X177419Y200485D01*
X177370Y200442D01*
X177369Y200441D01*
X177367Y200440D01*
X177314Y200405D01*
X177259Y200368D01*
X177258Y200368D01*
X177256Y200367D01*
X177198Y200338D01*
X177140Y200309D01*
X177138Y200309D01*
X177137Y200308D01*
X176423Y200015D01*
X176392Y200005D01*
X176362Y199992D01*
X176329Y199983D01*
X176297Y199972D01*
X176265Y199966D01*
X176233Y199958D01*
X174719Y199659D01*
X174687Y199655D01*
X174655Y199648D01*
X174621Y199646D01*
X174587Y199642D01*
X174554Y199642D01*
X174522Y199640D01*
X172978Y199640D01*
X172946Y199642D01*
X172913Y199642D01*
X172879Y199646D01*
X172845Y199648D01*
X172814Y199655D01*
X172781Y199659D01*
X171267Y199958D01*
X171235Y199966D01*
X171203Y199972D01*
X171171Y199983D01*
X171138Y199992D01*
X171108Y200005D01*
X171077Y200015D01*
X170363Y200308D01*
X170362Y200309D01*
X170360Y200309D01*
X170305Y200337D01*
X170244Y200367D01*
X170242Y200368D01*
X170241Y200368D01*
X170190Y200402D01*
X170133Y200440D01*
X170131Y200441D01*
X170130Y200442D01*
X170085Y200481D01*
X170032Y200528D01*
X170031Y200529D01*
X170030Y200530D01*
X169990Y200576D01*
X169944Y200628D01*
X169943Y200629D01*
X169942Y200630D01*
X169907Y200683D01*
X169870Y200738D01*
X169869Y200740D01*
X169868Y200741D01*
X169838Y200801D01*
X169811Y200858D01*
X169810Y200859D01*
X169809Y200860D01*
X169787Y200926D01*
X169767Y200984D01*
X169767Y200985D01*
X169767Y200986D01*
X169753Y201052D01*
X169741Y201114D01*
X169741Y201115D01*
X169741Y201117D01*
X169736Y201182D01*
X169732Y201247D01*
X169732Y201248D01*
X169732Y201250D01*
X169732Y205500D01*
X169741Y205633D01*
X169767Y205763D01*
X169809Y205890D01*
X169868Y206009D01*
X169942Y206120D01*
X170030Y206220D01*
X170130Y206308D01*
X170241Y206382D01*
X170360Y206441D01*
X170487Y206483D01*
X170569Y206500D01*
X170487Y206516D01*
X170360Y206559D01*
X170241Y206618D01*
X170130Y206692D01*
X170030Y206780D01*
X169942Y206880D01*
X169868Y206991D01*
X169809Y207110D01*
X169767Y207236D01*
X169741Y207367D01*
X169732Y207500D01*
X169732Y211750D01*
X169732Y211751D01*
X169732Y211753D01*
X169736Y211818D01*
X169741Y211883D01*
X169741Y211884D01*
X169741Y211886D01*
X169753Y211946D01*
X169767Y212013D01*
X169767Y212015D01*
X169767Y212017D01*
X169786Y212071D01*
X169809Y212140D01*
X169810Y212141D01*
X169811Y212142D01*
X169837Y212195D01*
X169868Y212259D01*
X169869Y212260D01*
X169870Y212262D01*
X169904Y212313D01*
X169942Y212370D01*
X169943Y212371D01*
X169944Y212372D01*
X169986Y212420D01*
X170030Y212470D01*
X170031Y212471D01*
X170032Y212472D01*
X170081Y212514D01*
X170130Y212558D01*
X170131Y212559D01*
X170133Y212560D01*
X170184Y212594D01*
X170241Y212632D01*
X170242Y212633D01*
X170244Y212633D01*
X170298Y212660D01*
X170360Y212691D01*
X170362Y212691D01*
X170363Y212692D01*
X171077Y212985D01*
X171108Y212995D01*
X171138Y213008D01*
X171171Y213017D01*
X171203Y213027D01*
X171235Y213034D01*
X171267Y213042D01*
X172781Y213341D01*
X172813Y213345D01*
X172845Y213351D01*
X172879Y213354D01*
X172913Y213358D01*
X172946Y213358D01*
X172978Y213360D01*
X174522Y213360D01*
X174554Y213358D01*
D02*
G37*
G36*
X33304Y190858D02*
X33337Y190858D01*
X33371Y190854D01*
X33405Y190851D01*
X33436Y190845D01*
X33469Y190841D01*
X34983Y190542D01*
X35015Y190534D01*
X35047Y190527D01*
X35079Y190517D01*
X35112Y190508D01*
X35142Y190495D01*
X35173Y190485D01*
X35887Y190192D01*
X35888Y190191D01*
X35890Y190191D01*
X35945Y190163D01*
X36006Y190133D01*
X36008Y190132D01*
X36009Y190132D01*
X36060Y190098D01*
X36117Y190060D01*
X36119Y190059D01*
X36120Y190058D01*
X36165Y190019D01*
X36218Y189972D01*
X36219Y189971D01*
X36220Y189970D01*
X36260Y189924D01*
X36306Y189872D01*
X36307Y189871D01*
X36308Y189870D01*
X36343Y189817D01*
X36380Y189762D01*
X36381Y189760D01*
X36382Y189759D01*
X36412Y189699D01*
X36439Y189643D01*
X36440Y189641D01*
X36441Y189640D01*
X36463Y189573D01*
X36483Y189517D01*
X36483Y189515D01*
X36484Y189513D01*
X36497Y189448D01*
X36509Y189386D01*
X36509Y189384D01*
X36509Y189383D01*
X36514Y189318D01*
X36518Y189253D01*
X36518Y189251D01*
X36518Y189250D01*
Y185000D01*
X36509Y184867D01*
X36484Y184736D01*
X36441Y184610D01*
X36382Y184491D01*
X36308Y184380D01*
X36220Y184280D01*
X36120Y184192D01*
X36009Y184118D01*
X35890Y184059D01*
X35763Y184016D01*
X35680Y184000D01*
X35763Y183983D01*
X35890Y183941D01*
X36009Y183882D01*
X36120Y183808D01*
X36220Y183720D01*
X36308Y183620D01*
X36382Y183509D01*
X36441Y183390D01*
X36484Y183263D01*
X36509Y183133D01*
X36518Y183000D01*
X36518Y178750D01*
X36518Y178748D01*
X36518Y178747D01*
X36514Y178690D01*
X36509Y178617D01*
X36509Y178615D01*
X36509Y178614D01*
X36498Y178560D01*
X36484Y178486D01*
X36483Y178485D01*
X36483Y178484D01*
X36466Y178434D01*
X36441Y178360D01*
X36440Y178359D01*
X36439Y178358D01*
X36415Y178309D01*
X36382Y178241D01*
X36381Y178239D01*
X36380Y178238D01*
X36347Y178189D01*
X36308Y178130D01*
X36307Y178129D01*
X36306Y178128D01*
X36265Y178081D01*
X36220Y178030D01*
X36219Y178029D01*
X36218Y178028D01*
X36169Y177985D01*
X36120Y177942D01*
X36119Y177941D01*
X36117Y177940D01*
X36064Y177905D01*
X36009Y177868D01*
X36008Y177868D01*
X36006Y177867D01*
X35948Y177838D01*
X35890Y177809D01*
X35888Y177809D01*
X35887Y177808D01*
X35173Y177515D01*
X35142Y177505D01*
X35112Y177492D01*
X35079Y177483D01*
X35047Y177472D01*
X35015Y177466D01*
X34983Y177458D01*
X33469Y177159D01*
X33437Y177155D01*
X33405Y177148D01*
X33371Y177146D01*
X33337Y177142D01*
X33304Y177142D01*
X33272Y177140D01*
X31728Y177140D01*
X31696Y177142D01*
X31663Y177142D01*
X31629Y177146D01*
X31595Y177148D01*
X31564Y177155D01*
X31531Y177159D01*
X30017Y177458D01*
X29985Y177466D01*
X29953Y177472D01*
X29921Y177483D01*
X29888Y177492D01*
X29858Y177505D01*
X29827Y177515D01*
X29113Y177808D01*
X29112Y177809D01*
X29110Y177809D01*
X29055Y177837D01*
X28994Y177867D01*
X28992Y177868D01*
X28991Y177868D01*
X28940Y177902D01*
X28883Y177940D01*
X28881Y177941D01*
X28880Y177942D01*
X28835Y177981D01*
X28782Y178028D01*
X28781Y178029D01*
X28780Y178030D01*
X28740Y178076D01*
X28694Y178128D01*
X28693Y178129D01*
X28692Y178130D01*
X28657Y178183D01*
X28620Y178238D01*
X28619Y178240D01*
X28618Y178241D01*
X28588Y178301D01*
X28561Y178358D01*
X28560Y178359D01*
X28559Y178360D01*
X28537Y178426D01*
X28517Y178484D01*
X28517Y178485D01*
X28516Y178486D01*
X28503Y178552D01*
X28491Y178614D01*
X28491Y178616D01*
X28491Y178617D01*
X28486Y178682D01*
X28482Y178747D01*
X28482Y178748D01*
X28482Y178750D01*
X28482Y183000D01*
X28491Y183133D01*
X28516Y183263D01*
X28559Y183390D01*
X28618Y183509D01*
X28692Y183620D01*
X28780Y183720D01*
X28880Y183808D01*
X28991Y183882D01*
X29110Y183941D01*
X29237Y183983D01*
X29320Y184000D01*
X29237Y184016D01*
X29110Y184059D01*
X28991Y184118D01*
X28880Y184192D01*
X28780Y184280D01*
X28692Y184380D01*
X28618Y184491D01*
X28559Y184610D01*
X28516Y184736D01*
X28491Y184867D01*
X28482Y185000D01*
X28482Y189250D01*
X28482Y189251D01*
X28482Y189253D01*
X28486Y189318D01*
X28491Y189383D01*
X28491Y189384D01*
X28491Y189386D01*
X28503Y189446D01*
X28517Y189513D01*
X28517Y189515D01*
X28517Y189517D01*
X28536Y189571D01*
X28559Y189640D01*
X28560Y189641D01*
X28561Y189642D01*
X28587Y189695D01*
X28618Y189759D01*
X28619Y189760D01*
X28620Y189762D01*
X28654Y189813D01*
X28692Y189870D01*
X28693Y189871D01*
X28694Y189872D01*
X28736Y189920D01*
X28780Y189970D01*
X28781Y189971D01*
X28782Y189972D01*
X28831Y190014D01*
X28880Y190058D01*
X28881Y190059D01*
X28883Y190060D01*
X28934Y190094D01*
X28991Y190132D01*
X28992Y190133D01*
X28994Y190133D01*
X29048Y190160D01*
X29110Y190191D01*
X29112Y190191D01*
X29113Y190192D01*
X29827Y190485D01*
X29858Y190495D01*
X29888Y190508D01*
X29921Y190517D01*
X29953Y190527D01*
X29985Y190534D01*
X30017Y190542D01*
X31531Y190841D01*
X31563Y190845D01*
X31595Y190851D01*
X31629Y190854D01*
X31663Y190858D01*
X31696Y190858D01*
X31728Y190860D01*
X33272Y190860D01*
X33304Y190858D01*
D02*
G37*
D23*
X121250Y187100D02*
D03*
X98750Y212500D02*
D03*
X13966Y237800D02*
D03*
D24*
X98750Y187100D02*
D03*
X121250Y212500D02*
D03*
X13966Y212400D02*
D03*
Y187000D02*
D03*
D25*
X110000Y800000D02*
D03*
Y917250D02*
D03*
D26*
X58000Y323250D02*
D03*
X162000D02*
D03*
D27*
X165000Y268250D02*
D03*
X55000D02*
D03*
D28*
X83000Y278250D02*
D03*
X101000D02*
D03*
X119000D02*
D03*
X137000D02*
D03*
X132500Y270250D02*
D03*
X123500D02*
D03*
X87500D02*
D03*
X96500D02*
D03*
X105500D02*
D03*
X114500D02*
D03*
X83000Y244750D02*
D03*
X101000D02*
D03*
X119000D02*
D03*
X137000D02*
D03*
X132500Y236750D02*
D03*
X123500D02*
D03*
X87500D02*
D03*
X96500D02*
D03*
X105500D02*
D03*
X114500D02*
D03*
D29*
X62500D02*
D03*
X157500D02*
D03*
D30*
X10256Y141250D02*
D03*
D31*
X210256D02*
D03*
D44*
X200000Y15250D02*
D03*
X195001D02*
D03*
X190000D02*
D03*
X185001D02*
D03*
X180000D02*
D03*
X175001D02*
D03*
X170000D02*
D03*
X165001D02*
D03*
X160000D02*
D03*
X155001D02*
D03*
X150000D02*
D03*
X145001D02*
D03*
X140000D02*
D03*
X135001D02*
D03*
X130000D02*
D03*
X125001D02*
D03*
X120000D02*
D03*
X115001D02*
D03*
X110000D02*
D03*
X104999D02*
D03*
X100000D02*
D03*
X94999D02*
D03*
X90000D02*
D03*
X84999D02*
D03*
X80000D02*
D03*
X74999D02*
D03*
X70000D02*
D03*
X64999D02*
D03*
X60000D02*
D03*
X34999D02*
D03*
X30000D02*
D03*
X24999D02*
D03*
X20000D02*
D03*
D46*
X132000Y12500D02*
D03*
D47*
X26750D02*
D03*
D48*
X173750Y203500D02*
D03*
Y209500D02*
D03*
X32500Y187000D02*
D03*
Y181000D02*
D03*
Y212500D02*
D03*
Y206500D02*
D03*
Y237750D02*
D03*
Y231750D02*
D03*
M02*
