G04*
G04 #@! TF.GenerationSoftware,Altium Limited,Altium Designer,24.5.2 (23)*
G04*
G04 Layer_Color=65535*
%FSLAX44Y44*%
%MOMM*%
G71*
G04*
G04 #@! TF.SameCoordinates,B7296A9B-97E8-4630-929D-2966843682D6*
G04*
G04*
G04 #@! TF.FilePolarity,Positive*
G04*
G01*
G75*
%ADD10C,0.1000*%
%ADD11C,0.2000*%
%ADD12C,0.1500*%
%ADD13C,0.1270*%
%ADD14C,0.2540*%
G36*
X48171Y929414D02*
X48647D01*
Y927512D01*
X49122D01*
Y924659D01*
X49598D01*
Y922281D01*
X50073D01*
Y920855D01*
X51500D01*
Y920379D01*
X52451D01*
Y919904D01*
X53878D01*
Y919428D01*
X54829D01*
Y918953D01*
X56731D01*
Y919428D01*
X57206D01*
Y919904D01*
X58157D01*
Y920379D01*
X58633D01*
Y920855D01*
X59584D01*
Y921330D01*
X60059D01*
Y921806D01*
X61010D01*
Y922281D01*
X61486D01*
Y922757D01*
X62437D01*
Y923232D01*
X62913D01*
Y923708D01*
X63388D01*
Y923232D01*
X63864D01*
Y922757D01*
X64339D01*
Y922281D01*
X64815D01*
Y921806D01*
X65290D01*
Y921330D01*
X65766D01*
Y920855D01*
X66241D01*
Y920379D01*
X66717D01*
Y919904D01*
X67192D01*
Y919428D01*
X67668D01*
Y918953D01*
X68143D01*
Y918477D01*
X68619D01*
Y918002D01*
X69094D01*
Y917526D01*
X69570D01*
Y917051D01*
X69094D01*
Y916100D01*
X68619D01*
Y915624D01*
X68143D01*
Y915148D01*
X67668D01*
Y914197D01*
X67192D01*
Y913722D01*
X66717D01*
Y912771D01*
X66241D01*
Y912295D01*
X65766D01*
Y911344D01*
X65290D01*
Y910869D01*
X64815D01*
Y909442D01*
X65290D01*
Y908491D01*
X65766D01*
Y907540D01*
Y907065D01*
X66241D01*
Y906114D01*
X66717D01*
Y904687D01*
X67192D01*
Y904212D01*
X67668D01*
Y903736D01*
X70521D01*
Y903260D01*
X72899D01*
Y902785D01*
X75276D01*
Y902309D01*
X75752D01*
Y893750D01*
X75276D01*
Y893275D01*
X72899D01*
Y892799D01*
X70521D01*
Y892323D01*
X68143D01*
Y891848D01*
X67192D01*
Y890421D01*
X66717D01*
Y889470D01*
X66241D01*
Y888044D01*
X65766D01*
Y887093D01*
X65290D01*
Y884715D01*
X65766D01*
Y883764D01*
X66241D01*
Y883288D01*
X66717D01*
Y882337D01*
X67192D01*
Y881862D01*
X67668D01*
Y880911D01*
X68143D01*
Y880435D01*
X68619D01*
Y879484D01*
X69094D01*
Y879009D01*
X69570D01*
Y878533D01*
X69094D01*
Y878058D01*
X68619D01*
Y877582D01*
X68143D01*
Y877107D01*
X67668D01*
Y876631D01*
X67192D01*
Y876156D01*
X66717D01*
Y875680D01*
X66241D01*
Y875205D01*
X65766D01*
Y874729D01*
X65290D01*
Y874254D01*
X64815D01*
Y873778D01*
X64339D01*
Y873303D01*
X63864D01*
Y872827D01*
X63388D01*
Y872352D01*
X62913D01*
Y872827D01*
X62437D01*
Y873303D01*
X61486D01*
Y873778D01*
X61010D01*
Y874254D01*
X60059D01*
Y874729D01*
X59584D01*
Y875205D01*
X58633D01*
Y875680D01*
X58157D01*
Y876156D01*
X57206D01*
Y876631D01*
X55780D01*
Y876156D01*
X54829D01*
Y875680D01*
X53878D01*
Y875205D01*
X52927D01*
Y876156D01*
X52451D01*
Y877582D01*
X51975D01*
Y878533D01*
X51500D01*
Y879484D01*
X51024D01*
Y880911D01*
X50549D01*
Y881862D01*
X50073D01*
Y883288D01*
X49598D01*
Y884240D01*
X49122D01*
Y885191D01*
X48647D01*
Y886617D01*
X48171D01*
Y887568D01*
X47696D01*
Y888995D01*
X47220D01*
Y889470D01*
X47696D01*
Y889946D01*
X48171D01*
Y890421D01*
X48647D01*
Y890897D01*
X49598D01*
Y891372D01*
X50073D01*
Y891848D01*
X50549D01*
Y892323D01*
X51024D01*
Y893275D01*
X51500D01*
Y894225D01*
X51975D01*
Y895177D01*
X52451D01*
Y900883D01*
X51975D01*
Y901834D01*
X51500D01*
Y902785D01*
X51024D01*
Y903260D01*
X50549D01*
Y904212D01*
X50073D01*
Y904687D01*
X49122D01*
Y905163D01*
X48647D01*
Y905638D01*
X47696D01*
Y906114D01*
X46269D01*
Y906589D01*
X41514D01*
Y906114D01*
X40087D01*
Y905638D01*
X39136D01*
Y905163D01*
X38661D01*
Y904687D01*
X38185D01*
Y904212D01*
X37710D01*
Y903736D01*
X37234D01*
Y903260D01*
X36759D01*
Y902785D01*
X36283D01*
Y901834D01*
X35808D01*
Y900407D01*
X35332D01*
Y895652D01*
X35808D01*
Y894225D01*
X36283D01*
Y893275D01*
X36759D01*
Y892799D01*
X37234D01*
Y891848D01*
X37710D01*
Y891372D01*
X38661D01*
Y890897D01*
X39136D01*
Y890421D01*
X39612D01*
Y889946D01*
X40563D01*
Y888519D01*
X40087D01*
Y887568D01*
X39612D01*
Y886142D01*
X39136D01*
Y885191D01*
X38661D01*
Y884240D01*
X38185D01*
Y882813D01*
X37710D01*
Y881862D01*
X37234D01*
Y880435D01*
X36759D01*
Y879484D01*
X36283D01*
Y878533D01*
X35808D01*
Y877107D01*
X35332D01*
Y876156D01*
X34857D01*
Y875205D01*
X33906D01*
Y875680D01*
X33430D01*
Y876156D01*
X32479D01*
Y876631D01*
X30577D01*
Y876156D01*
X29626D01*
Y875680D01*
X29150D01*
Y875205D01*
X28199D01*
Y874729D01*
X27724D01*
Y874254D01*
X27248D01*
Y873778D01*
X26297D01*
Y873303D01*
X25822D01*
Y872827D01*
X24871D01*
Y872352D01*
X24395D01*
Y872827D01*
X23920D01*
Y873303D01*
X23444D01*
Y873778D01*
X22969D01*
Y874254D01*
X22493D01*
Y874729D01*
X22018D01*
Y875205D01*
X21542D01*
Y875680D01*
X21067D01*
Y876156D01*
X20591D01*
Y876631D01*
X20115D01*
Y877107D01*
X19640D01*
Y877582D01*
X19164D01*
Y878058D01*
X18689D01*
Y878533D01*
X18213D01*
Y879009D01*
X18689D01*
Y879484D01*
X19164D01*
Y880435D01*
X19640D01*
Y880911D01*
X20115D01*
Y881862D01*
X20591D01*
Y882337D01*
X21067D01*
Y882813D01*
X21542D01*
Y883764D01*
X22018D01*
Y884240D01*
X22493D01*
Y885191D01*
X22969D01*
Y886142D01*
X22493D01*
Y887093D01*
X22018D01*
Y888519D01*
X21542D01*
Y889470D01*
X21067D01*
Y890897D01*
X20591D01*
Y891848D01*
X19640D01*
Y892323D01*
X17262D01*
Y892799D01*
X14885D01*
Y893275D01*
X12507D01*
Y893750D01*
X12032D01*
Y902309D01*
X12507D01*
Y902785D01*
X14885D01*
Y903260D01*
X17262D01*
Y903736D01*
X20115D01*
Y904212D01*
X20591D01*
Y904687D01*
X21067D01*
Y905638D01*
X21542D01*
Y907065D01*
X22018D01*
Y908016D01*
X22493D01*
Y908967D01*
X22969D01*
Y910869D01*
X22493D01*
Y911820D01*
X22018D01*
Y912295D01*
X21542D01*
Y912771D01*
X21067D01*
Y913722D01*
X20591D01*
Y914197D01*
X20115D01*
Y915148D01*
X19640D01*
Y915624D01*
X19164D01*
Y916575D01*
X18689D01*
Y917051D01*
X18213D01*
Y917526D01*
X18689D01*
Y918002D01*
X19164D01*
Y918477D01*
X19640D01*
Y918953D01*
X20115D01*
Y919428D01*
X20591D01*
Y919904D01*
X21067D01*
Y920379D01*
X21542D01*
Y920855D01*
X22018D01*
Y921330D01*
X22493D01*
Y921806D01*
X22969D01*
Y922281D01*
X23444D01*
Y922757D01*
X23920D01*
Y923232D01*
X24395D01*
Y923708D01*
X24871D01*
Y923232D01*
X25822D01*
Y922757D01*
X26297D01*
Y922281D01*
X26773D01*
Y921806D01*
X27724D01*
Y921330D01*
X28199D01*
Y920855D01*
X29150D01*
Y920379D01*
X29626D01*
Y919904D01*
X30577D01*
Y919428D01*
X31052D01*
Y918953D01*
X32955D01*
Y919428D01*
X34381D01*
Y919904D01*
X35332D01*
Y920379D01*
X36283D01*
Y920855D01*
X37710D01*
Y921806D01*
X38185D01*
Y924184D01*
X38661D01*
Y927037D01*
X39136D01*
Y929414D01*
X39612D01*
Y929890D01*
X48171D01*
Y929414D01*
D02*
G37*
G36*
X69570Y865694D02*
X70521D01*
Y864743D01*
X70045D01*
Y864268D01*
X69570D01*
Y863792D01*
X69094D01*
Y864268D01*
X67668D01*
Y863792D01*
X67192D01*
Y863316D01*
X66717D01*
Y857135D01*
X64815D01*
Y866170D01*
X66717D01*
Y865219D01*
X67192D01*
Y865694D01*
X67668D01*
Y866170D01*
X69570D01*
Y865694D01*
D02*
G37*
G36*
X32955D02*
X33906D01*
Y865219D01*
X34381D01*
Y864268D01*
X34857D01*
Y860463D01*
Y859988D01*
Y857135D01*
X32955D01*
Y863316D01*
X32479D01*
Y863792D01*
X32004D01*
Y864268D01*
X30577D01*
Y863792D01*
X30101D01*
Y862841D01*
X29626D01*
Y857135D01*
X28199D01*
Y857610D01*
X27724D01*
Y865694D01*
X28199D01*
Y866170D01*
X29626D01*
Y865219D01*
X30101D01*
Y865694D01*
X31052D01*
Y866170D01*
X32955D01*
Y865694D01*
D02*
G37*
G36*
X16311D02*
X17262D01*
Y865219D01*
X17738D01*
Y864743D01*
X18213D01*
Y858561D01*
X17738D01*
Y858086D01*
X17262D01*
Y857610D01*
X16311D01*
Y857135D01*
X14409D01*
Y857610D01*
X13458D01*
Y851904D01*
X13934D01*
Y852380D01*
X16787D01*
Y851904D01*
X17738D01*
Y850953D01*
X18213D01*
Y843820D01*
X16311D01*
Y850477D01*
X13934D01*
Y850002D01*
X13458D01*
Y843820D01*
X11556D01*
Y866170D01*
X12983D01*
Y865694D01*
X13458D01*
Y865219D01*
X13934D01*
Y865694D01*
X14885D01*
Y866170D01*
X16311D01*
Y865694D01*
D02*
G37*
G36*
X44367D02*
X45794D01*
Y865219D01*
X46269D01*
Y864268D01*
X45794D01*
Y863792D01*
X44367D01*
Y864268D01*
X41990D01*
Y862841D01*
X43416D01*
Y862365D01*
X45794D01*
Y861890D01*
X46269D01*
Y860939D01*
X46745D01*
Y858561D01*
X46269D01*
Y858086D01*
X45794D01*
Y857610D01*
X44843D01*
Y857135D01*
X41990D01*
Y857610D01*
X40563D01*
Y858086D01*
X40087D01*
Y858561D01*
X39612D01*
Y859512D01*
X40087D01*
Y859988D01*
X41038D01*
Y859512D01*
X41990D01*
Y859037D01*
X44367D01*
Y859512D01*
X44843D01*
Y860463D01*
X43892D01*
Y860939D01*
X41514D01*
Y861414D01*
X40563D01*
Y861890D01*
X40087D01*
Y864743D01*
X40563D01*
Y865219D01*
X41038D01*
Y865694D01*
X41990D01*
Y866170D01*
X44367D01*
Y865694D01*
D02*
G37*
G36*
X75276D02*
X76227D01*
Y865219D01*
X77178D01*
Y863792D01*
X76227D01*
Y863316D01*
X75752D01*
Y863792D01*
X74801D01*
Y864268D01*
X73374D01*
Y863792D01*
X72899D01*
Y863316D01*
X72423D01*
Y859988D01*
X72899D01*
Y859512D01*
X73374D01*
Y859037D01*
X74801D01*
Y859512D01*
X75752D01*
Y859988D01*
X76227D01*
Y859512D01*
X77178D01*
Y858086D01*
X76227D01*
Y857610D01*
X75752D01*
Y857135D01*
X72899D01*
Y857610D01*
X71947D01*
Y858086D01*
X71472D01*
Y858561D01*
X70996D01*
Y859512D01*
X70521D01*
Y863792D01*
X70996D01*
Y864743D01*
X71472D01*
Y865219D01*
X71947D01*
Y865694D01*
X72899D01*
Y866170D01*
X75276D01*
Y865694D01*
D02*
G37*
G36*
X62913Y860939D02*
Y860463D01*
Y857135D01*
X61010D01*
Y857610D01*
X60059D01*
Y857135D01*
X58157D01*
Y857610D01*
X57206D01*
Y858086D01*
X56731D01*
Y858561D01*
X56255D01*
Y866170D01*
X58157D01*
Y859512D01*
X59108D01*
Y859037D01*
X60059D01*
Y859512D01*
X61010D01*
Y866170D01*
X62913D01*
Y860939D01*
D02*
G37*
G36*
X82409Y865694D02*
X83360D01*
Y865219D01*
X83835D01*
Y864743D01*
X84311D01*
Y864268D01*
X84787D01*
Y860939D01*
X79556D01*
Y860463D01*
X80031D01*
Y859512D01*
X80507D01*
Y859037D01*
X82409D01*
Y859512D01*
X84311D01*
Y859037D01*
X84787D01*
Y858561D01*
X84311D01*
Y858086D01*
X83835D01*
Y857610D01*
X82885D01*
Y857135D01*
X80031D01*
Y857610D01*
X79080D01*
Y858086D01*
X78605D01*
Y858561D01*
X78129D01*
Y859037D01*
Y859988D01*
X77654D01*
Y863316D01*
X78129D01*
Y864268D01*
X78605D01*
Y865219D01*
X79556D01*
Y865694D01*
X80031D01*
Y866170D01*
X82409D01*
Y865694D01*
D02*
G37*
G36*
X52451D02*
X53402D01*
Y865219D01*
X53878D01*
Y864743D01*
X54353D01*
Y863792D01*
X54829D01*
Y859512D01*
X54353D01*
Y858561D01*
X53878D01*
Y858086D01*
X53402D01*
Y857610D01*
X52451D01*
Y857135D01*
X50073D01*
Y857610D01*
X49122D01*
Y858086D01*
X48647D01*
Y858561D01*
X48171D01*
Y859037D01*
X47696D01*
Y864268D01*
X48171D01*
Y864743D01*
X48647D01*
Y865219D01*
X49122D01*
Y865694D01*
X50073D01*
Y866170D01*
X52451D01*
Y865694D01*
D02*
G37*
G36*
X23920D02*
X24871D01*
Y865219D01*
X25822D01*
Y864268D01*
X26297D01*
Y862841D01*
X26773D01*
Y860939D01*
X21542D01*
Y859512D01*
X22018D01*
Y859037D01*
X24395D01*
Y859512D01*
X25822D01*
Y859037D01*
X26297D01*
Y858086D01*
X25346D01*
Y857610D01*
X24395D01*
Y857135D01*
X22018D01*
Y857610D01*
X21067D01*
Y858086D01*
X20591D01*
Y858561D01*
X20115D01*
Y859037D01*
X19640D01*
Y864268D01*
X20115D01*
Y864743D01*
X20591D01*
Y865219D01*
X21067D01*
Y865694D01*
X22018D01*
Y866170D01*
X23920D01*
Y865694D01*
D02*
G37*
G36*
X7752D02*
X8703D01*
Y865219D01*
X9179D01*
Y864743D01*
X9654D01*
Y863792D01*
X10129D01*
Y859512D01*
X9654D01*
Y858561D01*
X9179D01*
Y858086D01*
X8703D01*
Y857610D01*
X7752D01*
Y857135D01*
X5374D01*
Y857610D01*
X4423D01*
Y858086D01*
X3948D01*
Y858561D01*
X3472D01*
Y859512D01*
X2997D01*
Y863792D01*
X3472D01*
Y864743D01*
X3948D01*
Y865219D01*
X4423D01*
Y865694D01*
X5374D01*
Y866170D01*
X7752D01*
Y865694D01*
D02*
G37*
G36*
X67192Y852380D02*
X68143D01*
Y851904D01*
X68619D01*
Y851429D01*
X68143D01*
Y850953D01*
X67668D01*
Y850477D01*
X64815D01*
Y843820D01*
X62437D01*
Y852380D01*
X64815D01*
Y851904D01*
X65290D01*
Y852380D01*
X66717D01*
Y852855D01*
X67192D01*
Y852380D01*
D02*
G37*
G36*
X41038Y843820D02*
X39136D01*
Y844296D01*
X38185D01*
Y843820D01*
X35332D01*
Y844296D01*
X34857D01*
Y844771D01*
X34381D01*
Y845722D01*
X33906D01*
Y850477D01*
X34381D01*
Y851429D01*
X34857D01*
Y851904D01*
X35332D01*
Y852380D01*
X36759D01*
Y852855D01*
X37234D01*
Y852380D01*
X38661D01*
Y851904D01*
X39136D01*
Y856184D01*
X41038D01*
Y843820D01*
D02*
G37*
G36*
X32479Y852380D02*
X33906D01*
Y851429D01*
X33430D01*
Y850477D01*
X30577D01*
Y850002D01*
X30101D01*
Y843820D01*
X28199D01*
Y850002D01*
Y850477D01*
Y852380D01*
X30101D01*
Y851904D01*
X30577D01*
Y852380D01*
X32004D01*
Y852855D01*
X32479D01*
Y852380D01*
D02*
G37*
G36*
X53878Y851429D02*
X53402D01*
Y850953D01*
Y849526D01*
X52927D01*
Y848100D01*
X52451D01*
Y846673D01*
X51975D01*
Y845247D01*
X51500D01*
Y843820D01*
X49598D01*
Y844296D01*
X49122D01*
Y846198D01*
X48647D01*
Y847624D01*
X48171D01*
Y849051D01*
X47696D01*
Y848100D01*
X47220D01*
Y846673D01*
X46745D01*
Y844771D01*
X46269D01*
Y843820D01*
X44367D01*
Y844771D01*
X43892D01*
Y846198D01*
X43416D01*
Y847624D01*
X42941D01*
Y849051D01*
X42465D01*
Y850477D01*
X41990D01*
Y852380D01*
X43892D01*
Y850953D01*
X44367D01*
Y849526D01*
X44843D01*
Y847624D01*
X45794D01*
Y849051D01*
X46269D01*
Y850477D01*
X46745D01*
Y851904D01*
X47220D01*
Y852380D01*
X48647D01*
Y851429D01*
X49122D01*
Y850002D01*
X49598D01*
Y848575D01*
X50073D01*
Y847149D01*
X50549D01*
Y848100D01*
X51024D01*
Y850002D01*
X51500D01*
Y851904D01*
X51975D01*
Y852380D01*
X53878D01*
Y851429D01*
D02*
G37*
G36*
X72423Y852380D02*
X73850D01*
Y851904D01*
X74325D01*
Y851429D01*
X74801D01*
Y850953D01*
X75276D01*
Y850002D01*
X75752D01*
Y847624D01*
X75276D01*
Y847149D01*
X70521D01*
Y846673D01*
Y846198D01*
X70996D01*
Y845722D01*
X73374D01*
Y846198D01*
X74801D01*
Y845722D01*
X75276D01*
Y844771D01*
X74801D01*
Y844296D01*
X74325D01*
Y843820D01*
X70521D01*
Y844296D01*
X69570D01*
Y844771D01*
X69094D01*
Y845722D01*
X68619D01*
Y850477D01*
X69094D01*
Y851429D01*
X69570D01*
Y851904D01*
X70521D01*
Y852380D01*
X71947D01*
Y852855D01*
X72423D01*
Y852380D01*
D02*
G37*
G36*
X57682D02*
X59584D01*
Y851904D01*
X60059D01*
Y851429D01*
X60535D01*
Y850953D01*
X61010D01*
Y843820D01*
X59108D01*
Y844296D01*
X58633D01*
Y843820D01*
X55304D01*
Y844296D01*
X54829D01*
Y844771D01*
X54353D01*
Y845247D01*
X53878D01*
Y847624D01*
X54353D01*
Y848100D01*
X54829D01*
Y848575D01*
X55780D01*
Y849051D01*
X59108D01*
Y850477D01*
X57682D01*
Y850953D01*
X57206D01*
Y850477D01*
X54829D01*
Y850953D01*
X54353D01*
Y851429D01*
X54829D01*
Y851904D01*
X55304D01*
Y852380D01*
X57206D01*
Y852855D01*
X57682D01*
Y852380D01*
D02*
G37*
G36*
X23444D02*
X25346D01*
Y851904D01*
X25822D01*
Y851429D01*
X26297D01*
Y849526D01*
X26773D01*
Y849051D01*
Y843820D01*
X21067D01*
Y844296D01*
X20115D01*
Y844771D01*
X19640D01*
Y847624D01*
X20115D01*
Y848575D01*
X21067D01*
Y849051D01*
X24395D01*
Y850477D01*
X23444D01*
Y850953D01*
X22493D01*
Y850477D01*
X21542D01*
Y850002D01*
X21067D01*
Y850477D01*
X20591D01*
Y850953D01*
X20115D01*
Y851904D01*
X20591D01*
Y852380D01*
X22493D01*
Y852855D01*
X23444D01*
Y852380D01*
D02*
G37*
%LPC*%
G36*
X46745Y927988D02*
X41038D01*
Y926561D01*
X40563D01*
Y923708D01*
X40087D01*
Y921330D01*
X39612D01*
Y919904D01*
X39136D01*
Y919428D01*
X38661D01*
Y918953D01*
X37234D01*
Y918477D01*
X36283D01*
Y918002D01*
X34857D01*
Y917526D01*
X33906D01*
Y917051D01*
X32479D01*
Y916575D01*
X31052D01*
Y917051D01*
X30101D01*
Y917526D01*
X29626D01*
Y918002D01*
X28675D01*
Y918477D01*
X28199D01*
Y918953D01*
X27724D01*
Y919428D01*
X26773D01*
Y919904D01*
X26297D01*
Y920379D01*
X25346D01*
Y920855D01*
X24395D01*
Y920379D01*
X23920D01*
Y919904D01*
X23444D01*
Y919428D01*
X22969D01*
Y918953D01*
X22493D01*
Y918477D01*
X22018D01*
Y918002D01*
X21542D01*
Y917526D01*
X21067D01*
Y916100D01*
X21542D01*
Y915624D01*
X22018D01*
Y914673D01*
X22493D01*
Y914197D01*
X22969D01*
Y913246D01*
X23444D01*
Y912771D01*
X23920D01*
Y911820D01*
X24395D01*
Y911344D01*
X24871D01*
Y908491D01*
X24395D01*
Y907540D01*
X23920D01*
Y906114D01*
X23444D01*
Y905163D01*
X22969D01*
Y904212D01*
X22493D01*
Y903260D01*
X22018D01*
Y902785D01*
X21542D01*
Y902309D01*
X21067D01*
Y901834D01*
X18689D01*
Y901358D01*
X16311D01*
Y900883D01*
X13934D01*
Y894701D01*
X16787D01*
Y894225D01*
X19164D01*
Y893750D01*
X21067D01*
Y893275D01*
X21542D01*
Y892799D01*
X22018D01*
Y892323D01*
X22493D01*
Y890897D01*
X22969D01*
Y889946D01*
X23444D01*
Y888519D01*
X23920D01*
Y887568D01*
X24395D01*
Y886142D01*
X24871D01*
Y884715D01*
X24395D01*
Y883764D01*
X23920D01*
Y882813D01*
X23444D01*
Y882337D01*
X22969D01*
Y881386D01*
X22493D01*
Y880911D01*
X22018D01*
Y879960D01*
X21542D01*
Y879484D01*
X21067D01*
Y879009D01*
X20591D01*
Y878533D01*
X21067D01*
Y878058D01*
X21542D01*
Y877582D01*
X22018D01*
Y877107D01*
X22493D01*
Y876631D01*
X22969D01*
Y876156D01*
X23444D01*
Y875680D01*
X23920D01*
Y875205D01*
X24395D01*
Y874729D01*
X25346D01*
Y875205D01*
X26297D01*
Y875680D01*
X26773D01*
Y876156D01*
X27248D01*
Y876631D01*
X28199D01*
Y877107D01*
X28675D01*
Y877582D01*
X29626D01*
Y878058D01*
X30101D01*
Y878533D01*
X32479D01*
Y878058D01*
X33430D01*
Y877582D01*
X33906D01*
Y878533D01*
X34381D01*
Y879484D01*
X34857D01*
Y880911D01*
X35332D01*
Y881862D01*
X35808D01*
Y883288D01*
X36283D01*
Y884240D01*
X36759D01*
Y885666D01*
X37234D01*
Y886617D01*
X37710D01*
Y887568D01*
X38185D01*
Y888995D01*
X37710D01*
Y889470D01*
X37234D01*
Y889946D01*
X36283D01*
Y890421D01*
X35808D01*
Y891372D01*
X35332D01*
Y891848D01*
X34857D01*
Y892323D01*
X34381D01*
Y893750D01*
X33906D01*
Y894701D01*
X33430D01*
Y900407D01*
X33906D01*
Y901834D01*
X34381D01*
Y902785D01*
X34857D01*
Y903736D01*
X35332D01*
Y904212D01*
X35808D01*
Y904687D01*
X36283D01*
Y905638D01*
X37234D01*
Y906114D01*
X37710D01*
Y906589D01*
X38185D01*
Y907065D01*
X39136D01*
Y907540D01*
X40087D01*
Y908016D01*
X41514D01*
Y908491D01*
X46269D01*
Y908016D01*
X47696D01*
Y907540D01*
X48647D01*
Y907065D01*
X49598D01*
Y906589D01*
X50073D01*
Y906114D01*
X51024D01*
Y905638D01*
X51500D01*
Y905163D01*
X51975D01*
Y904687D01*
X52451D01*
Y903736D01*
X52927D01*
Y903260D01*
X53402D01*
Y902309D01*
X53878D01*
Y900883D01*
X54353D01*
Y898030D01*
X54829D01*
Y897554D01*
X54353D01*
Y894701D01*
X53878D01*
Y893275D01*
X53402D01*
Y892323D01*
X52927D01*
Y891848D01*
X52451D01*
Y890897D01*
X51975D01*
Y890421D01*
X51500D01*
Y889946D01*
X51024D01*
Y889470D01*
X50073D01*
Y888995D01*
X49598D01*
Y888044D01*
X50073D01*
Y886617D01*
X50549D01*
Y885666D01*
X51024D01*
Y884715D01*
X51500D01*
Y883288D01*
X51975D01*
Y882337D01*
X52451D01*
Y880911D01*
X52927D01*
Y879960D01*
X53402D01*
Y878533D01*
X53878D01*
Y877582D01*
X54353D01*
Y878058D01*
X55304D01*
Y878533D01*
X57682D01*
Y878058D01*
X58157D01*
Y877582D01*
X59108D01*
Y877107D01*
X59584D01*
Y876631D01*
X60535D01*
Y876156D01*
X61010D01*
Y875680D01*
X61961D01*
Y875205D01*
X62437D01*
Y874729D01*
X63388D01*
Y875205D01*
X63864D01*
Y875680D01*
X64339D01*
Y876156D01*
X64815D01*
Y876631D01*
X65290D01*
Y877107D01*
X65766D01*
Y877582D01*
X66241D01*
Y878058D01*
X66717D01*
Y878533D01*
X67192D01*
Y879009D01*
X66717D01*
Y879484D01*
X66241D01*
Y880435D01*
X65766D01*
Y880911D01*
X65290D01*
Y881862D01*
X64815D01*
Y882337D01*
X64339D01*
Y883288D01*
X63864D01*
Y883764D01*
X63388D01*
Y884715D01*
X62913D01*
Y885666D01*
X63388D01*
Y887093D01*
X63864D01*
Y888519D01*
X64339D01*
Y889470D01*
X64815D01*
Y890897D01*
X65290D01*
Y891848D01*
X65766D01*
Y892799D01*
X66241D01*
Y893275D01*
X66717D01*
Y893750D01*
X68619D01*
Y894225D01*
X70996D01*
Y894701D01*
X73850D01*
Y900883D01*
X71472D01*
Y901358D01*
X69094D01*
Y901834D01*
X66717D01*
Y902309D01*
X66241D01*
Y902785D01*
X65766D01*
Y903260D01*
X65290D01*
Y904212D01*
X64815D01*
Y905638D01*
X64339D01*
Y906589D01*
X63864D01*
Y907540D01*
X63388D01*
Y908967D01*
X62913D01*
Y910869D01*
X63388D01*
Y911820D01*
X63864D01*
Y912295D01*
X64339D01*
Y913246D01*
X64815D01*
Y913722D01*
X65290D01*
Y914673D01*
X65766D01*
Y915148D01*
X66241D01*
Y916100D01*
X66717D01*
Y916575D01*
X67192D01*
Y917051D01*
X66717D01*
Y917526D01*
X66241D01*
Y918002D01*
X65766D01*
Y918477D01*
X65290D01*
Y918953D01*
X64815D01*
Y919428D01*
X64339D01*
Y919904D01*
X63864D01*
Y920379D01*
X63388D01*
Y920855D01*
X62437D01*
Y920379D01*
X61961D01*
Y919904D01*
X61010D01*
Y919428D01*
X60535D01*
Y918953D01*
X59584D01*
Y918477D01*
X59108D01*
Y918002D01*
X58157D01*
Y917526D01*
X57682D01*
Y917051D01*
X56731D01*
Y916575D01*
X55304D01*
Y917051D01*
X53878D01*
Y917526D01*
X52927D01*
Y918002D01*
X51500D01*
Y918477D01*
X50549D01*
Y918953D01*
X49598D01*
Y919428D01*
X48647D01*
Y919904D01*
X48171D01*
Y921806D01*
X47696D01*
Y924184D01*
X47220D01*
Y927037D01*
X46745D01*
Y927988D01*
D02*
G37*
G36*
X15360Y864268D02*
X14409D01*
Y863792D01*
X13934D01*
Y863316D01*
X13458D01*
Y859512D01*
X14409D01*
Y859037D01*
X15836D01*
Y859512D01*
X16311D01*
Y863792D01*
X15360D01*
Y864268D01*
D02*
G37*
G36*
X81933D02*
X80507D01*
Y863792D01*
X80031D01*
Y863316D01*
X79556D01*
Y862841D01*
Y862365D01*
X82885D01*
Y863316D01*
X82409D01*
Y863792D01*
X81933D01*
Y864268D01*
D02*
G37*
G36*
X51975D02*
X50549D01*
Y863792D01*
X50073D01*
Y863316D01*
X49598D01*
Y862841D01*
Y862365D01*
Y859988D01*
X50073D01*
Y859512D01*
X50549D01*
Y859037D01*
X51975D01*
Y859512D01*
X52451D01*
Y859988D01*
X52927D01*
Y863316D01*
X52451D01*
Y863792D01*
X51975D01*
Y864268D01*
D02*
G37*
G36*
X23920D02*
X22018D01*
Y863792D01*
X21542D01*
Y862365D01*
X24395D01*
Y863792D01*
X23920D01*
Y864268D01*
D02*
G37*
G36*
X7276D02*
X5850D01*
Y863792D01*
X5374D01*
Y863316D01*
X4899D01*
Y859988D01*
X5374D01*
Y859512D01*
X5850D01*
Y859037D01*
X7276D01*
Y859512D01*
X7752D01*
Y859988D01*
X8227D01*
Y863316D01*
X7752D01*
Y863792D01*
X7276D01*
Y864268D01*
D02*
G37*
G36*
X38661Y850477D02*
X36283D01*
Y849526D01*
X35808D01*
Y846673D01*
X36283D01*
Y845722D01*
X38661D01*
Y846673D01*
X39136D01*
Y848575D01*
Y849051D01*
Y849526D01*
X38661D01*
Y850477D01*
D02*
G37*
G36*
X72423Y850953D02*
X71947D01*
Y850477D01*
X70996D01*
Y850002D01*
X70521D01*
Y849051D01*
X73850D01*
Y849526D01*
X73374D01*
Y850477D01*
X72423D01*
Y850953D01*
D02*
G37*
G36*
X59108Y847149D02*
X55780D01*
Y845722D01*
X58633D01*
Y846198D01*
X59108D01*
Y847149D01*
D02*
G37*
G36*
X24395D02*
X21542D01*
Y845722D01*
X24395D01*
Y847149D01*
D02*
G37*
%LPD*%
D10*
X202756Y79250D02*
G03*
X202756Y80250I0J500D01*
G01*
D02*
G03*
X202756Y79250I0J-500D01*
G01*
D11*
X86050Y225200D02*
X111450D01*
X86050Y174400D02*
Y225200D01*
Y174400D02*
X111450D01*
X108550D02*
X133950D01*
Y225200D01*
X108550D02*
X133950D01*
X26666Y174300D02*
Y250500D01*
X1266D02*
X26666D01*
X1266Y174300D02*
Y250500D01*
Y174300D02*
X26666D01*
X103250Y43500D02*
Y53497D01*
X106582Y50164D01*
X109915Y53497D01*
Y43500D01*
X113247D02*
Y45166D01*
X114913D01*
Y43500D01*
X113247D01*
X128242D02*
X121577D01*
X128242Y50164D01*
Y51831D01*
X126576Y53497D01*
X123244D01*
X121577Y51831D01*
X141571Y43500D02*
Y53497D01*
X144903Y50164D01*
X148236Y53497D01*
Y43500D01*
X161565Y53497D02*
Y43500D01*
Y46832D01*
X168229Y53497D01*
X163231Y48498D01*
X168229Y43500D01*
X178226Y53497D02*
X171561D01*
Y43500D01*
X178226D01*
X171561Y48498D02*
X174894D01*
X181558Y53497D02*
Y51831D01*
X184890Y48498D01*
X188223Y51831D01*
Y53497D01*
X184890Y48498D02*
Y43500D01*
X25834Y81998D02*
X22502D01*
X24168D01*
Y73668D01*
X22502Y72002D01*
X20835D01*
X19169Y73668D01*
X29166Y80332D02*
X30832Y81998D01*
X34165D01*
X35831Y80332D01*
Y78666D01*
X34165Y77000D01*
X32498D01*
X34165D01*
X35831Y75334D01*
Y73668D01*
X34165Y72002D01*
X30832D01*
X29166Y73668D01*
X59084Y53998D02*
X55752D01*
X57418D01*
Y45668D01*
X55752Y44002D01*
X54085D01*
X52419Y45668D01*
X69081Y44002D02*
X62416D01*
X69081Y50666D01*
Y52332D01*
X67414Y53998D01*
X64082D01*
X62416Y52332D01*
X36750Y352248D02*
X33418D01*
X35084D01*
Y343918D01*
X33418Y342252D01*
X31752D01*
X30085Y343918D01*
X40082Y342252D02*
X43415D01*
X41748D01*
Y352248D01*
X40082Y350582D01*
D12*
X82250Y194250D02*
Y205750D01*
X65000Y194250D02*
X82250D01*
X65000D02*
Y205750D01*
X82250D01*
X219000Y114250D02*
Y155750D01*
X207000D02*
X219000D01*
X1006Y148250D02*
Y155750D01*
X13000D01*
X1006Y114250D02*
Y132250D01*
X2250Y280250D02*
Y288247D01*
X6249D01*
X7582Y286915D01*
Y284249D01*
X6249Y282916D01*
X2250D01*
X15579Y288247D02*
X10247D01*
Y280250D01*
X15579D01*
X10247Y284249D02*
X12913D01*
X18245Y280250D02*
Y288247D01*
X22243D01*
X23576Y286915D01*
Y284249D01*
X22243Y282916D01*
X18245D01*
X20911D02*
X23576Y280250D01*
X31574Y286915D02*
X30241Y288247D01*
X27575D01*
X26242Y286915D01*
Y285582D01*
X27575Y284249D01*
X30241D01*
X31574Y282916D01*
Y281583D01*
X30241Y280250D01*
X27575D01*
X26242Y281583D01*
X34240Y288247D02*
X39571D01*
X36906D01*
Y280250D01*
X47569Y288247D02*
X42237D01*
Y284249D01*
X44903D01*
X42237D01*
Y280250D01*
X7582Y274415D02*
X6249Y275747D01*
X3583D01*
X2250Y274415D01*
Y269083D01*
X3583Y267750D01*
X6249D01*
X7582Y269083D01*
X10247Y275747D02*
Y267750D01*
Y270416D01*
X15579Y275747D01*
X11580Y271749D01*
X15579Y267750D01*
X18245D02*
Y275747D01*
X22243D01*
X23576Y274415D01*
Y271749D01*
X22243Y270416D01*
X18245D01*
X20911D02*
X23576Y267750D01*
X31574Y269083D02*
Y274415D01*
X30241Y275747D01*
X27575D01*
X26242Y274415D01*
Y269083D01*
X27575Y267750D01*
X30241D01*
X28908Y270416D02*
X31574Y267750D01*
X30241D02*
X31574Y269083D01*
X39571Y275747D02*
X34240D01*
Y271749D01*
X36906D01*
X34240D01*
Y267750D01*
X2250Y263247D02*
Y255250D01*
X4916Y257916D01*
X7582Y255250D01*
Y263247D01*
X10247Y255250D02*
Y260582D01*
X12913Y263247D01*
X15579Y260582D01*
Y255250D01*
Y259249D01*
X10247D01*
X18245Y263247D02*
Y255250D01*
Y257916D01*
X23576Y263247D01*
X19578Y259249D01*
X23576Y255250D01*
X31574Y263247D02*
X26242D01*
Y255250D01*
X31574D01*
X26242Y259249D02*
X28908D01*
X39571Y263247D02*
X34240D01*
Y259249D01*
X36906D01*
X34240D01*
Y255250D01*
X142500Y211583D02*
Y219580D01*
X146499D01*
X147832Y218247D01*
Y215582D01*
X146499Y214249D01*
X142500D01*
X155829Y219580D02*
X150497D01*
Y211583D01*
X155829D01*
X150497Y215582D02*
X153163D01*
X158495Y211583D02*
Y219580D01*
X162493D01*
X163826Y218247D01*
Y215582D01*
X162493Y214249D01*
X158495D01*
X161161D02*
X163826Y211583D01*
X171824Y218247D02*
X170491Y219580D01*
X167825D01*
X166492Y218247D01*
Y216915D01*
X167825Y215582D01*
X170491D01*
X171824Y214249D01*
Y212916D01*
X170491Y211583D01*
X167825D01*
X166492Y212916D01*
X174490Y219580D02*
X179821D01*
X177155D01*
Y211583D01*
X187819D02*
X182487D01*
X187819Y216915D01*
Y218247D01*
X186486Y219580D01*
X183820D01*
X182487Y218247D01*
X142500Y188747D02*
Y180750D01*
X145166Y183416D01*
X147832Y180750D01*
Y188747D01*
X150497Y180750D02*
Y186082D01*
X153163Y188747D01*
X155829Y186082D01*
Y180750D01*
Y184749D01*
X150497D01*
X158495Y188747D02*
Y180750D01*
Y183416D01*
X163826Y188747D01*
X159828Y184749D01*
X163826Y180750D01*
X171824Y188747D02*
X166492D01*
Y180750D01*
X171824D01*
X166492Y184749D02*
X169158D01*
X179821Y180750D02*
X174490D01*
X179821Y186082D01*
Y187414D01*
X178488Y188747D01*
X175823D01*
X174490Y187414D01*
X47082Y188747D02*
X45749Y190080D01*
X43083D01*
X41750Y188747D01*
Y183416D01*
X43083Y182083D01*
X45749D01*
X47082Y183416D01*
X49747Y190080D02*
Y182083D01*
X55079D01*
X57745Y190080D02*
Y182083D01*
Y184749D01*
X63076Y190080D01*
X59078Y186082D01*
X63076Y182083D01*
X65742Y180750D02*
X71074D01*
X73740Y182083D02*
Y190080D01*
X79071Y182083D01*
Y190080D01*
X47082Y218247D02*
X45749Y219580D01*
X43083D01*
X41750Y218247D01*
Y212916D01*
X43083Y211583D01*
X45749D01*
X47082Y212916D01*
X49747Y219580D02*
Y211583D01*
X55079D01*
X57745Y219580D02*
Y211583D01*
Y214249D01*
X63076Y219580D01*
X59078Y215582D01*
X63076Y211583D01*
X65742Y210250D02*
X71074D01*
X73740Y211583D02*
Y219580D01*
X77738D01*
X79071Y218247D01*
Y215582D01*
X77738Y214249D01*
X73740D01*
D13*
X53000Y231750D02*
Y250750D01*
Y231750D02*
X55500D01*
X165000D02*
X167000D01*
Y250250D01*
X69500Y231750D02*
X81000D01*
X53000Y338750D02*
Y355000D01*
X167000Y338750D02*
Y355000D01*
Y285550D02*
Y308350D01*
X53000Y285850D02*
Y308650D01*
X137500Y231750D02*
X149000D01*
D14*
X208460Y314040D02*
X193225D01*
X198303Y319118D01*
X193225Y324197D01*
X208460D01*
Y329275D02*
X205921D01*
Y331814D01*
X208460D01*
Y329275D01*
Y352128D02*
Y341971D01*
X198303Y352128D01*
X195764D01*
X193225Y349589D01*
Y344510D01*
X195764Y341971D01*
X208460Y372441D02*
X193225D01*
Y380059D01*
X195764Y382598D01*
X200842D01*
X203382Y380059D01*
Y372441D01*
X195764Y397833D02*
X193225Y395294D01*
Y390215D01*
X195764Y387676D01*
X205921D01*
X208460Y390215D01*
Y395294D01*
X205921Y397833D01*
X193225Y402911D02*
Y407990D01*
Y405450D01*
X208460D01*
Y402911D01*
Y407990D01*
Y423225D02*
Y418146D01*
X205921Y415607D01*
X200842D01*
X198303Y418146D01*
Y423225D01*
X200842Y425764D01*
X203382D01*
Y415607D01*
X198303Y446077D02*
X208460Y456234D01*
X203382Y451156D01*
X198303Y456234D01*
X208460Y446077D01*
Y471469D02*
Y461312D01*
X198303Y471469D01*
X195764D01*
X193225Y468930D01*
Y463852D01*
X195764Y461312D01*
Y494322D02*
X198303D01*
Y491782D01*
Y496861D01*
Y494322D01*
X205921D01*
X208460Y496861D01*
Y507018D02*
Y512096D01*
X205921Y514635D01*
X200842D01*
X198303Y512096D01*
Y507018D01*
X200842Y504478D01*
X205921D01*
X208460Y507018D01*
Y534949D02*
X198303D01*
Y537488D01*
X200842Y540027D01*
X208460D01*
X200842D01*
X198303Y542566D01*
X200842Y545105D01*
X208460D01*
Y550184D02*
Y555262D01*
Y552723D01*
X198303D01*
Y550184D01*
X208460Y562879D02*
X198303D01*
Y570497D01*
X200842Y573036D01*
X208460D01*
Y578115D02*
Y583193D01*
Y580654D01*
X198303D01*
Y578115D01*
X193225Y590810D02*
X208460D01*
Y598428D01*
X205921Y600967D01*
X195764D01*
X193225Y598428D01*
Y590810D01*
X208460Y606045D02*
X193225D01*
Y613663D01*
X195764Y616202D01*
X200842D01*
X203382Y613663D01*
Y606045D01*
X198303Y639055D02*
Y644133D01*
X200842Y646672D01*
X208460D01*
Y639055D01*
X205921Y636516D01*
X203382Y639055D01*
Y646672D01*
X208460Y651751D02*
X198303D01*
Y659368D01*
X200842Y661907D01*
X208460D01*
X193225Y677142D02*
X208460D01*
Y669525D01*
X205921Y666986D01*
X200842D01*
X198303Y669525D01*
Y677142D01*
X208460Y697456D02*
X193225D01*
X198303Y702534D01*
X193225Y707613D01*
X208460D01*
Y712691D02*
X205921D01*
Y715230D01*
X208460D01*
Y712691D01*
Y735544D02*
Y725387D01*
X198303Y735544D01*
X195764D01*
X193225Y733004D01*
Y727926D01*
X195764Y725387D01*
X208460Y758396D02*
X195764D01*
X200842D01*
Y755857D01*
Y760935D01*
Y758396D01*
X195764D01*
X193225Y760935D01*
X208460Y776171D02*
Y771092D01*
X205921Y768553D01*
X200842D01*
X198303Y771092D01*
Y776171D01*
X200842Y778710D01*
X203382D01*
Y768553D01*
X208460Y783788D02*
X198303D01*
Y786327D01*
X200842Y788866D01*
X208460D01*
X200842D01*
X198303Y791405D01*
X200842Y793945D01*
X208460D01*
X198303Y801562D02*
Y806641D01*
X200842Y809180D01*
X208460D01*
Y801562D01*
X205921Y799023D01*
X203382Y801562D01*
Y809180D01*
X208460Y814258D02*
Y819336D01*
Y816797D01*
X193225D01*
Y814258D01*
X208460Y834572D02*
Y829493D01*
X205921Y826954D01*
X200842D01*
X198303Y829493D01*
Y834572D01*
X200842Y837111D01*
X203382D01*
Y826954D01*
X27460Y496697D02*
Y486540D01*
X17303Y496697D01*
X14764D01*
X12225Y494157D01*
Y489079D01*
X14764Y486540D01*
X24921Y501775D02*
X27460Y504314D01*
Y509393D01*
X24921Y511932D01*
X14764D01*
X12225Y509393D01*
Y504314D01*
X14764Y501775D01*
X17303D01*
X19842Y504314D01*
Y511932D01*
X27460Y517010D02*
X24921D01*
Y519549D01*
X27460D01*
Y517010D01*
X14764Y529706D02*
X12225Y532245D01*
Y537324D01*
X14764Y539863D01*
X24921D01*
X27460Y537324D01*
Y532245D01*
X24921Y529706D01*
X14764D01*
X12225Y555098D02*
Y544941D01*
X19842D01*
X17303Y550019D01*
Y552559D01*
X19842Y555098D01*
X24921D01*
X27460Y552559D01*
Y547480D01*
X24921Y544941D01*
X27460Y560176D02*
X24921D01*
Y562715D01*
X27460D01*
Y560176D01*
Y583029D02*
Y572872D01*
X17303Y583029D01*
X14764D01*
X12225Y580490D01*
Y575411D01*
X14764Y572872D01*
Y588107D02*
X12225Y590646D01*
Y595725D01*
X14764Y598264D01*
X24921D01*
X27460Y595725D01*
Y590646D01*
X24921Y588107D01*
X14764D01*
X27460Y613499D02*
Y603342D01*
X17303Y613499D01*
X14764D01*
X12225Y610960D01*
Y605881D01*
X14764Y603342D01*
X27460Y626195D02*
X12225D01*
X19842Y618577D01*
Y628734D01*
M02*
