G04*
G04 #@! TF.GenerationSoftware,Altium Limited,Altium Designer,24.5.2 (23)*
G04*
G04 Layer_Color=8388736*
%FSLAX44Y44*%
%MOMM*%
G71*
G04*
G04 #@! TF.SameCoordinates,01BA7047-8EBF-4B0B-9F07-F392ECF8FA2C*
G04*
G04*
G04 #@! TF.FilePolarity,Negative*
G04*
G01*
G75*
%ADD13R,0.3500X1.4500*%
%ADD14R,3.2005X2.0000*%
%ADD15R,15.4500X2.0000*%
%ADD16C,3.6532*%
%ADD17C,1.4032*%
%ADD18R,1.4032X1.4032*%
G36*
X138500Y800000D02*
X138500Y797757D01*
X137798Y793326D01*
X136412Y789060D01*
X134375Y785063D01*
X131739Y781433D01*
X128567Y778261D01*
X124937Y775624D01*
X120940Y773588D01*
X116674Y772202D01*
X112243Y771500D01*
X107757Y771500D01*
X103326Y772202D01*
X99060Y773588D01*
X95063Y775624D01*
X91433Y778261D01*
X88261Y781433D01*
X85625Y785063D01*
X83588Y789060D01*
X82202Y793326D01*
X81500Y797757D01*
X81500Y800000D01*
X81500Y800000D01*
X92500Y800000D01*
X92584Y798285D01*
X93253Y794920D01*
X94566Y791750D01*
X96472Y788898D01*
X98898Y786472D01*
X101751Y784566D01*
X104920Y783253D01*
X108285Y782584D01*
X111715Y782584D01*
X115080Y783253D01*
X118250Y784566D01*
X121102Y786472D01*
X123528Y788898D01*
X125434Y791751D01*
X126747Y794920D01*
X127416Y798285D01*
X127500Y800000D01*
X127500Y800000D01*
X138500Y800000D01*
D02*
G37*
D13*
X17251Y12750D02*
D03*
X22250D02*
D03*
X27251D02*
D03*
X32250D02*
D03*
X37251D02*
D03*
X62250D02*
D03*
X67251D02*
D03*
X72250D02*
D03*
X77251D02*
D03*
X82250D02*
D03*
X87251D02*
D03*
X92250D02*
D03*
X97251D02*
D03*
X102250D02*
D03*
X107251D02*
D03*
X112250D02*
D03*
X117251D02*
D03*
X122250D02*
D03*
X127251D02*
D03*
X132250D02*
D03*
X137251D02*
D03*
X142250D02*
D03*
X147251D02*
D03*
X152250D02*
D03*
X157251D02*
D03*
X162250D02*
D03*
X167251D02*
D03*
X172250D02*
D03*
X177251D02*
D03*
X182250D02*
D03*
X187251D02*
D03*
X192250D02*
D03*
X197251D02*
D03*
X202250D02*
D03*
D14*
X26498Y10000D02*
D03*
D15*
X131750D02*
D03*
D16*
X44300Y103200D02*
D03*
X175700D02*
D03*
X44300Y160000D02*
D03*
X175700D02*
D03*
D17*
X150000Y93000D02*
D03*
X130000D02*
D03*
X110000D02*
D03*
X90000D02*
D03*
X70000D02*
D03*
X75000Y108000D02*
D03*
X100000D02*
D03*
X120000D02*
D03*
X145000D02*
D03*
X150000Y125000D02*
D03*
X130000D02*
D03*
X110000D02*
D03*
X90000D02*
D03*
X70000D02*
D03*
X75000Y140000D02*
D03*
X100000D02*
D03*
X120000D02*
D03*
D18*
X145000D02*
D03*
M02*
