G04*
G04 #@! TF.GenerationSoftware,Altium Limited,Altium Designer,24.5.2 (23)*
G04*
G04 Layer_Physical_Order=2*
G04 Layer_Color=16711680*
%FSLAX44Y44*%
%MOMM*%
G71*
G04*
G04 #@! TF.SameCoordinates,01BA7047-8EBF-4B0B-9F07-F392ECF8FA2C*
G04*
G04*
G04 #@! TF.FilePolarity,Positive*
G04*
G01*
G75*
%ADD11C,0.2000*%
%ADD19C,3.4500*%
%ADD20C,1.2000*%
%ADD21R,1.2000X1.2000*%
%ADD22C,0.5000*%
%ADD23R,0.3500X1.9500*%
G36*
X215001Y799999D02*
X215001Y799999D01*
X215001Y799999D01*
X215001D01*
X216172Y799926D01*
X217832Y799238D01*
X219239Y797832D01*
X220000Y795995D01*
X220000Y795000D01*
X220000Y41999D01*
Y41601D01*
X219695Y40867D01*
X219133Y40304D01*
X218398Y40000D01*
X214501D01*
X214500Y40000D01*
X213525Y39904D01*
X211722Y39158D01*
X210343Y37779D01*
X209596Y35977D01*
X209499Y35001D01*
Y28999D01*
X81500Y28999D01*
X81355Y29725D01*
X80803Y30552D01*
X67302Y44052D01*
X66476Y44605D01*
X65500Y44799D01*
X41556D01*
X12799Y73556D01*
Y167944D01*
X25806Y180951D01*
X58444D01*
X84201Y155194D01*
Y140750D01*
X84395Y139775D01*
X84948Y138948D01*
X90125Y133770D01*
X89599Y132500D01*
X89013D01*
X87105Y131989D01*
X85395Y131002D01*
X83998Y129605D01*
X83011Y127895D01*
X82539Y126132D01*
X80250D01*
X79275Y125938D01*
X78770Y125601D01*
X77812Y125892D01*
X77809Y125894D01*
X77448Y126182D01*
X76989Y127895D01*
X76002Y129605D01*
X74605Y131002D01*
X74209Y131230D01*
X74550Y132500D01*
X75987D01*
X77895Y133011D01*
X79605Y133998D01*
X81002Y135395D01*
X81989Y137105D01*
X82500Y139013D01*
Y140987D01*
X81989Y142895D01*
X81002Y144605D01*
X79605Y146002D01*
X77895Y146989D01*
X75987Y147500D01*
X74013D01*
X72105Y146989D01*
X70395Y146002D01*
X68998Y144605D01*
X68011Y142895D01*
X67500Y140987D01*
Y139013D01*
X68011Y137105D01*
X68998Y135395D01*
X70395Y133998D01*
X70791Y133770D01*
X70450Y132500D01*
X69013D01*
X67105Y131989D01*
X65395Y131002D01*
X63998Y129605D01*
X63898Y129431D01*
X62311Y129223D01*
X61073Y130460D01*
X61073Y130460D01*
X60981Y130552D01*
X60154Y131105D01*
X59179Y131299D01*
X59039D01*
Y133561D01*
X58845Y134537D01*
X58292Y135364D01*
X57466Y135916D01*
X56490Y136110D01*
X49410D01*
X48435Y135916D01*
X47608Y135364D01*
X47055Y134537D01*
X46861Y133561D01*
Y131299D01*
X44879D01*
Y133863D01*
X44685Y134839D01*
X44132Y135666D01*
X43306Y136218D01*
X42330Y136412D01*
X35250D01*
X34275Y136218D01*
X33448Y135666D01*
X32895Y134839D01*
X32701Y133863D01*
Y131299D01*
X31050D01*
X30075Y131105D01*
X29248Y130552D01*
X16948Y118252D01*
X16395Y117425D01*
X16201Y116450D01*
Y85500D01*
X16395Y84524D01*
X16948Y83698D01*
X48698Y51948D01*
X49524Y51395D01*
X50500Y51201D01*
X106444D01*
X110451Y47194D01*
Y40145D01*
X109235Y39641D01*
X108109Y38516D01*
X107500Y37046D01*
Y35454D01*
X108109Y33984D01*
X109235Y32859D01*
X110705Y32250D01*
X112296D01*
X113766Y32859D01*
X114750Y33843D01*
X115735Y32859D01*
X117205Y32250D01*
X118796D01*
X120266Y32859D01*
X121391Y33984D01*
X122000Y35454D01*
Y37046D01*
X121391Y38516D01*
X120266Y39641D01*
X119049Y40145D01*
Y49699D01*
X118855Y50675D01*
X118303Y51502D01*
X110752Y59052D01*
X109925Y59605D01*
X108950Y59799D01*
X53005D01*
X24799Y88006D01*
Y113944D01*
X33556Y122701D01*
X56673D01*
X64677Y114698D01*
X65504Y114145D01*
X66479Y113951D01*
X68685D01*
X69171Y112778D01*
X68998Y112605D01*
X68011Y110895D01*
X67500Y108987D01*
Y107013D01*
X68011Y105105D01*
X68998Y103395D01*
X70395Y101999D01*
X70791Y101770D01*
X70450Y100500D01*
X69013D01*
X67105Y99989D01*
X65395Y99002D01*
X63998Y97605D01*
X63011Y95895D01*
X62500Y93987D01*
Y92013D01*
X63011Y90105D01*
X63998Y88395D01*
X65395Y86999D01*
X67105Y86011D01*
X69013Y85500D01*
X70987D01*
X72895Y86011D01*
X74605Y86999D01*
X76002Y88395D01*
X76989Y90105D01*
X77500Y92013D01*
Y93987D01*
X76989Y95895D01*
X76002Y97605D01*
X74605Y99002D01*
X74209Y99230D01*
X74550Y100500D01*
X75987D01*
X77895Y101011D01*
X79605Y101999D01*
X81002Y103395D01*
X81989Y105105D01*
X82082Y105451D01*
X86500D01*
X87475Y105645D01*
X88302Y106198D01*
X91290Y109186D01*
X91445Y109160D01*
X92500Y108599D01*
Y107013D01*
X93011Y105105D01*
X93998Y103395D01*
X95395Y101999D01*
X97105Y101011D01*
X97451Y100918D01*
Y97634D01*
X96181Y97294D01*
X96002Y97605D01*
X94605Y99002D01*
X92895Y99989D01*
X90987Y100500D01*
X89013D01*
X87105Y99989D01*
X85395Y99002D01*
X83998Y97605D01*
X83011Y95895D01*
X82500Y93987D01*
Y92013D01*
X83011Y90105D01*
X83998Y88395D01*
X85395Y86999D01*
X87105Y86011D01*
X89013Y85500D01*
X90987D01*
X92895Y86011D01*
X94605Y86999D01*
X96002Y88395D01*
X96572Y89383D01*
X98048Y89400D01*
X98198Y89177D01*
X104677Y82698D01*
X104740Y82656D01*
X105701Y81694D01*
Y80006D01*
X105245Y79549D01*
X71301D01*
X70325Y79355D01*
X69498Y78802D01*
X66198Y75502D01*
X65646Y74675D01*
X65452Y73700D01*
Y71145D01*
X64235Y70641D01*
X63109Y69516D01*
X62501Y68046D01*
Y66454D01*
X63109Y64984D01*
X64235Y63859D01*
X65705Y63250D01*
X67296D01*
X68766Y63859D01*
X69750Y64843D01*
X70735Y63859D01*
X72205Y63250D01*
X73796D01*
X75266Y63859D01*
X76392Y64984D01*
X77000Y66454D01*
Y68046D01*
X76392Y69516D01*
X76226Y69681D01*
X76752Y70951D01*
X107750D01*
X108726Y71145D01*
X109552Y71698D01*
X113552Y75698D01*
X114105Y76525D01*
X114299Y77500D01*
Y81673D01*
X121802Y89177D01*
X121952Y89400D01*
X123428Y89383D01*
X123998Y88395D01*
X125395Y86999D01*
X127105Y86011D01*
X129013Y85500D01*
X130987D01*
X132895Y86011D01*
X134605Y86999D01*
X136002Y88395D01*
X136989Y90105D01*
X137500Y92013D01*
Y93987D01*
X136989Y95895D01*
X136002Y97605D01*
X134605Y99002D01*
X132895Y99989D01*
X130987Y100500D01*
X129013D01*
X127105Y99989D01*
X125395Y99002D01*
X123998Y97605D01*
X123819Y97294D01*
X122549Y97634D01*
Y100918D01*
X122895Y101011D01*
X124605Y101999D01*
X126002Y103395D01*
X126989Y105105D01*
X127500Y107013D01*
Y108987D01*
X126989Y110895D01*
X126968Y110931D01*
X127701Y112201D01*
X137194D01*
X138190Y111205D01*
X138011Y110895D01*
X137500Y108987D01*
Y107013D01*
X138011Y105105D01*
X138998Y103395D01*
X140395Y101999D01*
X142105Y101011D01*
X144013Y100500D01*
X145450D01*
X145791Y99230D01*
X145395Y99002D01*
X143998Y97605D01*
X143011Y95895D01*
X142500Y93987D01*
Y92013D01*
X143011Y90105D01*
X143998Y88395D01*
X145395Y86999D01*
X147105Y86011D01*
X149013Y85500D01*
X150987D01*
X152895Y86011D01*
X154605Y86999D01*
X156002Y88395D01*
X156989Y90105D01*
X157500Y92013D01*
Y93987D01*
X156989Y95895D01*
X156002Y97605D01*
X154605Y99002D01*
X152895Y99989D01*
X150987Y100500D01*
X149550D01*
X149209Y101770D01*
X149605Y101999D01*
X151002Y103395D01*
X151989Y105105D01*
X152500Y107013D01*
Y108987D01*
X151989Y110895D01*
X151002Y112605D01*
X149605Y114002D01*
X147895Y114989D01*
X145987Y115500D01*
X144013D01*
X142105Y114989D01*
X141795Y114810D01*
X140052Y116552D01*
X139226Y117105D01*
X138250Y117299D01*
X134201D01*
X133861Y118569D01*
X134605Y118998D01*
X136002Y120395D01*
X136989Y122105D01*
X137500Y124013D01*
Y125987D01*
X136989Y127895D01*
X136002Y129605D01*
X134605Y131002D01*
X132895Y131989D01*
X130987Y132500D01*
X129013D01*
X127105Y131989D01*
X125395Y131002D01*
X123998Y129605D01*
X123386Y128544D01*
X123265Y128522D01*
X122828Y128504D01*
X121984Y128656D01*
X121552Y129302D01*
X119625Y131230D01*
X120151Y132500D01*
X120987D01*
X122895Y133011D01*
X124605Y133998D01*
X126002Y135395D01*
X126989Y137105D01*
X127500Y139013D01*
Y140987D01*
X126989Y142895D01*
X126002Y144605D01*
X124605Y146002D01*
X122895Y146989D01*
X120987Y147500D01*
X119013D01*
X117105Y146989D01*
X115395Y146002D01*
X113998Y144605D01*
X113569Y143861D01*
X112299Y144201D01*
Y175250D01*
X112105Y176225D01*
X111552Y177052D01*
X97802Y190802D01*
X96975Y191355D01*
X96000Y191549D01*
X23500D01*
X22524Y191355D01*
X21698Y190802D01*
X3948Y173052D01*
X3395Y172225D01*
X3201Y171250D01*
Y70500D01*
X3395Y69524D01*
X3948Y68698D01*
X35948Y36698D01*
X36775Y36145D01*
X37750Y35951D01*
X46833D01*
X47086Y34681D01*
X45416Y33989D01*
X43761Y32333D01*
X42866Y30170D01*
X42751Y28999D01*
X10500Y28999D01*
Y35001D01*
X10500D01*
X10500Y35001D01*
X10500Y35002D01*
X10404Y35977D01*
X10326Y36165D01*
X9657Y37779D01*
X8277Y39158D01*
X6475Y39904D01*
X5499Y40000D01*
X1601Y40000D01*
X867Y40304D01*
X304Y40867D01*
X0Y41601D01*
Y41999D01*
Y795000D01*
X-0Y795995D01*
X761Y797832D01*
X2167Y799238D01*
X4004Y799999D01*
X4999Y799999D01*
X92500Y800000D01*
X92584Y798285D01*
X93254Y794920D01*
X94566Y791750D01*
X96472Y788898D01*
X98898Y786472D01*
X101750Y784566D01*
X104920Y783254D01*
X108285Y782584D01*
X111715D01*
X115080Y783254D01*
X118249Y784566D01*
X121102Y786472D01*
X123528Y788898D01*
X125434Y791750D01*
X126746Y794920D01*
X127416Y798285D01*
X127500Y800000D01*
X215001Y799999D01*
D02*
G37*
G36*
X107201Y174194D02*
Y145068D01*
X106249Y144700D01*
X105931Y144676D01*
X104605Y146002D01*
X102895Y146989D01*
X100987Y147500D01*
X99013D01*
X97105Y146989D01*
X95395Y146002D01*
X93998Y144605D01*
X93011Y142895D01*
X92500Y140987D01*
Y140401D01*
X91230Y139875D01*
X89299Y141806D01*
Y156250D01*
X89105Y157225D01*
X88552Y158052D01*
X61424Y185181D01*
X61492Y185687D01*
X61869Y186451D01*
X94944D01*
X107201Y174194D01*
D02*
G37*
G36*
X107948Y135698D02*
X117201Y126444D01*
Y121750D01*
X117395Y120774D01*
X117948Y119948D01*
X121186Y116709D01*
X121160Y116555D01*
X120599Y115500D01*
X119013D01*
X117105Y114989D01*
X115395Y114002D01*
X113998Y112605D01*
X113011Y110895D01*
X112500Y108987D01*
Y107013D01*
X113011Y105105D01*
X113998Y103395D01*
X115395Y101999D01*
X117105Y101011D01*
X117451Y100918D01*
Y92035D01*
X110010Y84594D01*
X108302Y86302D01*
X108240Y86344D01*
X102549Y92035D01*
Y100918D01*
X102895Y101011D01*
X104605Y101999D01*
X106002Y103395D01*
X106989Y105105D01*
X107500Y107013D01*
Y108987D01*
X106989Y110895D01*
X106002Y112605D01*
X104605Y114002D01*
X102895Y114989D01*
X100987Y115500D01*
X99401D01*
X98840Y116555D01*
X98814Y116709D01*
X102052Y119948D01*
X102605Y120774D01*
X102799Y121750D01*
Y127250D01*
X102605Y128225D01*
X102052Y129052D01*
X99875Y131230D01*
X100401Y132500D01*
X100987D01*
X102895Y133011D01*
X104605Y133998D01*
X106002Y135395D01*
X106315Y135939D01*
X107784Y135942D01*
X107948Y135698D01*
D02*
G37*
%LPC*%
G36*
X152500Y147500D02*
X137500D01*
Y132500D01*
X145450D01*
X145791Y131230D01*
X145395Y131002D01*
X143998Y129605D01*
X143011Y127895D01*
X142500Y125987D01*
Y124013D01*
X143011Y122105D01*
X143998Y120395D01*
X145395Y118998D01*
X147105Y118011D01*
X149013Y117500D01*
X150987D01*
X152895Y118011D01*
X154605Y118998D01*
X156002Y120395D01*
X156989Y122105D01*
X157500Y124013D01*
Y125987D01*
X156989Y127895D01*
X156002Y129605D01*
X154605Y131002D01*
X153430Y131680D01*
X152817Y132220D01*
X152500Y133165D01*
X152500Y133410D01*
Y147500D01*
D02*
G37*
%LPD*%
D11*
X96000Y189000D02*
X109750Y175250D01*
Y137500D02*
X119750Y127500D01*
X109750Y137500D02*
Y175250D01*
X119750Y121750D02*
Y127500D01*
Y121750D02*
X126750Y114750D01*
X138250D01*
X145000Y108000D01*
X86750Y140750D02*
X100250Y127250D01*
X86500Y108000D02*
X100250Y121750D01*
Y127250D01*
X86750Y140750D02*
Y156250D01*
X75000Y108000D02*
X86500D01*
X59500Y183500D02*
X86750Y156250D01*
X59179Y128750D02*
X59271Y128658D01*
X56490Y128750D02*
X59179D01*
X56490D02*
Y133561D01*
X49410D02*
X56490D01*
X49410Y128750D02*
Y133561D01*
X42330Y128750D02*
X49410D01*
X42330D02*
Y133863D01*
X35250D02*
X42330D01*
X35250Y128750D02*
Y133863D01*
X34250Y128750D02*
X35250D01*
X59271Y128658D02*
X62172Y125757D01*
X31050Y128750D02*
X34250D01*
X18750Y85500D02*
X50500Y53750D01*
X18750Y85500D02*
Y116450D01*
X50500Y53750D02*
X107500D01*
X22250Y86950D02*
X51950Y57250D01*
X108950D01*
X113000Y38562D02*
Y48250D01*
X108950Y57250D02*
X116500Y49699D01*
X107500Y53750D02*
X113000Y48250D01*
X116500Y38562D02*
Y49699D01*
X22250Y115000D02*
X32500Y125250D01*
X18750Y116450D02*
X31050Y128750D01*
X22250Y86950D02*
Y115000D01*
X66479Y116500D02*
X73521D01*
X57729Y125250D02*
X66479Y116500D01*
X32500Y125250D02*
X57729D01*
X62172Y125757D02*
X69243D01*
X70000Y125000D01*
X100000Y90979D02*
Y108000D01*
X106479Y84500D02*
X106500D01*
X108250Y82750D01*
Y78950D02*
Y82750D01*
X100000Y90979D02*
X106479Y84500D01*
X111750Y77500D02*
Y82729D01*
X120000Y90979D01*
X72751Y73500D02*
X107750D01*
X106300Y77000D02*
X108250Y78950D01*
X107750Y73500D02*
X111750Y77500D01*
X71301Y77000D02*
X106300D01*
X120000Y90979D02*
Y108000D01*
X71501Y69562D02*
X73000Y68062D01*
X71501Y69562D02*
Y72250D01*
X66501Y67250D02*
Y68062D01*
X68000Y69562D02*
Y73700D01*
X66501Y68062D02*
X68000Y69562D01*
Y73700D02*
X71301Y77000D01*
X73000Y67250D02*
Y68062D01*
X71501Y72250D02*
X72751Y73500D01*
X65500Y42250D02*
X79001Y28750D01*
X40500Y42250D02*
X65500D01*
X118000Y36250D02*
Y37062D01*
X116500Y38562D02*
X118000Y37062D01*
X111500Y36250D02*
Y37062D01*
X113000Y38562D01*
X78500Y121479D02*
Y121833D01*
X73521Y116500D02*
X78500Y121479D01*
Y121833D02*
X80250Y123583D01*
X88583D01*
X79001Y16000D02*
Y28750D01*
X59250Y38500D02*
X69001Y28749D01*
Y16000D02*
Y28749D01*
X37750Y38500D02*
X59250D01*
X88583Y123583D02*
X90000Y125000D01*
X10250Y72500D02*
Y169000D01*
X24750Y183500D01*
X5750Y70500D02*
Y171250D01*
Y70500D02*
X37750Y38500D01*
X10250Y72500D02*
X40500Y42250D01*
X24750Y183500D02*
X59500D01*
X5750Y171250D02*
X23500Y189000D01*
X96000D01*
X79001Y16000D02*
X79750Y15250D01*
D19*
X44300Y103200D02*
D03*
X175700D02*
D03*
X44300Y160000D02*
D03*
X175700D02*
D03*
D20*
X150000Y93000D02*
D03*
X130000D02*
D03*
X110000D02*
D03*
X90000D02*
D03*
X70000D02*
D03*
X75000Y108000D02*
D03*
X100000D02*
D03*
X120000D02*
D03*
X145000D02*
D03*
X150000Y125000D02*
D03*
X130000D02*
D03*
X110000D02*
D03*
X90000D02*
D03*
X70000D02*
D03*
X75000Y140000D02*
D03*
X100000D02*
D03*
X120000D02*
D03*
D21*
X145000D02*
D03*
D22*
X201250Y735000D02*
D03*
X171250Y770000D02*
D03*
X140833Y735000D02*
D03*
X92499Y782499D02*
D03*
X127501Y782499D02*
D03*
X110000Y775250D02*
D03*
X97750Y155750D02*
D03*
X210500Y78500D02*
D03*
X164500Y69750D02*
D03*
X123750Y80750D02*
D03*
X98500Y83500D02*
D03*
X93250Y67000D02*
D03*
X77250Y44750D02*
D03*
X50000Y770000D02*
D03*
X80417Y735000D02*
D03*
X20000D02*
D03*
X50000Y695000D02*
D03*
Y620000D02*
D03*
X140833Y585000D02*
D03*
X80417D02*
D03*
X50000Y545000D02*
D03*
X110417D02*
D03*
X170833D02*
D03*
X140833Y510000D02*
D03*
X80417D02*
D03*
X20000D02*
D03*
X50000Y470000D02*
D03*
X110417D02*
D03*
X170833D02*
D03*
X140833Y435000D02*
D03*
X80417D02*
D03*
X20000D02*
D03*
X50000Y395000D02*
D03*
X110417D02*
D03*
X170833D02*
D03*
X140833Y360000D02*
D03*
X80417D02*
D03*
X20000D02*
D03*
Y285000D02*
D03*
X80417D02*
D03*
X201250D02*
D03*
X140833D02*
D03*
X170833Y320000D02*
D03*
X50000D02*
D03*
Y245000D02*
D03*
X110417D02*
D03*
X170833D02*
D03*
X140833Y210000D02*
D03*
X201250D02*
D03*
X80417D02*
D03*
X20000D02*
D03*
X94000Y171000D02*
D03*
X78250Y180250D02*
D03*
X19750Y160500D02*
D03*
Y132750D02*
D03*
X77500Y62500D02*
D03*
X57000Y67750D02*
D03*
X192750Y59500D02*
D03*
X205250Y45500D02*
D03*
X211000Y61750D02*
D03*
X189250Y40750D02*
D03*
X174250D02*
D03*
X156000Y41250D02*
D03*
X141000D02*
D03*
X149500Y69750D02*
D03*
X118250Y60000D02*
D03*
X133250D02*
D03*
X40750Y52500D02*
D03*
X19250Y74500D02*
D03*
X7500Y53000D02*
D03*
X22000Y36500D02*
D03*
X122250Y45000D02*
D03*
X107250D02*
D03*
X73000Y67250D02*
D03*
X66501D02*
D03*
X118000Y36250D02*
D03*
X111500D02*
D03*
D23*
X19751Y15250D02*
D03*
X24749D02*
D03*
X29751D02*
D03*
X34749D02*
D03*
X59751D02*
D03*
X64749D02*
D03*
X69750D02*
D03*
X74749D02*
D03*
X79750D02*
D03*
X84749D02*
D03*
X89750D02*
D03*
X94749D02*
D03*
X99750D02*
D03*
X104749D02*
D03*
X109750D02*
D03*
X114752D02*
D03*
X119750D02*
D03*
X124752D02*
D03*
X129750D02*
D03*
X134752D02*
D03*
X139750D02*
D03*
X144752D02*
D03*
X149750D02*
D03*
X154752D02*
D03*
X159750D02*
D03*
X164752D02*
D03*
X169750D02*
D03*
X174752D02*
D03*
X179750D02*
D03*
X184752D02*
D03*
X189750D02*
D03*
X194752D02*
D03*
X199750D02*
D03*
M02*
