G04*
G04 #@! TF.GenerationSoftware,Altium Limited,Altium Designer,24.5.2 (23)*
G04*
G04 Layer_Physical_Order=1*
G04 Layer_Color=255*
%FSLAX44Y44*%
%MOMM*%
G71*
G04*
G04 #@! TF.SameCoordinates,01BA7047-8EBF-4B0B-9F07-F392ECF8FA2C*
G04*
G04*
G04 #@! TF.FilePolarity,Positive*
G04*
G01*
G75*
%ADD11C,0.2000*%
%ADD13R,0.3500X1.4500*%
%ADD19C,3.4500*%
%ADD20C,1.2000*%
%ADD21R,1.2000X1.2000*%
%ADD22C,0.5000*%
G36*
X215001Y799999D02*
X215001Y799999D01*
X215001Y799999D01*
X215001D01*
X216172Y799926D01*
X217832Y799238D01*
X219239Y797832D01*
X220000Y795995D01*
X220000Y795000D01*
X220000Y41999D01*
Y41601D01*
X219695Y40867D01*
X219133Y40304D01*
X218398Y40000D01*
X214501D01*
X214500Y40000D01*
X213525Y39904D01*
X211722Y39158D01*
X210343Y37779D01*
X209596Y35977D01*
X209499Y35001D01*
Y28999D01*
X134049D01*
Y40445D01*
X143056Y49451D01*
X169700D01*
X170675Y49645D01*
X171502Y50198D01*
X207802Y86498D01*
X208355Y87325D01*
X208549Y88300D01*
Y117000D01*
X208355Y117976D01*
X207802Y118802D01*
X195802Y130802D01*
X194975Y131355D01*
X194000Y131549D01*
X188336D01*
Y134130D01*
X188141Y135105D01*
X187589Y135932D01*
X186762Y136485D01*
X185787Y136679D01*
X178707D01*
X177731Y136485D01*
X176904Y135932D01*
X176352Y135105D01*
X176158Y134130D01*
Y131549D01*
X174176D01*
Y133741D01*
X173981Y134716D01*
X173429Y135543D01*
X172602Y136096D01*
X171627Y136290D01*
X164547D01*
X163571Y136096D01*
X162744Y135543D01*
X162192Y134716D01*
X161998Y133741D01*
Y131549D01*
X161050D01*
X160075Y131355D01*
X159248Y130802D01*
X157681Y129236D01*
X156094Y129445D01*
X156002Y129605D01*
X154605Y131002D01*
X153430Y131680D01*
X152817Y132220D01*
X152500Y133165D01*
X152500Y133410D01*
Y147500D01*
X137500D01*
Y132500D01*
X145450D01*
X145791Y131230D01*
X145395Y131002D01*
X143998Y129605D01*
X143011Y127895D01*
X142500Y125987D01*
Y125743D01*
X141327Y125257D01*
X140802Y125782D01*
X139976Y126334D01*
X139000Y126528D01*
X137355D01*
X136989Y127895D01*
X136002Y129605D01*
X134605Y131002D01*
X132895Y131989D01*
X130987Y132500D01*
X129013D01*
X127105Y131989D01*
X125395Y131002D01*
X123998Y129605D01*
X123011Y127895D01*
X122500Y125987D01*
Y124013D01*
X123011Y122105D01*
X123998Y120395D01*
X125395Y118998D01*
X127105Y118011D01*
X129013Y117500D01*
X130987D01*
X132895Y118011D01*
X134605Y118998D01*
X136002Y120395D01*
X136599Y121430D01*
X137944D01*
X143006Y116369D01*
X142677Y115142D01*
X142105Y114989D01*
X140395Y114002D01*
X138998Y112605D01*
X138011Y110895D01*
X137500Y108987D01*
Y107013D01*
X138011Y105105D01*
X138998Y103395D01*
X140395Y101999D01*
X142105Y101011D01*
X144013Y100500D01*
X145450D01*
X145791Y99230D01*
X145395Y99002D01*
X143998Y97605D01*
X143011Y95895D01*
X142500Y93987D01*
Y92013D01*
X143011Y90105D01*
X143190Y89795D01*
X140876Y87481D01*
X140000Y86927D01*
X139124Y87481D01*
X136810Y89795D01*
X136989Y90105D01*
X137500Y92013D01*
Y93987D01*
X136989Y95895D01*
X136002Y97605D01*
X134605Y99002D01*
X132895Y99989D01*
X130987Y100500D01*
X129013D01*
X127105Y99989D01*
X125395Y99002D01*
X123998Y97605D01*
X123011Y95895D01*
X122500Y93987D01*
Y92013D01*
X123011Y90105D01*
X123998Y88395D01*
X125395Y86999D01*
X127105Y86011D01*
X129013Y85500D01*
X130987D01*
X132895Y86011D01*
X133205Y86190D01*
X135451Y83944D01*
Y82963D01*
X126287Y73799D01*
X106800D01*
X105825Y73605D01*
X104998Y73052D01*
X96198Y64253D01*
X95646Y63426D01*
X95451Y62450D01*
Y28999D01*
X89050D01*
Y75199D01*
X88855Y76175D01*
X88303Y77002D01*
X84799Y80506D01*
Y82444D01*
X88099Y85745D01*
X89013Y85500D01*
X90987D01*
X92895Y86011D01*
X94605Y86999D01*
X96002Y88395D01*
X96989Y90105D01*
X97500Y92013D01*
Y93987D01*
X96989Y95895D01*
X96002Y97605D01*
X94605Y99002D01*
X92895Y99989D01*
X90987Y100500D01*
X89013D01*
X87105Y99989D01*
X85395Y99002D01*
X83998Y97605D01*
X83011Y95895D01*
X82500Y93987D01*
Y92013D01*
X83011Y90105D01*
X83831Y88686D01*
X80898Y85753D01*
X79482Y85590D01*
X79173Y85681D01*
X76169Y88686D01*
X76989Y90105D01*
X77500Y92013D01*
Y93987D01*
X76989Y95895D01*
X76002Y97605D01*
X74605Y99002D01*
X74209Y99230D01*
X74550Y100500D01*
X75987D01*
X77895Y101011D01*
X79605Y101999D01*
X81002Y103395D01*
X81989Y105105D01*
X82500Y107013D01*
Y108987D01*
X81989Y110895D01*
X81002Y112605D01*
X79605Y114002D01*
X77895Y114989D01*
X75987Y115500D01*
X74013D01*
X72105Y114989D01*
X70395Y114002D01*
X68998Y112605D01*
X68011Y110895D01*
X67500Y108987D01*
Y107013D01*
X68011Y105105D01*
X68998Y103395D01*
X70395Y101999D01*
X70791Y101770D01*
X70450Y100500D01*
X69013D01*
X67105Y99989D01*
X65395Y99002D01*
X63998Y97605D01*
X63011Y95895D01*
X62500Y93987D01*
Y92013D01*
X63011Y90105D01*
X63998Y88395D01*
X65395Y86999D01*
X67105Y86011D01*
X69013Y85500D01*
X70987D01*
X71901Y85745D01*
X75701Y81944D01*
Y78500D01*
X75895Y77524D01*
X76448Y76698D01*
X80451Y72694D01*
Y28999D01*
X74050D01*
Y63355D01*
X75266Y63859D01*
X76392Y64984D01*
X77000Y66454D01*
Y68046D01*
X76392Y69516D01*
X75266Y70641D01*
X73796Y71250D01*
X72205D01*
X70735Y70641D01*
X69750Y69657D01*
X68766Y70641D01*
X67296Y71250D01*
X65705D01*
X64235Y70641D01*
X63109Y69516D01*
X62501Y68046D01*
Y66454D01*
X63109Y64984D01*
X64235Y63859D01*
X65452Y63355D01*
Y28999D01*
X54750D01*
X54749Y28999D01*
X54634Y30170D01*
X53739Y32333D01*
X52084Y33989D01*
X49921Y34886D01*
X48750Y35001D01*
X48750Y35001D01*
X47579Y34885D01*
X45416Y33989D01*
X43761Y32333D01*
X42866Y30170D01*
X42751Y28999D01*
X10500Y28999D01*
Y35001D01*
X10500D01*
X10500Y35001D01*
X10500Y35002D01*
X10404Y35977D01*
X10326Y36165D01*
X9657Y37779D01*
X8277Y39158D01*
X6475Y39904D01*
X5499Y40000D01*
X1601Y40000D01*
X867Y40304D01*
X304Y40867D01*
X0Y41601D01*
Y41999D01*
Y795000D01*
X-0Y795995D01*
X761Y797832D01*
X2167Y799238D01*
X4004Y799999D01*
X4999Y799999D01*
X92500Y800000D01*
X92584Y798285D01*
X93254Y794920D01*
X94566Y791750D01*
X96472Y788898D01*
X98898Y786472D01*
X101750Y784566D01*
X104920Y783254D01*
X108285Y782584D01*
X111715D01*
X115080Y783254D01*
X118249Y784566D01*
X121102Y786472D01*
X123528Y788898D01*
X125434Y791750D01*
X126746Y794920D01*
X127416Y798285D01*
X127500Y800000D01*
X215001Y799999D01*
D02*
G37*
G36*
X199951Y114494D02*
Y90806D01*
X167194Y58049D01*
X140550D01*
X139575Y57855D01*
X138748Y57302D01*
X126198Y44752D01*
X125646Y43926D01*
X125451Y42950D01*
Y28999D01*
X119049D01*
Y32355D01*
X120266Y32859D01*
X121391Y33984D01*
X122000Y35454D01*
Y37046D01*
X121391Y38516D01*
X120266Y39641D01*
X118796Y40250D01*
X117205D01*
X115735Y39641D01*
X114750Y38657D01*
X113766Y39641D01*
X112296Y40250D01*
X110705D01*
X109235Y39641D01*
X108109Y38516D01*
X107500Y37046D01*
Y35454D01*
X108109Y33984D01*
X109235Y32859D01*
X110451Y32355D01*
Y28999D01*
X104049D01*
Y59945D01*
X109306Y65201D01*
X128793D01*
X129768Y65395D01*
X130595Y65948D01*
X141899Y77251D01*
X142652Y77755D01*
X143802Y78905D01*
X144355Y79732D01*
X144549Y80707D01*
Y83944D01*
X146795Y86190D01*
X147105Y86011D01*
X149013Y85500D01*
X150987D01*
X152895Y86011D01*
X154605Y86999D01*
X156002Y88395D01*
X156989Y90105D01*
X157500Y92013D01*
Y93987D01*
X156989Y95895D01*
X156002Y97605D01*
X154605Y99002D01*
X152895Y99989D01*
X150987Y100500D01*
X149550D01*
X149209Y101770D01*
X149605Y101999D01*
X151002Y103395D01*
X151989Y105105D01*
X152500Y107013D01*
Y108987D01*
X151989Y110895D01*
X151002Y112605D01*
X150829Y112778D01*
X151315Y113951D01*
X153521D01*
X154496Y114145D01*
X155323Y114698D01*
X160302Y119677D01*
X160344Y119740D01*
X163556Y122951D01*
X191495D01*
X199951Y114494D01*
D02*
G37*
%LPC*%
G36*
X120987Y147500D02*
X119013D01*
X117105Y146989D01*
X115395Y146002D01*
X113998Y144605D01*
X113011Y142895D01*
X112500Y140987D01*
Y139013D01*
X113011Y137105D01*
X113998Y135395D01*
X115395Y133998D01*
X117105Y133011D01*
X119013Y132500D01*
X120987D01*
X122895Y133011D01*
X124605Y133998D01*
X126002Y135395D01*
X126989Y137105D01*
X127500Y139013D01*
Y140987D01*
X126989Y142895D01*
X126002Y144605D01*
X124605Y146002D01*
X122895Y146989D01*
X120987Y147500D01*
D02*
G37*
G36*
X100987D02*
X99013D01*
X97105Y146989D01*
X95395Y146002D01*
X93998Y144605D01*
X93011Y142895D01*
X92500Y140987D01*
Y139013D01*
X93011Y137105D01*
X93998Y135395D01*
X95395Y133998D01*
X97105Y133011D01*
X99013Y132500D01*
X100987D01*
X102895Y133011D01*
X104605Y133998D01*
X106002Y135395D01*
X106989Y137105D01*
X107500Y139013D01*
Y140987D01*
X106989Y142895D01*
X106002Y144605D01*
X104605Y146002D01*
X102895Y146989D01*
X100987Y147500D01*
D02*
G37*
G36*
X90987Y132500D02*
X89013D01*
X87105Y131989D01*
X85395Y131002D01*
X83998Y129605D01*
X83011Y127895D01*
X82500Y125987D01*
Y124013D01*
X83011Y122105D01*
X83998Y120395D01*
X85395Y118998D01*
X87105Y118011D01*
X89013Y117500D01*
X90987D01*
X92895Y118011D01*
X94605Y118998D01*
X96002Y120395D01*
X96989Y122105D01*
X97500Y124013D01*
Y125987D01*
X96989Y127895D01*
X96002Y129605D01*
X94605Y131002D01*
X92895Y131989D01*
X90987Y132500D01*
D02*
G37*
G36*
X75987Y147500D02*
X74013D01*
X72105Y146989D01*
X70395Y146002D01*
X68998Y144605D01*
X68011Y142895D01*
X67500Y140987D01*
Y139013D01*
X68011Y137105D01*
X68998Y135395D01*
X70395Y133998D01*
X70791Y133770D01*
X70450Y132500D01*
X69013D01*
X67105Y131989D01*
X65395Y131002D01*
X63998Y129605D01*
X63011Y127895D01*
X62500Y125987D01*
Y124013D01*
X63011Y122105D01*
X63998Y120395D01*
X65395Y118998D01*
X67105Y118011D01*
X69013Y117500D01*
X70987D01*
X72895Y118011D01*
X74605Y118998D01*
X76002Y120395D01*
X76989Y122105D01*
X77500Y124013D01*
Y125987D01*
X76989Y127895D01*
X76002Y129605D01*
X74605Y131002D01*
X74209Y131230D01*
X74550Y132500D01*
X75987D01*
X77895Y133011D01*
X79605Y133998D01*
X81002Y135395D01*
X81989Y137105D01*
X82500Y139013D01*
Y140987D01*
X81989Y142895D01*
X81002Y144605D01*
X79605Y146002D01*
X77895Y146989D01*
X75987Y147500D01*
D02*
G37*
G36*
X120987Y115500D02*
X119013D01*
X117105Y114989D01*
X115395Y114002D01*
X113998Y112605D01*
X113011Y110895D01*
X112500Y108987D01*
Y107013D01*
X113011Y105105D01*
X113998Y103395D01*
X115395Y101999D01*
X117105Y101011D01*
X119013Y100500D01*
X120987D01*
X122895Y101011D01*
X124605Y101999D01*
X126002Y103395D01*
X126989Y105105D01*
X127500Y107013D01*
Y108987D01*
X126989Y110895D01*
X126002Y112605D01*
X124605Y114002D01*
X122895Y114989D01*
X120987Y115500D01*
D02*
G37*
G36*
X100987D02*
X99013D01*
X97105Y114989D01*
X95395Y114002D01*
X93998Y112605D01*
X93011Y110895D01*
X92500Y108987D01*
Y107013D01*
X93011Y105105D01*
X93998Y103395D01*
X95395Y101999D01*
X97105Y101011D01*
X99013Y100500D01*
X100987D01*
X102895Y101011D01*
X104605Y101999D01*
X106002Y103395D01*
X106989Y105105D01*
X107500Y107013D01*
Y108987D01*
X106989Y110895D01*
X106002Y112605D01*
X104605Y114002D01*
X102895Y114989D01*
X100987Y115500D01*
D02*
G37*
%LPD*%
D11*
X86501Y20171D02*
Y75199D01*
X168250Y55500D02*
X202500Y89750D01*
X98000Y21036D02*
Y62450D01*
X83000Y20171D02*
Y73749D01*
X71501Y21036D02*
Y64938D01*
X68000Y21036D02*
Y64938D01*
X66501Y66438D02*
X68000Y64938D01*
X66501Y66438D02*
Y67250D01*
X160821Y128771D02*
X161050Y129000D01*
X164547D01*
Y133741D01*
X171627D01*
Y129000D02*
Y133741D01*
Y129000D02*
X178707D01*
Y134130D01*
X185787D01*
Y129000D02*
Y134130D01*
Y129000D02*
X193867D01*
X194000D01*
X162500Y125500D02*
X188750D01*
X202500Y89750D02*
Y115550D01*
X192550Y125500D02*
X202500Y115550D01*
X188750Y125500D02*
X192550D01*
X194000Y129000D02*
X206000Y117000D01*
Y88300D02*
Y117000D01*
X157828Y125778D02*
X160821Y128771D01*
X169700Y52000D02*
X206000Y88300D01*
X140550Y55500D02*
X168250D01*
X128000Y42950D02*
X140550Y55500D01*
X128000Y21036D02*
Y42950D01*
X128000Y21035D02*
X128000Y21036D01*
X128000Y13498D02*
Y21035D01*
X127251Y12750D02*
X128000Y13498D01*
X142000Y52000D02*
X169700D01*
X131500Y41500D02*
X142000Y52000D01*
X131500Y21036D02*
Y41500D01*
Y21036D02*
X131501Y21035D01*
Y13498D02*
Y21035D01*
X86501Y13500D02*
Y20171D01*
Y13500D02*
X87251Y12750D01*
X86501Y20171D02*
X86501Y20171D01*
X83000Y13500D02*
Y20171D01*
X78250Y78500D02*
X83000Y73749D01*
X82250Y79450D02*
Y83500D01*
Y79450D02*
X86501Y75199D01*
X83000Y20171D02*
X83000Y20171D01*
X82250Y12750D02*
X83000Y13500D01*
X101501Y21036D02*
Y61000D01*
X108250Y67750D02*
X128793D01*
X106800Y71250D02*
X127343D01*
X98000Y62450D02*
X106800Y71250D01*
X101501Y61000D02*
X108250Y67750D01*
X101501Y13498D02*
Y21035D01*
X97251Y12750D02*
X98000Y13498D01*
Y21035D02*
X98000Y21036D01*
X98000Y13498D02*
Y21035D01*
X101501Y21036D02*
X101501Y21035D01*
Y13498D02*
X102250Y12750D01*
X142000Y80707D02*
Y85000D01*
X127343Y71250D02*
X138000Y81907D01*
X128793Y67750D02*
X140600Y79557D01*
X140850D01*
X142000Y80707D01*
X130000Y93000D02*
X138000Y85000D01*
X130000Y93000D02*
X130000D01*
X138000Y81907D02*
Y85000D01*
X142000D02*
X150000Y93000D01*
X146479Y116500D02*
X153521D01*
X158500Y121479D01*
Y121500D02*
X162500Y125500D01*
X158500Y121479D02*
Y121500D01*
X151450Y125778D02*
X157828D01*
X151114Y126114D02*
X151450Y125778D01*
X150000Y125000D02*
X151114Y126114D01*
X131021Y123979D02*
X139000D01*
X130000Y125000D02*
X131021Y123979D01*
X139000D02*
X146479Y116500D01*
X71501Y64938D02*
X73000Y66438D01*
X71501Y13498D02*
X72250Y12750D01*
X71501Y21036D02*
X71501Y21035D01*
Y13498D02*
Y21035D01*
X67251Y12750D02*
X68000Y13498D01*
Y21035D02*
X68000Y21036D01*
X68000Y13498D02*
Y21035D01*
X73000Y66438D02*
Y67250D01*
X116500Y20171D02*
Y33938D01*
X113000Y20171D02*
Y33938D01*
X111500Y35438D02*
Y36250D01*
X116501Y13500D02*
X117251Y12750D01*
X116500Y33938D02*
X118000Y35438D01*
X116501Y13500D02*
Y20171D01*
X116500Y20171D02*
X116501Y20171D01*
X112250Y12750D02*
X113000Y13500D01*
X118000Y35438D02*
Y36250D01*
X113000Y13500D02*
Y20171D01*
X113000Y20171D01*
X111500Y35438D02*
X113000Y33938D01*
X122250Y12750D02*
Y32500D01*
X107251Y12750D02*
Y31162D01*
X131501Y13498D02*
X132250Y12750D01*
X77251D02*
Y29999D01*
X62250Y12750D02*
Y32500D01*
X70000Y91250D02*
X78250Y83000D01*
X70000Y91250D02*
Y93000D01*
X82250Y83500D02*
X90000Y91250D01*
Y93000D01*
X137251Y12750D02*
Y32749D01*
X78250Y78500D02*
Y83000D01*
X92250Y12750D02*
Y32750D01*
X202250Y12750D02*
Y30000D01*
X197251Y12750D02*
Y31249D01*
X182250Y12750D02*
Y31000D01*
X167251Y12750D02*
Y31499D01*
X152250Y12750D02*
Y33000D01*
X27251Y12750D02*
Y32751D01*
X22250Y12750D02*
Y31000D01*
X17251Y12750D02*
Y32001D01*
D13*
Y12750D02*
D03*
X22250D02*
D03*
X27251D02*
D03*
X32250D02*
D03*
X37251D02*
D03*
X62250D02*
D03*
X67251D02*
D03*
X72250D02*
D03*
X77251D02*
D03*
X82250D02*
D03*
X87251D02*
D03*
X92250D02*
D03*
X97251D02*
D03*
X102250D02*
D03*
X107251D02*
D03*
X112250D02*
D03*
X117251D02*
D03*
X122250D02*
D03*
X127251D02*
D03*
X132250D02*
D03*
X137251D02*
D03*
X142250D02*
D03*
X147251D02*
D03*
X152250D02*
D03*
X157251D02*
D03*
X162250D02*
D03*
X167251D02*
D03*
X172250D02*
D03*
X177251D02*
D03*
X182250D02*
D03*
X187251D02*
D03*
X192250D02*
D03*
X197251D02*
D03*
X202250D02*
D03*
D19*
X44300Y103200D02*
D03*
X175700D02*
D03*
X44300Y160000D02*
D03*
X175700D02*
D03*
D20*
X150000Y93000D02*
D03*
X130000D02*
D03*
X110000D02*
D03*
X90000D02*
D03*
X70000D02*
D03*
X75000Y108000D02*
D03*
X100000D02*
D03*
X120000D02*
D03*
X145000D02*
D03*
X150000Y125000D02*
D03*
X130000D02*
D03*
X110000D02*
D03*
X90000D02*
D03*
X70000D02*
D03*
X75000Y140000D02*
D03*
X100000D02*
D03*
X120000D02*
D03*
D21*
X145000D02*
D03*
D22*
X201250Y735000D02*
D03*
X171250Y770000D02*
D03*
X140833Y735000D02*
D03*
X92499Y782499D02*
D03*
X127501Y782499D02*
D03*
X110000Y775250D02*
D03*
X97750Y155750D02*
D03*
X210500Y78500D02*
D03*
X164500Y69750D02*
D03*
X123750Y80750D02*
D03*
X98500Y83500D02*
D03*
X93250Y67000D02*
D03*
X77250Y44750D02*
D03*
X50000Y770000D02*
D03*
X80417Y735000D02*
D03*
X20000D02*
D03*
X50000Y695000D02*
D03*
Y620000D02*
D03*
X140833Y585000D02*
D03*
X80417D02*
D03*
X50000Y545000D02*
D03*
X110417D02*
D03*
X170833D02*
D03*
X140833Y510000D02*
D03*
X80417D02*
D03*
X20000D02*
D03*
X50000Y470000D02*
D03*
X110417D02*
D03*
X170833D02*
D03*
X140833Y435000D02*
D03*
X80417D02*
D03*
X20000D02*
D03*
X50000Y395000D02*
D03*
X110417D02*
D03*
X170833D02*
D03*
X140833Y360000D02*
D03*
X80417D02*
D03*
X20000D02*
D03*
Y285000D02*
D03*
X80417D02*
D03*
X201250D02*
D03*
X140833D02*
D03*
X170833Y320000D02*
D03*
X50000D02*
D03*
Y245000D02*
D03*
X110417D02*
D03*
X170833D02*
D03*
X140833Y210000D02*
D03*
X201250D02*
D03*
X80417D02*
D03*
X20000D02*
D03*
X94000Y171000D02*
D03*
X78250Y180250D02*
D03*
X19750Y160500D02*
D03*
Y132750D02*
D03*
X77500Y62500D02*
D03*
X57000Y67750D02*
D03*
X192750Y59500D02*
D03*
X205250Y45500D02*
D03*
X211000Y61750D02*
D03*
X189250Y40750D02*
D03*
X174250D02*
D03*
X156000Y41250D02*
D03*
X141000D02*
D03*
X149500Y69750D02*
D03*
X118250Y60000D02*
D03*
X133250D02*
D03*
X40750Y52500D02*
D03*
X19250Y74500D02*
D03*
X7500Y53000D02*
D03*
X22000Y36500D02*
D03*
X122250Y45000D02*
D03*
X107250D02*
D03*
X73000Y67250D02*
D03*
X66501D02*
D03*
X118000Y36250D02*
D03*
X111500D02*
D03*
M02*
