G04*
G04 #@! TF.GenerationSoftware,Altium Limited,Altium Designer,24.5.2 (23)*
G04*
G04 Layer_Color=16711935*
%FSLAX44Y44*%
%MOMM*%
G71*
G04*
G04 #@! TF.SameCoordinates,01BA7047-8EBF-4B0B-9F07-F392ECF8FA2C*
G04*
G04*
G04 #@! TF.FilePolarity,Positive*
G04*
G01*
G75*
%ADD11C,0.2000*%
D11*
X92500Y800000D02*
G03*
X127500Y800000I17500J0D01*
G01*
X0Y41999D02*
G03*
X1999Y40000I1999J0D01*
G01*
X207500Y0D02*
G03*
X209499Y1999I0J1999D01*
G01*
X214501Y40000D02*
G03*
X209499Y35001I-1J-5000D01*
G01*
X218001Y40000D02*
G03*
X220000Y41999I0J1999D01*
G01*
Y795000D02*
G03*
X215001Y799999I-4999J0D01*
G01*
X4999D02*
G03*
X0Y795000I0J-4999D01*
G01*
X10500Y35001D02*
G03*
X5499Y40000I-5000J-1D01*
G01*
X10500Y1999D02*
G03*
X12499Y0I1999J0D01*
G01*
X48750Y35001D02*
G03*
X42751Y28999I1J-6001D01*
G01*
X54750D02*
G03*
X48750Y35001I-6001J1D01*
G01*
X4999Y800001D02*
X92500D01*
X-0Y795000D02*
X0Y41999D01*
X42751Y0D02*
Y28999D01*
X12499Y0D02*
X42751D01*
X127500Y799999D02*
X215001D01*
X54750Y0D02*
Y28999D01*
Y-0D02*
X207500Y0D01*
X209499Y1999D02*
Y35001D01*
X214501Y40000D02*
X218001D01*
X220000Y795000D02*
X220000Y41999D01*
X1999Y40000D02*
X5499D01*
X10500Y1999D02*
Y35001D01*
M02*
