G04*
G04 #@! TF.GenerationSoftware,Altium Limited,Altium Designer,24.5.2 (23)*
G04*
G04 Layer_Color=65535*
%FSLAX44Y44*%
%MOMM*%
G71*
G04*
G04 #@! TF.SameCoordinates,01BA7047-8EBF-4B0B-9F07-F392ECF8FA2C*
G04*
G04*
G04 #@! TF.FilePolarity,Positive*
G04*
G01*
G75*
%ADD10C,0.1000*%
%ADD11C,0.2000*%
%ADD12C,0.2540*%
G36*
X118327Y732191D02*
X119000D01*
Y729500D01*
X119673D01*
Y725464D01*
X120345D01*
Y722101D01*
X121018D01*
Y720083D01*
X123036D01*
Y719410D01*
X124381D01*
Y718738D01*
X126399D01*
Y718065D01*
X127744D01*
Y717392D01*
X130435D01*
Y718065D01*
X131108D01*
Y718738D01*
X132453D01*
Y719410D01*
X133125D01*
Y720083D01*
X134471D01*
Y720756D01*
X135143D01*
Y721428D01*
X136489D01*
Y722101D01*
X137161D01*
Y722774D01*
X138507D01*
Y723446D01*
X139179D01*
Y724119D01*
X139852D01*
Y723446D01*
X140525D01*
Y722774D01*
X141197D01*
Y722101D01*
X141870D01*
Y721428D01*
X142542D01*
Y720756D01*
X143215D01*
Y720083D01*
X143888D01*
Y719410D01*
X144560D01*
Y718738D01*
X145233D01*
Y718065D01*
X145906D01*
Y717392D01*
X146578D01*
Y716720D01*
X147251D01*
Y716047D01*
X147924D01*
Y715375D01*
X148596D01*
Y714702D01*
X147924D01*
Y713357D01*
X147251D01*
Y712684D01*
X146578D01*
Y712011D01*
X145906D01*
Y710666D01*
X145233D01*
Y709993D01*
X144560D01*
Y708648D01*
X143888D01*
Y707975D01*
X143215D01*
Y706630D01*
X142542D01*
Y705957D01*
X141870D01*
Y703940D01*
X142542D01*
Y702594D01*
X143215D01*
Y701249D01*
Y700576D01*
X143888D01*
Y699231D01*
X144560D01*
Y697213D01*
X145233D01*
Y696541D01*
X145906D01*
Y695868D01*
X149942D01*
Y695195D01*
X153305D01*
Y694523D01*
X156668D01*
Y693850D01*
X157341D01*
Y681742D01*
X156668D01*
Y681070D01*
X153305D01*
Y680397D01*
X149942D01*
Y679725D01*
X146578D01*
Y679052D01*
X145233D01*
Y677034D01*
X144560D01*
Y675689D01*
X143888D01*
Y673671D01*
X143215D01*
Y672325D01*
X142542D01*
Y668962D01*
X143215D01*
Y667617D01*
X143888D01*
Y666944D01*
X144560D01*
Y665599D01*
X145233D01*
Y664926D01*
X145906D01*
Y663581D01*
X146578D01*
Y662908D01*
X147251D01*
Y661563D01*
X147924D01*
Y660891D01*
X148596D01*
Y660218D01*
X147924D01*
Y659545D01*
X147251D01*
Y658873D01*
X146578D01*
Y658200D01*
X145906D01*
Y657527D01*
X145233D01*
Y656855D01*
X144560D01*
Y656182D01*
X143888D01*
Y655509D01*
X143215D01*
Y654837D01*
X142542D01*
Y654164D01*
X141870D01*
Y653491D01*
X141197D01*
Y652819D01*
X140525D01*
Y652146D01*
X139852D01*
Y651473D01*
X139179D01*
Y652146D01*
X138507D01*
Y652819D01*
X137161D01*
Y653491D01*
X136489D01*
Y654164D01*
X135143D01*
Y654837D01*
X134471D01*
Y655509D01*
X133125D01*
Y656182D01*
X132453D01*
Y656855D01*
X131108D01*
Y657527D01*
X129090D01*
Y656855D01*
X127744D01*
Y656182D01*
X126399D01*
Y655509D01*
X125054D01*
Y656855D01*
X124381D01*
Y658873D01*
X123708D01*
Y660218D01*
X123036D01*
Y661563D01*
X122363D01*
Y663581D01*
X121691D01*
Y664926D01*
X121018D01*
Y666944D01*
X120345D01*
Y668290D01*
X119673D01*
Y669635D01*
X119000D01*
Y671653D01*
X118327D01*
Y672998D01*
X117655D01*
Y675016D01*
X116982D01*
Y675689D01*
X117655D01*
Y676361D01*
X118327D01*
Y677034D01*
X119000D01*
Y677707D01*
X120345D01*
Y678379D01*
X121018D01*
Y679052D01*
X121691D01*
Y679725D01*
X122363D01*
Y681070D01*
X123036D01*
Y682415D01*
X123708D01*
Y683760D01*
X124381D01*
Y691832D01*
X123708D01*
Y693177D01*
X123036D01*
Y694523D01*
X122363D01*
Y695195D01*
X121691D01*
Y696541D01*
X121018D01*
Y697213D01*
X119673D01*
Y697886D01*
X119000D01*
Y698558D01*
X117655D01*
Y699231D01*
X115637D01*
Y699904D01*
X108910D01*
Y699231D01*
X106892D01*
Y698558D01*
X105547D01*
Y697886D01*
X104874D01*
Y697213D01*
X104202D01*
Y696541D01*
X103529D01*
Y695868D01*
X102857D01*
Y695195D01*
X102184D01*
Y694523D01*
X101511D01*
Y693177D01*
X100839D01*
Y691159D01*
X100166D01*
Y684433D01*
X100839D01*
Y682415D01*
X101511D01*
Y681070D01*
X102184D01*
Y680397D01*
X102857D01*
Y679052D01*
X103529D01*
Y678379D01*
X104874D01*
Y677707D01*
X105547D01*
Y677034D01*
X106220D01*
Y676361D01*
X107565D01*
Y674343D01*
X106892D01*
Y672998D01*
X106220D01*
Y670980D01*
X105547D01*
Y669635D01*
X104874D01*
Y668290D01*
X104202D01*
Y666272D01*
X103529D01*
Y664926D01*
X102857D01*
Y662908D01*
X102184D01*
Y661563D01*
X101511D01*
Y660218D01*
X100839D01*
Y658200D01*
X100166D01*
Y656855D01*
X99493D01*
Y655509D01*
X98148D01*
Y656182D01*
X97475D01*
Y656855D01*
X96130D01*
Y657527D01*
X93440D01*
Y656855D01*
X92094D01*
Y656182D01*
X91422D01*
Y655509D01*
X90076D01*
Y654837D01*
X89404D01*
Y654164D01*
X88731D01*
Y653491D01*
X87386D01*
Y652819D01*
X86713D01*
Y652146D01*
X85368D01*
Y651473D01*
X84695D01*
Y652146D01*
X84023D01*
Y652819D01*
X83350D01*
Y653491D01*
X82677D01*
Y654164D01*
X82005D01*
Y654837D01*
X81332D01*
Y655509D01*
X80659D01*
Y656182D01*
X79987D01*
Y656855D01*
X79314D01*
Y657527D01*
X78641D01*
Y658200D01*
X77969D01*
Y658873D01*
X77296D01*
Y659545D01*
X76624D01*
Y660218D01*
X75951D01*
Y660891D01*
X76624D01*
Y661563D01*
X77296D01*
Y662908D01*
X77969D01*
Y663581D01*
X78641D01*
Y664926D01*
X79314D01*
Y665599D01*
X79987D01*
Y666272D01*
X80659D01*
Y667617D01*
X81332D01*
Y668290D01*
X82005D01*
Y669635D01*
X82677D01*
Y670980D01*
X82005D01*
Y672325D01*
X81332D01*
Y674343D01*
X80659D01*
Y675689D01*
X79987D01*
Y677707D01*
X79314D01*
Y679052D01*
X77969D01*
Y679725D01*
X74606D01*
Y680397D01*
X71242D01*
Y681070D01*
X67879D01*
Y681742D01*
X67207D01*
Y693850D01*
X67879D01*
Y694523D01*
X71242D01*
Y695195D01*
X74606D01*
Y695868D01*
X78641D01*
Y696541D01*
X79314D01*
Y697213D01*
X79987D01*
Y698558D01*
X80659D01*
Y700576D01*
X81332D01*
Y701922D01*
X82005D01*
Y703267D01*
X82677D01*
Y705957D01*
X82005D01*
Y707303D01*
X81332D01*
Y707975D01*
X80659D01*
Y708648D01*
X79987D01*
Y709993D01*
X79314D01*
Y710666D01*
X78641D01*
Y712011D01*
X77969D01*
Y712684D01*
X77296D01*
Y714029D01*
X76624D01*
Y714702D01*
X75951D01*
Y715375D01*
X76624D01*
Y716047D01*
X77296D01*
Y716720D01*
X77969D01*
Y717392D01*
X78641D01*
Y718065D01*
X79314D01*
Y718738D01*
X79987D01*
Y719410D01*
X80659D01*
Y720083D01*
X81332D01*
Y720756D01*
X82005D01*
Y721428D01*
X82677D01*
Y722101D01*
X83350D01*
Y722774D01*
X84023D01*
Y723446D01*
X84695D01*
Y724119D01*
X85368D01*
Y723446D01*
X86713D01*
Y722774D01*
X87386D01*
Y722101D01*
X88058D01*
Y721428D01*
X89404D01*
Y720756D01*
X90076D01*
Y720083D01*
X91422D01*
Y719410D01*
X92094D01*
Y718738D01*
X93440D01*
Y718065D01*
X94112D01*
Y717392D01*
X96803D01*
Y718065D01*
X98821D01*
Y718738D01*
X100166D01*
Y719410D01*
X101511D01*
Y720083D01*
X103529D01*
Y721428D01*
X104202D01*
Y724791D01*
X104874D01*
Y728827D01*
X105547D01*
Y732191D01*
X106220D01*
Y732863D01*
X118327D01*
Y732191D01*
D02*
G37*
G36*
X148596Y642057D02*
X149942D01*
Y640711D01*
X149269D01*
Y640039D01*
X148596D01*
Y639366D01*
X147924D01*
Y640039D01*
X145906D01*
Y639366D01*
X145233D01*
Y638693D01*
X144560D01*
Y629949D01*
X141870D01*
Y642729D01*
X144560D01*
Y641384D01*
X145233D01*
Y642057D01*
X145906D01*
Y642729D01*
X148596D01*
Y642057D01*
D02*
G37*
G36*
X96803D02*
X98148D01*
Y641384D01*
X98821D01*
Y640039D01*
X99493D01*
Y634658D01*
Y633985D01*
Y629949D01*
X96803D01*
Y638693D01*
X96130D01*
Y639366D01*
X95457D01*
Y640039D01*
X93440D01*
Y639366D01*
X92767D01*
Y638021D01*
X92094D01*
Y629949D01*
X90076D01*
Y630622D01*
X89404D01*
Y642057D01*
X90076D01*
Y642729D01*
X92094D01*
Y641384D01*
X92767D01*
Y642057D01*
X94112D01*
Y642729D01*
X96803D01*
Y642057D01*
D02*
G37*
G36*
X73260D02*
X74606D01*
Y641384D01*
X75278D01*
Y640711D01*
X75951D01*
Y631967D01*
X75278D01*
Y631294D01*
X74606D01*
Y630622D01*
X73260D01*
Y629949D01*
X70570D01*
Y630622D01*
X69224D01*
Y622550D01*
X69897D01*
Y623223D01*
X73933D01*
Y622550D01*
X75278D01*
Y621205D01*
X75951D01*
Y611115D01*
X73260D01*
Y620532D01*
X69897D01*
Y619859D01*
X69224D01*
Y611115D01*
X66534D01*
Y642729D01*
X68552D01*
Y642057D01*
X69224D01*
Y641384D01*
X69897D01*
Y642057D01*
X71242D01*
Y642729D01*
X73260D01*
Y642057D01*
D02*
G37*
G36*
X112946D02*
X114964D01*
Y641384D01*
X115637D01*
Y640039D01*
X114964D01*
Y639366D01*
X112946D01*
Y640039D01*
X109583D01*
Y638021D01*
X111601D01*
Y637348D01*
X114964D01*
Y636675D01*
X115637D01*
Y635330D01*
X116309D01*
Y631967D01*
X115637D01*
Y631294D01*
X114964D01*
Y630622D01*
X113619D01*
Y629949D01*
X109583D01*
Y630622D01*
X107565D01*
Y631294D01*
X106892D01*
Y631967D01*
X106220D01*
Y633312D01*
X106892D01*
Y633985D01*
X108238D01*
Y633312D01*
X109583D01*
Y632640D01*
X112946D01*
Y633312D01*
X113619D01*
Y634658D01*
X112274D01*
Y635330D01*
X108910D01*
Y636003D01*
X107565D01*
Y636675D01*
X106892D01*
Y640711D01*
X107565D01*
Y641384D01*
X108238D01*
Y642057D01*
X109583D01*
Y642729D01*
X112946D01*
Y642057D01*
D02*
G37*
G36*
X156668D02*
X158013D01*
Y641384D01*
X159359D01*
Y639366D01*
X158013D01*
Y638693D01*
X157341D01*
Y639366D01*
X155995D01*
Y640039D01*
X153977D01*
Y639366D01*
X153305D01*
Y638693D01*
X152632D01*
Y633985D01*
X153305D01*
Y633312D01*
X153977D01*
Y632640D01*
X155995D01*
Y633312D01*
X157341D01*
Y633985D01*
X158013D01*
Y633312D01*
X159359D01*
Y631294D01*
X158013D01*
Y630622D01*
X157341D01*
Y629949D01*
X153305D01*
Y630622D01*
X151959D01*
Y631294D01*
X151287D01*
Y631967D01*
X150614D01*
Y633312D01*
X149942D01*
Y639366D01*
X150614D01*
Y640711D01*
X151287D01*
Y641384D01*
X151959D01*
Y642057D01*
X153305D01*
Y642729D01*
X156668D01*
Y642057D01*
D02*
G37*
G36*
X139179Y635330D02*
Y634658D01*
Y629949D01*
X136489D01*
Y630622D01*
X135143D01*
Y629949D01*
X132453D01*
Y630622D01*
X131108D01*
Y631294D01*
X130435D01*
Y631967D01*
X129762D01*
Y642729D01*
X132453D01*
Y633312D01*
X133798D01*
Y632640D01*
X135143D01*
Y633312D01*
X136489D01*
Y642729D01*
X139179D01*
Y635330D01*
D02*
G37*
G36*
X166758Y642057D02*
X168103D01*
Y641384D01*
X168776D01*
Y640711D01*
X169448D01*
Y640039D01*
X170121D01*
Y635330D01*
X162722D01*
Y634658D01*
X163394D01*
Y633312D01*
X164067D01*
Y632640D01*
X166758D01*
Y633312D01*
X169448D01*
Y632640D01*
X170121D01*
Y631967D01*
X169448D01*
Y631294D01*
X168776D01*
Y630622D01*
X167430D01*
Y629949D01*
X163394D01*
Y630622D01*
X162049D01*
Y631294D01*
X161376D01*
Y631967D01*
X160704D01*
Y632640D01*
Y633985D01*
X160031D01*
Y638693D01*
X160704D01*
Y640039D01*
X161376D01*
Y641384D01*
X162722D01*
Y642057D01*
X163394D01*
Y642729D01*
X166758D01*
Y642057D01*
D02*
G37*
G36*
X124381D02*
X125726D01*
Y641384D01*
X126399D01*
Y640711D01*
X127072D01*
Y639366D01*
X127744D01*
Y633312D01*
X127072D01*
Y631967D01*
X126399D01*
Y631294D01*
X125726D01*
Y630622D01*
X124381D01*
Y629949D01*
X121018D01*
Y630622D01*
X119673D01*
Y631294D01*
X119000D01*
Y631967D01*
X118327D01*
Y632640D01*
X117655D01*
Y640039D01*
X118327D01*
Y640711D01*
X119000D01*
Y641384D01*
X119673D01*
Y642057D01*
X121018D01*
Y642729D01*
X124381D01*
Y642057D01*
D02*
G37*
G36*
X84023D02*
X85368D01*
Y641384D01*
X86713D01*
Y640039D01*
X87386D01*
Y638021D01*
X88058D01*
Y635330D01*
X80659D01*
Y633312D01*
X81332D01*
Y632640D01*
X84695D01*
Y633312D01*
X86713D01*
Y632640D01*
X87386D01*
Y631294D01*
X86040D01*
Y630622D01*
X84695D01*
Y629949D01*
X81332D01*
Y630622D01*
X79987D01*
Y631294D01*
X79314D01*
Y631967D01*
X78641D01*
Y632640D01*
X77969D01*
Y640039D01*
X78641D01*
Y640711D01*
X79314D01*
Y641384D01*
X79987D01*
Y642057D01*
X81332D01*
Y642729D01*
X84023D01*
Y642057D01*
D02*
G37*
G36*
X61153D02*
X62498D01*
Y641384D01*
X63171D01*
Y640711D01*
X63843D01*
Y639366D01*
X64516D01*
Y633312D01*
X63843D01*
Y631967D01*
X63171D01*
Y631294D01*
X62498D01*
Y630622D01*
X61153D01*
Y629949D01*
X57790D01*
Y630622D01*
X56444D01*
Y631294D01*
X55772D01*
Y631967D01*
X55099D01*
Y633312D01*
X54426D01*
Y639366D01*
X55099D01*
Y640711D01*
X55772D01*
Y641384D01*
X56444D01*
Y642057D01*
X57790D01*
Y642729D01*
X61153D01*
Y642057D01*
D02*
G37*
G36*
X145233Y623223D02*
X146578D01*
Y622550D01*
X147251D01*
Y621877D01*
X146578D01*
Y621205D01*
X145906D01*
Y620532D01*
X141870D01*
Y611115D01*
X138507D01*
Y623223D01*
X141870D01*
Y622550D01*
X142542D01*
Y623223D01*
X144560D01*
Y623895D01*
X145233D01*
Y623223D01*
D02*
G37*
G36*
X108238Y611115D02*
X105547D01*
Y611788D01*
X104202D01*
Y611115D01*
X100166D01*
Y611788D01*
X99493D01*
Y612460D01*
X98821D01*
Y613806D01*
X98148D01*
Y620532D01*
X98821D01*
Y621877D01*
X99493D01*
Y622550D01*
X100166D01*
Y623223D01*
X102184D01*
Y623895D01*
X102857D01*
Y623223D01*
X104874D01*
Y622550D01*
X105547D01*
Y628604D01*
X108238D01*
Y611115D01*
D02*
G37*
G36*
X96130Y623223D02*
X98148D01*
Y621877D01*
X97475D01*
Y620532D01*
X93440D01*
Y619859D01*
X92767D01*
Y611115D01*
X90076D01*
Y619859D01*
Y620532D01*
Y623223D01*
X92767D01*
Y622550D01*
X93440D01*
Y623223D01*
X95457D01*
Y623895D01*
X96130D01*
Y623223D01*
D02*
G37*
G36*
X126399Y621877D02*
X125726D01*
Y621205D01*
Y619187D01*
X125054D01*
Y617169D01*
X124381D01*
Y615151D01*
X123708D01*
Y613133D01*
X123036D01*
Y611115D01*
X120345D01*
Y611788D01*
X119673D01*
Y614478D01*
X119000D01*
Y616496D01*
X118327D01*
Y618514D01*
X117655D01*
Y617169D01*
X116982D01*
Y615151D01*
X116309D01*
Y612460D01*
X115637D01*
Y611115D01*
X112946D01*
Y612460D01*
X112274D01*
Y614478D01*
X111601D01*
Y616496D01*
X110928D01*
Y618514D01*
X110256D01*
Y620532D01*
X109583D01*
Y623223D01*
X112274D01*
Y621205D01*
X112946D01*
Y619187D01*
X113619D01*
Y616496D01*
X114964D01*
Y618514D01*
X115637D01*
Y620532D01*
X116309D01*
Y622550D01*
X116982D01*
Y623223D01*
X119000D01*
Y621877D01*
X119673D01*
Y619859D01*
X120345D01*
Y617841D01*
X121018D01*
Y615824D01*
X121691D01*
Y617169D01*
X122363D01*
Y619859D01*
X123036D01*
Y622550D01*
X123708D01*
Y623223D01*
X126399D01*
Y621877D01*
D02*
G37*
G36*
X152632Y623223D02*
X154650D01*
Y622550D01*
X155323D01*
Y621877D01*
X155995D01*
Y621205D01*
X156668D01*
Y619859D01*
X157341D01*
Y616496D01*
X156668D01*
Y615824D01*
X149942D01*
Y615151D01*
Y614478D01*
X150614D01*
Y613806D01*
X153977D01*
Y614478D01*
X155995D01*
Y613806D01*
X156668D01*
Y612460D01*
X155995D01*
Y611788D01*
X155323D01*
Y611115D01*
X149942D01*
Y611788D01*
X148596D01*
Y612460D01*
X147924D01*
Y613806D01*
X147251D01*
Y620532D01*
X147924D01*
Y621877D01*
X148596D01*
Y622550D01*
X149942D01*
Y623223D01*
X151959D01*
Y623895D01*
X152632D01*
Y623223D01*
D02*
G37*
G36*
X131780D02*
X134471D01*
Y622550D01*
X135143D01*
Y621877D01*
X135816D01*
Y621205D01*
X136489D01*
Y611115D01*
X133798D01*
Y611788D01*
X133125D01*
Y611115D01*
X128417D01*
Y611788D01*
X127744D01*
Y612460D01*
X127072D01*
Y613133D01*
X126399D01*
Y616496D01*
X127072D01*
Y617169D01*
X127744D01*
Y617841D01*
X129090D01*
Y618514D01*
X133798D01*
Y620532D01*
X131780D01*
Y621205D01*
X131108D01*
Y620532D01*
X127744D01*
Y621205D01*
X127072D01*
Y621877D01*
X127744D01*
Y622550D01*
X128417D01*
Y623223D01*
X131108D01*
Y623895D01*
X131780D01*
Y623223D01*
D02*
G37*
G36*
X83350D02*
X86040D01*
Y622550D01*
X86713D01*
Y621877D01*
X87386D01*
Y619187D01*
X88058D01*
Y618514D01*
Y611115D01*
X79987D01*
Y611788D01*
X78641D01*
Y612460D01*
X77969D01*
Y616496D01*
X78641D01*
Y617841D01*
X79987D01*
Y618514D01*
X84695D01*
Y620532D01*
X83350D01*
Y621205D01*
X82005D01*
Y620532D01*
X80659D01*
Y619859D01*
X79987D01*
Y620532D01*
X79314D01*
Y621205D01*
X78641D01*
Y622550D01*
X79314D01*
Y623223D01*
X82005D01*
Y623895D01*
X83350D01*
Y623223D01*
D02*
G37*
%LPC*%
G36*
X116309Y730173D02*
X108238D01*
Y728155D01*
X107565D01*
Y724119D01*
X106892D01*
Y720756D01*
X106220D01*
Y718738D01*
X105547D01*
Y718065D01*
X104874D01*
Y717392D01*
X102857D01*
Y716720D01*
X101511D01*
Y716047D01*
X99493D01*
Y715375D01*
X98148D01*
Y714702D01*
X96130D01*
Y714029D01*
X94112D01*
Y714702D01*
X92767D01*
Y715375D01*
X92094D01*
Y716047D01*
X90749D01*
Y716720D01*
X90076D01*
Y717392D01*
X89404D01*
Y718065D01*
X88058D01*
Y718738D01*
X87386D01*
Y719410D01*
X86040D01*
Y720083D01*
X84695D01*
Y719410D01*
X84023D01*
Y718738D01*
X83350D01*
Y718065D01*
X82677D01*
Y717392D01*
X82005D01*
Y716720D01*
X81332D01*
Y716047D01*
X80659D01*
Y715375D01*
X79987D01*
Y713357D01*
X80659D01*
Y712684D01*
X81332D01*
Y711339D01*
X82005D01*
Y710666D01*
X82677D01*
Y709321D01*
X83350D01*
Y708648D01*
X84023D01*
Y707303D01*
X84695D01*
Y706630D01*
X85368D01*
Y702594D01*
X84695D01*
Y701249D01*
X84023D01*
Y699231D01*
X83350D01*
Y697886D01*
X82677D01*
Y696541D01*
X82005D01*
Y695195D01*
X81332D01*
Y694523D01*
X80659D01*
Y693850D01*
X79987D01*
Y693177D01*
X76624D01*
Y692505D01*
X73260D01*
Y691832D01*
X69897D01*
Y683088D01*
X73933D01*
Y682415D01*
X77296D01*
Y681742D01*
X79987D01*
Y681070D01*
X80659D01*
Y680397D01*
X81332D01*
Y679725D01*
X82005D01*
Y677707D01*
X82677D01*
Y676361D01*
X83350D01*
Y674343D01*
X84023D01*
Y672998D01*
X84695D01*
Y670980D01*
X85368D01*
Y668962D01*
X84695D01*
Y667617D01*
X84023D01*
Y666272D01*
X83350D01*
Y665599D01*
X82677D01*
Y664254D01*
X82005D01*
Y663581D01*
X81332D01*
Y662236D01*
X80659D01*
Y661563D01*
X79987D01*
Y660891D01*
X79314D01*
Y660218D01*
X79987D01*
Y659545D01*
X80659D01*
Y658873D01*
X81332D01*
Y658200D01*
X82005D01*
Y657527D01*
X82677D01*
Y656855D01*
X83350D01*
Y656182D01*
X84023D01*
Y655509D01*
X84695D01*
Y654837D01*
X86040D01*
Y655509D01*
X87386D01*
Y656182D01*
X88058D01*
Y656855D01*
X88731D01*
Y657527D01*
X90076D01*
Y658200D01*
X90749D01*
Y658873D01*
X92094D01*
Y659545D01*
X92767D01*
Y660218D01*
X96130D01*
Y659545D01*
X97475D01*
Y658873D01*
X98148D01*
Y660218D01*
X98821D01*
Y661563D01*
X99493D01*
Y663581D01*
X100166D01*
Y664926D01*
X100839D01*
Y666944D01*
X101511D01*
Y668290D01*
X102184D01*
Y670307D01*
X102857D01*
Y671653D01*
X103529D01*
Y672998D01*
X104202D01*
Y675016D01*
X103529D01*
Y675689D01*
X102857D01*
Y676361D01*
X101511D01*
Y677034D01*
X100839D01*
Y678379D01*
X100166D01*
Y679052D01*
X99493D01*
Y679725D01*
X98821D01*
Y681742D01*
X98148D01*
Y683088D01*
X97475D01*
Y691159D01*
X98148D01*
Y693177D01*
X98821D01*
Y694523D01*
X99493D01*
Y695868D01*
X100166D01*
Y696541D01*
X100839D01*
Y697213D01*
X101511D01*
Y698558D01*
X102857D01*
Y699231D01*
X103529D01*
Y699904D01*
X104202D01*
Y700576D01*
X105547D01*
Y701249D01*
X106892D01*
Y701922D01*
X108910D01*
Y702594D01*
X115637D01*
Y701922D01*
X117655D01*
Y701249D01*
X119000D01*
Y700576D01*
X120345D01*
Y699904D01*
X121018D01*
Y699231D01*
X122363D01*
Y698558D01*
X123036D01*
Y697886D01*
X123708D01*
Y697213D01*
X124381D01*
Y695868D01*
X125054D01*
Y695195D01*
X125726D01*
Y693850D01*
X126399D01*
Y691832D01*
X127072D01*
Y687796D01*
X127744D01*
Y687123D01*
X127072D01*
Y683088D01*
X126399D01*
Y681070D01*
X125726D01*
Y679725D01*
X125054D01*
Y679052D01*
X124381D01*
Y677707D01*
X123708D01*
Y677034D01*
X123036D01*
Y676361D01*
X122363D01*
Y675689D01*
X121018D01*
Y675016D01*
X120345D01*
Y673671D01*
X121018D01*
Y671653D01*
X121691D01*
Y670307D01*
X122363D01*
Y668962D01*
X123036D01*
Y666944D01*
X123708D01*
Y665599D01*
X124381D01*
Y663581D01*
X125054D01*
Y662236D01*
X125726D01*
Y660218D01*
X126399D01*
Y658873D01*
X127072D01*
Y659545D01*
X128417D01*
Y660218D01*
X131780D01*
Y659545D01*
X132453D01*
Y658873D01*
X133798D01*
Y658200D01*
X134471D01*
Y657527D01*
X135816D01*
Y656855D01*
X136489D01*
Y656182D01*
X137834D01*
Y655509D01*
X138507D01*
Y654837D01*
X139852D01*
Y655509D01*
X140525D01*
Y656182D01*
X141197D01*
Y656855D01*
X141870D01*
Y657527D01*
X142542D01*
Y658200D01*
X143215D01*
Y658873D01*
X143888D01*
Y659545D01*
X144560D01*
Y660218D01*
X145233D01*
Y660891D01*
X144560D01*
Y661563D01*
X143888D01*
Y662908D01*
X143215D01*
Y663581D01*
X142542D01*
Y664926D01*
X141870D01*
Y665599D01*
X141197D01*
Y666944D01*
X140525D01*
Y667617D01*
X139852D01*
Y668962D01*
X139179D01*
Y670307D01*
X139852D01*
Y672325D01*
X140525D01*
Y674343D01*
X141197D01*
Y675689D01*
X141870D01*
Y677707D01*
X142542D01*
Y679052D01*
X143215D01*
Y680397D01*
X143888D01*
Y681070D01*
X144560D01*
Y681742D01*
X147251D01*
Y682415D01*
X150614D01*
Y683088D01*
X154650D01*
Y691832D01*
X151287D01*
Y692505D01*
X147924D01*
Y693177D01*
X144560D01*
Y693850D01*
X143888D01*
Y694523D01*
X143215D01*
Y695195D01*
X142542D01*
Y696541D01*
X141870D01*
Y698558D01*
X141197D01*
Y699904D01*
X140525D01*
Y701249D01*
X139852D01*
Y703267D01*
X139179D01*
Y705957D01*
X139852D01*
Y707303D01*
X140525D01*
Y707975D01*
X141197D01*
Y709321D01*
X141870D01*
Y709993D01*
X142542D01*
Y711339D01*
X143215D01*
Y712011D01*
X143888D01*
Y713357D01*
X144560D01*
Y714029D01*
X145233D01*
Y714702D01*
X144560D01*
Y715375D01*
X143888D01*
Y716047D01*
X143215D01*
Y716720D01*
X142542D01*
Y717392D01*
X141870D01*
Y718065D01*
X141197D01*
Y718738D01*
X140525D01*
Y719410D01*
X139852D01*
Y720083D01*
X138507D01*
Y719410D01*
X137834D01*
Y718738D01*
X136489D01*
Y718065D01*
X135816D01*
Y717392D01*
X134471D01*
Y716720D01*
X133798D01*
Y716047D01*
X132453D01*
Y715375D01*
X131780D01*
Y714702D01*
X130435D01*
Y714029D01*
X128417D01*
Y714702D01*
X126399D01*
Y715375D01*
X125054D01*
Y716047D01*
X123036D01*
Y716720D01*
X121691D01*
Y717392D01*
X120345D01*
Y718065D01*
X119000D01*
Y718738D01*
X118327D01*
Y721428D01*
X117655D01*
Y724791D01*
X116982D01*
Y728827D01*
X116309D01*
Y730173D01*
D02*
G37*
G36*
X71915Y640039D02*
X70570D01*
Y639366D01*
X69897D01*
Y638693D01*
X69224D01*
Y633312D01*
X70570D01*
Y632640D01*
X72588D01*
Y633312D01*
X73260D01*
Y639366D01*
X71915D01*
Y640039D01*
D02*
G37*
G36*
X166085D02*
X164067D01*
Y639366D01*
X163394D01*
Y638693D01*
X162722D01*
Y638021D01*
Y637348D01*
X167430D01*
Y638693D01*
X166758D01*
Y639366D01*
X166085D01*
Y640039D01*
D02*
G37*
G36*
X123708D02*
X121691D01*
Y639366D01*
X121018D01*
Y638693D01*
X120345D01*
Y638021D01*
Y637348D01*
Y633985D01*
X121018D01*
Y633312D01*
X121691D01*
Y632640D01*
X123708D01*
Y633312D01*
X124381D01*
Y633985D01*
X125054D01*
Y638693D01*
X124381D01*
Y639366D01*
X123708D01*
Y640039D01*
D02*
G37*
G36*
X84023D02*
X81332D01*
Y639366D01*
X80659D01*
Y637348D01*
X84695D01*
Y639366D01*
X84023D01*
Y640039D01*
D02*
G37*
G36*
X60480D02*
X58462D01*
Y639366D01*
X57790D01*
Y638693D01*
X57117D01*
Y633985D01*
X57790D01*
Y633312D01*
X58462D01*
Y632640D01*
X60480D01*
Y633312D01*
X61153D01*
Y633985D01*
X61825D01*
Y638693D01*
X61153D01*
Y639366D01*
X60480D01*
Y640039D01*
D02*
G37*
G36*
X104874Y620532D02*
X101511D01*
Y619187D01*
X100839D01*
Y615151D01*
X101511D01*
Y613806D01*
X104874D01*
Y615151D01*
X105547D01*
Y617841D01*
Y618514D01*
Y619187D01*
X104874D01*
Y620532D01*
D02*
G37*
G36*
X152632Y621205D02*
X151959D01*
Y620532D01*
X150614D01*
Y619859D01*
X149942D01*
Y618514D01*
X154650D01*
Y619187D01*
X153977D01*
Y620532D01*
X152632D01*
Y621205D01*
D02*
G37*
G36*
X133798Y615824D02*
X129090D01*
Y613806D01*
X133125D01*
Y614478D01*
X133798D01*
Y615824D01*
D02*
G37*
G36*
X84695D02*
X80659D01*
Y613806D01*
X84695D01*
Y615824D01*
D02*
G37*
%LPD*%
D10*
X192000Y140000D02*
G03*
X193000Y140000I500J0D01*
G01*
D02*
G03*
X192000Y140000I-500J0D01*
G01*
D11*
X37500Y180000D02*
Y254400D01*
X182500D01*
Y180000D02*
Y254400D01*
X37500Y79800D02*
X182500D01*
X92250Y44250D02*
Y54247D01*
X95582Y50915D01*
X98914Y54247D01*
Y44250D01*
X102247D02*
Y45916D01*
X103913D01*
Y44250D01*
X102247D01*
X117242D02*
X110577D01*
X117242Y50915D01*
Y52581D01*
X115576Y54247D01*
X112244D01*
X110577Y52581D01*
X130571Y44250D02*
Y54247D01*
X133903Y50915D01*
X137235Y54247D01*
Y44250D01*
X150564Y54247D02*
Y44250D01*
Y47582D01*
X157229Y54247D01*
X152231Y49248D01*
X157229Y44250D01*
X167226Y54247D02*
X160561D01*
Y44250D01*
X167226D01*
X160561Y49248D02*
X163894D01*
X170558Y54247D02*
Y52581D01*
X173890Y49248D01*
X177223Y52581D01*
Y54247D01*
X173890Y49248D02*
Y44250D01*
X23584Y54248D02*
X20252D01*
X21918D01*
Y45918D01*
X20252Y44252D01*
X18585D01*
X16919Y45918D01*
X33581Y44252D02*
X26916D01*
X33581Y50916D01*
Y52582D01*
X31915Y54248D01*
X28582D01*
X26916Y52582D01*
X108750Y282248D02*
X105418D01*
X107084D01*
Y273918D01*
X105418Y272252D01*
X103752D01*
X102086Y273918D01*
X112082Y272252D02*
X115414D01*
X113748D01*
Y282248D01*
X112082Y280582D01*
D12*
X207960Y312118D02*
Y314657D01*
X205421Y317197D01*
X192725D01*
Y309579D01*
X195264Y307040D01*
X200343D01*
X202882Y309579D01*
Y317197D01*
Y322275D02*
Y327353D01*
Y324814D01*
X192725D01*
Y322275D01*
X190186Y337510D02*
X192725D01*
Y334971D01*
Y340049D01*
Y337510D01*
X200343D01*
X202882Y340049D01*
X187647Y347667D02*
X202882D01*
X195264D01*
X192725Y350206D01*
Y355284D01*
X195264Y357824D01*
X202882D01*
X192725Y362902D02*
X200343D01*
X202882Y365441D01*
Y373059D01*
X192725D01*
X187647Y378137D02*
X202882D01*
Y385755D01*
X200343Y388294D01*
X197803D01*
X195264D01*
X192725Y385755D01*
Y378137D01*
X202882Y393372D02*
X200343D01*
Y395911D01*
X202882D01*
Y393372D01*
X192725Y416225D02*
Y408607D01*
X195264Y406068D01*
X200343D01*
X202882Y408607D01*
Y416225D01*
Y423842D02*
Y428921D01*
X200343Y431460D01*
X195264D01*
X192725Y428921D01*
Y423842D01*
X195264Y421303D01*
X200343D01*
X202882Y423842D01*
Y436538D02*
X192725D01*
Y439077D01*
X195264Y441616D01*
X202882D01*
X195264D01*
X192725Y444156D01*
X195264Y446695D01*
X202882D01*
Y451773D02*
X192725Y461930D01*
Y467008D02*
X202882D01*
X197803D01*
X195264Y469547D01*
X192725Y472087D01*
Y474626D01*
X202882Y482243D02*
Y487322D01*
Y484782D01*
X192725D01*
Y482243D01*
Y505096D02*
Y497478D01*
X195264Y494939D01*
X200343D01*
X202882Y497478D01*
Y505096D01*
Y510174D02*
X187647D01*
X197803D02*
X192725Y517792D01*
X197803Y510174D02*
X202882Y517792D01*
X195264Y525409D02*
Y535566D01*
X187647Y540644D02*
X202882D01*
X195264D01*
X192725Y543184D01*
Y548262D01*
X195264Y550801D01*
X202882D01*
Y563497D02*
Y558419D01*
X200343Y555880D01*
X195264D01*
X192725Y558419D01*
Y563497D01*
X195264Y566036D01*
X197803D01*
Y555880D01*
X202882Y571115D02*
Y576193D01*
Y573654D01*
X192725D01*
Y571115D01*
X207960Y588889D02*
Y591428D01*
X205421Y593967D01*
X192725D01*
Y586350D01*
X195264Y583810D01*
X200343D01*
X202882Y586350D01*
Y593967D01*
Y599045D02*
X192725Y609202D01*
X202882Y614281D02*
X192725D01*
Y621898D01*
X195264Y624437D01*
X202882D01*
X192725Y629516D02*
X202882Y634594D01*
X192725Y639672D01*
X202882Y644751D02*
X192725D01*
Y647290D01*
X195264Y649829D01*
X202882D01*
X195264D01*
X192725Y652368D01*
X195264Y654908D01*
X202882D01*
Y667603D02*
Y662525D01*
X200343Y659986D01*
X195264D01*
X192725Y662525D01*
Y667603D01*
X195264Y670143D01*
X197803D01*
Y659986D01*
X205421Y675221D02*
Y685378D01*
X192725Y700613D02*
Y692995D01*
X195264Y690456D01*
X200343D01*
X202882Y692995D01*
Y700613D01*
Y705691D02*
Y713309D01*
X200343Y715848D01*
X197803Y713309D01*
Y708230D01*
X195264Y705691D01*
X192725Y708230D01*
Y715848D01*
X187647Y731083D02*
X202882D01*
Y723465D01*
X200343Y720926D01*
X195264D01*
X192725Y723465D01*
Y731083D01*
X119960Y317197D02*
Y307040D01*
X109803Y317197D01*
X107264D01*
X104725Y314657D01*
Y309579D01*
X107264Y307040D01*
X117421Y322275D02*
X119960Y324814D01*
Y329893D01*
X117421Y332432D01*
X107264D01*
X104725Y329893D01*
Y324814D01*
X107264Y322275D01*
X109803D01*
X112343Y324814D01*
Y332432D01*
X119960Y337510D02*
X117421D01*
Y340049D01*
X119960D01*
Y337510D01*
X107264Y350206D02*
X104725Y352745D01*
Y357824D01*
X107264Y360363D01*
X117421D01*
X119960Y357824D01*
Y352745D01*
X117421Y350206D01*
X107264D01*
X104725Y375598D02*
Y365441D01*
X112343D01*
X109803Y370519D01*
Y373059D01*
X112343Y375598D01*
X117421D01*
X119960Y373059D01*
Y367980D01*
X117421Y365441D01*
X119960Y380676D02*
X117421D01*
Y383215D01*
X119960D01*
Y380676D01*
Y403529D02*
Y393372D01*
X109803Y403529D01*
X107264D01*
X104725Y400990D01*
Y395911D01*
X107264Y393372D01*
Y408607D02*
X104725Y411146D01*
Y416225D01*
X107264Y418764D01*
X117421D01*
X119960Y416225D01*
Y411146D01*
X117421Y408607D01*
X107264D01*
X119960Y433999D02*
Y423842D01*
X109803Y433999D01*
X107264D01*
X104725Y431460D01*
Y426381D01*
X107264Y423842D01*
X119960Y446695D02*
X104725D01*
X112343Y439077D01*
Y449234D01*
X30632Y307040D02*
X15397D01*
X20475Y312118D01*
X15397Y317197D01*
X30632D01*
Y322275D02*
X28093D01*
Y324814D01*
X30632D01*
Y322275D01*
Y345128D02*
Y334971D01*
X20475Y345128D01*
X17936D01*
X15397Y342589D01*
Y337510D01*
X17936Y334971D01*
X30632Y365441D02*
X15397D01*
Y373059D01*
X17936Y375598D01*
X23014D01*
X25553Y373059D01*
Y365441D01*
X17936Y390833D02*
X15397Y388294D01*
Y383215D01*
X17936Y380676D01*
X28093D01*
X30632Y383215D01*
Y388294D01*
X28093Y390833D01*
X15397Y395911D02*
Y400990D01*
Y398450D01*
X30632D01*
Y395911D01*
Y400990D01*
Y416225D02*
Y411146D01*
X28093Y408607D01*
X23014D01*
X20475Y411146D01*
Y416225D01*
X23014Y418764D01*
X25553D01*
Y408607D01*
X20475Y439077D02*
X30632Y449234D01*
X25553Y444156D01*
X20475Y449234D01*
X30632Y439077D01*
Y464469D02*
Y454312D01*
X20475Y464469D01*
X17936D01*
X15397Y461930D01*
Y456852D01*
X17936Y454312D01*
Y487322D02*
X20475D01*
Y484782D01*
Y489861D01*
Y487322D01*
X28093D01*
X30632Y489861D01*
Y500018D02*
Y505096D01*
X28093Y507635D01*
X23014D01*
X20475Y505096D01*
Y500018D01*
X23014Y497478D01*
X28093D01*
X30632Y500018D01*
X15397Y527948D02*
X28093D01*
X30632Y530488D01*
Y535566D01*
X28093Y538105D01*
X15397D01*
X17936Y553340D02*
X15397Y550801D01*
Y545723D01*
X17936Y543184D01*
X20475D01*
X23014Y545723D01*
Y550801D01*
X25553Y553340D01*
X28093D01*
X30632Y550801D01*
Y545723D01*
X28093Y543184D01*
X15397Y558419D02*
X30632D01*
Y566036D01*
X28093Y568575D01*
X25553D01*
X23014Y566036D01*
Y558419D01*
Y566036D01*
X20475Y568575D01*
X17936D01*
X15397Y566036D01*
Y558419D01*
X17936Y573654D02*
X15397Y576193D01*
Y581271D01*
X17936Y583811D01*
X20475D01*
X23014Y581271D01*
Y578732D01*
Y581271D01*
X25553Y583811D01*
X28093D01*
X30632Y581271D01*
Y576193D01*
X28093Y573654D01*
X30632Y604124D02*
X20475D01*
X15397Y609202D01*
X20475Y614281D01*
X30632D01*
X23014D01*
Y604124D01*
X15397Y629516D02*
X30632D01*
Y621898D01*
X28093Y619359D01*
X23014D01*
X20475Y621898D01*
Y629516D01*
Y637133D02*
Y642212D01*
X23014Y644751D01*
X30632D01*
Y637133D01*
X28093Y634594D01*
X25553Y637133D01*
Y644751D01*
X35710Y649829D02*
X20475D01*
Y657447D01*
X23014Y659986D01*
X28093D01*
X30632Y657447D01*
Y649829D01*
X17936Y667603D02*
X20475D01*
Y665064D01*
Y670143D01*
Y667603D01*
X28093D01*
X30632Y670143D01*
Y685378D02*
Y680299D01*
X28093Y677760D01*
X23014D01*
X20475Y680299D01*
Y685378D01*
X23014Y687917D01*
X25553D01*
Y677760D01*
X20475Y692995D02*
X30632D01*
X25553D01*
X23014Y695534D01*
X20475Y698074D01*
Y700613D01*
M02*
