G04*
G04 #@! TF.GenerationSoftware,Altium Limited,Altium Designer,24.5.2 (23)*
G04*
G04 Layer_Color=32896*
%FSLAX44Y44*%
%MOMM*%
G71*
G04*
G04 #@! TF.SameCoordinates,6FC596C0-74E6-4E27-895D-4E0FE7D6B679*
G04*
G04*
G04 #@! TF.FilePolarity,Positive*
G04*
G01*
G75*
%ADD10C,0.1500*%
%ADD13C,0.2540*%
G36*
X140250Y113400D02*
X140208D01*
Y113316D01*
X140166D01*
Y113191D01*
X140124D01*
Y113065D01*
X140083D01*
Y113023D01*
Y112981D01*
X140041D01*
Y112856D01*
X139999D01*
Y112730D01*
X139957D01*
Y112605D01*
X139915D01*
Y112521D01*
X139873D01*
Y112395D01*
X139831D01*
Y112270D01*
X139790D01*
Y112144D01*
X139748D01*
Y112061D01*
X139706D01*
Y111935D01*
X139664D01*
Y111810D01*
X139622D01*
Y111726D01*
X139580D01*
Y111600D01*
X139538D01*
Y111475D01*
X139497D01*
Y111349D01*
X139455D01*
Y111265D01*
X139413D01*
Y111140D01*
X139371D01*
Y111014D01*
X139329D01*
Y110889D01*
X139287D01*
Y110805D01*
X139246D01*
Y110680D01*
X139204D01*
Y110554D01*
X139162D01*
Y110470D01*
X139120D01*
Y110345D01*
X139078D01*
Y110219D01*
X139036D01*
Y110094D01*
X138995D01*
Y110010D01*
X138953D01*
Y109884D01*
X138911D01*
Y109759D01*
X138869D01*
Y109633D01*
X138827D01*
Y109550D01*
X138785D01*
Y109424D01*
X138743D01*
Y109298D01*
X138701D01*
Y109215D01*
X138660D01*
Y109089D01*
X138618D01*
Y108964D01*
X138576D01*
Y108838D01*
X138534D01*
Y108754D01*
X138492D01*
Y108629D01*
X138450D01*
Y108503D01*
X138409D01*
Y108378D01*
X138367D01*
Y108294D01*
X138325D01*
Y108168D01*
X138283D01*
Y108043D01*
X138241D01*
Y107959D01*
X138199D01*
Y107834D01*
X138158D01*
Y107708D01*
X138116D01*
Y107583D01*
X138074D01*
Y107499D01*
X138032D01*
Y107373D01*
X137990D01*
Y107248D01*
X137948D01*
Y107122D01*
X137906D01*
Y107039D01*
X137865D01*
Y106913D01*
X137823D01*
Y106788D01*
X137781D01*
Y106704D01*
X137739D01*
Y106578D01*
X137697D01*
Y106453D01*
X137655D01*
Y106327D01*
X137613D01*
Y106243D01*
X137572D01*
Y106118D01*
X137530D01*
Y105992D01*
X137488D01*
Y105909D01*
X137446D01*
Y105783D01*
X137404D01*
Y105658D01*
X137362D01*
Y105532D01*
X137320D01*
Y105448D01*
X137279D01*
Y105323D01*
X137237D01*
Y105197D01*
X137195D01*
Y105072D01*
X137153D01*
Y104988D01*
X137111D01*
Y104862D01*
X137069D01*
Y104737D01*
X137028D01*
Y104653D01*
X136986D01*
Y104569D01*
X134935D01*
Y104611D01*
X134893D01*
Y104737D01*
X134851D01*
Y104862D01*
X134810D01*
Y104946D01*
X134768D01*
Y105072D01*
X134726D01*
Y105197D01*
X134684D01*
Y105323D01*
X134642D01*
Y105406D01*
X134600D01*
Y105532D01*
X134558D01*
Y105658D01*
X134516D01*
Y105783D01*
X134475D01*
Y105867D01*
X134433D01*
Y105992D01*
X134391D01*
Y106118D01*
X134349D01*
Y106202D01*
X134307D01*
Y106327D01*
X134265D01*
Y106453D01*
X134224D01*
Y106578D01*
X134182D01*
Y106662D01*
X134140D01*
Y106788D01*
X134098D01*
Y106913D01*
X134056D01*
Y107039D01*
X134014D01*
Y107122D01*
X133973D01*
Y107248D01*
X133931D01*
Y107373D01*
X133889D01*
Y107499D01*
X133847D01*
Y107583D01*
X133805D01*
Y107708D01*
X133763D01*
Y107834D01*
X133721D01*
Y107959D01*
X133680D01*
Y108043D01*
X133638D01*
Y108168D01*
X133596D01*
Y108294D01*
X133554D01*
Y108378D01*
X133512D01*
Y108503D01*
X133470D01*
Y108629D01*
X133428D01*
Y108754D01*
X133386D01*
Y108838D01*
X133345D01*
Y108964D01*
X133303D01*
Y109089D01*
X133261D01*
Y109215D01*
X133219D01*
Y109298D01*
X133177D01*
Y109424D01*
X133135D01*
Y109550D01*
X133094D01*
Y109675D01*
X133052D01*
Y109759D01*
X133010D01*
Y109884D01*
X132968D01*
Y110010D01*
X132926D01*
Y110135D01*
X132884D01*
Y110219D01*
X132843D01*
Y110345D01*
X132801D01*
Y110470D01*
X132759D01*
Y110554D01*
X132717D01*
Y110680D01*
X132675D01*
Y110805D01*
X132633D01*
Y110931D01*
X132591D01*
Y111014D01*
X132549D01*
Y111140D01*
X132508D01*
Y111265D01*
X132466D01*
Y111391D01*
X132424D01*
Y111475D01*
X132382D01*
Y111600D01*
X132340D01*
Y111726D01*
X132298D01*
Y111851D01*
X132257D01*
Y111935D01*
X132215D01*
Y112061D01*
X132173D01*
Y112186D01*
X132131D01*
Y112312D01*
X132089D01*
Y112395D01*
X132047D01*
Y112521D01*
X132006D01*
Y112647D01*
X131964D01*
Y112730D01*
X131922D01*
Y112856D01*
X131880D01*
Y112981D01*
X131838D01*
Y113107D01*
X131796D01*
Y113191D01*
X131754D01*
Y113316D01*
X131713D01*
Y113442D01*
X131671D01*
Y113483D01*
X133805D01*
Y113400D01*
X133847D01*
Y113274D01*
X133889D01*
Y113149D01*
X133931D01*
Y113023D01*
X133973D01*
Y112898D01*
X134014D01*
Y112772D01*
X134056D01*
Y112647D01*
X134098D01*
Y112521D01*
X134140D01*
Y112395D01*
X134182D01*
Y112270D01*
X134224D01*
Y112186D01*
X134265D01*
Y112061D01*
X134307D01*
Y111935D01*
X134349D01*
Y111810D01*
X134391D01*
Y111684D01*
X134433D01*
Y111558D01*
X134475D01*
Y111433D01*
X134516D01*
Y111307D01*
X134558D01*
Y111182D01*
X134600D01*
Y111056D01*
X134642D01*
Y110931D01*
X134684D01*
Y110805D01*
X134726D01*
Y110680D01*
X134768D01*
Y110554D01*
X134810D01*
Y110428D01*
X134851D01*
Y110303D01*
X134893D01*
Y110177D01*
X134935D01*
Y110052D01*
X134977D01*
Y109926D01*
X135019D01*
Y109801D01*
X135061D01*
Y109675D01*
X135102D01*
Y109591D01*
X135144D01*
Y109466D01*
X135186D01*
Y109340D01*
X135228D01*
Y109215D01*
X135270D01*
Y109089D01*
X135312D01*
Y108964D01*
X135353D01*
Y108838D01*
X135395D01*
Y108713D01*
X135437D01*
Y108587D01*
X135479D01*
Y108462D01*
X135521D01*
Y108336D01*
X135563D01*
Y108210D01*
X135605D01*
Y108085D01*
X135646D01*
Y107959D01*
X135688D01*
Y107834D01*
X135730D01*
Y107708D01*
X135772D01*
Y107583D01*
X135814D01*
Y107457D01*
X135856D01*
Y107331D01*
X135898D01*
Y107290D01*
X135939D01*
Y107373D01*
X135981D01*
Y107499D01*
X136023D01*
Y107625D01*
X136065D01*
Y107750D01*
X136107D01*
Y107876D01*
X136149D01*
Y108001D01*
X136191D01*
Y108127D01*
X136232D01*
Y108210D01*
X136274D01*
Y108336D01*
X136316D01*
Y108462D01*
X136358D01*
Y108587D01*
X136400D01*
Y108713D01*
X136442D01*
Y108838D01*
X136483D01*
Y108964D01*
X136525D01*
Y109089D01*
X136567D01*
Y109215D01*
X136609D01*
Y109340D01*
X136651D01*
Y109466D01*
X136693D01*
Y109591D01*
X136735D01*
Y109675D01*
X136776D01*
Y109801D01*
X136818D01*
Y109926D01*
X136860D01*
Y110052D01*
X136902D01*
Y110177D01*
X136944D01*
Y110303D01*
X136986D01*
Y110428D01*
X137028D01*
Y110554D01*
X137069D01*
Y110680D01*
X137111D01*
Y110805D01*
X137153D01*
Y110931D01*
X137195D01*
Y111056D01*
X137237D01*
Y111140D01*
X137279D01*
Y111265D01*
X137320D01*
Y111391D01*
X137362D01*
Y111517D01*
X137404D01*
Y111642D01*
X137446D01*
Y111768D01*
X137488D01*
Y111893D01*
X137530D01*
Y112019D01*
X137572D01*
Y112144D01*
X137613D01*
Y112270D01*
X137655D01*
Y112395D01*
X137697D01*
Y112521D01*
X137739D01*
Y112647D01*
X137781D01*
Y112730D01*
X137823D01*
Y112856D01*
X137865D01*
Y112981D01*
X137906D01*
Y113107D01*
X137948D01*
Y113232D01*
X137990D01*
Y113358D01*
X138032D01*
Y113483D01*
X140250D01*
Y113400D01*
D02*
G37*
G36*
X130038Y104569D02*
X126356D01*
Y104611D01*
X125979D01*
Y104653D01*
X125728D01*
Y104695D01*
X125561D01*
Y104737D01*
X125393D01*
Y104779D01*
X125226D01*
Y104820D01*
X125100D01*
Y104862D01*
X124975D01*
Y104904D01*
X124891D01*
Y104946D01*
X124765D01*
Y104988D01*
X124682D01*
Y105030D01*
X124598D01*
Y105072D01*
X124514D01*
Y105113D01*
X124431D01*
Y105155D01*
X124347D01*
Y105197D01*
X124305D01*
Y105239D01*
X124221D01*
Y105281D01*
X124138D01*
Y105323D01*
X124096D01*
Y105365D01*
X124054D01*
Y105406D01*
X123970D01*
Y105448D01*
X123928D01*
Y105490D01*
X123886D01*
Y105532D01*
X123803D01*
Y105574D01*
X123761D01*
Y105616D01*
X123719D01*
Y105658D01*
X123677D01*
Y105699D01*
X123635D01*
Y105741D01*
X123594D01*
Y105783D01*
X123552D01*
Y105825D01*
X123510D01*
Y105867D01*
X123468D01*
Y105909D01*
X123426D01*
Y105950D01*
X123384D01*
Y105992D01*
X123343D01*
Y106034D01*
X123301D01*
Y106076D01*
X123259D01*
Y106160D01*
X123217D01*
Y106202D01*
X123175D01*
Y106243D01*
X123133D01*
Y106327D01*
X123091D01*
Y106369D01*
X123049D01*
Y106453D01*
X123008D01*
Y106495D01*
X122966D01*
Y106578D01*
X122924D01*
Y106662D01*
X122882D01*
Y106746D01*
X122840D01*
Y106829D01*
X122798D01*
Y106913D01*
X122757D01*
Y106997D01*
X122715D01*
Y107122D01*
X122673D01*
Y107206D01*
X122631D01*
Y107331D01*
X122589D01*
Y107457D01*
X122547D01*
Y107583D01*
X122506D01*
Y107750D01*
X122464D01*
Y107959D01*
X122422D01*
Y108210D01*
X122380D01*
Y108587D01*
X122338D01*
Y109466D01*
X122380D01*
Y109843D01*
X122422D01*
Y110094D01*
X122464D01*
Y110303D01*
X122506D01*
Y110428D01*
X122547D01*
Y110596D01*
X122589D01*
Y110721D01*
X122631D01*
Y110847D01*
X122673D01*
Y110931D01*
X122715D01*
Y111056D01*
X122757D01*
Y111140D01*
X122798D01*
Y111224D01*
X122840D01*
Y111307D01*
X122882D01*
Y111391D01*
X122924D01*
Y111475D01*
X122966D01*
Y111558D01*
X123008D01*
Y111600D01*
X123049D01*
Y111684D01*
X123091D01*
Y111726D01*
X123133D01*
Y111810D01*
X123175D01*
Y111851D01*
X123217D01*
Y111893D01*
X123259D01*
Y111977D01*
X123301D01*
Y112019D01*
X123343D01*
Y112061D01*
X123384D01*
Y112102D01*
X123426D01*
Y112144D01*
X123468D01*
Y112186D01*
X123510D01*
Y112228D01*
X123552D01*
Y112270D01*
X123594D01*
Y112312D01*
X123635D01*
Y112353D01*
X123677D01*
Y112395D01*
X123719D01*
Y112437D01*
X123761D01*
Y112479D01*
X123803D01*
Y112521D01*
X123845D01*
Y112563D01*
X123928D01*
Y112605D01*
X123970D01*
Y112647D01*
X124012D01*
Y112688D01*
X124096D01*
Y112730D01*
X124138D01*
Y112772D01*
X124221D01*
Y112814D01*
X124263D01*
Y112856D01*
X124347D01*
Y112898D01*
X124431D01*
Y112939D01*
X124514D01*
Y112981D01*
X124598D01*
Y113023D01*
X124682D01*
Y113065D01*
X124765D01*
Y113107D01*
X124849D01*
Y113149D01*
X124975D01*
Y113191D01*
X125100D01*
Y113232D01*
X125226D01*
Y113274D01*
X125351D01*
Y113316D01*
X125519D01*
Y113358D01*
X125686D01*
Y113400D01*
X125937D01*
Y113442D01*
X126272D01*
Y113483D01*
X130038D01*
Y104569D01*
D02*
G37*
G36*
X216334Y82347D02*
X211061D01*
Y95655D01*
X190512D01*
Y92516D01*
Y92475D01*
Y82347D01*
X185197D01*
Y113483D01*
X190512D01*
Y100635D01*
X211061D01*
Y113483D01*
X216334D01*
Y82347D01*
D02*
G37*
G36*
X128533Y101919D02*
X128932D01*
Y101839D01*
X129172D01*
Y101759D01*
X129411D01*
Y101680D01*
X129651D01*
Y101600D01*
X129810D01*
Y101520D01*
X129970D01*
Y101440D01*
X130129D01*
Y101360D01*
X130209D01*
Y101280D01*
X130369D01*
Y101201D01*
X130449D01*
Y101121D01*
X130608D01*
Y101041D01*
X130688D01*
Y100961D01*
X130768D01*
Y100881D01*
X130848D01*
Y100802D01*
X130928D01*
Y100722D01*
X131007D01*
Y100642D01*
X131087D01*
Y100562D01*
X131167D01*
Y100482D01*
X131247D01*
Y100402D01*
X131327D01*
Y100323D01*
X131407D01*
Y100243D01*
X131487D01*
Y100163D01*
X131566D01*
Y100003D01*
X131646D01*
Y99924D01*
X131726D01*
Y99844D01*
X131806D01*
Y99684D01*
X131885D01*
Y99524D01*
X131965D01*
Y99445D01*
X132045D01*
Y99285D01*
X132125D01*
Y99125D01*
X132205D01*
Y98966D01*
X132285D01*
Y98726D01*
X132364D01*
Y98567D01*
X132444D01*
Y98327D01*
X132524D01*
Y98088D01*
X132604D01*
Y97848D01*
X132684D01*
Y97529D01*
X132763D01*
Y97130D01*
X132843D01*
Y96731D01*
X132923D01*
Y96332D01*
X133003D01*
Y95853D01*
X133083D01*
Y95454D01*
X133162D01*
Y95055D01*
X133242D01*
Y94656D01*
X133322D01*
Y94337D01*
X133402D01*
Y94177D01*
X133482D01*
Y94017D01*
X133562D01*
Y93858D01*
X133641D01*
Y93698D01*
X133721D01*
Y93618D01*
X133801D01*
Y93538D01*
X133881D01*
Y93459D01*
X133961D01*
Y93379D01*
X134120D01*
Y93299D01*
X134280D01*
Y93219D01*
X134679D01*
Y93139D01*
X134998D01*
Y93219D01*
X135397D01*
Y93299D01*
X135557D01*
Y93379D01*
X135637D01*
Y93459D01*
X135796D01*
Y93538D01*
X135876D01*
Y93618D01*
X135956D01*
Y93698D01*
X136036D01*
Y93778D01*
X136116D01*
Y93858D01*
X136195D01*
Y94017D01*
X136275D01*
Y94097D01*
X136355D01*
Y94257D01*
X136435D01*
Y94416D01*
X136515D01*
Y94656D01*
X136595D01*
Y95135D01*
X136674D01*
Y95294D01*
Y95374D01*
Y95853D01*
X136595D01*
Y96412D01*
X136515D01*
Y96651D01*
X136435D01*
Y96891D01*
X136355D01*
Y97050D01*
X136275D01*
Y97130D01*
X136195D01*
Y97290D01*
X136116D01*
Y97369D01*
X136036D01*
Y97529D01*
X135956D01*
Y97609D01*
X135876D01*
Y97689D01*
X135717D01*
Y97769D01*
X135637D01*
Y97848D01*
X135557D01*
Y97928D01*
X135397D01*
Y98008D01*
X135238D01*
Y98088D01*
X135078D01*
Y98168D01*
X134918D01*
Y98247D01*
X134599D01*
Y98327D01*
X134519D01*
Y98407D01*
X134599D01*
Y98726D01*
X134679D01*
Y98966D01*
X134759D01*
Y99285D01*
X134839D01*
Y99524D01*
X134918D01*
Y99844D01*
X134998D01*
Y100083D01*
X135078D01*
Y100402D01*
X135158D01*
Y100722D01*
X135238D01*
Y100961D01*
X135317D01*
Y101280D01*
X135397D01*
Y101520D01*
X135477D01*
Y101680D01*
X135876D01*
Y101600D01*
X136116D01*
Y101520D01*
X136355D01*
Y101440D01*
X136595D01*
Y101360D01*
X136754D01*
Y101280D01*
X136914D01*
Y101201D01*
X137073D01*
Y101121D01*
X137233D01*
Y101041D01*
X137393D01*
Y100961D01*
X137472D01*
Y100881D01*
X137632D01*
Y100802D01*
X137712D01*
Y100722D01*
X137872D01*
Y100642D01*
X137951D01*
Y100562D01*
X138031D01*
Y100482D01*
X138111D01*
Y100402D01*
X138191D01*
Y100323D01*
X138271D01*
Y100243D01*
X138351D01*
Y100163D01*
X138430D01*
Y100083D01*
X138510D01*
Y100003D01*
X138590D01*
Y99924D01*
X138670D01*
Y99844D01*
X138750D01*
Y99764D01*
X138829D01*
Y99604D01*
X138909D01*
Y99524D01*
X138989D01*
Y99365D01*
X139069D01*
Y99285D01*
X139149D01*
Y99125D01*
X139228D01*
Y98966D01*
X139308D01*
Y98806D01*
X139388D01*
Y98646D01*
X139468D01*
Y98487D01*
X139548D01*
Y98247D01*
X139628D01*
Y98008D01*
X139707D01*
Y97769D01*
X139787D01*
Y97449D01*
X139867D01*
Y97050D01*
X139947D01*
Y96492D01*
X140027D01*
Y94656D01*
X139947D01*
Y94177D01*
X139867D01*
Y93778D01*
X139787D01*
Y93538D01*
X139707D01*
Y93299D01*
X139628D01*
Y93060D01*
X139548D01*
Y92820D01*
X139468D01*
Y92660D01*
X139388D01*
Y92501D01*
X139308D01*
Y92341D01*
X139228D01*
Y92182D01*
X139149D01*
Y92022D01*
X139069D01*
Y91942D01*
X138989D01*
Y91782D01*
X138909D01*
Y91703D01*
X138829D01*
Y91543D01*
X138750D01*
Y91463D01*
X138670D01*
Y91383D01*
X138590D01*
Y91304D01*
X138510D01*
Y91224D01*
X138430D01*
Y91064D01*
X138351D01*
Y90984D01*
X138271D01*
Y90905D01*
X138191D01*
Y90825D01*
X138111D01*
Y90745D01*
X137951D01*
Y90665D01*
X137872D01*
Y90585D01*
X137792D01*
Y90505D01*
X137712D01*
Y90426D01*
X137632D01*
Y90346D01*
X137472D01*
Y90266D01*
X137393D01*
Y90186D01*
X137233D01*
Y90106D01*
X137073D01*
Y90027D01*
X136994D01*
Y89947D01*
X136834D01*
Y89867D01*
X136595D01*
Y89787D01*
X136435D01*
Y89707D01*
X136195D01*
Y89628D01*
X135956D01*
Y89548D01*
X135637D01*
Y89468D01*
X135078D01*
Y89388D01*
X134040D01*
Y89468D01*
X133562D01*
Y89548D01*
X133242D01*
Y89628D01*
X132923D01*
Y89707D01*
X132763D01*
Y89787D01*
X132524D01*
Y89867D01*
X132364D01*
Y89947D01*
X132205D01*
Y90027D01*
X132125D01*
Y90106D01*
X131965D01*
Y90186D01*
X131806D01*
Y90266D01*
X131726D01*
Y90346D01*
X131646D01*
Y90426D01*
X131566D01*
Y90505D01*
X131407D01*
Y90585D01*
X131327D01*
Y90665D01*
X131247D01*
Y90745D01*
X131167D01*
Y90825D01*
X131087D01*
Y90905D01*
X131007D01*
Y90984D01*
X130928D01*
Y91144D01*
X130848D01*
Y91224D01*
X130768D01*
Y91304D01*
X130688D01*
Y91383D01*
X130608D01*
Y91543D01*
X130529D01*
Y91623D01*
X130449D01*
Y91782D01*
X130369D01*
Y91942D01*
X130289D01*
Y92022D01*
X130209D01*
Y92182D01*
X130129D01*
Y92341D01*
X130050D01*
Y92581D01*
X129970D01*
Y92740D01*
X129890D01*
Y92980D01*
X129810D01*
Y93219D01*
X129731D01*
Y93538D01*
X129651D01*
Y93858D01*
X129571D01*
Y94257D01*
X129491D01*
Y94656D01*
X129411D01*
Y95135D01*
X129331D01*
Y95534D01*
X129252D01*
Y95933D01*
X129172D01*
Y96412D01*
X129092D01*
Y96731D01*
X129012D01*
Y96971D01*
X128932D01*
Y97130D01*
X128853D01*
Y97290D01*
X128773D01*
Y97449D01*
X128693D01*
Y97529D01*
X128613D01*
Y97609D01*
X128533D01*
Y97689D01*
X128453D01*
Y97769D01*
X128374D01*
Y97848D01*
X128294D01*
Y97928D01*
X128214D01*
Y98008D01*
X128054D01*
Y98088D01*
X127815D01*
Y98168D01*
X127097D01*
Y98088D01*
X126857D01*
Y98008D01*
X126698D01*
Y97928D01*
X126538D01*
Y97848D01*
X126458D01*
Y97769D01*
X126378D01*
Y97689D01*
X126299D01*
Y97609D01*
X126219D01*
Y97529D01*
X126139D01*
Y97369D01*
X126059D01*
Y97290D01*
X125979D01*
Y97130D01*
X125899D01*
Y96891D01*
X125820D01*
Y96571D01*
X125740D01*
Y94895D01*
X125820D01*
Y94496D01*
X125899D01*
Y94257D01*
X125979D01*
Y94097D01*
X126059D01*
Y93938D01*
X126139D01*
Y93778D01*
X126219D01*
Y93618D01*
X126299D01*
Y93538D01*
X126378D01*
Y93379D01*
X126458D01*
Y93299D01*
X126538D01*
Y93219D01*
X126618D01*
Y93139D01*
X126698D01*
Y93060D01*
X126777D01*
Y92980D01*
X126857D01*
Y92900D01*
X127017D01*
Y92820D01*
X127097D01*
Y92740D01*
X127256D01*
Y92660D01*
X127416D01*
Y92581D01*
X127576D01*
Y92501D01*
X127735D01*
Y92421D01*
X128054D01*
Y92341D01*
X128453D01*
Y92261D01*
X128613D01*
Y92102D01*
X128533D01*
Y91782D01*
X128453D01*
Y91383D01*
X128374D01*
Y91064D01*
X128294D01*
Y90745D01*
X128214D01*
Y90426D01*
X128134D01*
Y90106D01*
X128054D01*
Y89787D01*
X127975D01*
Y89468D01*
X127895D01*
Y89069D01*
X127815D01*
Y88829D01*
X127735D01*
Y88750D01*
X127655D01*
Y88829D01*
X127176D01*
Y88909D01*
X126857D01*
Y88989D01*
X126618D01*
Y89069D01*
X126378D01*
Y89149D01*
X126139D01*
Y89228D01*
X125979D01*
Y89308D01*
X125820D01*
Y89388D01*
X125660D01*
Y89468D01*
X125500D01*
Y89548D01*
X125341D01*
Y89628D01*
X125261D01*
Y89707D01*
X125101D01*
Y89787D01*
X125021D01*
Y89867D01*
X124942D01*
Y89947D01*
X124782D01*
Y90027D01*
X124702D01*
Y90106D01*
X124622D01*
Y90186D01*
X124543D01*
Y90266D01*
X124463D01*
Y90346D01*
X124303D01*
Y90426D01*
X124223D01*
Y90505D01*
X124143D01*
Y90665D01*
X124064D01*
Y90745D01*
X123984D01*
Y90825D01*
X123904D01*
Y90905D01*
X123824D01*
Y90984D01*
X123744D01*
Y91064D01*
X123665D01*
Y91224D01*
X123585D01*
Y91304D01*
X123505D01*
Y91463D01*
X123425D01*
Y91543D01*
X123345D01*
Y91703D01*
X123265D01*
Y91862D01*
X123186D01*
Y92022D01*
X123106D01*
Y92182D01*
X123026D01*
Y92341D01*
X122946D01*
Y92501D01*
X122866D01*
Y92740D01*
X122787D01*
Y92980D01*
X122707D01*
Y93219D01*
X122627D01*
Y93459D01*
X122547D01*
Y93858D01*
X122467D01*
Y94257D01*
X122387D01*
Y94895D01*
X122308D01*
Y96492D01*
X122387D01*
Y97130D01*
X122467D01*
Y97529D01*
X122547D01*
Y97848D01*
X122627D01*
Y98088D01*
X122707D01*
Y98327D01*
X122787D01*
Y98567D01*
X122866D01*
Y98726D01*
X122946D01*
Y98886D01*
X123026D01*
Y99046D01*
X123106D01*
Y99205D01*
X123186D01*
Y99365D01*
X123265D01*
Y99524D01*
X123345D01*
Y99604D01*
X123425D01*
Y99764D01*
X123505D01*
Y99844D01*
X123585D01*
Y99924D01*
X123665D01*
Y100083D01*
X123744D01*
Y100163D01*
X123824D01*
Y100243D01*
X123904D01*
Y100323D01*
X123984D01*
Y100402D01*
X124064D01*
Y100482D01*
X124143D01*
Y100562D01*
X124223D01*
Y100642D01*
X124303D01*
Y100722D01*
X124383D01*
Y100802D01*
X124463D01*
Y100881D01*
X124543D01*
Y100961D01*
X124702D01*
Y101041D01*
X124782D01*
Y101121D01*
X124862D01*
Y101201D01*
X125021D01*
Y101280D01*
X125181D01*
Y101360D01*
X125261D01*
Y101440D01*
X125421D01*
Y101520D01*
X125580D01*
Y101600D01*
X125820D01*
Y101680D01*
X125979D01*
Y101759D01*
X126219D01*
Y101839D01*
X126538D01*
Y101919D01*
X126857D01*
Y101999D01*
X128533D01*
Y101919D01*
D02*
G37*
G36*
X178292Y82347D02*
X147155D01*
Y87285D01*
X173019D01*
Y95530D01*
X150127D01*
Y100301D01*
X173019D01*
Y108545D01*
X147155D01*
Y113483D01*
X178292D01*
Y82347D01*
D02*
G37*
G36*
X132045Y86994D02*
X132763D01*
Y86914D01*
X133242D01*
Y86834D01*
X133562D01*
Y86754D01*
X133881D01*
Y86674D01*
X134200D01*
Y86594D01*
X134440D01*
Y86515D01*
X134679D01*
Y86435D01*
X134839D01*
Y86355D01*
X135078D01*
Y86275D01*
X135238D01*
Y86195D01*
X135397D01*
Y86116D01*
X135557D01*
Y86036D01*
X135717D01*
Y85956D01*
X135796D01*
Y85876D01*
X135956D01*
Y85796D01*
X136116D01*
Y85716D01*
X136195D01*
Y85637D01*
X136355D01*
Y85557D01*
X136435D01*
Y85477D01*
X136595D01*
Y85397D01*
X136674D01*
Y85317D01*
X136754D01*
Y85238D01*
X136834D01*
Y85158D01*
X136994D01*
Y85078D01*
X137073D01*
Y84998D01*
X137153D01*
Y84918D01*
X137233D01*
Y84838D01*
X137313D01*
Y84759D01*
X137393D01*
Y84679D01*
X137472D01*
Y84599D01*
X137552D01*
Y84519D01*
X137632D01*
Y84439D01*
X137712D01*
Y84280D01*
X137792D01*
Y84200D01*
X137872D01*
Y84120D01*
X137951D01*
Y84040D01*
X138031D01*
Y83881D01*
X138111D01*
Y83801D01*
X138191D01*
Y83721D01*
X138271D01*
Y83561D01*
X138351D01*
Y83482D01*
X138430D01*
Y83322D01*
X138510D01*
Y83162D01*
X138590D01*
Y83003D01*
X138670D01*
Y82843D01*
X138750D01*
Y82683D01*
X138829D01*
Y82524D01*
X138909D01*
Y82364D01*
X138989D01*
Y82205D01*
X139069D01*
Y81965D01*
X139149D01*
Y81726D01*
X139228D01*
Y81486D01*
X139308D01*
Y81167D01*
X139388D01*
Y80848D01*
X139468D01*
Y80449D01*
X139548D01*
Y79970D01*
X139628D01*
Y79092D01*
X139707D01*
Y72387D01*
X122707D01*
Y79810D01*
X122787D01*
Y80369D01*
X122866D01*
Y80768D01*
X122946D01*
Y81087D01*
X123026D01*
Y81406D01*
X123106D01*
Y81646D01*
X123186D01*
Y81885D01*
X123265D01*
Y82125D01*
X123345D01*
Y82284D01*
X123425D01*
Y82524D01*
X123505D01*
Y82683D01*
X123585D01*
Y82843D01*
X123665D01*
Y83003D01*
X123744D01*
Y83162D01*
X123824D01*
Y83322D01*
X123904D01*
Y83402D01*
X123984D01*
Y83561D01*
X124064D01*
Y83641D01*
X124143D01*
Y83801D01*
X124223D01*
Y83881D01*
X124303D01*
Y83961D01*
X124383D01*
Y84120D01*
X124463D01*
Y84200D01*
X124543D01*
Y84280D01*
X124622D01*
Y84360D01*
X124702D01*
Y84519D01*
X124782D01*
Y84599D01*
X124862D01*
Y84679D01*
X124942D01*
Y84759D01*
X125021D01*
Y84838D01*
X125101D01*
Y84918D01*
X125181D01*
Y84998D01*
X125261D01*
Y85078D01*
X125421D01*
Y85158D01*
X125500D01*
Y85238D01*
X125580D01*
Y85317D01*
X125660D01*
Y85397D01*
X125820D01*
Y85477D01*
X125899D01*
Y85557D01*
X125979D01*
Y85637D01*
X126139D01*
Y85716D01*
X126219D01*
Y85796D01*
X126378D01*
Y85876D01*
X126538D01*
Y85956D01*
X126618D01*
Y86036D01*
X126777D01*
Y86116D01*
X126937D01*
Y86195D01*
X127097D01*
Y86275D01*
X127336D01*
Y86355D01*
X127496D01*
Y86435D01*
X127735D01*
Y86515D01*
X127895D01*
Y86594D01*
X128134D01*
Y86674D01*
X128453D01*
Y86754D01*
X128773D01*
Y86834D01*
X129092D01*
Y86914D01*
X129571D01*
Y86994D01*
X130289D01*
Y87073D01*
X132045D01*
Y86994D01*
D02*
G37*
G36*
X139628Y69195D02*
X139707D01*
Y58499D01*
X139628D01*
Y58420D01*
X122707D01*
Y69275D01*
X126299D01*
Y66880D01*
Y66800D01*
Y62251D01*
X129491D01*
Y68556D01*
X132923D01*
Y62251D01*
X136116D01*
Y69275D01*
X139628D01*
Y69195D01*
D02*
G37*
G36*
X163351Y76572D02*
X163895D01*
Y76530D01*
X164272D01*
Y76488D01*
X164607D01*
Y76446D01*
X164900D01*
Y76404D01*
X165151D01*
Y76362D01*
X165402D01*
Y76321D01*
X165611D01*
Y76279D01*
X165821D01*
Y76237D01*
X166030D01*
Y76195D01*
X166197D01*
Y76153D01*
X166364D01*
Y76111D01*
X166532D01*
Y76069D01*
X166699D01*
Y76027D01*
X166867D01*
Y75986D01*
X166992D01*
Y75944D01*
X167160D01*
Y75902D01*
X167285D01*
Y75860D01*
X167411D01*
Y75818D01*
X167536D01*
Y75776D01*
X167662D01*
Y75735D01*
X167787D01*
Y75693D01*
X167913D01*
Y75651D01*
X168039D01*
Y75609D01*
X168164D01*
Y75567D01*
X168248D01*
Y75525D01*
X168373D01*
Y75483D01*
X168499D01*
Y75442D01*
X168583D01*
Y75400D01*
X168708D01*
Y75358D01*
X168792D01*
Y75316D01*
X168917D01*
Y75274D01*
X169001D01*
Y75232D01*
X169085D01*
Y75191D01*
X169168D01*
Y75149D01*
X169294D01*
Y75107D01*
X169378D01*
Y75065D01*
X169461D01*
Y75023D01*
X169545D01*
Y74981D01*
X169629D01*
Y74939D01*
X169713D01*
Y74898D01*
X169796D01*
Y74856D01*
X169880D01*
Y74814D01*
X169964D01*
Y74772D01*
X170047D01*
Y74730D01*
X170131D01*
Y74688D01*
X170215D01*
Y74647D01*
X170299D01*
Y74605D01*
X170382D01*
Y74563D01*
X170466D01*
Y74521D01*
X170508D01*
Y74479D01*
X170591D01*
Y74437D01*
X170675D01*
Y74395D01*
X170759D01*
Y74353D01*
X170801D01*
Y74312D01*
X170884D01*
Y74270D01*
X170968D01*
Y74228D01*
X171010D01*
Y74186D01*
X171094D01*
Y74144D01*
X171177D01*
Y74102D01*
X171219D01*
Y74061D01*
X171303D01*
Y74019D01*
X171387D01*
Y73977D01*
X171428D01*
Y73935D01*
X171512D01*
Y73893D01*
X171554D01*
Y73851D01*
X171638D01*
Y73809D01*
X171679D01*
Y73768D01*
X171763D01*
Y73726D01*
X171805D01*
Y73684D01*
X171889D01*
Y73642D01*
X171931D01*
Y73600D01*
X171973D01*
Y73558D01*
X172056D01*
Y73517D01*
X172098D01*
Y73475D01*
X172182D01*
Y73433D01*
X172224D01*
Y73391D01*
X172265D01*
Y73349D01*
X172349D01*
Y73307D01*
X172391D01*
Y73265D01*
X172433D01*
Y73224D01*
X172516D01*
Y73182D01*
X172558D01*
Y73140D01*
X172600D01*
Y73098D01*
X172684D01*
Y73056D01*
X172726D01*
Y73014D01*
X172768D01*
Y72972D01*
X172810D01*
Y72931D01*
X172893D01*
Y72889D01*
X172935D01*
Y72847D01*
X172977D01*
Y72805D01*
X173019D01*
Y72763D01*
X173061D01*
Y72721D01*
X173144D01*
Y72680D01*
X173186D01*
Y72638D01*
X173228D01*
Y72596D01*
X173270D01*
Y72554D01*
X173312D01*
Y72512D01*
X173354D01*
Y72470D01*
X173437D01*
Y72428D01*
X173479D01*
Y72387D01*
X173521D01*
Y72345D01*
X173563D01*
Y72303D01*
X173605D01*
Y72261D01*
X173647D01*
Y72219D01*
X173688D01*
Y72177D01*
X173730D01*
Y72136D01*
X173772D01*
Y72094D01*
X173814D01*
Y72052D01*
X173856D01*
Y72010D01*
X173898D01*
Y71968D01*
X173939D01*
Y71926D01*
X173981D01*
Y71884D01*
X174065D01*
Y71842D01*
X174107D01*
Y71801D01*
X174149D01*
Y71759D01*
X174191D01*
Y71717D01*
X174232D01*
Y71675D01*
X174274D01*
Y71591D01*
X174316D01*
Y71550D01*
X174358D01*
Y71508D01*
X174400D01*
Y71466D01*
X174442D01*
Y71424D01*
X174484D01*
Y71382D01*
X174525D01*
Y71340D01*
X174567D01*
Y71298D01*
X174609D01*
Y71257D01*
X174651D01*
Y71215D01*
X174693D01*
Y71173D01*
X174735D01*
Y71131D01*
X174776D01*
Y71089D01*
X174818D01*
Y71047D01*
X174860D01*
Y70964D01*
X174902D01*
Y70922D01*
X174944D01*
Y70880D01*
X174986D01*
Y70838D01*
X175028D01*
Y70796D01*
X175069D01*
Y70754D01*
X175111D01*
Y70671D01*
X175153D01*
Y70629D01*
X175195D01*
Y70587D01*
X175237D01*
Y70545D01*
X175279D01*
Y70503D01*
X175320D01*
Y70420D01*
X175362D01*
Y70378D01*
X175404D01*
Y70336D01*
X175446D01*
Y70294D01*
X175488D01*
Y70210D01*
X175530D01*
Y70168D01*
X175572D01*
Y70127D01*
X175613D01*
Y70043D01*
X175655D01*
Y70001D01*
X175697D01*
Y69959D01*
X175739D01*
Y69876D01*
X175781D01*
Y69834D01*
X175823D01*
Y69792D01*
X175865D01*
Y69708D01*
X175906D01*
Y69666D01*
X175948D01*
Y69583D01*
X175990D01*
Y69541D01*
X176032D01*
Y69499D01*
X176074D01*
Y69415D01*
X176116D01*
Y69373D01*
X176157D01*
Y69290D01*
X176199D01*
Y69248D01*
X176241D01*
Y69164D01*
X176283D01*
Y69122D01*
X176325D01*
Y69039D01*
X176367D01*
Y68997D01*
X176409D01*
Y68913D01*
X176450D01*
Y68829D01*
X176492D01*
Y68787D01*
X176534D01*
Y68704D01*
X176576D01*
Y68662D01*
X176618D01*
Y68578D01*
X176660D01*
Y68495D01*
X176702D01*
Y68453D01*
X176743D01*
Y68369D01*
X176785D01*
Y68285D01*
X176827D01*
Y68201D01*
X176869D01*
Y68160D01*
X176911D01*
Y68076D01*
X176953D01*
Y67992D01*
X176994D01*
Y67909D01*
X177036D01*
Y67825D01*
X177078D01*
Y67783D01*
X177120D01*
Y67699D01*
X177162D01*
Y67616D01*
X177204D01*
Y67532D01*
X177246D01*
Y67448D01*
X177288D01*
Y67365D01*
X177329D01*
Y67281D01*
X177371D01*
Y67197D01*
X177413D01*
Y67113D01*
X177455D01*
Y66988D01*
X177497D01*
Y66904D01*
X177539D01*
Y66821D01*
X177580D01*
Y66737D01*
X177622D01*
Y66611D01*
X177664D01*
Y66528D01*
X177706D01*
Y66444D01*
X177748D01*
Y66318D01*
X177790D01*
Y66235D01*
X177831D01*
Y66109D01*
X177873D01*
Y66025D01*
X177915D01*
Y65900D01*
X177957D01*
Y65816D01*
X177999D01*
Y65690D01*
X178041D01*
Y65565D01*
X178083D01*
Y65439D01*
X178125D01*
Y65314D01*
X178166D01*
Y65188D01*
X178208D01*
Y65063D01*
X178250D01*
Y64937D01*
X178292D01*
Y64812D01*
X178334D01*
Y64686D01*
X178376D01*
Y64519D01*
X178417D01*
Y64393D01*
X178459D01*
Y64226D01*
X178501D01*
Y64058D01*
X178543D01*
Y63933D01*
X178585D01*
Y63724D01*
X178627D01*
Y63556D01*
X178668D01*
Y63389D01*
X178710D01*
Y63179D01*
X178752D01*
Y62970D01*
X178794D01*
Y62719D01*
X178836D01*
Y62468D01*
X178878D01*
Y62217D01*
X178920D01*
Y61882D01*
X178961D01*
Y61547D01*
X179003D01*
Y61087D01*
X179045D01*
Y60375D01*
X179087D01*
Y58953D01*
X179045D01*
Y58241D01*
X179003D01*
Y57781D01*
X178961D01*
Y57446D01*
X178920D01*
Y57153D01*
X178878D01*
Y56860D01*
X178836D01*
Y56609D01*
X178794D01*
Y56400D01*
X178752D01*
Y56191D01*
X178710D01*
Y55981D01*
X178668D01*
Y55772D01*
X178627D01*
Y55605D01*
X178585D01*
Y55437D01*
X178543D01*
Y55270D01*
X178501D01*
Y55144D01*
X178459D01*
Y54977D01*
X178417D01*
Y54809D01*
X178376D01*
Y54684D01*
X178334D01*
Y54558D01*
X178292D01*
Y54433D01*
X178250D01*
Y54307D01*
X178208D01*
Y54182D01*
X178166D01*
Y54056D01*
X178125D01*
Y53931D01*
X178083D01*
Y53805D01*
X178041D01*
Y53679D01*
X177999D01*
Y53596D01*
X177957D01*
Y53470D01*
X177915D01*
Y53345D01*
X177873D01*
Y53261D01*
X177831D01*
Y53177D01*
X177790D01*
Y53052D01*
X177748D01*
Y52968D01*
X177706D01*
Y52842D01*
X177664D01*
Y52759D01*
X177622D01*
Y52675D01*
X177580D01*
Y52591D01*
X177539D01*
Y52508D01*
X177497D01*
Y52382D01*
X177455D01*
Y52298D01*
X177413D01*
Y52215D01*
X177371D01*
Y52131D01*
X177329D01*
Y52047D01*
X177288D01*
Y51964D01*
X177246D01*
Y51880D01*
X177204D01*
Y51796D01*
X177162D01*
Y51712D01*
X177120D01*
Y51671D01*
X177078D01*
Y51587D01*
X177036D01*
Y51503D01*
X176994D01*
Y51420D01*
X176953D01*
Y51336D01*
X176911D01*
Y51294D01*
X176869D01*
Y51210D01*
X176827D01*
Y51127D01*
X176785D01*
Y51043D01*
X176743D01*
Y51001D01*
X176702D01*
Y50917D01*
X176660D01*
Y50834D01*
X176618D01*
Y50792D01*
X176576D01*
Y50708D01*
X176534D01*
Y50666D01*
X176492D01*
Y50583D01*
X176450D01*
Y50499D01*
X176409D01*
Y50457D01*
X176367D01*
Y50373D01*
X176325D01*
Y50332D01*
X176283D01*
Y50248D01*
X176241D01*
Y50206D01*
X176199D01*
Y50122D01*
X176157D01*
Y50080D01*
X176116D01*
Y50038D01*
X176074D01*
Y49955D01*
X176032D01*
Y49913D01*
X175990D01*
Y49829D01*
X175948D01*
Y49787D01*
X175906D01*
Y49746D01*
X175865D01*
Y49662D01*
X175823D01*
Y49620D01*
X175781D01*
Y49578D01*
X175739D01*
Y49495D01*
X175697D01*
Y49453D01*
X175655D01*
Y49411D01*
X175613D01*
Y49327D01*
X175572D01*
Y49285D01*
X175530D01*
Y49243D01*
X175488D01*
Y49201D01*
X175446D01*
Y49118D01*
X175404D01*
Y49076D01*
X175362D01*
Y49034D01*
X175320D01*
Y48992D01*
X175279D01*
Y48909D01*
X175237D01*
Y48867D01*
X175195D01*
Y48825D01*
X175153D01*
Y48783D01*
X175111D01*
Y48741D01*
X175069D01*
Y48699D01*
X175028D01*
Y48616D01*
X174986D01*
Y48574D01*
X174944D01*
Y48532D01*
X174902D01*
Y48490D01*
X174860D01*
Y48448D01*
X174818D01*
Y48406D01*
X174776D01*
Y48365D01*
X174735D01*
Y48323D01*
X174693D01*
Y48281D01*
X174651D01*
Y48239D01*
X174609D01*
Y48155D01*
X174567D01*
Y48113D01*
X174525D01*
Y48072D01*
X174484D01*
Y48030D01*
X174442D01*
Y47988D01*
X174400D01*
Y47946D01*
X174358D01*
Y47904D01*
X174316D01*
Y47862D01*
X174274D01*
Y47821D01*
X174232D01*
Y47779D01*
X174191D01*
Y47737D01*
X174149D01*
Y47695D01*
X174107D01*
Y47653D01*
X174065D01*
Y47611D01*
X174023D01*
Y47569D01*
X173981D01*
Y47527D01*
X173898D01*
Y47486D01*
X173856D01*
Y47444D01*
X173814D01*
Y47402D01*
X173772D01*
Y47360D01*
X173730D01*
Y47318D01*
X173688D01*
Y47276D01*
X173647D01*
Y47235D01*
X173605D01*
Y47193D01*
X173563D01*
Y47151D01*
X173521D01*
Y47109D01*
X173437D01*
Y47067D01*
X173395D01*
Y47025D01*
X173354D01*
Y46983D01*
X173312D01*
Y46942D01*
X173270D01*
Y46900D01*
X173228D01*
Y46858D01*
X173144D01*
Y46816D01*
X173102D01*
Y46774D01*
X173061D01*
Y46732D01*
X173019D01*
Y46691D01*
X172935D01*
Y46649D01*
X172893D01*
Y46607D01*
X172851D01*
Y46565D01*
X172810D01*
Y46523D01*
X172726D01*
Y46481D01*
X172684D01*
Y46439D01*
X172642D01*
Y46398D01*
X172558D01*
Y46356D01*
X172516D01*
Y46314D01*
X172475D01*
Y46272D01*
X172391D01*
Y46230D01*
X172349D01*
Y46188D01*
X172307D01*
Y46146D01*
X172224D01*
Y46105D01*
X172182D01*
Y46063D01*
X172098D01*
Y46021D01*
X172056D01*
Y45979D01*
X171973D01*
Y45937D01*
X171931D01*
Y45895D01*
X171889D01*
Y45854D01*
X171805D01*
Y45812D01*
X171763D01*
Y45770D01*
X171679D01*
Y45728D01*
X171596D01*
Y45686D01*
X171554D01*
Y45644D01*
X171470D01*
Y45602D01*
X171428D01*
Y45561D01*
X171345D01*
Y45519D01*
X171261D01*
Y45477D01*
X171219D01*
Y45435D01*
X171136D01*
Y45393D01*
X171052D01*
Y45351D01*
X171010D01*
Y45310D01*
X170926D01*
Y45268D01*
X170842D01*
Y45226D01*
X170759D01*
Y45184D01*
X170717D01*
Y45142D01*
X170633D01*
Y45100D01*
X170550D01*
Y45058D01*
X170466D01*
Y45016D01*
X170382D01*
Y44975D01*
X170299D01*
Y44933D01*
X170215D01*
Y44891D01*
X170131D01*
Y44849D01*
X170047D01*
Y44807D01*
X169964D01*
Y44765D01*
X169880D01*
Y44724D01*
X169796D01*
Y44682D01*
X169713D01*
Y44640D01*
X169629D01*
Y44598D01*
X169545D01*
Y44556D01*
X169461D01*
Y44514D01*
X169336D01*
Y44472D01*
X169252D01*
Y44431D01*
X169168D01*
Y44389D01*
X169043D01*
Y44347D01*
X168959D01*
Y44305D01*
X168834D01*
Y44263D01*
X168750D01*
Y44221D01*
X168624D01*
Y44180D01*
X168499D01*
Y44138D01*
X168415D01*
Y44096D01*
X168290D01*
Y44054D01*
X168164D01*
Y44012D01*
X168039D01*
Y43970D01*
X167913D01*
Y43928D01*
X167787D01*
Y43887D01*
X167662D01*
Y43845D01*
X167495D01*
Y43803D01*
X167369D01*
Y43761D01*
X167243D01*
Y43719D01*
X167076D01*
Y43677D01*
X166909D01*
Y43635D01*
X166741D01*
Y43594D01*
X166574D01*
Y43552D01*
X166406D01*
Y43510D01*
X166197D01*
Y43468D01*
X165988D01*
Y43426D01*
X165779D01*
Y43384D01*
X165569D01*
Y43342D01*
X165277D01*
Y43301D01*
X165025D01*
Y43259D01*
X164690D01*
Y43217D01*
X164272D01*
Y43175D01*
X163728D01*
Y43133D01*
X161677D01*
Y43175D01*
X161133D01*
Y43217D01*
X160757D01*
Y43259D01*
X160422D01*
Y43301D01*
X160171D01*
Y43342D01*
X159920D01*
Y43384D01*
X159669D01*
Y43426D01*
X159459D01*
Y43468D01*
X159292D01*
Y43510D01*
X159083D01*
Y43552D01*
X158915D01*
Y43594D01*
X158748D01*
Y43635D01*
X158580D01*
Y43677D01*
X158455D01*
Y43719D01*
X158287D01*
Y43761D01*
X158162D01*
Y43803D01*
X158036D01*
Y43845D01*
X157911D01*
Y43887D01*
X157785D01*
Y43928D01*
X157660D01*
Y43970D01*
X157534D01*
Y44012D01*
X157409D01*
Y44054D01*
X157325D01*
Y44096D01*
X157199D01*
Y44138D01*
X157116D01*
Y44180D01*
X156990D01*
Y44221D01*
X156906D01*
Y44263D01*
X156781D01*
Y44305D01*
X156697D01*
Y44347D01*
X156613D01*
Y44389D01*
X156530D01*
Y44431D01*
X156404D01*
Y44472D01*
X156320D01*
Y44514D01*
X156237D01*
Y44556D01*
X156153D01*
Y44598D01*
X156069D01*
Y44640D01*
X155986D01*
Y44682D01*
X155902D01*
Y44724D01*
X155818D01*
Y44765D01*
X155735D01*
Y44807D01*
X155693D01*
Y44849D01*
X155609D01*
Y44891D01*
X155525D01*
Y44933D01*
X155442D01*
Y44975D01*
X155358D01*
Y45016D01*
X155316D01*
Y45058D01*
X155232D01*
Y45100D01*
X155149D01*
Y45142D01*
X155107D01*
Y45184D01*
X155023D01*
Y45226D01*
X154939D01*
Y45268D01*
X154898D01*
Y45310D01*
X154814D01*
Y45351D01*
X154772D01*
Y45393D01*
X154688D01*
Y45435D01*
X154647D01*
Y45477D01*
X154563D01*
Y45519D01*
X154521D01*
Y45561D01*
X154437D01*
Y45602D01*
X154395D01*
Y45644D01*
X154312D01*
Y45686D01*
X154270D01*
Y45728D01*
X154228D01*
Y45770D01*
X154144D01*
Y45812D01*
X154102D01*
Y45854D01*
X154061D01*
Y45895D01*
X153977D01*
Y45937D01*
X153935D01*
Y45979D01*
X153893D01*
Y46021D01*
X153809D01*
Y46063D01*
X153768D01*
Y46105D01*
X153726D01*
Y46146D01*
X153684D01*
Y46188D01*
X153600D01*
Y46230D01*
X153558D01*
Y46272D01*
X153517D01*
Y46314D01*
X153475D01*
Y46356D01*
X153391D01*
Y46398D01*
X153349D01*
Y46439D01*
X153307D01*
Y46481D01*
X153265D01*
Y46523D01*
X153224D01*
Y46565D01*
X153182D01*
Y46607D01*
X153098D01*
Y46649D01*
X153056D01*
Y46691D01*
X153014D01*
Y46732D01*
X152972D01*
Y46774D01*
X152931D01*
Y46816D01*
X152889D01*
Y46858D01*
X152847D01*
Y46900D01*
X152805D01*
Y46942D01*
X152763D01*
Y46983D01*
X152721D01*
Y47025D01*
X152680D01*
Y47067D01*
X152638D01*
Y47109D01*
X152596D01*
Y47151D01*
X152554D01*
Y47193D01*
X152512D01*
Y47235D01*
X152470D01*
Y47276D01*
X152428D01*
Y47318D01*
X152387D01*
Y47360D01*
X152345D01*
Y47402D01*
X152303D01*
Y47444D01*
X152261D01*
Y47486D01*
X152219D01*
Y47527D01*
X152177D01*
Y47569D01*
X152135D01*
Y47611D01*
X152094D01*
Y47653D01*
X152052D01*
Y47695D01*
X152010D01*
Y47737D01*
X151968D01*
Y47779D01*
X151926D01*
Y47821D01*
X151884D01*
Y47862D01*
X151842D01*
Y47904D01*
X151801D01*
Y47988D01*
X151759D01*
Y48030D01*
X151675D01*
Y47695D01*
X151633D01*
Y47360D01*
X151591D01*
Y47025D01*
X151550D01*
Y46691D01*
X151508D01*
Y46356D01*
X151466D01*
Y46021D01*
X151424D01*
Y45686D01*
X151382D01*
Y45351D01*
X151340D01*
Y45016D01*
X151299D01*
Y44682D01*
X151257D01*
Y44347D01*
X151215D01*
Y44305D01*
X147155D01*
Y59832D01*
X147113D01*
Y59873D01*
X147155D01*
Y60208D01*
X163519D01*
Y55186D01*
X152177D01*
Y54809D01*
X152219D01*
Y54684D01*
X152261D01*
Y54600D01*
X152303D01*
Y54475D01*
X152345D01*
Y54391D01*
X152387D01*
Y54265D01*
X152428D01*
Y54182D01*
X152470D01*
Y54098D01*
X152512D01*
Y53972D01*
X152554D01*
Y53889D01*
X152596D01*
Y53805D01*
X152638D01*
Y53721D01*
X152680D01*
Y53638D01*
X152721D01*
Y53554D01*
X152763D01*
Y53470D01*
X152805D01*
Y53387D01*
X152847D01*
Y53303D01*
X152889D01*
Y53219D01*
X152931D01*
Y53135D01*
X152972D01*
Y53094D01*
X153014D01*
Y53010D01*
X153056D01*
Y52926D01*
X153098D01*
Y52842D01*
X153140D01*
Y52801D01*
X153182D01*
Y52717D01*
X153224D01*
Y52633D01*
X153265D01*
Y52591D01*
X153307D01*
Y52508D01*
X153349D01*
Y52466D01*
X153391D01*
Y52382D01*
X153433D01*
Y52340D01*
X153475D01*
Y52257D01*
X153517D01*
Y52215D01*
X153558D01*
Y52173D01*
X153600D01*
Y52089D01*
X153642D01*
Y52047D01*
X153684D01*
Y51964D01*
X153726D01*
Y51922D01*
X153768D01*
Y51880D01*
X153809D01*
Y51838D01*
X153851D01*
Y51754D01*
X153893D01*
Y51712D01*
X153935D01*
Y51671D01*
X153977D01*
Y51629D01*
X154019D01*
Y51545D01*
X154061D01*
Y51503D01*
X154102D01*
Y51461D01*
X154144D01*
Y51420D01*
X154186D01*
Y51378D01*
X154228D01*
Y51336D01*
X154270D01*
Y51294D01*
X154312D01*
Y51252D01*
X154354D01*
Y51168D01*
X154395D01*
Y51127D01*
X154437D01*
Y51085D01*
X154479D01*
Y51043D01*
X154521D01*
Y51001D01*
X154563D01*
Y50959D01*
X154605D01*
Y50917D01*
X154647D01*
Y50876D01*
X154688D01*
Y50834D01*
X154730D01*
Y50792D01*
X154814D01*
Y50750D01*
X154856D01*
Y50708D01*
X154898D01*
Y50666D01*
X154939D01*
Y50624D01*
X154981D01*
Y50583D01*
X155023D01*
Y50541D01*
X155065D01*
Y50499D01*
X155107D01*
Y50457D01*
X155190D01*
Y50415D01*
X155232D01*
Y50373D01*
X155274D01*
Y50332D01*
X155316D01*
Y50290D01*
X155400D01*
Y50248D01*
X155442D01*
Y50206D01*
X155484D01*
Y50164D01*
X155567D01*
Y50122D01*
X155609D01*
Y50080D01*
X155651D01*
Y50038D01*
X155735D01*
Y49997D01*
X155776D01*
Y49955D01*
X155860D01*
Y49913D01*
X155902D01*
Y49871D01*
X155944D01*
Y49829D01*
X156027D01*
Y49787D01*
X156111D01*
Y49746D01*
X156153D01*
Y49704D01*
X156237D01*
Y49662D01*
X156279D01*
Y49620D01*
X156362D01*
Y49578D01*
X156446D01*
Y49536D01*
X156530D01*
Y49495D01*
X156572D01*
Y49453D01*
X156655D01*
Y49411D01*
X156739D01*
Y49369D01*
X156823D01*
Y49327D01*
X156906D01*
Y49285D01*
X156990D01*
Y49243D01*
X157074D01*
Y49201D01*
X157157D01*
Y49160D01*
X157241D01*
Y49118D01*
X157325D01*
Y49076D01*
X157450D01*
Y49034D01*
X157534D01*
Y48992D01*
X157618D01*
Y48950D01*
X157743D01*
Y48909D01*
X157827D01*
Y48867D01*
X157953D01*
Y48825D01*
X158078D01*
Y48783D01*
X158162D01*
Y48741D01*
X158287D01*
Y48699D01*
X158413D01*
Y48657D01*
X158580D01*
Y48616D01*
X158706D01*
Y48574D01*
X158873D01*
Y48532D01*
X158999D01*
Y48490D01*
X159166D01*
Y48448D01*
X159334D01*
Y48406D01*
X159543D01*
Y48365D01*
X159752D01*
Y48323D01*
X159961D01*
Y48281D01*
X160213D01*
Y48239D01*
X160506D01*
Y48197D01*
X160798D01*
Y48155D01*
X161217D01*
Y48113D01*
X161845D01*
Y48072D01*
X163435D01*
Y48113D01*
X163937D01*
Y48155D01*
X164272D01*
Y48197D01*
X164565D01*
Y48239D01*
X164816D01*
Y48281D01*
X165025D01*
Y48323D01*
X165235D01*
Y48365D01*
X165402D01*
Y48406D01*
X165569D01*
Y48448D01*
X165737D01*
Y48490D01*
X165862D01*
Y48532D01*
X166030D01*
Y48574D01*
X166155D01*
Y48616D01*
X166281D01*
Y48657D01*
X166406D01*
Y48699D01*
X166532D01*
Y48741D01*
X166616D01*
Y48783D01*
X166741D01*
Y48825D01*
X166867D01*
Y48867D01*
X166950D01*
Y48909D01*
X167076D01*
Y48950D01*
X167160D01*
Y48992D01*
X167243D01*
Y49034D01*
X167327D01*
Y49076D01*
X167453D01*
Y49118D01*
X167536D01*
Y49160D01*
X167620D01*
Y49201D01*
X167704D01*
Y49243D01*
X167787D01*
Y49285D01*
X167871D01*
Y49327D01*
X167955D01*
Y49369D01*
X167997D01*
Y49411D01*
X168080D01*
Y49453D01*
X168164D01*
Y49495D01*
X168248D01*
Y49536D01*
X168332D01*
Y49578D01*
X168373D01*
Y49620D01*
X168457D01*
Y49662D01*
X168541D01*
Y49704D01*
X168583D01*
Y49746D01*
X168666D01*
Y49787D01*
X168708D01*
Y49829D01*
X168792D01*
Y49871D01*
X168834D01*
Y49913D01*
X168917D01*
Y49955D01*
X168959D01*
Y49997D01*
X169043D01*
Y50038D01*
X169085D01*
Y50080D01*
X169168D01*
Y50122D01*
X169210D01*
Y50164D01*
X169252D01*
Y50206D01*
X169336D01*
Y50248D01*
X169378D01*
Y50290D01*
X169461D01*
Y50332D01*
X169503D01*
Y50373D01*
X169545D01*
Y50415D01*
X169587D01*
Y50457D01*
X169671D01*
Y50499D01*
X169713D01*
Y50541D01*
X169754D01*
Y50583D01*
X169796D01*
Y50624D01*
X169838D01*
Y50666D01*
X169922D01*
Y50708D01*
X169964D01*
Y50750D01*
X170005D01*
Y50792D01*
X170047D01*
Y50834D01*
X170089D01*
Y50876D01*
X170131D01*
Y50917D01*
X170173D01*
Y50959D01*
X170257D01*
Y51001D01*
X170299D01*
Y51043D01*
X170340D01*
Y51085D01*
X170382D01*
Y51127D01*
X170424D01*
Y51168D01*
X170466D01*
Y51210D01*
X170508D01*
Y51252D01*
X170550D01*
Y51294D01*
X170591D01*
Y51336D01*
X170633D01*
Y51378D01*
X170675D01*
Y51420D01*
X170717D01*
Y51461D01*
X170759D01*
Y51503D01*
X170801D01*
Y51545D01*
X170842D01*
Y51629D01*
X170884D01*
Y51671D01*
X170926D01*
Y51712D01*
X170968D01*
Y51754D01*
X171010D01*
Y51796D01*
X171052D01*
Y51838D01*
X171094D01*
Y51880D01*
X171136D01*
Y51964D01*
X171177D01*
Y52006D01*
X171219D01*
Y52047D01*
X171261D01*
Y52089D01*
X171303D01*
Y52131D01*
X171345D01*
Y52215D01*
X171387D01*
Y52257D01*
X171428D01*
Y52298D01*
X171470D01*
Y52340D01*
X171512D01*
Y52424D01*
X171554D01*
Y52466D01*
X171596D01*
Y52508D01*
X171638D01*
Y52591D01*
X171679D01*
Y52633D01*
X171721D01*
Y52717D01*
X171763D01*
Y52759D01*
X171805D01*
Y52801D01*
X171847D01*
Y52884D01*
X171889D01*
Y52926D01*
X171931D01*
Y53010D01*
X171973D01*
Y53052D01*
X172014D01*
Y53135D01*
X172056D01*
Y53219D01*
X172098D01*
Y53261D01*
X172140D01*
Y53345D01*
X172182D01*
Y53387D01*
X172224D01*
Y53470D01*
X172265D01*
Y53554D01*
X172307D01*
Y53638D01*
X172349D01*
Y53679D01*
X172391D01*
Y53763D01*
X172433D01*
Y53847D01*
X172475D01*
Y53931D01*
X172516D01*
Y54014D01*
X172558D01*
Y54098D01*
X172600D01*
Y54182D01*
X172642D01*
Y54265D01*
X172684D01*
Y54349D01*
X172726D01*
Y54433D01*
X172768D01*
Y54517D01*
X172810D01*
Y54600D01*
X172851D01*
Y54684D01*
X172893D01*
Y54768D01*
X172935D01*
Y54893D01*
X172977D01*
Y54977D01*
X173019D01*
Y55102D01*
X173061D01*
Y55186D01*
X173102D01*
Y55312D01*
X173144D01*
Y55395D01*
X173186D01*
Y55521D01*
X173228D01*
Y55647D01*
X173270D01*
Y55772D01*
X173312D01*
Y55898D01*
X173354D01*
Y56023D01*
X173395D01*
Y56191D01*
X173437D01*
Y56316D01*
X173479D01*
Y56483D01*
X173521D01*
Y56651D01*
X173563D01*
Y56818D01*
X173605D01*
Y57028D01*
X173647D01*
Y57237D01*
X173688D01*
Y57446D01*
X173730D01*
Y57697D01*
X173772D01*
Y57990D01*
X173814D01*
Y58367D01*
X173856D01*
Y58911D01*
X173898D01*
Y60417D01*
X173856D01*
Y60961D01*
X173814D01*
Y61338D01*
X173772D01*
Y61631D01*
X173730D01*
Y61882D01*
X173688D01*
Y62133D01*
X173647D01*
Y62343D01*
X173605D01*
Y62510D01*
X173563D01*
Y62719D01*
X173521D01*
Y62887D01*
X173479D01*
Y63012D01*
X173437D01*
Y63179D01*
X173395D01*
Y63347D01*
X173354D01*
Y63472D01*
X173312D01*
Y63598D01*
X173270D01*
Y63724D01*
X173228D01*
Y63849D01*
X173186D01*
Y63975D01*
X173144D01*
Y64100D01*
X173102D01*
Y64184D01*
X173061D01*
Y64310D01*
X173019D01*
Y64393D01*
X172977D01*
Y64519D01*
X172935D01*
Y64602D01*
X172893D01*
Y64728D01*
X172851D01*
Y64812D01*
X172810D01*
Y64895D01*
X172768D01*
Y64979D01*
X172726D01*
Y65063D01*
X172684D01*
Y65146D01*
X172642D01*
Y65230D01*
X172600D01*
Y65314D01*
X172558D01*
Y65398D01*
X172516D01*
Y65481D01*
X172475D01*
Y65565D01*
X172433D01*
Y65649D01*
X172391D01*
Y65732D01*
X172349D01*
Y65816D01*
X172307D01*
Y65900D01*
X172265D01*
Y65942D01*
X172224D01*
Y66025D01*
X172182D01*
Y66109D01*
X172140D01*
Y66151D01*
X172098D01*
Y66235D01*
X172056D01*
Y66318D01*
X172014D01*
Y66360D01*
X171973D01*
Y66444D01*
X171931D01*
Y66486D01*
X171889D01*
Y66569D01*
X171847D01*
Y66611D01*
X171805D01*
Y66695D01*
X171763D01*
Y66737D01*
X171721D01*
Y66821D01*
X171679D01*
Y66862D01*
X171638D01*
Y66904D01*
X171596D01*
Y66988D01*
X171554D01*
Y67030D01*
X171512D01*
Y67113D01*
X171470D01*
Y67155D01*
X171428D01*
Y67197D01*
X171387D01*
Y67281D01*
X171345D01*
Y67323D01*
X171303D01*
Y67365D01*
X171261D01*
Y67406D01*
X171219D01*
Y67490D01*
X171177D01*
Y67532D01*
X171136D01*
Y67574D01*
X171094D01*
Y67616D01*
X171052D01*
Y67657D01*
X171010D01*
Y67741D01*
X170968D01*
Y67783D01*
X170926D01*
Y67825D01*
X170884D01*
Y67867D01*
X170842D01*
Y67909D01*
X170801D01*
Y67950D01*
X170759D01*
Y67992D01*
X170717D01*
Y68034D01*
X170675D01*
Y68076D01*
X170633D01*
Y68160D01*
X170591D01*
Y68201D01*
X170550D01*
Y68243D01*
X170508D01*
Y68285D01*
X170466D01*
Y68327D01*
X170424D01*
Y68369D01*
X170382D01*
Y68411D01*
X170340D01*
Y68453D01*
X170299D01*
Y68495D01*
X170257D01*
Y68536D01*
X170215D01*
Y68578D01*
X170131D01*
Y68620D01*
X170089D01*
Y68662D01*
X170047D01*
Y68704D01*
X170005D01*
Y68746D01*
X169964D01*
Y68787D01*
X169922D01*
Y68829D01*
X169880D01*
Y68871D01*
X169838D01*
Y68913D01*
X169796D01*
Y68955D01*
X169713D01*
Y68997D01*
X169671D01*
Y69039D01*
X169629D01*
Y69080D01*
X169587D01*
Y69122D01*
X169545D01*
Y69164D01*
X169461D01*
Y69206D01*
X169420D01*
Y69248D01*
X169378D01*
Y69290D01*
X169294D01*
Y69331D01*
X169252D01*
Y69373D01*
X169210D01*
Y69415D01*
X169168D01*
Y69457D01*
X169085D01*
Y69499D01*
X169043D01*
Y69541D01*
X168959D01*
Y69583D01*
X168917D01*
Y69624D01*
X168876D01*
Y69666D01*
X168792D01*
Y69708D01*
X168750D01*
Y69750D01*
X168666D01*
Y69792D01*
X168624D01*
Y69834D01*
X168541D01*
Y69876D01*
X168499D01*
Y69917D01*
X168415D01*
Y69959D01*
X168332D01*
Y70001D01*
X168290D01*
Y70043D01*
X168206D01*
Y70085D01*
X168122D01*
Y70127D01*
X168080D01*
Y70168D01*
X167997D01*
Y70210D01*
X167913D01*
Y70252D01*
X167829D01*
Y70294D01*
X167746D01*
Y70336D01*
X167704D01*
Y70378D01*
X167620D01*
Y70420D01*
X167536D01*
Y70462D01*
X167453D01*
Y70503D01*
X167369D01*
Y70545D01*
X167285D01*
Y70587D01*
X167201D01*
Y70629D01*
X167076D01*
Y70671D01*
X166992D01*
Y70712D01*
X166909D01*
Y70754D01*
X166825D01*
Y70796D01*
X166699D01*
Y70838D01*
X166616D01*
Y70880D01*
X166490D01*
Y70922D01*
X166406D01*
Y70964D01*
X166281D01*
Y71006D01*
X166155D01*
Y71047D01*
X166030D01*
Y71089D01*
X165904D01*
Y71131D01*
X165779D01*
Y71173D01*
X165653D01*
Y71215D01*
X165486D01*
Y71257D01*
X165360D01*
Y71298D01*
X165193D01*
Y71340D01*
X165025D01*
Y71382D01*
X164816D01*
Y71424D01*
X164649D01*
Y71466D01*
X164439D01*
Y71508D01*
X164188D01*
Y71550D01*
X163895D01*
Y71591D01*
X163561D01*
Y71633D01*
X163058D01*
Y71675D01*
X161343D01*
Y71633D01*
X160840D01*
Y71591D01*
X160464D01*
Y71550D01*
X160129D01*
Y71508D01*
X159878D01*
Y71466D01*
X159669D01*
Y71424D01*
X159459D01*
Y71382D01*
X159250D01*
Y71340D01*
X159083D01*
Y71298D01*
X158915D01*
Y71257D01*
X158748D01*
Y71215D01*
X158622D01*
Y71173D01*
X158455D01*
Y71131D01*
X158329D01*
Y71089D01*
X158204D01*
Y71047D01*
X158078D01*
Y71006D01*
X157953D01*
Y70964D01*
X157827D01*
Y70922D01*
X157743D01*
Y70880D01*
X157618D01*
Y70838D01*
X157534D01*
Y70796D01*
X157409D01*
Y70754D01*
X157325D01*
Y70712D01*
X157241D01*
Y70671D01*
X157116D01*
Y70629D01*
X157032D01*
Y70587D01*
X156948D01*
Y70545D01*
X156865D01*
Y70503D01*
X156781D01*
Y70462D01*
X156697D01*
Y70420D01*
X156613D01*
Y70378D01*
X156530D01*
Y70336D01*
X156446D01*
Y70294D01*
X156362D01*
Y70252D01*
X156320D01*
Y70210D01*
X156237D01*
Y70168D01*
X156153D01*
Y70127D01*
X156111D01*
Y70085D01*
X156027D01*
Y70043D01*
X155944D01*
Y70001D01*
X155902D01*
Y69959D01*
X155818D01*
Y69917D01*
X155776D01*
Y69876D01*
X155693D01*
Y69834D01*
X155609D01*
Y69792D01*
X155567D01*
Y69750D01*
X155525D01*
Y69708D01*
X155442D01*
Y69666D01*
X155400D01*
Y69624D01*
X155316D01*
Y69583D01*
X155274D01*
Y69541D01*
X155232D01*
Y69499D01*
X155149D01*
Y69457D01*
X155107D01*
Y69415D01*
X155065D01*
Y69373D01*
X154981D01*
Y69331D01*
X154939D01*
Y69290D01*
X154898D01*
Y69248D01*
X154856D01*
Y69206D01*
X154772D01*
Y69164D01*
X154730D01*
Y69122D01*
X154688D01*
Y69080D01*
X154647D01*
Y69039D01*
X154605D01*
Y68997D01*
X154563D01*
Y68955D01*
X154479D01*
Y68913D01*
X154437D01*
Y68871D01*
X154395D01*
Y68829D01*
X154354D01*
Y68787D01*
X154312D01*
Y68746D01*
X154270D01*
Y68704D01*
X154228D01*
Y68662D01*
X154186D01*
Y68620D01*
X154144D01*
Y68578D01*
X154102D01*
Y68536D01*
X154061D01*
Y68495D01*
X154019D01*
Y68453D01*
X153977D01*
Y68411D01*
X153935D01*
Y68369D01*
X153893D01*
Y68327D01*
X153851D01*
Y68285D01*
X153809D01*
Y68243D01*
X153768D01*
Y68201D01*
X153726D01*
Y68160D01*
X153684D01*
Y68118D01*
X153642D01*
Y68076D01*
X153600D01*
Y67992D01*
X153558D01*
Y67950D01*
X153517D01*
Y67909D01*
X153475D01*
Y67867D01*
X153433D01*
Y67825D01*
X153391D01*
Y67783D01*
X153349D01*
Y67699D01*
X153307D01*
Y67657D01*
X153265D01*
Y67616D01*
X153224D01*
Y67574D01*
X153182D01*
Y67490D01*
X153140D01*
Y67448D01*
X153098D01*
Y67406D01*
X153056D01*
Y67365D01*
X153014D01*
Y67281D01*
X152972D01*
Y67239D01*
X152931D01*
Y67197D01*
X152889D01*
Y67113D01*
X152847D01*
Y67072D01*
X152805D01*
Y66988D01*
X152763D01*
Y66946D01*
X152721D01*
Y66904D01*
X152680D01*
Y66821D01*
X152638D01*
Y66779D01*
X152596D01*
Y66695D01*
X152554D01*
Y66653D01*
X152512D01*
Y66569D01*
X152470D01*
Y66528D01*
X152428D01*
Y66444D01*
X152387D01*
Y66360D01*
X152345D01*
Y66318D01*
X152303D01*
Y66235D01*
X152261D01*
Y66193D01*
X152219D01*
Y66109D01*
X152177D01*
Y66025D01*
X152135D01*
Y65942D01*
X152094D01*
Y65900D01*
X152052D01*
Y65816D01*
X152010D01*
Y65732D01*
X151968D01*
Y65649D01*
X151926D01*
Y65607D01*
X151884D01*
Y65523D01*
X151842D01*
Y65439D01*
X151801D01*
Y65356D01*
X151759D01*
Y65272D01*
X151717D01*
Y65188D01*
X151675D01*
Y65105D01*
X151633D01*
Y65021D01*
X151591D01*
Y64937D01*
X151550D01*
Y64854D01*
X151508D01*
Y64770D01*
X151466D01*
Y64728D01*
X151382D01*
Y64770D01*
X151299D01*
Y64812D01*
X151215D01*
Y64854D01*
X151089D01*
Y64895D01*
X151005D01*
Y64937D01*
X150922D01*
Y64979D01*
X150838D01*
Y65021D01*
X150754D01*
Y65063D01*
X150671D01*
Y65105D01*
X150545D01*
Y65146D01*
X150461D01*
Y65188D01*
X150378D01*
Y65230D01*
X150294D01*
Y65272D01*
X150210D01*
Y65314D01*
X150127D01*
Y65356D01*
X150043D01*
Y65398D01*
X149917D01*
Y65439D01*
X149834D01*
Y65481D01*
X149750D01*
Y65523D01*
X149666D01*
Y65565D01*
X149583D01*
Y65607D01*
X149499D01*
Y65649D01*
X149373D01*
Y65690D01*
X149290D01*
Y65732D01*
X149206D01*
Y65774D01*
X149122D01*
Y65816D01*
X149038D01*
Y65858D01*
X148955D01*
Y65900D01*
X148829D01*
Y65942D01*
X148746D01*
Y65984D01*
X148662D01*
Y66025D01*
X148578D01*
Y66067D01*
X148495D01*
Y66109D01*
X148411D01*
Y66151D01*
X148285D01*
Y66193D01*
X148202D01*
Y66235D01*
X148118D01*
Y66276D01*
X148034D01*
Y66318D01*
X147950D01*
Y66360D01*
X147867D01*
Y66402D01*
X147741D01*
Y66444D01*
X147657D01*
Y66486D01*
X147574D01*
Y66528D01*
X147490D01*
Y66569D01*
X147406D01*
Y66611D01*
X147323D01*
Y66653D01*
X147197D01*
Y66695D01*
X147113D01*
Y66737D01*
X147030D01*
Y66779D01*
X146946D01*
Y66821D01*
X146862D01*
Y66862D01*
X146779D01*
Y66946D01*
X146820D01*
Y67030D01*
X146862D01*
Y67155D01*
X146904D01*
Y67239D01*
X146946D01*
Y67323D01*
X146988D01*
Y67406D01*
X147030D01*
Y67490D01*
X147072D01*
Y67574D01*
X147113D01*
Y67657D01*
X147155D01*
Y67741D01*
X147197D01*
Y67825D01*
X147239D01*
Y67867D01*
X147281D01*
Y67950D01*
X147323D01*
Y68034D01*
X147365D01*
Y68118D01*
X147406D01*
Y68201D01*
X147448D01*
Y68285D01*
X147490D01*
Y68327D01*
X147532D01*
Y68411D01*
X147574D01*
Y68495D01*
X147616D01*
Y68578D01*
X147657D01*
Y68620D01*
X147699D01*
Y68704D01*
X147741D01*
Y68787D01*
X147783D01*
Y68829D01*
X147825D01*
Y68913D01*
X147867D01*
Y68955D01*
X147909D01*
Y69039D01*
X147950D01*
Y69122D01*
X147992D01*
Y69164D01*
X148034D01*
Y69248D01*
X148076D01*
Y69290D01*
X148118D01*
Y69373D01*
X148160D01*
Y69415D01*
X148202D01*
Y69499D01*
X148243D01*
Y69541D01*
X148285D01*
Y69624D01*
X148327D01*
Y69666D01*
X148369D01*
Y69750D01*
X148411D01*
Y69792D01*
X148453D01*
Y69876D01*
X148495D01*
Y69917D01*
X148536D01*
Y69959D01*
X148578D01*
Y70043D01*
X148620D01*
Y70085D01*
X148662D01*
Y70127D01*
X148704D01*
Y70210D01*
X148746D01*
Y70252D01*
X148787D01*
Y70294D01*
X148829D01*
Y70378D01*
X148871D01*
Y70420D01*
X148913D01*
Y70462D01*
X148955D01*
Y70545D01*
X148997D01*
Y70587D01*
X149038D01*
Y70629D01*
X149080D01*
Y70671D01*
X149122D01*
Y70754D01*
X149164D01*
Y70796D01*
X149206D01*
Y70838D01*
X149248D01*
Y70880D01*
X149290D01*
Y70922D01*
X149332D01*
Y71006D01*
X149373D01*
Y71047D01*
X149415D01*
Y71089D01*
X149457D01*
Y71131D01*
X149499D01*
Y71173D01*
X149541D01*
Y71215D01*
X149583D01*
Y71298D01*
X149624D01*
Y71340D01*
X149666D01*
Y71382D01*
X149708D01*
Y71424D01*
X149750D01*
Y71466D01*
X149792D01*
Y71508D01*
X149834D01*
Y71550D01*
X149875D01*
Y71591D01*
X149917D01*
Y71633D01*
X149959D01*
Y71675D01*
X150001D01*
Y71717D01*
X150043D01*
Y71759D01*
X150085D01*
Y71801D01*
X150127D01*
Y71842D01*
X150169D01*
Y71884D01*
X150210D01*
Y71926D01*
X150252D01*
Y71968D01*
X150294D01*
Y72010D01*
X150336D01*
Y72052D01*
X150378D01*
Y72094D01*
X150420D01*
Y72136D01*
X150461D01*
Y72177D01*
X150503D01*
Y72219D01*
X150545D01*
Y72261D01*
X150587D01*
Y72303D01*
X150629D01*
Y72345D01*
X150671D01*
Y72387D01*
X150713D01*
Y72428D01*
X150754D01*
Y72470D01*
X150796D01*
Y72512D01*
X150838D01*
Y72554D01*
X150880D01*
Y72596D01*
X150964D01*
Y72638D01*
X151005D01*
Y72680D01*
X151047D01*
Y72721D01*
X151089D01*
Y72763D01*
X151131D01*
Y72805D01*
X151173D01*
Y72847D01*
X151215D01*
Y72889D01*
X151299D01*
Y72931D01*
X151340D01*
Y72972D01*
X151382D01*
Y73014D01*
X151424D01*
Y73056D01*
X151508D01*
Y73098D01*
X151550D01*
Y73140D01*
X151591D01*
Y73182D01*
X151633D01*
Y73224D01*
X151717D01*
Y73265D01*
X151759D01*
Y73307D01*
X151801D01*
Y73349D01*
X151842D01*
Y73391D01*
X151926D01*
Y73433D01*
X151968D01*
Y73475D01*
X152052D01*
Y73517D01*
X152094D01*
Y73558D01*
X152135D01*
Y73600D01*
X152219D01*
Y73642D01*
X152261D01*
Y73684D01*
X152303D01*
Y73726D01*
X152387D01*
Y73768D01*
X152428D01*
Y73809D01*
X152512D01*
Y73851D01*
X152554D01*
Y73893D01*
X152638D01*
Y73935D01*
X152680D01*
Y73977D01*
X152763D01*
Y74019D01*
X152805D01*
Y74061D01*
X152889D01*
Y74102D01*
X152972D01*
Y74144D01*
X153014D01*
Y74186D01*
X153098D01*
Y74228D01*
X153140D01*
Y74270D01*
X153224D01*
Y74312D01*
X153307D01*
Y74353D01*
X153349D01*
Y74395D01*
X153433D01*
Y74437D01*
X153517D01*
Y74479D01*
X153600D01*
Y74521D01*
X153684D01*
Y74563D01*
X153726D01*
Y74605D01*
X153809D01*
Y74647D01*
X153893D01*
Y74688D01*
X153977D01*
Y74730D01*
X154061D01*
Y74772D01*
X154144D01*
Y74814D01*
X154228D01*
Y74856D01*
X154312D01*
Y74898D01*
X154395D01*
Y74939D01*
X154479D01*
Y74981D01*
X154563D01*
Y75023D01*
X154647D01*
Y75065D01*
X154730D01*
Y75107D01*
X154856D01*
Y75149D01*
X154939D01*
Y75191D01*
X155023D01*
Y75232D01*
X155107D01*
Y75274D01*
X155232D01*
Y75316D01*
X155316D01*
Y75358D01*
X155442D01*
Y75400D01*
X155525D01*
Y75442D01*
X155651D01*
Y75483D01*
X155735D01*
Y75525D01*
X155860D01*
Y75567D01*
X155986D01*
Y75609D01*
X156111D01*
Y75651D01*
X156237D01*
Y75693D01*
X156362D01*
Y75735D01*
X156488D01*
Y75776D01*
X156613D01*
Y75818D01*
X156739D01*
Y75860D01*
X156865D01*
Y75902D01*
X157032D01*
Y75944D01*
X157157D01*
Y75986D01*
X157325D01*
Y76027D01*
X157492D01*
Y76069D01*
X157660D01*
Y76111D01*
X157827D01*
Y76153D01*
X157994D01*
Y76195D01*
X158204D01*
Y76237D01*
X158413D01*
Y76279D01*
X158622D01*
Y76321D01*
X158832D01*
Y76362D01*
X159083D01*
Y76404D01*
X159375D01*
Y76446D01*
X159669D01*
Y76488D01*
X160045D01*
Y76530D01*
X160464D01*
Y76572D01*
X161049D01*
Y76613D01*
X163351D01*
Y76572D01*
D02*
G37*
G36*
X216334Y71215D02*
Y71173D01*
Y70462D01*
X203402D01*
Y49285D01*
X216334D01*
Y44305D01*
X185197D01*
Y49285D01*
X198129D01*
Y70462D01*
X185197D01*
Y75442D01*
X216334D01*
Y71215D01*
D02*
G37*
G36*
X122787Y55546D02*
X122946D01*
Y55466D01*
X123106D01*
Y55387D01*
X123265D01*
Y55307D01*
X123425D01*
Y55227D01*
X123585D01*
Y55147D01*
X123744D01*
Y55068D01*
X123904D01*
Y54988D01*
X124064D01*
Y54908D01*
X124223D01*
Y54828D01*
X124383D01*
Y54748D01*
X124543D01*
Y54668D01*
X124702D01*
Y54589D01*
X124862D01*
Y54509D01*
X125021D01*
Y54429D01*
X125181D01*
Y54349D01*
X125341D01*
Y54269D01*
X125500D01*
Y54190D01*
X125660D01*
Y54110D01*
X125820D01*
Y54030D01*
X125979D01*
Y53950D01*
X126139D01*
Y53870D01*
X126299D01*
Y53790D01*
X126458D01*
Y53711D01*
X126618D01*
Y53631D01*
X126777D01*
Y53551D01*
X126937D01*
Y53471D01*
X127097D01*
Y53391D01*
X127256D01*
Y53312D01*
X127416D01*
Y53232D01*
X127576D01*
Y53152D01*
X127735D01*
Y53072D01*
X127895D01*
Y52992D01*
X128054D01*
Y52912D01*
X128214D01*
Y52833D01*
X128374D01*
Y52753D01*
X128533D01*
Y52673D01*
X128693D01*
Y52593D01*
X128853D01*
Y52513D01*
X129012D01*
Y52434D01*
X129172D01*
Y52354D01*
X129331D01*
Y52274D01*
X129491D01*
Y52194D01*
X129571D01*
Y52354D01*
X129651D01*
Y52513D01*
X129731D01*
Y52753D01*
X129810D01*
Y52912D01*
X129890D01*
Y53072D01*
X129970D01*
Y53152D01*
X130050D01*
Y53312D01*
X130129D01*
Y53391D01*
X130209D01*
Y53551D01*
X130289D01*
Y53631D01*
X130369D01*
Y53711D01*
X130449D01*
Y53870D01*
X130529D01*
Y53950D01*
X130608D01*
Y54030D01*
X130688D01*
Y54110D01*
X130768D01*
Y54190D01*
X130848D01*
Y54269D01*
X130928D01*
Y54349D01*
X131007D01*
Y54429D01*
X131167D01*
Y54509D01*
X131247D01*
Y54589D01*
X131327D01*
Y54668D01*
X131487D01*
Y54748D01*
X131566D01*
Y54828D01*
X131726D01*
Y54908D01*
X131885D01*
Y54988D01*
X132045D01*
Y55068D01*
X132205D01*
Y55147D01*
X132364D01*
Y55227D01*
X132604D01*
Y55307D01*
X132843D01*
Y55387D01*
X133162D01*
Y55466D01*
X133721D01*
Y55546D01*
X134998D01*
Y55466D01*
X135557D01*
Y55387D01*
X135876D01*
Y55307D01*
X136116D01*
Y55227D01*
X136355D01*
Y55147D01*
X136595D01*
Y55068D01*
X136754D01*
Y54988D01*
X136914D01*
Y54908D01*
X137073D01*
Y54828D01*
X137233D01*
Y54748D01*
X137313D01*
Y54668D01*
X137472D01*
Y54589D01*
X137552D01*
Y54509D01*
X137632D01*
Y54429D01*
X137792D01*
Y54349D01*
X137872D01*
Y54269D01*
X137951D01*
Y54190D01*
X138031D01*
Y54110D01*
X138111D01*
Y54030D01*
X138191D01*
Y53950D01*
X138271D01*
Y53870D01*
X138351D01*
Y53790D01*
X138430D01*
Y53711D01*
X138510D01*
Y53551D01*
X138590D01*
Y53471D01*
X138670D01*
Y53391D01*
X138750D01*
Y53232D01*
X138829D01*
Y53152D01*
X138909D01*
Y52992D01*
X138989D01*
Y52833D01*
X139069D01*
Y52673D01*
X139149D01*
Y52513D01*
X139228D01*
Y52274D01*
X139308D01*
Y52114D01*
X139388D01*
Y51795D01*
X139468D01*
Y51556D01*
X139548D01*
Y51157D01*
X139628D01*
Y50438D01*
X139707D01*
Y43335D01*
X139628D01*
Y43255D01*
X122707D01*
Y47086D01*
X129012D01*
Y48443D01*
X128853D01*
Y48523D01*
X128693D01*
Y48602D01*
X128533D01*
Y48682D01*
X128374D01*
Y48762D01*
X128134D01*
Y48842D01*
X127975D01*
Y48922D01*
X127815D01*
Y49001D01*
X127655D01*
Y49081D01*
X127496D01*
Y49161D01*
X127336D01*
Y49241D01*
X127176D01*
Y49321D01*
X127017D01*
Y49401D01*
X126857D01*
Y49480D01*
X126698D01*
Y49560D01*
X126538D01*
Y49640D01*
X126378D01*
Y49720D01*
X126139D01*
Y49800D01*
X125979D01*
Y49879D01*
X125820D01*
Y49959D01*
X125660D01*
Y50039D01*
X125500D01*
Y50119D01*
X125341D01*
Y50199D01*
X125181D01*
Y50279D01*
X125021D01*
Y50358D01*
X124862D01*
Y50438D01*
X124702D01*
Y50518D01*
X124543D01*
Y50598D01*
X124383D01*
Y50678D01*
X124223D01*
Y50757D01*
X123984D01*
Y50837D01*
X123824D01*
Y50917D01*
X123665D01*
Y50997D01*
X123505D01*
Y51077D01*
X123345D01*
Y51157D01*
X123186D01*
Y51236D01*
X123026D01*
Y51316D01*
X122866D01*
Y51396D01*
X122707D01*
Y55626D01*
X122787D01*
Y55546D01*
D02*
G37*
%LPC*%
G36*
X128072Y111600D02*
X126523D01*
Y111558D01*
X126272D01*
Y111517D01*
X126105D01*
Y111475D01*
X125937D01*
Y111433D01*
X125854D01*
Y111391D01*
X125770D01*
Y111349D01*
X125644D01*
Y111307D01*
X125602D01*
Y111265D01*
X125519D01*
Y111224D01*
X125435D01*
Y111182D01*
X125393D01*
Y111140D01*
X125309D01*
Y111098D01*
X125268D01*
Y111056D01*
X125226D01*
Y111014D01*
X125184D01*
Y110972D01*
X125142D01*
Y110931D01*
X125100D01*
Y110889D01*
X125058D01*
Y110847D01*
X125016D01*
Y110805D01*
X124975D01*
Y110763D01*
X124933D01*
Y110680D01*
X124891D01*
Y110638D01*
X124849D01*
Y110596D01*
X124807D01*
Y110512D01*
X124765D01*
Y110428D01*
X124724D01*
Y110345D01*
X124682D01*
Y110261D01*
X124640D01*
Y110177D01*
X124598D01*
Y110052D01*
X124556D01*
Y109884D01*
X124514D01*
Y109717D01*
X124472D01*
Y109424D01*
X124431D01*
Y108629D01*
X124472D01*
Y108336D01*
X124514D01*
Y108168D01*
X124556D01*
Y108001D01*
X124598D01*
Y107876D01*
X124640D01*
Y107792D01*
X124682D01*
Y107708D01*
X124724D01*
Y107625D01*
X124765D01*
Y107541D01*
X124807D01*
Y107457D01*
X124849D01*
Y107415D01*
X124891D01*
Y107331D01*
X124933D01*
Y107290D01*
X124975D01*
Y107248D01*
X125016D01*
Y107206D01*
X125058D01*
Y107164D01*
X125100D01*
Y107122D01*
X125142D01*
Y107080D01*
X125184D01*
Y107039D01*
X125226D01*
Y106997D01*
X125268D01*
Y106955D01*
X125309D01*
Y106913D01*
X125393D01*
Y106871D01*
X125435D01*
Y106829D01*
X125519D01*
Y106788D01*
X125602D01*
Y106746D01*
X125686D01*
Y106704D01*
X125770D01*
Y106662D01*
X125854D01*
Y106620D01*
X125979D01*
Y106578D01*
X126105D01*
Y106536D01*
X126314D01*
Y106495D01*
X126607D01*
Y106453D01*
X128072D01*
Y111600D01*
D02*
G37*
G36*
X131965Y83083D02*
X130369D01*
Y83003D01*
X129810D01*
Y82923D01*
X129491D01*
Y82843D01*
X129252D01*
Y82763D01*
X129012D01*
Y82683D01*
X128773D01*
Y82604D01*
X128613D01*
Y82524D01*
X128453D01*
Y82444D01*
X128374D01*
Y82364D01*
X128214D01*
Y82284D01*
X128054D01*
Y82205D01*
X127975D01*
Y82125D01*
X127895D01*
Y82045D01*
X127735D01*
Y81965D01*
X127655D01*
Y81885D01*
X127576D01*
Y81806D01*
X127496D01*
Y81726D01*
X127416D01*
Y81646D01*
X127336D01*
Y81486D01*
X127256D01*
Y81406D01*
X127176D01*
Y81327D01*
X127097D01*
Y81167D01*
X127017D01*
Y81087D01*
X126937D01*
Y80928D01*
X126857D01*
Y80768D01*
X126777D01*
Y80608D01*
X126698D01*
Y80449D01*
X126618D01*
Y80209D01*
X126538D01*
Y79970D01*
X126458D01*
Y79730D01*
X126378D01*
Y79251D01*
X126299D01*
Y76139D01*
X136116D01*
Y78533D01*
X136036D01*
Y79411D01*
X135956D01*
Y79810D01*
X135876D01*
Y80050D01*
X135796D01*
Y80289D01*
X135717D01*
Y80528D01*
X135637D01*
Y80688D01*
X135557D01*
Y80848D01*
X135477D01*
Y80928D01*
X135397D01*
Y81087D01*
X135317D01*
Y81247D01*
X135238D01*
Y81327D01*
X135158D01*
Y81406D01*
X135078D01*
Y81566D01*
X134998D01*
Y81646D01*
X134918D01*
Y81726D01*
X134839D01*
Y81806D01*
X134759D01*
Y81885D01*
X134679D01*
Y81965D01*
X134599D01*
Y82045D01*
X134440D01*
Y82125D01*
X134360D01*
Y82205D01*
X134280D01*
Y82284D01*
X134120D01*
Y82364D01*
X134040D01*
Y82444D01*
X133881D01*
Y82524D01*
X133721D01*
Y82604D01*
X133562D01*
Y82683D01*
X133322D01*
Y82763D01*
X133083D01*
Y82843D01*
X132843D01*
Y82923D01*
X132524D01*
Y83003D01*
X131965D01*
Y83083D01*
D02*
G37*
G36*
X134998Y51635D02*
X133721D01*
Y51556D01*
X133482D01*
Y51476D01*
X133322D01*
Y51396D01*
X133162D01*
Y51316D01*
X133083D01*
Y51236D01*
X133003D01*
Y51157D01*
X132923D01*
Y51077D01*
X132843D01*
Y50997D01*
X132763D01*
Y50917D01*
X132684D01*
Y50757D01*
X132604D01*
Y50598D01*
X132524D01*
Y50438D01*
X132444D01*
Y50199D01*
X132364D01*
Y49879D01*
X132285D01*
Y47086D01*
X136355D01*
Y49959D01*
X136275D01*
Y50279D01*
X136195D01*
Y50518D01*
X136116D01*
Y50678D01*
X136036D01*
Y50837D01*
X135956D01*
Y50917D01*
X135876D01*
Y51077D01*
X135796D01*
Y51157D01*
X135717D01*
Y51236D01*
X135637D01*
Y51316D01*
X135477D01*
Y51396D01*
X135397D01*
Y51476D01*
X135238D01*
Y51556D01*
X134998D01*
Y51635D01*
D02*
G37*
%LPD*%
D10*
X165750Y137250D02*
X177250D01*
X165750Y120000D02*
Y137250D01*
Y120000D02*
X177250D01*
Y137250D01*
D13*
X11290Y268368D02*
Y270908D01*
X13829Y273447D01*
X26525D01*
Y265829D01*
X23986Y263290D01*
X18908D01*
X16368Y265829D01*
Y273447D01*
Y278525D02*
Y283603D01*
Y281064D01*
X26525D01*
Y278525D01*
X29064Y293760D02*
X26525D01*
Y291221D01*
Y296299D01*
Y293760D01*
X18908D01*
X16368Y296299D01*
X31603Y303917D02*
X16368D01*
X23986D01*
X26525Y306456D01*
Y311534D01*
X23986Y314074D01*
X16368D01*
X26525Y319152D02*
X18908D01*
X16368Y321691D01*
Y329309D01*
X26525D01*
X31603Y334387D02*
X16368D01*
Y342005D01*
X18908Y344544D01*
X21447D01*
X23986D01*
X26525Y342005D01*
Y334387D01*
X16368Y349622D02*
X18908D01*
Y352161D01*
X16368D01*
Y349622D01*
X26525Y372475D02*
Y364857D01*
X23986Y362318D01*
X18908D01*
X16368Y364857D01*
Y372475D01*
Y380092D02*
Y385171D01*
X18908Y387710D01*
X23986D01*
X26525Y385171D01*
Y380092D01*
X23986Y377553D01*
X18908D01*
X16368Y380092D01*
Y392788D02*
X26525D01*
Y395327D01*
X23986Y397867D01*
X16368D01*
X23986D01*
X26525Y400406D01*
X23986Y402945D01*
X16368D01*
Y408023D02*
X26525Y418180D01*
Y423258D02*
X16368D01*
X21447D01*
X23986Y425797D01*
X26525Y428337D01*
Y430876D01*
X16368Y438493D02*
Y443572D01*
Y441032D01*
X26525D01*
Y438493D01*
Y461346D02*
Y453728D01*
X23986Y451189D01*
X18908D01*
X16368Y453728D01*
Y461346D01*
Y466424D02*
X31603D01*
X21447D02*
X26525Y474042D01*
X21447Y466424D02*
X16368Y474042D01*
X23986Y481659D02*
Y491816D01*
X31603Y496894D02*
X16368D01*
X23986D01*
X26525Y499434D01*
Y504512D01*
X23986Y507051D01*
X16368D01*
Y519747D02*
Y514669D01*
X18908Y512130D01*
X23986D01*
X26525Y514669D01*
Y519747D01*
X23986Y522286D01*
X21447D01*
Y512130D01*
X16368Y527365D02*
Y532443D01*
Y529904D01*
X26525D01*
Y527365D01*
X11290Y545139D02*
Y547678D01*
X13829Y550217D01*
X26525D01*
Y542600D01*
X23986Y540061D01*
X18908D01*
X16368Y542600D01*
Y550217D01*
Y555295D02*
X26525Y565452D01*
X16368Y570531D02*
X26525D01*
Y578148D01*
X23986Y580687D01*
X16368D01*
X26525Y585766D02*
X16368Y590844D01*
X26525Y595922D01*
X16368Y601001D02*
X26525D01*
Y603540D01*
X23986Y606079D01*
X16368D01*
X23986D01*
X26525Y608618D01*
X23986Y611157D01*
X16368D01*
Y623853D02*
Y618775D01*
X18908Y616236D01*
X23986D01*
X26525Y618775D01*
Y623853D01*
X23986Y626393D01*
X21447D01*
Y616236D01*
X13829Y631471D02*
Y641628D01*
X26525Y656863D02*
Y649245D01*
X23986Y646706D01*
X18908D01*
X16368Y649245D01*
Y656863D01*
Y661941D02*
Y669559D01*
X18908Y672098D01*
X21447Y669559D01*
Y664480D01*
X23986Y661941D01*
X26525Y664480D01*
Y672098D01*
X31603Y687333D02*
X16368D01*
Y679715D01*
X18908Y677176D01*
X23986D01*
X26525Y679715D01*
Y687333D01*
M02*
