G04*
G04 #@! TF.GenerationSoftware,Altium Limited,Altium Designer,24.5.2 (23)*
G04*
G04 Layer_Color=16711935*
%FSLAX44Y44*%
%MOMM*%
G71*
G04*
G04 #@! TF.SameCoordinates,6FC596C0-74E6-4E27-895D-4E0FE7D6B679*
G04*
G04*
G04 #@! TF.FilePolarity,Positive*
G04*
G01*
G75*
%ADD12C,0.2000*%
D12*
X180000Y707000D02*
G03*
X175001Y711998I-4999J0D01*
G01*
X44999D02*
G03*
X40000Y707000I0J-4999D01*
G01*
Y275500D02*
G03*
X44999Y270501I4999J0D01*
G01*
X175001D02*
G03*
X180000Y275500I0J4999D01*
G01*
X158749Y270499D02*
G03*
X153750Y265500I0J-4999D01*
G01*
X66749Y265501D02*
G03*
X61750Y270500I-4999J0D01*
G01*
X66751Y203252D02*
G03*
X71750Y198254I4999J0D01*
G01*
X148751Y198254D02*
G03*
X153750Y203253I0J4999D01*
G01*
X92500Y800000D02*
G03*
X127500Y800000I17500J0D01*
G01*
X0Y41999D02*
G03*
X1999Y40000I1999J0D01*
G01*
X207500Y0D02*
G03*
X209499Y1999I0J1999D01*
G01*
X214501Y40000D02*
G03*
X209499Y35001I-1J-5000D01*
G01*
X218001Y40000D02*
G03*
X220000Y41999I0J1999D01*
G01*
Y795000D02*
G03*
X215001Y799999I-4999J0D01*
G01*
X4999D02*
G03*
X0Y795000I0J-4999D01*
G01*
X10500Y35001D02*
G03*
X5499Y40000I-5000J-1D01*
G01*
X10500Y1999D02*
G03*
X12499Y0I1999J0D01*
G01*
X48750Y35001D02*
G03*
X42751Y28999I1J-6001D01*
G01*
X54750D02*
G03*
X48750Y35001I-6001J1D01*
G01*
X44999Y270501D02*
X61749D01*
X61750Y270500D01*
X66749Y203254D02*
Y265501D01*
Y203254D02*
X66751Y203252D01*
X71750Y198254D02*
X148750D01*
X148751Y198254D01*
X153750Y203253D02*
Y265500D01*
X153750Y265500D01*
X158749Y270499D02*
X174999D01*
X175001Y270501D01*
X180000Y275500D02*
Y707000D01*
X40000Y275500D02*
Y707000D01*
X45000Y711998D02*
X175000D01*
X127499Y800000D02*
X215000D01*
X-0Y795000D02*
X0Y41999D01*
X42751Y0D02*
Y28999D01*
X12499Y0D02*
X42751D01*
X4999Y799999D02*
X92500D01*
X54750Y0D02*
Y28999D01*
Y-0D02*
X207500Y0D01*
X209499Y1999D02*
Y35001D01*
X214501Y40000D02*
X218001D01*
X220000Y795000D02*
X220000Y41999D01*
X1999Y40000D02*
X5499D01*
X10500Y1999D02*
Y35001D01*
M02*
