G04*
G04 #@! TF.GenerationSoftware,Altium Limited,Altium Designer,24.5.2 (23)*
G04*
G04 Layer_Physical_Order=2*
G04 Layer_Color=16711680*
%FSLAX44Y44*%
%MOMM*%
G71*
G04*
G04 #@! TF.SameCoordinates,6FC596C0-74E6-4E27-895D-4E0FE7D6B679*
G04*
G04*
G04 #@! TF.FilePolarity,Positive*
G04*
G01*
G75*
%ADD12C,0.2000*%
%ADD23R,0.4000X0.4000*%
%ADD24O,1.2080X2.4160*%
%ADD25O,1.4080X2.8160*%
%ADD26C,0.7500*%
%ADD27C,1.0000*%
%ADD28C,1.6000*%
%ADD29C,0.5000*%
%ADD30R,0.3500X1.9500*%
G36*
X215001Y799999D02*
X215001Y799999D01*
X215001Y799999D01*
X215001D01*
X216172Y799926D01*
X217832Y799238D01*
X219239Y797832D01*
X220000Y795995D01*
X220000Y795000D01*
X220000Y41999D01*
Y41601D01*
X219695Y40867D01*
X219133Y40304D01*
X218398Y40000D01*
X214501D01*
X214500Y40000D01*
X213525Y39904D01*
X211722Y39158D01*
X210343Y37779D01*
X209596Y35977D01*
X209499Y35001D01*
Y28999D01*
X206848D01*
Y117250D01*
X206460Y119201D01*
X205355Y120855D01*
X195105Y131105D01*
X193451Y132210D01*
X191500Y132598D01*
X179598D01*
Y149500D01*
X179210Y151451D01*
X178105Y153105D01*
X160105Y171105D01*
X158451Y172210D01*
X156500Y172598D01*
X96846D01*
X96132Y173731D01*
X96124Y173868D01*
X96299Y174750D01*
Y177000D01*
X97544D01*
X99474Y177799D01*
X100170Y178496D01*
X101000Y179232D01*
X101830Y178496D01*
X102526Y177799D01*
X104456Y177000D01*
X106544D01*
X108474Y177799D01*
X109170Y178496D01*
X110000Y179232D01*
X110830Y178496D01*
X111526Y177799D01*
X113456Y177000D01*
X115544D01*
X117474Y177799D01*
X118170Y178496D01*
X119000Y179232D01*
X119830Y178496D01*
X120526Y177799D01*
X122456Y177000D01*
X124544D01*
X126474Y177799D01*
X127170Y178496D01*
X128000Y179232D01*
X128830Y178496D01*
X129526Y177799D01*
X131456Y177000D01*
X133544D01*
X135474Y177799D01*
X136951Y179276D01*
X137750Y181206D01*
Y183294D01*
X136951Y185224D01*
X135474Y186701D01*
X133544Y187500D01*
X131456D01*
X129526Y186701D01*
X128830Y186004D01*
X128000Y185268D01*
X127170Y186004D01*
X126474Y186701D01*
X124544Y187500D01*
X122456D01*
X120526Y186701D01*
X119830Y186004D01*
X119000Y185268D01*
X118170Y186004D01*
X117474Y186701D01*
X115544Y187500D01*
X113456D01*
X111526Y186701D01*
X110830Y186004D01*
X110000Y185268D01*
X109170Y186004D01*
X108474Y186701D01*
X106544Y187500D01*
X104456D01*
X102526Y186701D01*
X101830Y186004D01*
X101000Y185268D01*
X100170Y186004D01*
X99474Y186701D01*
X97544Y187500D01*
X95456D01*
X93526Y186701D01*
X92830Y186004D01*
X92000Y185268D01*
X91170Y186004D01*
X90474Y186701D01*
X88544Y187500D01*
X86456D01*
X84526Y186701D01*
X83049Y185224D01*
X82250Y183294D01*
Y181206D01*
X83049Y179276D01*
X83756Y178569D01*
X83230Y177299D01*
X78300D01*
X77325Y177105D01*
X76498Y176552D01*
X71448Y171502D01*
X70895Y170675D01*
X70701Y169700D01*
Y140269D01*
X70895Y139294D01*
X71448Y138467D01*
X85451Y124464D01*
Y111645D01*
X84234Y111141D01*
X83109Y110016D01*
X82500Y108546D01*
Y106954D01*
X83109Y105484D01*
X84234Y104359D01*
X85704Y103750D01*
X87296D01*
X88766Y104359D01*
X89750Y105343D01*
X90734Y104359D01*
X92204Y103750D01*
X93796D01*
X95266Y104359D01*
X96391Y105484D01*
X97000Y106954D01*
Y108546D01*
X96391Y110016D01*
X95266Y111141D01*
X94049Y111645D01*
Y126969D01*
X93855Y127944D01*
X93302Y128771D01*
X79299Y142775D01*
Y151367D01*
X80569Y152074D01*
X81637Y151632D01*
X82491Y150376D01*
X82250Y149794D01*
Y147706D01*
X83049Y145776D01*
X84526Y144299D01*
X86456Y143500D01*
X88544D01*
X90474Y144299D01*
X91170Y144996D01*
X92000Y145732D01*
X92830Y144996D01*
X93526Y144299D01*
X95456Y143500D01*
X97544D01*
X99474Y144299D01*
X100170Y144996D01*
X101000Y145732D01*
X101830Y144996D01*
X102526Y144299D01*
X104456Y143500D01*
X105701D01*
Y131800D01*
X105895Y130825D01*
X106448Y129998D01*
X125701Y110744D01*
Y39895D01*
X124484Y39391D01*
X123359Y38266D01*
X122750Y36796D01*
Y35204D01*
X123359Y33734D01*
X124484Y32609D01*
X125954Y32000D01*
X127546D01*
X129016Y32609D01*
X130000Y33593D01*
X130984Y32609D01*
X132454Y32000D01*
X134046D01*
X135516Y32609D01*
X136641Y33734D01*
X137250Y35204D01*
Y36796D01*
X136641Y38266D01*
X135516Y39391D01*
X134299Y39895D01*
Y113250D01*
X134105Y114226D01*
X133552Y115052D01*
X114299Y134306D01*
Y143500D01*
X115544D01*
X117474Y144299D01*
X118170Y144996D01*
X119000Y145732D01*
X119830Y144996D01*
X120526Y144299D01*
X122456Y143500D01*
X124544D01*
X126474Y144299D01*
X127170Y144996D01*
X128000Y145732D01*
X128830Y144996D01*
X129526Y144299D01*
X131456Y143500D01*
X133544D01*
X135474Y144299D01*
X136951Y145776D01*
X137750Y147706D01*
Y149794D01*
X137509Y150376D01*
X138363Y151632D01*
X139974Y152299D01*
X141451Y153776D01*
X142250Y155706D01*
Y157402D01*
X151638D01*
X153773Y155267D01*
X153644Y154285D01*
X153401Y153843D01*
X152299Y152741D01*
X151443Y151259D01*
X151000Y149606D01*
Y147894D01*
X151443Y146241D01*
X152299Y144759D01*
X153509Y143549D01*
X154991Y142693D01*
X156644Y142250D01*
X158356D01*
X160009Y142693D01*
X161491Y143549D01*
X162132Y144190D01*
X163402Y143664D01*
Y132598D01*
X163790Y130647D01*
X164049Y130259D01*
X154645Y120855D01*
X153540Y119201D01*
X153152Y117250D01*
Y28999D01*
X82549Y28999D01*
Y32323D01*
X123302Y73077D01*
X123855Y73903D01*
X124049Y74879D01*
Y93500D01*
X123855Y94475D01*
X123302Y95302D01*
X118274Y100331D01*
X118853Y101333D01*
X119500Y103749D01*
Y106251D01*
X118853Y108667D01*
X117602Y110833D01*
X115833Y112602D01*
X113667Y113853D01*
X111251Y114500D01*
X108749D01*
X106333Y113853D01*
X104167Y112602D01*
X102398Y110833D01*
X101147Y108667D01*
X100500Y106251D01*
Y103749D01*
X101147Y101333D01*
X102398Y99167D01*
X104167Y97398D01*
X106333Y96147D01*
X108749Y95500D01*
X111251D01*
X113667Y96147D01*
X114669Y96726D01*
X118951Y92444D01*
Y85636D01*
X117681Y85296D01*
X117602Y85433D01*
X115833Y87202D01*
X113667Y88453D01*
X111251Y89100D01*
X108749D01*
X106333Y88453D01*
X104167Y87202D01*
X102398Y85433D01*
X101147Y83267D01*
X100500Y80851D01*
Y78349D01*
X101147Y75933D01*
X102398Y73767D01*
X104167Y71998D01*
X106333Y70747D01*
X106344Y70745D01*
X106723Y69328D01*
X68198Y30803D01*
X67645Y29976D01*
X67451Y29000D01*
Y28999D01*
X54750D01*
X54749Y28999D01*
X54634Y30170D01*
X53739Y32333D01*
X52084Y33989D01*
X49921Y34886D01*
X48750Y35001D01*
X48750Y35001D01*
X47579Y34885D01*
X45416Y33989D01*
X43761Y32333D01*
X42866Y30170D01*
X42751Y28999D01*
X36848D01*
Y113250D01*
X36460Y115201D01*
X35355Y116855D01*
X33701Y117960D01*
X31750Y118348D01*
X18250D01*
X16299Y117960D01*
X14645Y116855D01*
X13540Y115201D01*
X13152Y113250D01*
Y28999D01*
X10500D01*
Y35001D01*
X10500D01*
X10500Y35001D01*
X10500Y35002D01*
X10404Y35977D01*
X10326Y36165D01*
X9657Y37779D01*
X8277Y39158D01*
X6475Y39904D01*
X5499Y40000D01*
X1601Y40000D01*
X867Y40304D01*
X304Y40867D01*
X0Y41601D01*
Y41999D01*
Y795000D01*
X-0Y795995D01*
X761Y797832D01*
X2167Y799238D01*
X4004Y799999D01*
X4999Y799999D01*
X92500Y800000D01*
X92584Y798285D01*
X93254Y794920D01*
X94566Y791750D01*
X96472Y788898D01*
X98898Y786472D01*
X101750Y784566D01*
X104920Y783254D01*
X108285Y782584D01*
X111715D01*
X115080Y783254D01*
X118249Y784566D01*
X121102Y786472D01*
X123528Y788898D01*
X125434Y791750D01*
X126746Y794920D01*
X127416Y798285D01*
X127500Y800000D01*
X215001Y799999D01*
D02*
G37*
G36*
X131750Y155706D02*
X131991Y155124D01*
X131137Y153868D01*
X129526Y153201D01*
X128830Y152504D01*
X128000Y151768D01*
X127170Y152504D01*
X126474Y153201D01*
X124544Y154000D01*
X122456D01*
X120526Y153201D01*
X119830Y152504D01*
X119000Y151768D01*
X118170Y152504D01*
X117474Y153201D01*
X115544Y154000D01*
X113456D01*
X111526Y153201D01*
X110830Y152504D01*
X110000Y151768D01*
X109170Y152504D01*
X108474Y153201D01*
X106544Y154000D01*
X104456D01*
X102526Y153201D01*
X101830Y152504D01*
X101000Y151768D01*
X100170Y152504D01*
X99474Y153201D01*
X97544Y154000D01*
X95456D01*
X93526Y153201D01*
X92830Y152504D01*
X92216Y151959D01*
X91168Y152727D01*
X91150Y154191D01*
X94362Y157402D01*
X131750D01*
Y155706D01*
D02*
G37*
G36*
X174500Y149500D02*
Y132598D01*
Y129500D01*
X168500D01*
X168500Y132598D01*
X168500D01*
Y147750D01*
X153750Y162500D01*
X92250D01*
X85750Y156000D01*
X82250Y159500D01*
X90250Y167500D01*
X156500D01*
X174500Y149500D01*
D02*
G37*
G36*
X188152Y91389D02*
Y28999D01*
X181848D01*
Y91388D01*
X183362Y92902D01*
X186638D01*
X188152Y91389D01*
D02*
G37*
G36*
X201750Y117250D02*
Y5500D01*
X193250D01*
Y93500D01*
X188750Y98000D01*
X181250D01*
X176750Y93500D01*
Y5500D01*
X158250D01*
Y117250D01*
X168500Y127500D01*
X191500D01*
X201750Y117250D01*
D02*
G37*
G36*
X31750Y5500D02*
X18250D01*
Y113250D01*
X31750D01*
Y5500D01*
D02*
G37*
%LPC*%
G36*
X175995Y713622D02*
X44005D01*
X43706Y713498D01*
X43383D01*
X41546Y712737D01*
X41318Y712509D01*
X41020Y712385D01*
X39613Y710979D01*
X39490Y710681D01*
X39261Y710452D01*
X38500Y708615D01*
Y708292D01*
X38377Y707994D01*
Y707000D01*
Y275500D01*
Y274505D01*
X38500Y274207D01*
Y273884D01*
X39261Y272047D01*
X39490Y271818D01*
X39613Y271520D01*
X41020Y270114D01*
X41318Y269990D01*
X41546Y269762D01*
X43383Y269001D01*
X43706D01*
X44005Y268877D01*
X44999D01*
X61671Y268876D01*
X62327Y268811D01*
X63608Y268281D01*
X64530Y267358D01*
X65061Y266077D01*
X65126Y265421D01*
X65127Y203252D01*
Y202258D01*
X65251Y201960D01*
Y201637D01*
X66012Y199799D01*
X66240Y199571D01*
X66364Y199273D01*
X67770Y197867D01*
X68068Y197743D01*
X68297Y197515D01*
X70134Y196754D01*
X70457D01*
X70755Y196630D01*
X71750D01*
X148751Y196630D01*
X149745D01*
X150043Y196754D01*
X150366D01*
X152204Y197515D01*
X152432Y197743D01*
X152731Y197867D01*
X154137Y199273D01*
X154260Y199572D01*
X154488Y199800D01*
X155250Y201637D01*
Y201960D01*
X155373Y202258D01*
Y203253D01*
X155374Y265421D01*
X155439Y266077D01*
X155969Y267358D01*
X156892Y268280D01*
X158173Y268811D01*
X158829Y268876D01*
X175001Y268877D01*
X175995D01*
X176294Y269001D01*
X176616D01*
X178454Y269762D01*
X178682Y269990D01*
X178980Y270114D01*
X180387Y271520D01*
X180510Y271818D01*
X180739Y272047D01*
X181500Y273884D01*
Y274207D01*
X181623Y274505D01*
Y275500D01*
Y707000D01*
Y707994D01*
X181500Y708292D01*
Y708615D01*
X180739Y710452D01*
X180510Y710681D01*
X180387Y710979D01*
X178980Y712385D01*
X178682Y712509D01*
X178454Y712737D01*
X176616Y713498D01*
X176294D01*
X175995Y713622D01*
D02*
G37*
G36*
X63356Y155250D02*
X61644D01*
X59991Y154807D01*
X58509Y153951D01*
X57299Y152741D01*
X56443Y151259D01*
X56000Y149606D01*
Y147894D01*
X56443Y146241D01*
X57299Y144759D01*
X58509Y143549D01*
X59991Y142693D01*
X61644Y142250D01*
X63356D01*
X65009Y142693D01*
X66491Y143549D01*
X67701Y144759D01*
X68557Y146241D01*
X69000Y147894D01*
Y149606D01*
X68557Y151259D01*
X67701Y152741D01*
X66491Y153951D01*
X65009Y154807D01*
X63356Y155250D01*
D02*
G37*
G36*
X53046Y141250D02*
X51454D01*
X49984Y140641D01*
X49000Y139657D01*
X48016Y140641D01*
X46546Y141250D01*
X44954D01*
X43484Y140641D01*
X42359Y139516D01*
X41750Y138046D01*
Y136454D01*
X42359Y134984D01*
X43484Y133859D01*
X44701Y133355D01*
Y89371D01*
X44895Y88396D01*
X45448Y87569D01*
X74004Y59012D01*
X73500Y57796D01*
Y56204D01*
X74109Y54734D01*
X75234Y53609D01*
X76704Y53000D01*
X78296D01*
X79766Y53609D01*
X80891Y54734D01*
X81500Y56204D01*
Y57596D01*
X82892D01*
X84362Y58205D01*
X85487Y59330D01*
X86096Y60800D01*
Y62392D01*
X85487Y63862D01*
X84362Y64987D01*
X82892Y65596D01*
X81300D01*
X80084Y65092D01*
X53299Y91877D01*
Y133355D01*
X54516Y133859D01*
X55641Y134984D01*
X56250Y136454D01*
Y138046D01*
X55641Y139516D01*
X54516Y140641D01*
X53046Y141250D01*
D02*
G37*
%LPD*%
D12*
X76750Y141719D02*
Y168250D01*
X79750Y171250D02*
X90250D01*
X78300Y174750D02*
X88800D01*
X73250Y140269D02*
Y169700D01*
X78300Y174750D01*
X76750Y168250D02*
X79750Y171250D01*
X88800Y174750D02*
X90250Y176200D01*
Y171250D02*
X93750Y174750D01*
X90250Y176200D02*
Y178328D01*
X93750Y174750D02*
Y178328D01*
X96500Y181078D02*
Y182250D01*
X93750Y178328D02*
X96500Y181078D01*
X87500D02*
X90250Y178328D01*
X87500Y181078D02*
Y182250D01*
X73250Y140269D02*
X88000Y125519D01*
X76750Y141719D02*
X91500Y126969D01*
Y110062D02*
Y126969D01*
X88000Y110062D02*
Y125519D01*
X70000Y15250D02*
Y29000D01*
X110000Y69000D01*
Y79600D01*
X80000Y33379D02*
X121500Y74879D01*
X110000Y105000D02*
X121500Y93500D01*
Y74879D02*
Y93500D01*
X80000Y15250D02*
Y33379D01*
X79401Y62170D02*
X81522D01*
X47250Y89371D02*
X76926Y59695D01*
Y57574D02*
Y59695D01*
X81522Y62170D02*
X82096Y61596D01*
X50750Y90821D02*
X79401Y62170D01*
X76926Y57574D02*
X77500Y57000D01*
X86500Y108562D02*
X88000Y110062D01*
X86500Y107750D02*
Y108562D01*
X91500Y110062D02*
X93000Y108562D01*
Y107750D02*
Y108562D01*
X50750Y90821D02*
Y134938D01*
X47250Y89371D02*
Y134938D01*
X111750Y133250D02*
Y144828D01*
X128250Y38312D02*
Y111800D01*
X108250Y131800D02*
X128250Y111800D01*
X108250Y131800D02*
Y144828D01*
X131750Y38312D02*
Y113250D01*
X111750Y133250D02*
X131750Y113250D01*
X111750Y144828D02*
X114500Y147578D01*
Y148750D01*
X126750Y36812D02*
X128250Y38312D01*
X126750Y36000D02*
Y36812D01*
X105500Y147578D02*
X108250Y144828D01*
X105500Y147578D02*
Y148750D01*
X133250Y36000D02*
Y36812D01*
X131750Y38312D02*
X133250Y36812D01*
X45750Y136438D02*
Y137250D01*
X52250Y136438D02*
Y137250D01*
X45750Y136438D02*
X47250Y134938D01*
X50750D02*
X52250Y136438D01*
D23*
X171500Y131500D02*
D03*
Y125500D02*
D03*
D24*
X58000Y235250D02*
D03*
X162000D02*
D03*
D25*
X165000Y180250D02*
D03*
X55000D02*
D03*
D26*
X83000Y190250D02*
D03*
X101000D02*
D03*
X119000D02*
D03*
X137000D02*
D03*
X132500Y182250D02*
D03*
X123500D02*
D03*
X87500D02*
D03*
X96500D02*
D03*
X105500D02*
D03*
X114500D02*
D03*
X83000Y156750D02*
D03*
X101000D02*
D03*
X119000D02*
D03*
X137000D02*
D03*
X132500Y148750D02*
D03*
X123500D02*
D03*
X87500D02*
D03*
X96500D02*
D03*
X105500D02*
D03*
X114500D02*
D03*
D27*
X62500D02*
D03*
X157500D02*
D03*
D28*
X110000Y79600D02*
D03*
Y105000D02*
D03*
D29*
X200000Y162000D02*
D03*
Y142000D02*
D03*
X117750Y139750D02*
D03*
X101000D02*
D03*
X119000Y175250D02*
D03*
X67250Y156750D02*
D03*
X39500Y140250D02*
D03*
X58500D02*
D03*
X103750Y92250D02*
D03*
X137500Y87500D02*
D03*
X156000Y136500D02*
D03*
X213250Y57250D02*
D03*
X148250Y75500D02*
D03*
X143000Y54500D02*
D03*
X6250Y68000D02*
D03*
Y48000D02*
D03*
X50500Y68000D02*
D03*
Y48000D02*
D03*
X185000Y56500D02*
D03*
X25000Y98750D02*
D03*
Y87500D02*
D03*
Y109750D02*
D03*
X200000Y182000D02*
D03*
Y202000D02*
D03*
X20000Y142000D02*
D03*
Y162000D02*
D03*
Y182000D02*
D03*
Y222000D02*
D03*
Y202000D02*
D03*
Y242000D02*
D03*
Y702000D02*
D03*
Y762000D02*
D03*
Y782000D02*
D03*
Y742000D02*
D03*
Y722000D02*
D03*
X200000Y642000D02*
D03*
Y662000D02*
D03*
Y702000D02*
D03*
Y682000D02*
D03*
Y622000D02*
D03*
Y242000D02*
D03*
Y262000D02*
D03*
Y302000D02*
D03*
Y282000D02*
D03*
Y222000D02*
D03*
X100000Y742000D02*
D03*
X40000D02*
D03*
X80000D02*
D03*
X60000D02*
D03*
X101500Y124750D02*
D03*
X81500Y114500D02*
D03*
X82000Y70500D02*
D03*
X77500Y48250D02*
D03*
X107499Y29327D02*
D03*
X122501D02*
D03*
X82096Y61596D02*
D03*
X77500Y57000D02*
D03*
X86500Y107750D02*
D03*
X93000D02*
D03*
X62501Y29327D02*
D03*
X133250Y36000D02*
D03*
X126750D02*
D03*
X137502Y29327D02*
D03*
X52250Y137250D02*
D03*
X45750D02*
D03*
X92501Y29327D02*
D03*
X152501D02*
D03*
X182501D02*
D03*
X110000Y775250D02*
D03*
X127501Y782499D02*
D03*
X92499Y782499D02*
D03*
D30*
X200000Y15250D02*
D03*
X195001D02*
D03*
X190000D02*
D03*
X185001D02*
D03*
X180000D02*
D03*
X175001D02*
D03*
X170000D02*
D03*
X165001D02*
D03*
X160000D02*
D03*
X155001D02*
D03*
X150000D02*
D03*
X145001D02*
D03*
X140000D02*
D03*
X135001D02*
D03*
X130000D02*
D03*
X125001D02*
D03*
X120000D02*
D03*
X115001D02*
D03*
X110000D02*
D03*
X104999D02*
D03*
X100000D02*
D03*
X94999D02*
D03*
X90000D02*
D03*
X84999D02*
D03*
X80000D02*
D03*
X74999D02*
D03*
X70000D02*
D03*
X64999D02*
D03*
X60000D02*
D03*
X34999D02*
D03*
X30000D02*
D03*
X24999D02*
D03*
X20000D02*
D03*
M02*
