G04*
G04 #@! TF.GenerationSoftware,Altium Limited,Altium Designer,24.5.2 (23)*
G04*
G04 Layer_Color=8388736*
%FSLAX44Y44*%
%MOMM*%
G71*
G04*
G04 #@! TF.SameCoordinates,6FC596C0-74E6-4E27-895D-4E0FE7D6B679*
G04*
G04*
G04 #@! TF.FilePolarity,Negative*
G04*
G01*
G75*
%ADD14R,0.3500X1.4500*%
%ADD15R,15.4500X2.0000*%
%ADD16R,3.2005X2.0000*%
%ADD17R,0.6032X0.6032*%
%ADD18O,1.4112X2.6192*%
%ADD19O,1.6112X3.0192*%
%ADD20C,0.9532*%
%ADD21C,1.2032*%
%ADD22C,1.8000*%
G36*
X138500Y800000D02*
X138500Y797757D01*
X137798Y793326D01*
X136412Y789060D01*
X134375Y785063D01*
X131739Y781433D01*
X128567Y778261D01*
X124937Y775624D01*
X120940Y773588D01*
X116674Y772202D01*
X112243Y771500D01*
X107757Y771500D01*
X103326Y772202D01*
X99060Y773588D01*
X95063Y775624D01*
X91433Y778261D01*
X88261Y781433D01*
X85625Y785063D01*
X83588Y789060D01*
X82202Y793326D01*
X81500Y797757D01*
X81500Y800000D01*
X81500Y800000D01*
X92500Y800000D01*
X92584Y798285D01*
X93253Y794920D01*
X94566Y791750D01*
X96472Y788898D01*
X98898Y786472D01*
X101751Y784566D01*
X104920Y783253D01*
X108285Y782584D01*
X111715Y782584D01*
X115080Y783253D01*
X118250Y784566D01*
X121102Y786472D01*
X123528Y788898D01*
X125434Y791751D01*
X126747Y794920D01*
X127416Y798285D01*
X127500Y800000D01*
X127500Y800000D01*
X138500Y800000D01*
D02*
G37*
G36*
X54522Y125360D02*
X54554Y125358D01*
X54587Y125358D01*
X54621Y125354D01*
X54655Y125351D01*
X54686Y125345D01*
X54719Y125341D01*
X56233Y125042D01*
X56265Y125034D01*
X56297Y125027D01*
X56329Y125017D01*
X56362Y125008D01*
X56392Y124995D01*
X56423Y124985D01*
X57137Y124692D01*
X57138Y124691D01*
X57140Y124691D01*
X57205Y124658D01*
X57256Y124633D01*
X57257Y124633D01*
X57259Y124632D01*
X57319Y124591D01*
X57367Y124560D01*
X57368Y124559D01*
X57370Y124558D01*
X57423Y124511D01*
X57468Y124472D01*
X57469Y124471D01*
X57470Y124470D01*
X57519Y124415D01*
X57556Y124372D01*
X57557Y124371D01*
X57558Y124370D01*
X57600Y124307D01*
X57630Y124262D01*
X57631Y124261D01*
X57632Y124259D01*
X57667Y124188D01*
X57689Y124142D01*
X57690Y124141D01*
X57691Y124140D01*
X57716Y124064D01*
X57733Y124017D01*
X57733Y124015D01*
X57733Y124014D01*
X57748Y123938D01*
X57759Y123886D01*
X57759Y123885D01*
X57759Y123883D01*
X57764Y123809D01*
X57768Y123753D01*
X57768Y123752D01*
X57768Y123750D01*
X57768Y119500D01*
X57759Y119367D01*
X57733Y119236D01*
X57691Y119110D01*
X57632Y118991D01*
X57558Y118880D01*
X57470Y118780D01*
X57370Y118692D01*
X57259Y118618D01*
X57140Y118559D01*
X57014Y118517D01*
X56930Y118500D01*
X57014Y118483D01*
X57140Y118441D01*
X57259Y118382D01*
X57370Y118308D01*
X57470Y118220D01*
X57558Y118120D01*
X57632Y118009D01*
X57691Y117890D01*
X57733Y117764D01*
X57759Y117633D01*
X57768Y117500D01*
Y113250D01*
X57768Y113249D01*
X57768Y113247D01*
X57764Y113182D01*
X57759Y113117D01*
X57759Y113116D01*
X57759Y113114D01*
X57747Y113052D01*
X57733Y112986D01*
X57733Y112985D01*
X57733Y112984D01*
X57713Y112927D01*
X57691Y112860D01*
X57690Y112859D01*
X57689Y112858D01*
X57662Y112801D01*
X57632Y112741D01*
X57631Y112740D01*
X57630Y112738D01*
X57593Y112683D01*
X57558Y112630D01*
X57557Y112629D01*
X57556Y112628D01*
X57510Y112576D01*
X57470Y112530D01*
X57469Y112529D01*
X57468Y112528D01*
X57415Y112481D01*
X57370Y112442D01*
X57369Y112441D01*
X57367Y112440D01*
X57310Y112402D01*
X57259Y112368D01*
X57258Y112368D01*
X57256Y112367D01*
X57195Y112337D01*
X57140Y112309D01*
X57138Y112309D01*
X57137Y112308D01*
X56423Y112015D01*
X56392Y112004D01*
X56362Y111992D01*
X56329Y111983D01*
X56297Y111973D01*
X56265Y111966D01*
X56233Y111958D01*
X54719Y111659D01*
X54686Y111655D01*
X54655Y111649D01*
X54621Y111646D01*
X54587Y111642D01*
X54554Y111642D01*
X54522Y111640D01*
X52978Y111640D01*
X52946Y111642D01*
X52913Y111642D01*
X52879Y111646D01*
X52845Y111649D01*
X52814Y111655D01*
X52781Y111659D01*
X51267Y111958D01*
X51235Y111966D01*
X51203Y111973D01*
X51171Y111983D01*
X51138Y111992D01*
X51108Y112004D01*
X51077Y112015D01*
X50363Y112308D01*
X50362Y112309D01*
X50360Y112309D01*
X50305Y112337D01*
X50244Y112367D01*
X50242Y112368D01*
X50241Y112368D01*
X50190Y112402D01*
X50133Y112440D01*
X50131Y112441D01*
X50130Y112442D01*
X50085Y112481D01*
X50032Y112528D01*
X50031Y112529D01*
X50030Y112530D01*
X49990Y112576D01*
X49944Y112628D01*
X49943Y112629D01*
X49942Y112630D01*
X49907Y112683D01*
X49870Y112738D01*
X49869Y112740D01*
X49868Y112741D01*
X49839Y112801D01*
X49811Y112858D01*
X49810Y112859D01*
X49809Y112860D01*
X49787Y112927D01*
X49767Y112984D01*
X49767Y112985D01*
X49767Y112986D01*
X49753Y113052D01*
X49741Y113114D01*
X49741Y113116D01*
X49741Y113117D01*
X49736Y113182D01*
X49732Y113247D01*
X49732Y113249D01*
X49732Y113250D01*
X49732Y117500D01*
X49741Y117633D01*
X49767Y117764D01*
X49809Y117890D01*
X49868Y118009D01*
X49942Y118120D01*
X50030Y118220D01*
X50130Y118308D01*
X50241Y118382D01*
X50360Y118441D01*
X50486Y118483D01*
X50570Y118500D01*
X50486Y118517D01*
X50360Y118559D01*
X50241Y118618D01*
X50130Y118692D01*
X50030Y118780D01*
X49942Y118880D01*
X49868Y118991D01*
X49809Y119110D01*
X49767Y119236D01*
X49741Y119367D01*
X49732Y119500D01*
X49732Y123750D01*
X49732Y123751D01*
X49732Y123753D01*
X49736Y123818D01*
X49741Y123883D01*
X49741Y123884D01*
X49741Y123886D01*
X49753Y123948D01*
X49767Y124014D01*
X49767Y124015D01*
X49767Y124017D01*
X49787Y124073D01*
X49809Y124140D01*
X49810Y124141D01*
X49811Y124142D01*
X49838Y124199D01*
X49868Y124259D01*
X49869Y124260D01*
X49870Y124262D01*
X49907Y124317D01*
X49942Y124370D01*
X49943Y124371D01*
X49944Y124372D01*
X49990Y124424D01*
X50030Y124470D01*
X50031Y124471D01*
X50032Y124472D01*
X50085Y124518D01*
X50130Y124558D01*
X50131Y124559D01*
X50133Y124560D01*
X50190Y124598D01*
X50241Y124632D01*
X50242Y124632D01*
X50244Y124633D01*
X50305Y124663D01*
X50360Y124691D01*
X50362Y124691D01*
X50363Y124692D01*
X51077Y124985D01*
X51108Y124995D01*
X51138Y125008D01*
X51171Y125017D01*
X51203Y125028D01*
X51235Y125034D01*
X51267Y125042D01*
X52781Y125341D01*
X52814Y125345D01*
X52845Y125351D01*
X52879Y125354D01*
X52913Y125358D01*
X52946Y125358D01*
X52978Y125360D01*
X54522Y125360D01*
D02*
G37*
G36*
X76554Y100358D02*
X76587Y100358D01*
X76621Y100354D01*
X76655Y100351D01*
X76686Y100345D01*
X76719Y100341D01*
X78233Y100042D01*
X78265Y100034D01*
X78297Y100028D01*
X78329Y100017D01*
X78362Y100008D01*
X78392Y99995D01*
X78423Y99985D01*
X79137Y99692D01*
X79138Y99691D01*
X79140Y99691D01*
X79195Y99663D01*
X79256Y99633D01*
X79258Y99632D01*
X79259Y99632D01*
X79310Y99598D01*
X79367Y99560D01*
X79369Y99559D01*
X79370Y99558D01*
X79415Y99518D01*
X79468Y99472D01*
X79469Y99471D01*
X79470Y99470D01*
X79510Y99424D01*
X79556Y99372D01*
X79557Y99371D01*
X79558Y99370D01*
X79593Y99317D01*
X79630Y99262D01*
X79631Y99260D01*
X79632Y99259D01*
X79661Y99199D01*
X79689Y99142D01*
X79690Y99141D01*
X79691Y99140D01*
X79713Y99073D01*
X79733Y99017D01*
X79733Y99015D01*
X79734Y99014D01*
X79746Y98948D01*
X79759Y98886D01*
X79759Y98884D01*
X79759Y98883D01*
X79764Y98818D01*
X79768Y98753D01*
X79768Y98751D01*
X79768Y98750D01*
Y94500D01*
X79759Y94367D01*
X79734Y94236D01*
X79691Y94110D01*
X79632Y93991D01*
X79558Y93880D01*
X79470Y93780D01*
X79370Y93692D01*
X79259Y93618D01*
X79140Y93559D01*
X79014Y93517D01*
X78931Y93500D01*
X79014Y93483D01*
X79140Y93441D01*
X79259Y93382D01*
X79370Y93308D01*
X79470Y93220D01*
X79558Y93120D01*
X79632Y93009D01*
X79691Y92890D01*
X79734Y92764D01*
X79759Y92633D01*
X79768Y92500D01*
X79768Y88250D01*
X79768Y88248D01*
X79768Y88247D01*
X79764Y88190D01*
X79759Y88117D01*
X79759Y88115D01*
X79759Y88114D01*
X79748Y88060D01*
X79733Y87986D01*
X79733Y87985D01*
X79733Y87984D01*
X79716Y87934D01*
X79691Y87860D01*
X79690Y87859D01*
X79689Y87858D01*
X79665Y87809D01*
X79632Y87741D01*
X79631Y87739D01*
X79630Y87738D01*
X79597Y87689D01*
X79558Y87630D01*
X79557Y87629D01*
X79556Y87628D01*
X79515Y87581D01*
X79470Y87530D01*
X79469Y87529D01*
X79468Y87528D01*
X79419Y87485D01*
X79370Y87442D01*
X79369Y87441D01*
X79367Y87440D01*
X79314Y87405D01*
X79259Y87368D01*
X79258Y87367D01*
X79256Y87367D01*
X79198Y87338D01*
X79140Y87309D01*
X79138Y87309D01*
X79137Y87308D01*
X78423Y87015D01*
X78392Y87004D01*
X78362Y86992D01*
X78329Y86983D01*
X78297Y86973D01*
X78265Y86966D01*
X78233Y86958D01*
X76719Y86659D01*
X76687Y86655D01*
X76655Y86649D01*
X76621Y86646D01*
X76587Y86642D01*
X76554Y86642D01*
X76522Y86640D01*
X74978Y86640D01*
X74946Y86642D01*
X74913Y86642D01*
X74879Y86646D01*
X74845Y86649D01*
X74814Y86655D01*
X74781Y86659D01*
X73267Y86958D01*
X73235Y86966D01*
X73203Y86973D01*
X73171Y86983D01*
X73138Y86992D01*
X73108Y87004D01*
X73077Y87015D01*
X72363Y87308D01*
X72362Y87309D01*
X72360Y87309D01*
X72305Y87337D01*
X72243Y87367D01*
X72242Y87368D01*
X72241Y87368D01*
X72190Y87402D01*
X72133Y87440D01*
X72131Y87441D01*
X72130Y87442D01*
X72085Y87481D01*
X72032Y87528D01*
X72031Y87529D01*
X72030Y87530D01*
X71990Y87576D01*
X71944Y87628D01*
X71943Y87629D01*
X71942Y87630D01*
X71907Y87683D01*
X71870Y87738D01*
X71869Y87740D01*
X71868Y87741D01*
X71838Y87801D01*
X71810Y87858D01*
X71810Y87859D01*
X71809Y87860D01*
X71787Y87927D01*
X71767Y87984D01*
X71767Y87985D01*
X71767Y87986D01*
X71753Y88052D01*
X71741Y88114D01*
X71741Y88116D01*
X71740Y88117D01*
X71736Y88182D01*
X71732Y88247D01*
X71732Y88249D01*
X71732Y88250D01*
X71732Y92500D01*
X71740Y92633D01*
X71767Y92764D01*
X71809Y92890D01*
X71868Y93009D01*
X71942Y93120D01*
X72030Y93220D01*
X72130Y93308D01*
X72241Y93382D01*
X72360Y93441D01*
X72487Y93483D01*
X72569Y93500D01*
X72487Y93517D01*
X72360Y93559D01*
X72241Y93618D01*
X72130Y93692D01*
X72030Y93780D01*
X71942Y93880D01*
X71868Y93991D01*
X71809Y94110D01*
X71767Y94236D01*
X71740Y94367D01*
X71732Y94500D01*
X71732Y98750D01*
X71732Y98751D01*
X71732Y98753D01*
X71736Y98818D01*
X71740Y98883D01*
X71741Y98884D01*
X71741Y98886D01*
X71753Y98946D01*
X71767Y99014D01*
X71767Y99015D01*
X71767Y99017D01*
X71786Y99071D01*
X71809Y99140D01*
X71810Y99141D01*
X71810Y99142D01*
X71837Y99195D01*
X71868Y99259D01*
X71869Y99260D01*
X71870Y99262D01*
X71904Y99313D01*
X71942Y99370D01*
X71943Y99371D01*
X71944Y99372D01*
X71986Y99420D01*
X72030Y99470D01*
X72031Y99471D01*
X72032Y99472D01*
X72081Y99514D01*
X72130Y99558D01*
X72132Y99559D01*
X72133Y99560D01*
X72184Y99594D01*
X72241Y99632D01*
X72242Y99633D01*
X72244Y99633D01*
X72298Y99660D01*
X72360Y99691D01*
X72362Y99691D01*
X72363Y99692D01*
X73077Y99985D01*
X73108Y99995D01*
X73138Y100008D01*
X73171Y100017D01*
X73203Y100027D01*
X73235Y100034D01*
X73267Y100042D01*
X74781Y100341D01*
X74813Y100345D01*
X74845Y100351D01*
X74879Y100354D01*
X74913Y100358D01*
X74946Y100358D01*
X74978Y100360D01*
X76522Y100360D01*
X76554Y100358D01*
D02*
G37*
G36*
X65054D02*
X65087Y100358D01*
X65121Y100354D01*
X65155Y100351D01*
X65186Y100345D01*
X65219Y100341D01*
X66733Y100042D01*
X66765Y100034D01*
X66797Y100028D01*
X66829Y100017D01*
X66862Y100008D01*
X66892Y99995D01*
X66923Y99985D01*
X67637Y99692D01*
X67638Y99691D01*
X67640Y99691D01*
X67695Y99663D01*
X67756Y99633D01*
X67758Y99632D01*
X67759Y99632D01*
X67810Y99598D01*
X67867Y99560D01*
X67869Y99559D01*
X67870Y99558D01*
X67915Y99518D01*
X67968Y99472D01*
X67969Y99471D01*
X67970Y99470D01*
X68010Y99424D01*
X68056Y99372D01*
X68057Y99371D01*
X68058Y99370D01*
X68093Y99317D01*
X68130Y99262D01*
X68131Y99260D01*
X68132Y99259D01*
X68162Y99199D01*
X68190Y99142D01*
X68190Y99141D01*
X68191Y99140D01*
X68213Y99073D01*
X68233Y99017D01*
X68233Y99015D01*
X68233Y99014D01*
X68246Y98948D01*
X68259Y98886D01*
X68259Y98884D01*
X68260Y98883D01*
X68264Y98818D01*
X68268Y98753D01*
X68268Y98751D01*
X68268Y98750D01*
Y94500D01*
X68260Y94367D01*
X68233Y94236D01*
X68191Y94110D01*
X68132Y93991D01*
X68058Y93880D01*
X67970Y93780D01*
X67870Y93692D01*
X67759Y93618D01*
X67640Y93559D01*
X67513Y93517D01*
X67431Y93500D01*
X67513Y93483D01*
X67640Y93441D01*
X67759Y93382D01*
X67870Y93308D01*
X67970Y93220D01*
X68058Y93120D01*
X68132Y93009D01*
X68191Y92890D01*
X68233Y92764D01*
X68260Y92633D01*
X68268Y92500D01*
X68268Y88250D01*
X68268Y88248D01*
X68268Y88247D01*
X68264Y88190D01*
X68259Y88117D01*
X68259Y88115D01*
X68259Y88114D01*
X68248Y88060D01*
X68233Y87986D01*
X68233Y87985D01*
X68233Y87984D01*
X68216Y87934D01*
X68191Y87860D01*
X68190Y87859D01*
X68189Y87858D01*
X68165Y87809D01*
X68132Y87741D01*
X68131Y87739D01*
X68130Y87738D01*
X68097Y87689D01*
X68058Y87630D01*
X68057Y87629D01*
X68056Y87628D01*
X68015Y87581D01*
X67970Y87530D01*
X67969Y87529D01*
X67968Y87528D01*
X67919Y87485D01*
X67870Y87442D01*
X67868Y87441D01*
X67867Y87440D01*
X67814Y87405D01*
X67759Y87368D01*
X67758Y87367D01*
X67756Y87367D01*
X67698Y87338D01*
X67640Y87309D01*
X67638Y87309D01*
X67637Y87308D01*
X66923Y87015D01*
X66892Y87004D01*
X66862Y86992D01*
X66829Y86983D01*
X66797Y86973D01*
X66765Y86966D01*
X66733Y86958D01*
X65219Y86659D01*
X65187Y86655D01*
X65155Y86649D01*
X65121Y86646D01*
X65087Y86642D01*
X65054Y86642D01*
X65022Y86640D01*
X63478Y86640D01*
X63446Y86642D01*
X63413Y86642D01*
X63379Y86646D01*
X63345Y86649D01*
X63314Y86655D01*
X63281Y86659D01*
X61767Y86958D01*
X61735Y86966D01*
X61703Y86973D01*
X61671Y86983D01*
X61638Y86992D01*
X61608Y87004D01*
X61577Y87015D01*
X60863Y87308D01*
X60862Y87309D01*
X60860Y87309D01*
X60805Y87337D01*
X60743Y87367D01*
X60742Y87368D01*
X60741Y87368D01*
X60690Y87402D01*
X60633Y87440D01*
X60631Y87441D01*
X60630Y87442D01*
X60585Y87481D01*
X60532Y87528D01*
X60531Y87529D01*
X60530Y87530D01*
X60490Y87576D01*
X60444Y87628D01*
X60443Y87629D01*
X60442Y87630D01*
X60407Y87683D01*
X60370Y87738D01*
X60369Y87740D01*
X60368Y87741D01*
X60338Y87801D01*
X60311Y87858D01*
X60310Y87859D01*
X60309Y87860D01*
X60287Y87927D01*
X60267Y87984D01*
X60267Y87985D01*
X60266Y87986D01*
X60253Y88052D01*
X60241Y88114D01*
X60241Y88116D01*
X60241Y88117D01*
X60236Y88182D01*
X60232Y88247D01*
X60232Y88249D01*
X60232Y88250D01*
X60232Y92500D01*
X60241Y92633D01*
X60266Y92764D01*
X60309Y92890D01*
X60368Y93009D01*
X60442Y93120D01*
X60530Y93220D01*
X60630Y93308D01*
X60741Y93382D01*
X60860Y93441D01*
X60986Y93483D01*
X61069Y93500D01*
X60986Y93517D01*
X60860Y93559D01*
X60741Y93618D01*
X60630Y93692D01*
X60530Y93780D01*
X60442Y93880D01*
X60368Y93991D01*
X60309Y94110D01*
X60266Y94236D01*
X60241Y94367D01*
X60232Y94500D01*
X60232Y98750D01*
X60232Y98751D01*
X60232Y98753D01*
X60236Y98818D01*
X60241Y98883D01*
X60241Y98884D01*
X60241Y98886D01*
X60253Y98946D01*
X60266Y99014D01*
X60267Y99015D01*
X60267Y99017D01*
X60286Y99071D01*
X60309Y99140D01*
X60310Y99141D01*
X60311Y99142D01*
X60337Y99195D01*
X60368Y99259D01*
X60369Y99260D01*
X60370Y99262D01*
X60404Y99313D01*
X60442Y99370D01*
X60443Y99371D01*
X60444Y99372D01*
X60486Y99420D01*
X60530Y99470D01*
X60531Y99471D01*
X60532Y99472D01*
X60581Y99514D01*
X60630Y99558D01*
X60631Y99559D01*
X60633Y99560D01*
X60684Y99594D01*
X60741Y99632D01*
X60742Y99633D01*
X60744Y99633D01*
X60798Y99660D01*
X60860Y99691D01*
X60862Y99691D01*
X60863Y99692D01*
X61577Y99985D01*
X61608Y99995D01*
X61638Y100008D01*
X61671Y100017D01*
X61703Y100027D01*
X61735Y100034D01*
X61767Y100042D01*
X63281Y100341D01*
X63313Y100345D01*
X63345Y100351D01*
X63379Y100354D01*
X63413Y100358D01*
X63446Y100358D01*
X63478Y100360D01*
X65022Y100360D01*
X65054Y100358D01*
D02*
G37*
D14*
X202499Y12750D02*
D03*
X197500D02*
D03*
X192499D02*
D03*
X187500D02*
D03*
X182499D02*
D03*
X177500D02*
D03*
X172499D02*
D03*
X167500D02*
D03*
X162499D02*
D03*
X157500D02*
D03*
X152499D02*
D03*
X147501D02*
D03*
X142499D02*
D03*
X137501D02*
D03*
X132499D02*
D03*
X127501D02*
D03*
X122499D02*
D03*
X117501D02*
D03*
X112499D02*
D03*
X107501D02*
D03*
X102499D02*
D03*
X97501D02*
D03*
X92499D02*
D03*
X87501D02*
D03*
X82499D02*
D03*
X77501D02*
D03*
X72499D02*
D03*
X67501D02*
D03*
X62499D02*
D03*
X37501D02*
D03*
X32499D02*
D03*
X27501D02*
D03*
X22499D02*
D03*
X17501D02*
D03*
D15*
X132000Y10000D02*
D03*
D16*
X26748D02*
D03*
D17*
X53750Y121500D02*
D03*
Y115500D02*
D03*
X75750Y90500D02*
D03*
Y96500D02*
D03*
X64250Y90500D02*
D03*
Y96500D02*
D03*
D18*
X58000Y235250D02*
D03*
X162000D02*
D03*
D19*
X165000Y180250D02*
D03*
X55000D02*
D03*
D20*
X83000Y190250D02*
D03*
X101000D02*
D03*
X119000D02*
D03*
X137000D02*
D03*
X132500Y182250D02*
D03*
X123500D02*
D03*
X87500D02*
D03*
X96500D02*
D03*
X105500D02*
D03*
X114500D02*
D03*
X83000Y156750D02*
D03*
X101000D02*
D03*
X119000D02*
D03*
X137000D02*
D03*
X132500Y148750D02*
D03*
X123500D02*
D03*
X87500D02*
D03*
X96500D02*
D03*
X105500D02*
D03*
X114500D02*
D03*
D21*
X62500D02*
D03*
X157500D02*
D03*
D22*
X110000Y79600D02*
D03*
Y105000D02*
D03*
M02*
