M48
;Layer_Color=9474304
;FILE_FORMAT=4:4
METRIC,LZ
;TYPE=PLATED
T01F00S00C0.2000
T02F00S00C0.5500
T04F00S00C0.9000
;TYPE=NON_PLATED
T06F00S00C1.0000
%
T01
X0000625Y00048
Y00068
X00025Y000875
Y0009875
Y0010975
X0002Y00142
Y00162
Y00182
Y00202
Y00222
Y00242
X000395Y0014025
X0004575Y0013725
X0005225
X000585Y0014025
X0006725Y0015675
X00101Y0013975
X001015Y0012475
X00093Y0010775
X000865
X000815Y001145
X00082Y000705
X00082096Y00061596
X000775Y00057
Y0004825
X000505Y00048
Y00068
X00062501Y00029327
X00092501
X00107499
X00122501
X0012675Y00036
X0013325
X00137502Y00029327
X00152501
X00182501
X00185Y000565
X0021325Y0005725
X00143Y000545
X0014825Y000755
X001375Y000875
X0010375Y0009225
X0011775Y0013975
X00119Y0017525
X00156Y001365
X002Y00142
Y00162
Y00182
Y00202
Y00222
Y00242
Y00262
Y00282
Y00302
Y00622
Y00642
Y00662
Y00682
Y00702
X001Y00742
X0008
X0006
X0004
X0002Y00742
Y00762
Y00782
Y00722
Y00702
X00092499Y00782499
X0011Y0077525
X00127501Y00782499
T02
X000875Y0014875
X000965
X001055
X001145
X001235
X001325
X00137Y0015675
X00119
X00101
X00083
X000875Y0018225
X000965
X001055
X001145
X001235
X001325
X00137Y0019025
X00119
X00101
X00083
T04
X0011Y000796
Y00105
T06
X000625Y0014875
X001575
M30
