M48
;Layer_Color=9474304
;FILE_FORMAT=4:4
METRIC,LZ
;TYPE=PLATED
T01F00S00C0.2000
T02F00S00C0.7000
T03F00S00C2.3000
%
T01
X00022Y000365
X000075Y00053
X0001925Y000745
X0004075Y000525
X00057Y0006775
X00066501Y0006725
X00073
X000775Y000625
X0007725Y0004475
X0010725Y00045
X001115Y0003625
X00118
X0012225Y00045
X0011825Y0006
X0013325
X001495Y0006975
X001645
X00156Y0004125
X00141
X0017425Y0004075
X0018925
X0020525Y000455
X00211Y0006175
X002105Y000785
X0019275Y000595
X0012375Y0008075
X000985Y000835
X0009325Y00067
X0009775Y0015575
X00094Y00171
X0007825Y0018025
X00080417Y0021
X00140833
X0020125
X00170833Y00245
X00110417
X0005
X0002Y0021
X0001975Y001605
Y0013275
X0002Y00285
X00080417
X00140833
X0020125
X00170833Y0032
X00140833Y0036
X00080417
X0002
X0005Y00395
X00110417
X00170833
X0005Y0032
X0002Y00435
X00080417
X00140833
X00170833Y0047
X00110417
X0005
X0002Y0051
X00080417
X00140833
X00170833Y00545
X00110417
X0005
X00080417Y00585
X00140833
X0005Y0062
Y00695
X0002Y00735
X00080417
X00092499Y00782499
X0011Y0077525
X00127501Y00782499
X0017125Y0077
X0020125Y00735
X00140833
X0005Y0077
T02
X0007Y00093
X00075Y00108
X0007Y00125
X00075Y0014
X001
X0012
X0013Y00125
X0015
X00145Y0014
Y00108
X0015Y00093
X0013
X0011
X0009
X001Y00108
X0012
X0011Y00125
X0009
T03
X000443Y001032
Y0016
X001757
Y001032
M30
